<svg width="217" height="75" viewBox="0 0 217 75" fill="none" xmlns="http://www.w3.org/2000/svg">
<g clip-path="url(#clip0_2521_568)">
<path d="M70.6928 41.985C70.1473 41.7162 69.6727 41.3229 69.3072 40.837C68.9457 40.3432 68.7515 39.7467 68.753 39.1347C68.278 39.5108 67.7832 39.8869 67.3279 40.2828C66.8491 40.6789 66.3395 41.0364 65.8039 41.3516C65.2224 41.6797 64.6047 41.9388 63.9631 42.1235C63.2123 42.3488 62.431 42.4556 61.6473 42.4402C60.8901 42.448 60.1382 42.3137 59.4305 42.0443C58.811 41.7925 58.2464 41.4228 57.7679 40.9557C57.3042 40.4822 56.9466 39.9155 56.7188 39.2931C56.4548 38.646 56.3203 37.9533 56.3229 37.2544C56.3097 36.4124 56.4926 35.5789 56.8574 34.8198C57.2269 34.0975 57.723 33.4472 58.3221 32.8999C58.9763 32.3203 59.6933 31.8158 60.4597 31.3956C61.3011 30.9435 62.1743 30.5532 63.0724 30.2279C63.9829 29.8716 64.933 29.5747 65.9028 29.2976L68.753 28.5454V27.2391C68.7689 26.4361 68.7026 25.6336 68.5551 24.8441C68.4597 24.277 68.2437 23.7371 67.9217 23.2606C67.6495 22.877 67.2711 22.5812 66.8331 22.4096C66.3306 22.2342 65.8016 22.1472 65.2694 22.1522C64.7084 22.1458 64.1532 22.2676 63.6464 22.5085C63.1623 22.7339 62.7256 23.0496 62.3599 23.4388C61.9791 23.83 61.6708 24.2857 61.4494 24.7847C61.2118 25.3191 61.1129 25.8734 60.1826 26.3088C59.2523 26.7442 57.1938 26.4473 57.1938 26.4473C57.1938 26.4473 57.6095 24.7452 58.1043 24.0524C58.6216 23.3316 59.2819 22.7251 60.044 22.271C60.856 21.7757 61.7363 21.4022 62.6568 21.1626C63.6584 20.9009 64.6894 20.7679 65.7247 20.7667C66.8787 20.7452 68.0303 20.8783 69.1489 21.1626C69.9557 21.3769 70.7102 21.7541 71.3657 22.271C71.9089 22.7362 72.3188 23.3373 72.5534 24.0128C72.798 24.7464 72.9184 25.5157 72.9097 26.289V39.1347C72.8994 39.7481 73.0944 40.3472 73.4639 40.837C73.8267 41.3176 74.2936 41.7101 74.8294 41.985H70.6928ZM68.753 29.8716C68.1592 30.0431 67.5457 30.2608 66.9123 30.5247C66.2789 30.7623 65.6455 31.0394 65.0319 31.3362C64.4183 31.6331 63.8443 31.9696 63.2901 32.3259C62.7625 32.6554 62.2715 33.0402 61.8254 33.4739C61.4324 33.8428 61.0986 34.2701 60.8358 34.7407C60.5875 35.1672 60.4577 35.6524 60.4597 36.146C60.4599 36.6472 60.5539 37.144 60.7368 37.6107C60.9237 38.0436 61.1775 38.4443 61.489 38.7983C61.7925 39.1403 62.163 39.4166 62.5776 39.6098C62.971 39.8058 63.4048 39.9074 63.8443 39.9067C64.286 39.9086 64.7257 39.8486 65.1507 39.7286C65.5752 39.6049 65.9863 39.4392 66.3779 39.2337C66.7867 39.0113 67.1832 38.7668 67.5654 38.5014C67.9415 38.2441 68.3572 37.9472 68.753 37.6305V29.8716Z" fill="#D9D9D9"/>
<path d="M95.3159 22.2515V24.0131H91.8521C92.2609 24.5991 92.5874 25.2384 92.822 25.9133C93.0599 26.5877 93.187 27.2963 93.1981 28.0113C93.2137 29.0388 92.9686 30.0535 92.4854 30.9605C92.0048 31.8581 91.3283 32.636 90.5061 33.2367C89.585 33.9063 88.5533 34.4088 87.4581 34.7212C86.1887 35.0742 84.8764 35.2474 83.5588 35.2358C83.0158 35.235 82.4733 35.1953 81.9359 35.1171C81.4511 35.0513 80.9738 34.9386 80.5107 34.7806C80.1232 35.1076 79.7832 35.4874 79.5013 35.9088C79.2542 36.3007 79.1174 36.752 79.1054 37.2151C79.1054 37.6308 79.3233 37.9673 79.7785 38.2048C80.2335 38.4423 80.8869 38.5809 81.718 38.6205L89.4176 38.9767C90.4535 39.0042 91.483 39.1503 92.4854 39.4122C93.2018 39.5947 93.8746 39.9176 94.4647 40.3623C94.9261 40.7396 95.2808 41.2309 95.4942 41.7874C95.6998 42.372 95.8004 42.9887 95.791 43.6083C95.8052 44.7573 95.5185 45.8899 94.9596 46.8941C94.3566 47.9113 93.5224 48.7722 92.5253 49.4077C91.3303 50.1544 90.0191 50.6963 88.6458 51.0109C86.9532 51.4096 85.2185 51.6024 83.4797 51.5849C81.9701 51.5996 80.4614 51.5002 78.9669 51.2881C77.8608 51.1257 76.7781 50.8334 75.7405 50.4172C75.01 50.1246 74.3588 49.6635 73.8403 49.0712C73.4299 48.5761 73.2059 47.9528 73.207 47.3097C73.2081 46.7361 73.3511 46.1719 73.6227 45.6667C73.9348 45.1257 74.3067 44.6211 74.7311 44.1625C75.2022 43.676 75.6976 43.2135 76.2155 42.7769L77.819 41.4905C77.4501 41.3781 77.0924 41.2323 76.7499 41.055C76.4387 40.9081 76.1517 40.7145 75.899 40.481C75.6689 40.285 75.4747 40.0506 75.3248 39.7883C75.1863 39.5399 75.1117 39.2611 75.1072 38.9767C75.1203 38.5216 75.2354 38.0752 75.4438 37.6704C75.6901 37.193 76.0035 36.7531 76.3741 36.364C76.7745 35.936 77.2191 35.5512 77.7 35.2161C78.2124 34.8791 78.7641 34.6065 79.343 34.4045C78.0441 33.8823 76.9096 33.021 76.0573 31.9106C75.3764 30.971 74.971 29.8599 74.8871 28.7025C74.803 27.545 75.044 26.3871 75.5823 25.3591C76.0551 24.4345 76.7157 23.6187 77.522 22.9641C78.384 22.2646 79.362 21.722 80.4118 21.3609C81.5625 20.9573 82.7748 20.7564 83.9943 20.7671C84.6106 20.7624 85.2263 20.8088 85.8351 20.9056C86.4085 20.9752 86.9772 21.081 87.5372 21.2223C88.0097 21.3475 88.4728 21.5062 88.9227 21.6973C89.259 21.8341 89.5728 22.021 89.8531 22.2515H95.3159ZM79.1054 41.8269C78.7933 42.0368 78.5192 42.2978 78.2938 42.5989C78.0603 42.8702 77.8608 43.1695 77.7 43.4896C77.5493 43.7955 77.4236 44.1134 77.3239 44.4397C77.247 44.737 77.2072 45.0429 77.2052 45.3502C77.2208 45.8283 77.3949 46.2881 77.7 46.6564C78.0168 47.0919 78.5116 47.4482 79.1647 47.7848C79.9474 48.1439 80.7718 48.403 81.6191 48.5566C82.75 48.7513 83.8959 48.8441 85.0433 48.8338C86.2845 48.8494 87.5241 48.7432 88.7447 48.517C89.7057 48.3362 90.6424 48.0439 91.5356 47.646C92.1946 47.3705 92.788 46.959 93.2773 46.4388C93.693 46.0033 93.8908 45.5678 93.8908 45.1126C93.9011 44.6891 93.7763 44.2731 93.5347 43.9251C93.2767 43.5517 92.9206 43.257 92.5052 43.0739C91.987 42.8463 91.4415 42.6866 90.8823 42.5989C90.1693 42.4812 89.4474 42.4282 88.7249 42.4405C87.7155 42.4405 86.7061 42.4009 85.6966 42.3614L82.8464 42.203L80.5305 42.0051L79.1054 41.8269ZM84.2517 34.1472C84.8363 34.153 85.4133 34.0171 85.934 33.7514C86.4818 33.4949 86.9677 33.1236 87.3591 32.6627C87.786 32.1946 88.1217 31.6509 88.3488 31.0595C88.6065 30.4249 88.7344 29.7452 88.7249 29.0604C88.7341 28.0946 88.594 27.1331 88.3092 26.2102C88.0585 25.3955 87.6773 24.6268 87.1811 23.9339C86.735 23.3172 86.1611 22.8041 85.4985 22.4297C84.8953 22.066 84.2041 21.8743 83.4995 21.8755C82.8734 21.8577 82.2532 22.0008 81.6982 22.2911C81.1869 22.5812 80.7579 22.9967 80.4514 23.4985C80.0981 24.0414 79.8498 24.6456 79.7189 25.2799C79.5576 26.001 79.4779 26.738 79.4815 27.4769C79.4737 28.367 79.5938 29.2535 79.8379 30.1094C80.0354 30.8664 80.3636 31.5831 80.8077 32.2273C81.1961 32.8089 81.7102 33.296 82.312 33.6524C82.9029 33.9868 83.5725 34.1576 84.2517 34.1472Z" fill="#D9D9D9"/>
<path d="M104.242 42.4406C101.306 42.4679 98.4741 41.3537 96.3441 39.3331C95.3723 38.3715 94.5988 37.2282 94.0681 35.9682C93.508 34.6685 93.225 33.2664 93.2367 31.8512C93.2272 30.3723 93.5097 28.9059 94.0681 27.5363C94.5916 26.2257 95.3645 25.0292 96.3441 24.0132C97.3357 22.9976 98.5201 22.1901 99.8277 21.638C101.224 21.0501 102.726 20.7537 104.242 20.7671C105.736 20.7566 107.22 21.0251 108.616 21.5588C109.902 22.0628 111.083 22.8011 112.099 23.736C113.06 24.6613 113.833 25.7636 114.376 26.9821C114.933 28.2409 115.216 29.6038 115.207 30.9803C115.216 32.5042 114.934 34.0159 114.376 35.4338C113.849 36.778 113.077 38.0129 112.099 39.0757C111.106 40.1092 109.923 40.9424 108.616 41.5301C107.239 42.1407 105.748 42.451 104.242 42.4406ZM105.033 40.9165C105.824 40.9202 106.599 40.7006 107.27 40.2831C107.966 39.8478 108.561 39.2672 109.012 38.5809C109.523 37.8222 109.911 36.9871 110.16 36.1068C110.442 35.1425 110.582 34.1424 110.575 33.1378C110.58 31.7164 110.447 30.298 110.179 28.9021C109.964 27.6945 109.535 26.535 108.913 25.4779C108.349 24.4783 107.52 23.6538 106.518 23.095C105.516 22.5363 104.379 22.2649 103.232 22.3109C102.515 22.325 101.817 22.5374 101.213 22.9245C100.533 23.349 99.9472 23.9081 99.4914 24.5674C98.9673 25.3026 98.5661 26.1182 98.3036 26.9821C97.9991 27.9422 97.8453 28.9438 97.8484 29.9511C97.8364 31.3912 98.0027 32.8272 98.3432 34.2264C98.616 35.448 99.0837 36.6176 99.7287 37.6902C100.307 38.6256 101.076 39.4283 101.985 40.0456C102.894 40.6286 103.954 40.9315 105.033 40.9165Z" fill="#D9D9D9"/>
<path d="M126.867 42.4406C125.353 42.4608 123.851 42.1711 122.453 41.5895C121.165 41.0646 119.989 40.2987 118.989 39.3331C117.995 38.3579 117.206 37.1935 116.668 35.9085C116.131 34.6235 115.857 33.244 115.862 31.8512C115.852 30.3723 116.135 28.9059 116.693 27.5363C117.756 24.8852 119.828 22.764 122.453 21.638C123.849 21.0501 125.351 20.7537 126.867 20.7671C128.368 20.7587 129.857 21.0271 131.261 21.5588C132.54 22.0633 133.715 22.8017 134.725 23.736C135.692 24.6559 136.465 25.7595 137.001 26.9821C137.558 28.2409 137.841 29.6038 137.832 30.9803C137.841 32.5042 137.559 34.0159 137.001 35.4338C136.481 36.7819 135.709 38.0181 134.725 39.0757C133.738 40.1086 132.562 40.9419 131.261 41.5301C129.876 42.1388 128.379 42.449 126.867 42.4406ZM127.658 40.9165C128.449 40.9202 129.224 40.7007 129.895 40.2831C130.597 39.8486 131.198 39.2681 131.656 38.5809C132.162 37.8213 132.542 36.9861 132.785 36.1068C133.066 35.1425 133.207 34.1424 133.2 33.1378C133.205 31.7164 133.072 30.298 132.805 28.9021C132.586 27.6982 132.164 26.5403 131.557 25.4779C130.992 24.4752 130.161 23.6487 129.154 23.0897C128.148 22.5308 127.007 22.2612 125.857 22.3109C125.14 22.325 124.442 22.5374 123.838 22.9245C123.158 23.349 122.572 23.9081 122.116 24.5674C121.592 25.3026 121.191 26.1182 120.929 26.9821C120.63 27.9432 120.484 28.9448 120.493 29.9511C120.485 31.3898 120.644 32.8247 120.968 34.2264C121.247 35.4491 121.722 36.6187 122.373 37.6902C122.94 38.6342 123.711 39.439 124.63 40.0456C125.532 40.626 126.585 40.9288 127.658 40.9165Z" fill="#D9D9D9"/>
<path d="M141.692 20.7672H142.86V24.9831C143.97 23.7061 145.297 22.6341 146.779 21.8162C148.054 21.1408 149.473 20.7811 150.915 20.7672C151.625 20.7689 152.323 20.9385 152.954 21.262C153.592 21.5958 154.157 22.0533 154.617 22.6079C155.108 23.199 155.484 23.8771 155.725 24.607C156.006 25.3947 156.146 26.2253 156.141 27.0614V41.9854H152.004V27.7739C152.015 27.1585 151.935 26.5449 151.767 25.953C151.63 25.4738 151.394 25.0288 151.074 24.6466C150.79 24.2999 150.432 24.0224 150.025 23.8351C149.608 23.6481 149.155 23.5536 148.699 23.558C148.229 23.567 147.763 23.6402 147.313 23.7757C146.798 23.936 146.301 24.1482 145.828 24.4091C145.292 24.6779 144.782 24.9959 144.304 25.3592C143.796 25.7281 143.313 26.1315 142.86 26.5665V39.056C142.86 39.8329 142.551 40.578 142.002 41.1274C141.452 41.6768 140.707 41.9854 139.93 41.9854H138.703V21.935L141.692 20.7672Z" fill="#D9D9D9"/>
<path d="M172.153 33.8685C171.814 33.2116 171.35 32.6268 170.787 32.1465C170.192 31.6395 169.541 31.2013 168.848 30.8402C168.115 30.4641 167.383 30.1078 166.611 29.7912L164.394 28.8213C163.717 28.5385 163.068 28.194 162.454 27.792C161.918 27.4672 161.448 27.0441 161.069 26.5451C160.724 26.0753 160.543 25.5049 160.554 24.922C160.555 24.5455 160.657 24.176 160.851 23.8532C161.056 23.5026 161.333 23.1991 161.663 22.9625C162.041 22.6945 162.463 22.4936 162.91 22.3687C163.399 22.2299 163.906 22.1632 164.414 22.1708C164.947 22.1693 165.474 22.2841 165.958 22.5073C166.442 22.7327 166.879 23.0484 167.244 23.4376C167.625 23.8288 167.933 24.2845 168.155 24.7835C168.392 25.3179 168.492 25.8721 169.422 26.3076C170.352 26.743 172.411 26.4461 172.411 26.4461C172.411 26.4461 171.995 24.7439 171.5 24.0511C170.985 23.3352 170.332 22.7296 169.58 22.2698C168.044 21.3697 166.311 20.86 164.533 20.7853H164.137C163.323 20.8074 162.516 20.9474 161.742 21.2009C160.925 21.4535 160.165 21.8637 159.505 22.4083C158.884 22.9031 158.383 23.5325 158.041 24.2491C157.683 24.9612 157.5 25.7482 157.506 26.5451C157.487 27.343 157.649 28.1349 157.981 28.8609C158.303 29.5083 158.731 30.0971 159.248 30.6027C159.783 31.1126 160.382 31.5517 161.029 31.909C161.683 32.2851 162.375 32.6414 163.068 32.958L165.087 33.9279C165.712 34.2136 166.309 34.5582 166.868 34.9572C167.366 35.2963 167.796 35.7261 168.135 36.2239C168.46 36.7238 168.626 37.3104 168.61 37.9063C168.603 38.3047 168.509 38.6967 168.333 39.0543C168.132 39.4295 167.855 39.7596 167.522 40.0242C167.158 40.3281 166.742 40.5629 166.294 40.717C165.797 40.8858 165.276 40.9727 164.751 40.9743C164.331 40.9705 163.914 40.9241 163.503 40.8357L163.068 40.6972C162.583 40.4633 162.141 40.1488 161.762 39.7669C161.385 39.3651 161.077 38.9036 160.851 38.4012C160.614 37.8865 160.515 37.3125 159.584 36.8771C158.654 36.4416 156.596 36.7386 156.596 36.7386C156.596 36.7386 157.011 38.4407 157.526 39.1335C158.036 39.8538 158.69 40.4604 159.446 40.9149C160.259 41.422 161.147 41.7962 162.078 42.0233C162.93 42.2878 163.819 42.4147 164.711 42.3994H164.751C165.937 42.4161 167.119 42.2492 168.254 41.9045C169.152 41.6295 169.986 41.1787 170.708 40.5784C171.352 40.0367 171.86 39.3522 172.193 38.5793C172.52 37.7955 172.688 36.9545 172.688 36.1052C172.706 35.3133 172.522 34.5298 172.153 33.8289" fill="#D9D9D9"/>
<path d="M158.237 47.4284C155.328 48.4774 152.675 49.4275 148.677 49.4077C138.464 49.3682 127.993 42.104 119.186 47.0721C130.27 45.3304 137.87 52.5349 148.776 51.3475C152.243 50.9839 155.529 49.6225 158.237 47.4284Z" fill="#D9D9D9"/>
<path d="M136.11 51.6627C127.421 52.0389 121.522 50.0991 114.911 47.7635C109.27 46.1405 102.303 45.5072 97.8496 49.3669C102.521 47.6052 107.608 48.2385 111.863 49.4461C115.743 50.6731 126.134 55.4631 136.11 51.6627Z" fill="#D9D9D9"/>
<path d="M55.9276 50.4941C53.117 49.0294 52.8794 47.8815 52.8596 46.1198V45.6645C52.8794 45.6448 52.8794 45.625 52.8794 45.5854V18.8845C52.919 15.5988 48.7229 14.7279 48.7229 14.7279V44.4573V44.6353C48.6971 45.7013 48.2568 46.7152 47.4955 47.4619C46.7342 48.2083 45.7118 48.6288 44.6455 48.6335H43.834V49.2868C47.4957 49.3462 51.3752 50.3952 55.0765 52.4141C73.5831 62.4688 87.5767 63.1617 96.9388 50.6326C96.9388 50.6326 81.916 63.9137 55.9474 50.4941" fill="#D9D9D9"/>
</g>
<defs>
<clipPath id="clip0_2521_568">
<rect width="129" height="45.4147" fill="white" transform="translate(43.834 14.7299)"/>
</clipPath>
</defs>
</svg>
