<svg width="218" height="90" viewBox="0 0 218 90" fill="none" xmlns="http://www.w3.org/2000/svg">
<g clip-path="url(#clip0_2521_493)">
<path d="M100.111 37.4095H117.861V19.6597H100.111V37.4095Z" fill="#D9D9D9"/>
<path d="M111.789 32.2079L109 26.1073L106.211 32.2079H105.34L109 24.2772L112.631 32.2079H111.789Z" fill="white"/>
<path d="M33.4693 54.4328L31.8425 58.0932H31L35.9967 47.025L36.2 47.4898L40.9933 58.0932H40.1508L38.524 54.4328L38.2045 53.7647L35.9967 48.8261L33.7598 53.7647L33.4693 54.4328Z" fill="#D9D9D9"/>
<path d="M47.3852 47.5773C51.7718 47.5773 53.0209 50.5114 53.0209 52.8355C53.0209 55.2757 51.5975 58.0936 47.5304 58.0936H43.7539V47.5773H47.3852ZM44.5673 57.3964H47.4723C49.9707 57.3964 52.1494 55.7986 52.1494 52.8355C52.1494 50.1338 50.2321 48.2455 47.4433 48.2455H44.5673V57.3964Z" fill="#D9D9D9"/>
<path d="M59.9047 47.5773C64.2913 47.5773 65.5405 50.5114 65.5405 52.8355C65.5405 55.2757 64.1461 58.0936 60.05 58.0936H56.2734V47.5773H59.9047ZM57.0868 57.3964H59.9919C62.4902 57.3964 64.669 55.7986 64.669 52.8355C64.669 50.1338 62.7516 48.2455 59.9628 48.2455H57.0868V57.3964Z" fill="#D9D9D9"/>
<path d="M71.5242 47.5773C74.0516 47.5773 74.9521 48.8846 74.9521 50.279C74.9521 51.4991 74.284 52.3416 72.9767 52.8355C73.4706 53.0969 73.8773 53.707 74.3421 54.4332L76.6951 58.0936H75.7365L73.9354 55.1885C72.6862 53.2131 72.3085 53.0388 71.0594 53.0388H69.665V58.0936H68.8516V47.5773H71.5242ZM69.665 52.3707H71.3789C73.2091 52.3707 74.0806 51.5572 74.0806 50.3081C74.0806 49.117 73.2382 48.2455 71.3499 48.2455H69.665V52.3707Z" fill="#D9D9D9"/>
<path d="M84.8311 48.2455H80.0087V52.3707H84.7149V53.0388H80.0087V57.3964H84.9763V58.0936H79.1953V47.5773H84.8311V48.2455Z" fill="#D9D9D9"/>
<path d="M93.8643 48.9994C92.7604 48.3603 92.1793 48.186 91.424 48.186C90.1168 48.186 89.1581 49.0575 89.1581 50.1905C89.1581 53.0084 94.3 51.643 94.3 55.3324C94.3 56.9593 92.9347 58.2084 91.1626 58.2084C90.262 58.2084 89.3324 57.9179 88.3738 57.3079V56.3492C89.5939 57.1917 90.262 57.4531 91.1045 57.4531C92.4118 57.4531 93.3995 56.5526 93.3995 55.3615C93.3995 52.3693 88.2285 53.6766 88.2285 50.2196C88.2285 48.6508 89.6229 47.4307 91.3659 47.4307C92.2084 47.4307 93.0218 47.6341 93.8643 48.0989V48.9994Z" fill="#D9D9D9"/>
<path d="M103.044 48.9994C101.911 48.3603 101.359 48.186 100.604 48.186C99.2965 48.186 98.3088 49.0575 98.3088 50.1905C98.3088 53.0084 103.48 51.643 103.48 55.3324C103.48 56.9593 102.085 58.2084 100.342 58.2084C99.4417 58.2084 98.5121 57.9179 97.5535 57.3079V56.3492C98.7445 57.1917 99.4417 57.4531 100.284 57.4531C101.562 57.4531 102.579 56.5526 102.579 55.3615C102.579 52.3693 97.4082 53.6766 97.4082 50.2196C97.4082 48.6508 98.8026 47.4307 100.517 47.4307C101.359 47.4307 102.201 47.6341 103.044 48.0989V48.9994Z" fill="#D9D9D9"/>
<path d="M113.066 58.0645V47.5773H116.93C118.325 47.5773 119.37 47.8097 120.068 48.2455C120.765 48.7103 121.113 49.3785 121.113 50.279C121.113 50.7438 120.997 51.1505 120.765 51.4991C120.532 51.8477 120.184 52.1092 119.719 52.3126C120.445 52.545 120.997 52.8936 121.375 53.3584C121.723 53.7941 121.898 54.3751 121.898 55.0723C121.898 56.0601 121.549 56.8154 120.881 57.3092C120.184 57.8321 119.138 58.0645 117.744 58.0645H113.066ZM117.075 51.7315C117.54 51.7315 117.889 51.6444 118.121 51.4701C118.354 51.2667 118.47 51.0053 118.47 50.6276C118.47 50.2209 118.354 49.9304 118.121 49.7271C117.889 49.5237 117.54 49.4366 117.075 49.4366H115.71V51.7315H117.075ZM115.71 56.1472H117.221C117.918 56.1472 118.412 56.0601 118.702 55.8567C118.964 55.6824 119.138 55.3628 119.138 54.9271C119.138 54.4623 118.964 54.1427 118.673 53.9103C118.354 53.707 117.86 53.5908 117.221 53.5908H115.71V56.1472Z" fill="#D9D9D9"/>
<path d="M129.248 58.0645V47.5773H136.278V49.5237H131.892V51.6444H136.075V53.5908H131.892V56.1182H136.394V58.0645H129.248Z" fill="#D9D9D9"/>
<path d="M142.553 58.0645L147.143 47.5773H150.164L154.26 58.0645H151.471L150.716 56.031H146.184L145.342 58.0645H142.553ZM146.939 54.2299H150.048L148.566 50.25L146.939 54.2299Z" fill="#D9D9D9"/>
<path d="M169.714 57.1904C169.075 57.539 168.436 57.8296 167.768 58.0039C167.1 58.1782 166.403 58.2653 165.676 58.2653C164.863 58.2653 164.108 58.1201 163.41 57.8877C162.742 57.6262 162.132 57.2776 161.609 56.7837C161.086 56.2608 160.68 55.6798 160.418 55.0117C160.128 54.3435 159.982 53.6172 159.982 52.8329C159.982 51.2061 160.534 49.8988 161.609 48.882C162.713 47.8943 164.137 47.4005 165.938 47.4005C166.577 47.4005 167.187 47.4586 167.797 47.6038C168.407 47.7491 169.017 47.9524 169.598 48.2429V50.7122C169.017 50.3345 168.436 50.044 167.855 49.8697C167.274 49.6954 166.693 49.5792 166.112 49.5792C165.037 49.5792 164.224 49.8697 163.614 50.4507C163.004 51.0318 162.684 51.8161 162.684 52.8329C162.684 53.8206 162.975 54.605 163.556 55.186C164.137 55.767 164.921 56.0575 165.909 56.0575C166.548 56.0575 167.158 55.9413 167.797 55.7379C168.436 55.5055 169.075 55.186 169.714 54.7502V57.1904Z" fill="#D9D9D9"/>
<path d="M177.064 58.0645V47.5773H179.679V51.7896H184.356V47.5773H187V58.0645H184.356V53.8232H179.679V58.0645H177.064Z" fill="#D9D9D9"/>
<path d="M73.2383 64.6572H75.5042C75.9981 64.6572 76.3757 64.8025 76.6953 65.093C76.9858 65.3835 77.1601 65.703 77.1601 66.1097C77.1601 66.6908 76.8696 67.0975 76.2886 67.3589C76.521 67.4751 76.7824 67.7947 77.0148 68.2885C77.2182 68.8114 77.4506 69.2762 77.6539 69.7411H76.2886C76.2014 69.5667 76.0562 69.2472 75.8528 68.7824C75.6495 68.3176 75.4752 67.998 75.3299 67.8818C75.1847 67.7366 75.0394 67.6785 74.8651 67.6785H74.4874V69.7411H73.2383V64.6572ZM74.4874 65.5868V66.7489H75.1556C75.388 66.7489 75.5333 66.6908 75.6785 66.6036C75.7947 66.4874 75.8528 66.3422 75.8528 66.1678C75.8528 65.7902 75.6204 65.5868 75.1265 65.5868H74.4874Z" fill="#D9D9D9"/>
<path d="M84.6559 68.8114V69.7411H80.9375V64.6572H84.5978V65.5868H82.1867V66.6617H84.4816V67.5913H82.1867V68.8114H84.6559Z" fill="#D9D9D9"/>
<path d="M91.686 64.9784V65.9661C91.0178 65.6756 90.4949 65.5304 90.0882 65.5304C89.8558 65.5304 89.6815 65.5594 89.5653 65.6466C89.4201 65.7047 89.362 65.8209 89.362 65.9371C89.362 66.0242 89.391 66.1404 89.5072 66.2276C89.5944 66.3147 89.8268 66.4309 90.2044 66.5471C90.5821 66.6924 90.8726 66.8086 91.105 66.9539C91.3083 67.0701 91.5117 67.2153 91.686 67.4477C91.8312 67.6511 91.9184 67.9416 91.9184 68.2611C91.9184 68.7259 91.7441 69.1036 91.3955 69.365C91.0178 69.6555 90.553 69.8008 89.972 69.8008C89.3619 69.8008 88.7519 69.6265 88.1709 69.3069V68.203C88.4904 68.4354 88.81 68.6097 89.0714 68.6969C89.3039 68.8131 89.5944 68.8712 89.8849 68.8712C90.3787 68.8712 90.6111 68.6969 90.6111 68.4064C90.6111 68.2902 90.5821 68.203 90.4659 68.0868C90.3787 67.9997 90.1463 67.8835 89.7687 67.7673C89.391 67.622 89.1005 67.5058 88.8681 67.3896C88.6357 67.2444 88.4614 67.0991 88.2871 66.8667C88.1418 66.6633 88.0547 66.3728 88.0547 66.0533C88.0547 65.6175 88.229 65.2689 88.5776 65.0075C88.9262 64.746 89.391 64.6008 89.972 64.6008C90.524 64.6008 91.105 64.717 91.686 64.9784Z" fill="#D9D9D9"/>
<path d="M96.6828 69.7411H95.4336V64.6572H96.6828V69.7411Z" fill="#D9D9D9"/>
<path d="M100.518 64.6572H102.725C103.597 64.6572 104.265 64.8896 104.788 65.3835C105.282 65.8483 105.514 66.4584 105.514 67.2137C105.514 67.998 105.282 68.6081 104.759 69.0438C104.265 69.5086 103.539 69.7411 102.609 69.7411H100.518V64.6572ZM101.767 65.5868V68.8114H102.58C103.132 68.8114 103.539 68.6662 103.8 68.3466C104.091 68.0561 104.236 67.6785 104.236 67.1846C104.236 66.6908 104.091 66.3131 103.8 66.0226C103.51 65.7321 103.103 65.5868 102.58 65.5868H101.767Z" fill="#D9D9D9"/>
<path d="M112.836 68.8114V69.7411H109.117V64.6572H112.807V65.5868H110.395V66.6617H112.69V67.5913H110.395V68.8114H112.836Z" fill="#D9D9D9"/>
<path d="M121.58 64.6572V69.7411H120.505L117.745 66.4874V69.7411H116.467V64.6572H117.629L120.33 67.7656V64.6572H121.58Z" fill="#D9D9D9"/>
<path d="M130.091 68.174V69.2779C129.452 69.6265 128.784 69.8008 128.086 69.8008C127.186 69.8008 126.489 69.5393 125.966 69.0455C125.414 68.5516 125.152 67.9416 125.152 67.2153C125.152 66.489 125.443 65.879 125.995 65.3561C126.547 64.8622 127.302 64.6008 128.203 64.6008C128.9 64.6008 129.51 64.746 130.004 65.0365V66.1695C129.423 65.8209 128.842 65.6466 128.29 65.6466C127.738 65.6466 127.302 65.7918 126.953 66.0823C126.634 66.3728 126.46 66.7505 126.46 67.1863C126.46 67.6511 126.634 67.9997 126.953 68.2902C127.302 68.5807 127.709 68.755 128.261 68.755C128.522 68.755 128.755 68.6969 128.987 68.6388C129.248 68.5807 129.597 68.4064 130.091 68.174Z" fill="#D9D9D9"/>
<path d="M137.468 68.8114V69.7411H133.75V64.6572H137.41V65.5868H134.999V66.6617H137.294V67.5913H134.999V68.8114H137.468Z" fill="#D9D9D9"/>
<path d="M144.528 64.9784V65.9661C143.86 65.6756 143.308 65.5304 142.93 65.5304C142.698 65.5304 142.523 65.5594 142.378 65.6466C142.233 65.7047 142.175 65.8209 142.175 65.9371C142.175 66.0242 142.233 66.1404 142.32 66.2276C142.407 66.3147 142.639 66.4309 143.017 66.5471C143.395 66.6924 143.685 66.8086 143.918 66.9539C144.15 67.0701 144.353 67.2153 144.499 67.4477C144.673 67.6511 144.731 67.9416 144.731 68.2611C144.731 68.7259 144.557 69.1036 144.208 69.365C143.86 69.6555 143.395 69.8008 142.814 69.8008C142.175 69.8008 141.565 69.6265 140.984 69.3069V68.203C141.332 68.4354 141.623 68.6097 141.884 68.6969C142.146 68.8131 142.407 68.8712 142.698 68.8712C143.191 68.8712 143.453 68.6969 143.453 68.4064C143.453 68.2902 143.395 68.203 143.308 68.0868C143.191 67.9997 142.959 67.8835 142.581 67.7673C142.204 67.622 141.913 67.5058 141.71 67.3896C141.477 67.2444 141.274 67.0991 141.129 66.8667C140.955 66.6633 140.896 66.3728 140.896 66.0533C140.896 65.6175 141.071 65.2689 141.419 65.0075C141.768 64.746 142.233 64.6008 142.814 64.6008C143.337 64.6008 143.918 64.717 144.528 64.9784Z" fill="#D9D9D9"/>
</g>
<defs>
<clipPath id="clip0_2521_493">
<rect width="156" height="50.1628" fill="white" transform="translate(31 19.6486)"/>
</clipPath>
</defs>
</svg>
