<svg width="218" height="75" viewBox="0 0 218 75" fill="none" xmlns="http://www.w3.org/2000/svg">
<path d="M71.046 43.6263C71.046 43.7744 71.0337 43.9225 71.009 44.0706C70.9843 44.2187 70.9349 44.3544 70.8609 44.4778C70.54 45.243 70.034 45.9958 69.3429 46.7362C68.6765 47.452 67.9854 48.0444 67.2696 48.5134C66.1589 49.2538 64.9742 49.7722 63.7154 50.0683C62.4813 50.3645 61.2102 50.5126 59.902 50.5126C57.261 50.5126 54.9779 49.9573 53.0527 48.8466C51.1522 47.7112 49.6959 46.1439 48.684 44.1446C47.672 42.1454 47.166 39.8499 47.166 37.2583C47.166 35.3331 47.4499 33.5313 48.0175 31.8529C48.5852 30.1745 49.4121 28.7059 50.4981 27.4471C51.5841 26.1637 52.917 25.164 54.4966 24.4483C56.0763 23.7078 57.8781 23.3376 59.902 23.3376C60.8893 23.3376 61.8272 23.498 62.7158 23.8189C63.629 24.1151 64.5423 24.4236 65.4555 24.7445C65.9738 24.9172 66.5045 25.053 67.0475 25.1517C67.6152 25.2504 68.1705 25.3245 68.7135 25.3738C68.7382 25.9169 68.7752 26.4599 68.8246 27.0029C68.874 27.5212 68.9357 28.0519 69.0097 28.5949C69.0838 29.0885 69.1702 29.5945 69.2689 30.1128C69.3923 30.6065 69.454 31.1124 69.454 31.6308C69.454 32.0257 69.3676 32.3466 69.1948 32.5934C69.0467 32.8402 68.7506 32.9636 68.3063 32.9636C68.0595 32.9636 67.8743 32.8279 67.7509 32.5564C67.6522 32.3095 67.5658 32.0504 67.4918 31.7789C67.4424 31.4827 67.3807 31.2112 67.3067 30.9644C67.1092 30.1498 66.776 29.2983 66.307 28.4098C65.8381 27.4965 65.2704 26.7684 64.604 26.2254C64.3078 25.9539 63.8635 25.6824 63.2711 25.4109C62.7034 25.1394 62.1111 24.9172 61.494 24.7445C60.9016 24.5717 60.3957 24.4853 59.9761 24.4853C59.2356 24.4853 58.4828 24.621 57.7176 24.8925C56.9525 25.164 56.2737 25.5219 55.6814 25.9662C54.5707 26.8301 53.6821 27.8791 53.0157 29.1132C52.3493 30.3226 51.868 31.6184 51.5718 33.0006C51.3003 34.3828 51.1645 35.7527 51.1645 37.1102C51.1645 38.5911 51.3373 40.0474 51.6828 41.479C52.0284 42.8858 52.5714 44.157 53.3119 45.2923C54.0523 46.4277 55.0149 47.341 56.1997 48.0321C57.3844 48.6985 58.8283 49.0317 60.5314 49.0317C61.2472 49.0317 62.0494 48.933 62.9379 48.7355C63.8265 48.5134 64.5916 48.2665 65.2334 47.995C65.9985 47.6742 66.7019 47.2669 67.3437 46.7733C67.9854 46.2549 68.5654 45.6749 69.0838 45.0332C69.1331 44.9838 69.2319 44.8357 69.38 44.5889C69.5527 44.3421 69.7255 44.0953 69.8983 43.8484C70.0711 43.6016 70.1821 43.4535 70.2315 43.4042C70.3549 43.2561 70.4907 43.182 70.6387 43.182C70.9102 43.182 71.046 43.3301 71.046 43.6263ZM89.9874 30.0018C89.9874 27.8297 89.4197 26.3488 88.2843 25.559C87.1736 24.7445 85.6063 24.3372 83.5824 24.3372H82.3606C82.1138 24.3372 81.8053 24.3619 81.435 24.4112C81.0895 24.4359 80.7686 24.5223 80.4724 24.6704C80.2009 24.7938 80.0652 25.0283 80.0652 25.3738V35.6663C80.3367 35.765 80.6452 35.8267 80.9907 35.8514C81.3363 35.8761 81.6572 35.8884 81.9534 35.8884C82.9406 35.8884 83.9032 35.8021 84.8412 35.6293C85.8038 35.4565 86.6676 35.1603 87.4328 34.7407C88.2226 34.3211 88.8397 33.7288 89.284 32.9636C89.7529 32.1985 89.9874 31.2112 89.9874 30.0018ZM98.0955 49.9573C98.0955 50.13 97.9227 50.2658 97.5772 50.3645C97.2316 50.4633 96.8244 50.525 96.3554 50.5496C95.8864 50.599 95.4422 50.6237 95.0226 50.6237C94.6276 50.6237 94.3561 50.6237 94.208 50.6237C93.2208 50.6237 92.4309 50.525 91.8386 50.3275C91.2462 50.1054 90.6662 49.55 90.0985 48.6615C88.889 46.7116 87.7166 44.737 86.5813 42.7377C85.4706 40.7385 84.3599 38.7269 83.2492 36.703L80.0652 36.814V48.5504C80.0652 48.9206 80.2133 49.1674 80.5094 49.2909C80.8056 49.4143 81.1018 49.476 81.398 49.476C81.7436 49.476 82.0768 49.4636 82.3976 49.4389C82.7185 49.4143 83.0394 49.4019 83.3602 49.4019C83.533 49.4019 83.6317 49.476 83.6564 49.6241C83.7058 49.7722 83.7305 49.9079 83.7305 50.0313C83.7305 50.2288 83.6688 50.3645 83.5454 50.4386C83.4466 50.4879 83.3109 50.5126 83.1381 50.5126C82.0521 50.5126 80.9537 50.5003 79.843 50.4756C78.7323 50.4262 77.634 50.4015 76.548 50.4015C75.9556 50.4015 75.3632 50.4262 74.7708 50.4756C74.2032 50.5003 73.6231 50.5126 73.0308 50.5126C72.8827 50.5126 72.7839 50.4509 72.7346 50.3275C72.7099 50.1794 72.6975 50.056 72.6975 49.9573C72.6975 49.6364 72.8333 49.476 73.1048 49.476C73.3269 49.476 73.5367 49.4883 73.7342 49.513C73.9563 49.513 74.1661 49.513 74.3636 49.513C74.7338 49.513 75.1287 49.476 75.5483 49.4019C75.9926 49.3032 76.2394 49.0194 76.2888 48.5504C76.3382 47.9333 76.3505 47.2176 76.3258 46.403C76.3258 45.5638 76.3258 44.8357 76.3258 44.2187C76.3258 43.4042 76.3258 42.5896 76.3258 41.7751C76.3258 40.9359 76.3258 40.1091 76.3258 39.2946C76.3258 37.5915 76.3258 35.8884 76.3258 34.1854C76.3505 32.4823 76.3628 30.7792 76.3628 29.0762C76.3628 28.4591 76.3628 27.8421 76.3628 27.225C76.3628 26.5833 76.3382 25.9662 76.2888 25.3738C76.2394 24.8802 75.9803 24.6087 75.5113 24.5593C75.067 24.4853 74.6598 24.4483 74.2895 24.4483C74.1415 24.4483 73.9934 24.4606 73.8453 24.4853C73.6972 24.4853 73.5491 24.4853 73.401 24.4853C73.0308 24.4853 72.8456 24.2755 72.8456 23.8559C72.8456 23.5844 72.969 23.4486 73.2159 23.4486C74.0551 23.4486 74.8819 23.4733 75.6964 23.5227C76.5356 23.572 77.3748 23.5967 78.214 23.5967C79.3741 23.5967 80.5218 23.5474 81.6572 23.4486C82.7925 23.3499 83.9279 23.3005 85.0633 23.3005C86.0012 23.3005 86.9885 23.3993 88.0252 23.5967C89.0865 23.7942 90.0738 24.1151 90.987 24.5593C91.9003 25.0036 92.6407 25.6207 93.2084 26.4105C93.8008 27.1756 94.097 28.1506 94.097 29.3353C94.097 30.8163 93.6774 32.0997 92.8382 33.1857C92.0237 34.2471 90.9623 35.0739 89.6542 35.6663C89.1852 35.8884 88.7039 36.0612 88.2103 36.1846C87.7166 36.2834 87.223 36.3821 86.7294 36.4808C87.8647 38.406 89.0495 40.3065 90.2836 42.1824C91.5424 44.0582 92.8135 45.9094 94.097 47.7359C94.4672 48.2542 94.8498 48.6738 95.2447 48.9947C95.6643 49.2909 96.1826 49.5007 96.7997 49.6241C96.9478 49.6487 97.1946 49.6611 97.5401 49.6611C97.9104 49.6611 98.0955 49.7598 98.0955 49.9573ZM121.755 44.2187C121.755 44.6629 121.718 45.1196 121.643 45.5885C121.569 46.0328 121.508 46.4771 121.458 46.9214C121.384 47.415 121.335 47.921 121.31 48.4393C121.286 48.933 121.212 49.4266 121.088 49.9202C121.063 50.0683 120.989 50.2164 120.866 50.3645C120.767 50.4879 120.632 50.5496 120.459 50.5496C117.818 50.5496 115.177 50.5373 112.536 50.5126C109.895 50.4633 107.254 50.4386 104.613 50.4386C103.823 50.4386 103.021 50.4756 102.206 50.5496C101.416 50.599 100.627 50.6237 99.8368 50.6237C99.7134 50.6237 99.59 50.5867 99.4666 50.5126C99.3679 50.4139 99.3185 50.3028 99.3185 50.1794C99.3185 50.0313 99.3555 49.8956 99.4296 49.7722C99.5036 49.6241 99.627 49.55 99.7998 49.55C100.318 49.55 100.812 49.5253 101.281 49.476C101.75 49.4019 102.132 49.2291 102.428 48.9576C102.749 48.6615 102.91 48.1925 102.91 47.5508V26.2994C102.91 25.7317 102.737 25.3615 102.391 25.1887C102.046 24.9913 101.626 24.8925 101.133 24.8925C100.886 24.8925 100.651 24.9049 100.429 24.9296C100.207 24.9296 99.9849 24.9296 99.7628 24.9296C99.5653 24.9296 99.3925 24.8802 99.2444 24.7815C99.0963 24.6827 99.0223 24.5223 99.0223 24.3002C99.0223 24.1027 99.0593 23.9299 99.1334 23.7818C99.2074 23.6338 99.3679 23.5597 99.6147 23.5597C100.034 23.5597 100.442 23.572 100.836 23.5967C101.256 23.6214 101.663 23.6338 102.058 23.6338C104.551 23.6338 107.044 23.6214 109.537 23.5967C112.03 23.5474 114.51 23.5227 116.979 23.5227C118.114 23.5227 119.237 23.4857 120.348 23.4116C120.446 24.1274 120.57 24.8432 120.718 25.559C120.866 26.2747 120.989 26.9905 121.088 27.7063C121.138 27.8544 121.175 28.0025 121.199 28.1506C121.224 28.274 121.236 28.4098 121.236 28.5578C121.236 28.8047 121.15 28.9774 120.977 29.0762C120.829 29.1749 120.644 29.2243 120.422 29.2243C120.224 29.2243 120.076 29.1872 119.977 29.1132C119.903 29.0145 119.829 28.8664 119.755 28.6689C119.286 27.188 118.657 26.1637 117.867 25.596C117.102 25.0283 115.93 24.7445 114.35 24.7445H106.649V35.8884C107.612 35.8884 108.574 35.8884 109.537 35.8884C110.5 35.8638 111.474 35.8267 112.462 35.7774C113.474 35.728 114.412 35.6416 115.275 35.5182C116.164 35.3701 117.102 35.2097 118.089 35.0369H118.126C118.274 35.0369 118.348 35.0986 118.348 35.222C118.348 35.3948 118.274 35.7033 118.126 36.1476C117.978 36.5919 117.867 36.8881 117.793 37.0362C117.67 37.3323 117.472 37.4804 117.201 37.4804C116.584 37.4804 115.942 37.4434 115.275 37.3694C114.634 37.2706 113.992 37.2213 113.35 37.2213C112.906 37.1966 112.462 37.1966 112.017 37.2213C111.573 37.2213 111.117 37.2213 110.648 37.2213C110.475 37.2213 110.29 37.2213 110.092 37.2213C109.919 37.1966 109.734 37.1843 109.537 37.1843C109.167 37.1843 108.759 37.2213 108.315 37.2953C107.871 37.3447 107.476 37.4928 107.13 37.7396C106.81 37.9617 106.649 38.332 106.649 38.8503V47.7359C106.649 48.5751 106.859 49.0687 107.278 49.2168C107.698 49.3402 108.253 49.4019 108.945 49.4019H111.906C112.597 49.4019 113.363 49.3649 114.202 49.2909C115.066 49.2168 115.905 49.0564 116.719 48.8096C117.534 48.5627 118.2 48.2048 118.719 47.7359C119.286 47.2176 119.681 46.6499 119.903 46.0328C120.15 45.3911 120.434 44.7493 120.755 44.1076C120.878 43.8855 121.076 43.7744 121.347 43.7744C121.619 43.7744 121.755 43.9225 121.755 44.2187ZM143.518 43.5893C143.518 44.9962 143.197 46.1686 142.555 47.1065C141.914 48.0444 141.062 48.7972 140.001 49.3649C138.964 49.9079 137.829 50.3028 136.595 50.5496C135.385 50.7718 134.2 50.8829 133.04 50.8829C131.535 50.8829 130.115 50.6484 128.783 50.1794C128.24 49.982 127.709 49.7722 127.191 49.55C126.672 49.3032 126.129 49.1057 125.562 48.9576C125.463 48.1678 125.29 47.3039 125.043 46.366C124.821 45.4281 124.71 44.5766 124.71 43.8114C124.71 43.4659 124.759 43.2067 124.858 43.0339C124.982 42.8365 125.241 42.7377 125.636 42.7377C125.981 42.7377 126.203 42.8241 126.302 42.9969C126.401 43.145 126.475 43.3548 126.524 43.6263C126.623 43.9718 126.709 44.3174 126.783 44.663C126.857 44.9838 126.944 45.317 127.043 45.6626C127.536 47.1435 128.264 48.1802 129.227 48.7725C130.214 49.3649 131.473 49.6611 133.003 49.6611C134.262 49.6611 135.385 49.4883 136.372 49.1428C137.384 48.7725 138.174 48.1802 138.742 47.3656C139.334 46.5511 139.63 45.4651 139.63 44.1076C139.63 43.0463 139.273 42.096 138.557 41.2568C137.841 40.3929 137.051 39.7142 136.187 39.2205C135.99 39.0971 135.78 38.9861 135.558 38.8873C135.336 38.7886 135.114 38.6899 134.891 38.5911C134.126 38.1962 133.349 37.8013 132.559 37.4064C131.794 37.0115 131.016 36.6289 130.227 36.2587C129.461 35.8638 128.672 35.3701 127.857 34.7777C127.067 34.1607 126.388 33.4573 125.821 32.6674C125.278 31.8776 125.006 31.0137 125.006 30.0758C125.006 28.4961 125.426 27.188 126.265 26.1513C127.104 25.1147 128.178 24.3372 129.486 23.8189C130.794 23.3005 132.152 23.0414 133.559 23.0414C134.571 23.0414 135.472 23.1648 136.261 23.4116C137.076 23.6584 137.878 23.9176 138.668 24.1891C139.458 24.4359 140.322 24.6087 141.259 24.7074C141.334 25.4479 141.408 26.1884 141.482 26.9288C141.556 27.6693 141.667 28.4098 141.815 29.1502C141.84 29.2489 141.852 29.3477 141.852 29.4464C141.877 29.5451 141.889 29.6439 141.889 29.7426C141.889 30.1375 141.753 30.3967 141.482 30.5201C141.235 30.6188 140.951 30.6682 140.63 30.6682C140.309 30.6682 140.136 30.6065 140.112 30.4831C140.087 30.3596 140.05 30.1745 140.001 29.9277C139.68 27.9531 139.001 26.4722 137.964 25.4849C136.928 24.4729 135.373 23.967 133.299 23.967C131.769 23.967 130.572 24.3742 129.708 25.1887C128.869 26.0032 128.449 27.188 128.449 28.743C128.449 29.7796 128.721 30.6558 129.264 31.3716C129.807 32.0874 130.523 32.7168 131.411 33.2598C132.325 33.7781 133.312 34.2718 134.373 34.7407C135.459 35.2097 136.533 35.691 137.594 36.1846C138.656 36.6783 139.63 37.2583 140.519 37.9247C141.432 38.5665 142.16 39.3439 142.703 40.2572C143.246 41.1704 143.518 42.2811 143.518 43.5893ZM170.165 30.372C170.165 30.7175 170.017 30.8903 169.721 30.8903C169.622 30.8903 169.536 30.8903 169.462 30.8903C169.388 30.8656 169.326 30.8039 169.277 30.7052C169.252 30.6558 169.215 30.5448 169.166 30.372C169.141 30.1745 169.129 30.0388 169.129 29.9647C169.005 29.2243 168.82 28.4098 168.573 27.5212C168.351 26.608 167.993 25.8675 167.5 25.2998C167.253 25.0036 166.833 24.8062 166.241 24.7074C165.649 24.6087 165.044 24.5593 164.427 24.5593C163.81 24.5593 163.328 24.5593 162.983 24.5593C162.613 24.5593 162.156 24.5593 161.613 24.5593C161.095 24.5593 160.626 24.6581 160.206 24.8555C159.811 25.053 159.614 25.4479 159.614 26.0403C159.614 29.7673 159.626 33.5066 159.651 37.2583C159.7 40.9853 159.725 44.7247 159.725 48.4763C159.725 48.7972 159.861 49.044 160.132 49.2168C160.404 49.3649 160.712 49.4636 161.058 49.513C161.403 49.5624 161.687 49.587 161.909 49.587C162.107 49.587 162.279 49.587 162.428 49.587C162.6 49.5624 162.773 49.55 162.946 49.55C163.193 49.55 163.316 49.6611 163.316 49.8832C163.316 49.982 163.316 50.13 163.316 50.3275C163.316 50.5003 163.23 50.5867 163.057 50.5867C162.168 50.5867 161.28 50.5743 160.391 50.5496C159.527 50.5003 158.651 50.4756 157.763 50.4756C156.578 50.4756 155.368 50.5126 154.134 50.5867C153.863 50.5867 153.579 50.599 153.283 50.6237C152.987 50.6484 152.703 50.6607 152.431 50.6607C152.209 50.6607 152.098 50.525 152.098 50.2535C152.098 49.9573 152.135 49.7722 152.209 49.6981C152.283 49.6241 152.456 49.587 152.727 49.587C152.777 49.587 152.826 49.5994 152.876 49.6241C152.95 49.6241 152.999 49.6241 153.024 49.6241C153.295 49.6241 153.641 49.5994 154.06 49.55C154.48 49.5007 154.85 49.4019 155.171 49.2538C155.517 49.0811 155.689 48.8219 155.689 48.4763C155.714 46.5758 155.726 44.6753 155.726 42.7748C155.751 40.8742 155.763 38.9737 155.763 37.0732C155.763 35.1973 155.751 33.3338 155.726 31.4827C155.702 29.6068 155.689 27.731 155.689 25.8551C155.689 25.559 155.566 25.2875 155.319 25.0406C155.097 24.7938 154.85 24.6581 154.579 24.6334C154.356 24.584 154.122 24.5593 153.875 24.5593C153.653 24.5593 153.419 24.5593 153.172 24.5593H149.877C148.988 24.5593 148.322 24.7815 147.877 25.2258C147.458 25.6454 147.162 26.2007 146.989 26.8918C146.816 27.5582 146.656 28.2493 146.508 28.9651C146.508 29.0145 146.471 29.1872 146.396 29.4834C146.347 29.7549 146.285 30.0264 146.211 30.2979C146.162 30.5448 146.125 30.6805 146.1 30.7052C146.002 30.8286 145.853 30.8903 145.656 30.8903C145.384 30.8903 145.249 30.7546 145.249 30.4831C145.249 30.3843 145.249 30.2609 145.249 30.1128C145.273 29.94 145.298 29.7426 145.323 29.5204C145.372 28.9528 145.409 28.274 145.434 27.4842C145.483 26.6697 145.52 25.9169 145.545 25.2258C145.57 24.9789 145.582 24.7321 145.582 24.4853C145.582 24.2385 145.594 24.0163 145.619 23.8189C145.619 23.4733 145.829 23.3252 146.248 23.3746C148.05 23.5474 149.864 23.6338 151.691 23.6338C153.542 23.6091 155.368 23.5967 157.17 23.5967H160.317C161.329 23.5967 162.341 23.5967 163.353 23.5967C164.39 23.572 165.426 23.5474 166.463 23.5227C166.907 23.498 167.364 23.4857 167.833 23.4857C168.327 23.461 168.808 23.4486 169.277 23.4486C169.598 23.4486 169.783 23.572 169.832 23.8189C169.857 23.8929 169.882 24.1644 169.906 24.6334C169.931 25.0777 169.956 25.596 169.98 26.1884C170.005 26.756 170.017 27.2991 170.017 27.8174C170.042 28.311 170.054 28.6566 170.054 28.854C170.079 29.1009 170.104 29.3477 170.128 29.5945C170.153 29.8413 170.165 30.1005 170.165 30.372Z" fill="#D9D9D9"/>
</svg>
