<svg width="218" height="90" viewBox="0 0 218 90" fill="none" xmlns="http://www.w3.org/2000/svg">
<g clip-path="url(#clip0_2521_421)">
<path d="M204.055 46.8496H13.9453V46.5193H204.055V46.8496Z" fill="#D9D9D9"/>
<path d="M40.1793 31.1034C39.2158 32.122 37.7018 32.9754 35.9399 32.9754C33.4349 32.9754 31.7832 31.1034 31.7832 28.736C31.7832 26.4236 33.4073 24.4967 35.8574 24.4967C37.2338 24.4967 38.8029 25.1023 39.7939 26.0382L41.1153 24.7444C39.849 23.5607 37.8669 22.7624 35.8298 22.7624C32.2236 22.7624 29.7461 25.4602 29.7461 28.736C29.7461 32.0394 32.1961 34.7096 35.9124 34.7096C38.3624 34.7096 40.2619 33.581 41.4731 32.3697L40.1793 31.1034ZM48.5203 34.3793V30.0298H52.5119L54.9344 34.3793H57.1642L54.4664 29.7821C55.953 29.2315 56.944 28.0753 56.944 26.5613C56.944 25.6804 56.6136 24.9096 56.0356 24.304C55.3198 23.5332 54.3013 23.1203 52.7872 23.1203H46.5934V34.3793H48.5203ZM52.7872 24.827C53.3928 24.827 54.026 24.8821 54.549 25.4326C54.8518 25.7354 55.017 26.1208 55.017 26.5613C55.017 27.5248 54.1636 28.3231 53.1451 28.3231H48.5203V24.827H52.7872ZM68.9463 27.6349H64.6244V24.827H71.8368V23.1203H62.6974V34.3793H72.2497V32.645H64.6244V29.3416H68.9463V27.6349ZM83.8391 27.6349H79.5171V24.827H86.7295V23.1203H77.5902V34.3793H87.1425V32.645H79.5171V29.3416H83.8391V27.6349ZM94.4099 23.1203H92.4554V34.3793H94.4099V30.8282L96.6672 28.7085L101.182 34.3793H103.687L98.0712 27.4147L102.668 23.1203H100.273L94.4099 28.681V23.1203ZM122.021 34.3793C123.645 34.3793 124.388 33.9113 124.939 33.3883C125.682 32.6726 125.957 31.8192 125.957 30.9933C125.957 29.6169 125.214 28.4607 123.92 28.1579C124.718 27.8276 125.352 26.8916 125.352 25.8731C125.352 25.1849 125.076 24.5793 124.581 24.0837C124.03 23.5332 123.149 23.1203 121.883 23.1203H115.084V34.3793H122.021ZM122.076 29.3141C122.654 29.3141 123.149 29.5619 123.507 29.9197C123.783 30.2225 123.948 30.5804 123.948 30.9933C123.948 31.4063 123.783 31.8192 123.48 32.122C123.149 32.4799 122.626 32.645 122.076 32.645H117.011V29.3141H122.076ZM121.663 24.827C122.213 24.827 122.626 24.9646 122.929 25.2675C123.177 25.5152 123.342 25.8456 123.342 26.2309C123.342 26.6439 123.149 27.0568 122.874 27.3596C122.544 27.6624 122.131 27.7725 121.663 27.7725H117.011V24.827H121.663ZM138.015 27.6349H133.693V24.827H140.878V23.1203H131.738V34.3793H141.29V32.645H133.693V29.3416H138.015V27.6349ZM145.695 34.3793H147.705L149.053 31.3237H154.421L155.77 34.3793H157.89L152.687 23.1203H150.925L145.695 34.3793ZM151.696 25.4051H151.806L153.733 29.7821H149.742L151.696 25.4051ZM171.847 31.1034C170.883 32.122 169.369 32.9754 167.635 32.9754C165.102 32.9754 163.478 31.1034 163.478 28.736C163.478 26.4236 165.075 24.4967 167.525 24.4967C168.901 24.4967 170.47 25.1023 171.461 26.0382L172.783 24.7444C171.516 23.5607 169.562 22.7624 167.497 22.7624C163.891 22.7624 161.441 25.4602 161.441 28.736C161.441 32.0394 163.891 34.7096 167.58 34.7096C170.03 34.7096 171.929 33.581 173.141 32.3697L171.847 31.1034ZM180.188 34.3793V29.0939H186.299V34.3793H188.226V23.1203H186.299V27.3596H180.188V23.1203H178.261V34.3793H180.188Z" fill="#D9D9D9"/>
<path d="M97.0248 62.0177C96.6669 61.825 96.3365 61.6598 96.0613 61.4671C95.5382 61.1092 95.2079 60.6137 95.2079 60.1458C95.2079 59.5401 95.7585 59.1547 96.6394 59.1547C97.1624 59.1547 97.6304 59.2924 98.0433 59.5677C98.3461 59.7879 98.5939 60.1458 98.704 60.5862L98.9517 61.5222V59.2649L98.759 59.375C98.704 59.4025 98.6489 59.43 98.5939 59.43C98.4287 59.43 98.3186 59.375 98.1809 59.2924C98.0708 59.2098 97.9057 59.1272 97.6854 59.0446C97.3276 58.907 96.9972 58.8519 96.6394 58.8519C95.4832 58.8519 94.2444 59.5126 94.2444 60.7789C94.2444 62.0452 95.4281 62.6508 96.4742 63.1739C96.777 63.3115 97.0798 63.4767 97.3 63.6143C97.713 63.8896 98.2911 64.3576 98.2911 65.0183C98.2911 65.8166 97.6304 66.3671 96.7219 66.3671C95.8135 66.3671 94.6023 65.9542 94.1893 64.743L93.9141 64.0272V66.1194L94.1068 66.0643C94.1068 66.0643 94.2444 66.0093 94.4096 66.0093C94.6298 66.0093 94.7399 66.0919 94.9326 66.202L95.0152 66.2295C95.3731 66.4222 95.9512 66.6975 96.7219 66.6975C98.4562 66.6975 99.4472 65.9267 99.4472 64.6329C99.4472 63.2564 98.1534 62.5958 97.0248 62.0177Z" fill="#D9D9D9"/>
<path d="M107.184 59.1547C107.404 59.5125 107.597 59.8979 107.597 60.3109V63.7244C107.597 64.4676 107.321 65.1283 106.826 65.6238C106.33 66.1193 105.642 66.3946 104.927 66.3946C104.871 66.3946 104.238 66.3671 103.688 65.844C103.165 65.321 102.917 64.5227 102.917 63.4216V58.962H101.32L101.485 59.1822C101.485 59.1822 101.651 59.4024 101.651 59.7328V63.5317C101.651 65.5137 102.862 66.6974 104.927 66.6974C105.725 66.6974 106.468 66.3946 107.019 65.844C107.597 65.2935 107.9 64.5502 107.9 63.7244V60.3109C107.9 59.8979 108.092 59.5125 108.312 59.1547L108.423 58.962H107.074L107.184 59.1547Z" fill="#D9D9D9"/>
<path d="M116.02 61.0817C116.02 60.6963 115.937 60.1182 115.497 59.6502C115.029 59.2097 114.313 58.962 113.377 58.962H110.129L110.267 59.1547C110.267 59.1822 110.432 59.43 110.432 59.7603V65.7339C110.432 66.0643 110.267 66.2845 110.267 66.312L110.129 66.5047H112.001L111.863 66.312C111.863 66.312 111.698 66.0643 111.698 65.7339V63.2289H112.689C112.992 63.2289 113.129 63.394 113.24 63.5592L115.056 66.4497L115.112 66.5047H116.598L114.478 63.1463C115.387 62.871 116.02 62.0451 116.02 61.0817ZM113.24 62.8985H111.698V59.2648H113.267C114.121 59.2648 114.644 59.9805 114.644 61.0817C114.644 62.2378 114.121 62.8985 113.24 62.8985Z" fill="#D9D9D9"/>
<path d="M118.635 58.962L118.772 59.1547C118.772 59.1822 118.938 59.43 118.938 59.7603V65.7339C118.938 65.8165 118.91 65.8716 118.91 65.9541C118.855 66.1744 118.772 66.2845 118.772 66.312L118.635 66.5047H120.507L120.369 66.312C120.369 66.312 120.204 66.0643 120.204 65.7614V62.7609H121.525C121.883 62.7609 122.213 62.926 122.434 63.0362L122.626 63.1463V62.0451L122.434 62.1553C122.158 62.3204 121.911 62.4581 121.525 62.4581H120.204V59.2648H121.993C123.397 59.2648 123.81 60.1182 123.81 60.1182L124.058 60.6687V58.962H118.635Z" fill="#D9D9D9"/>
</g>
<defs>
<clipPath id="clip0_2521_421">
<rect width="190.167" height="43.9351" fill="white" transform="translate(13.916 22.7624)"/>
</clipPath>
</defs>
</svg>
