<svg width="218" height="75" viewBox="0 0 218 75" fill="none" xmlns="http://www.w3.org/2000/svg">
<g clip-path="url(#clip0_2521_536)">
<path d="M40.7659 24.7842H39.4851C37.6302 24.7842 36.0403 25.4466 34.7153 26.7495C33.4125 28.0744 32.75 29.6644 32.75 31.5193V43.3333C32.75 45.2103 33.4125 46.8002 34.7374 48.1251C36.0403 49.4501 37.6302 50.1125 39.4851 50.1125H40.7659C42.5545 50.1125 44.1003 49.4942 45.4031 48.2576V50.1125H47.5009V37.4373H40.258V37.7023V38.0114H45.4031V44.7686C45.4031 46.1598 44.8952 47.3522 43.9236 48.3459C42.9299 49.3396 41.7375 49.8475 40.3463 49.8475H39.9046C38.5135 49.8475 37.321 49.3396 36.3494 48.3459C35.3557 47.3522 34.8699 46.1598 34.8699 44.7686V30.106C34.8699 28.7148 35.3557 27.5224 36.3494 26.5287C37.321 25.535 38.5135 25.0492 39.9046 25.0492H40.3463C41.7375 25.0492 42.9299 25.535 43.9236 26.5287C44.8952 27.5224 45.4031 28.7148 45.4031 30.106V32.1597H47.5009V31.5193C47.5009 29.6644 46.8385 28.0744 45.5135 26.7495C44.2107 25.4466 42.6208 24.7842 40.7659 24.7842Z" fill="#D9D9D9"/>
<path d="M94.8227 24.7839L87.4473 50.1123H87.9772L90.2738 42.2068H99.9016L102.22 50.1123H104.318L96.9426 24.7839H94.8227ZM90.4284 41.6548L95.0877 25.6893L99.7471 41.6548H90.4284Z" fill="#D9D9D9"/>
<path d="M73.933 44.7465V44.2165C73.933 42.3616 73.2706 40.7496 71.9456 39.4468C71.0402 38.5414 70.0024 37.9452 68.832 37.6581C69.3178 37.614 69.8036 37.5698 70.2674 37.4373C70.8636 37.2606 71.4156 37.0398 71.9456 36.7307C72.9614 36.1786 73.8226 35.3395 74.3526 34.3016C74.7942 33.4625 74.9709 32.5571 74.9709 31.6297V31.4972C74.9709 29.6423 74.3305 28.0523 73.0056 26.7495C71.6806 25.4246 70.0907 24.7621 68.2137 24.7621H61.2578V50.0904H63.3556V37.8348H65.3209C68.0371 37.8348 69.2295 38.3648 69.6491 38.6297C69.892 38.8064 70.1128 38.9831 70.3336 39.2039C71.3273 40.1976 71.8131 41.39 71.8131 42.7812V43.4878C71.8573 45.3207 72.4977 46.8885 73.8226 48.1693C75.1255 49.45 76.6933 50.0904 78.5261 50.0904H78.9457V49.8254C77.5324 49.8254 76.3621 49.3175 75.3684 48.3238C74.3747 47.3301 73.933 46.1377 73.933 44.7465ZM66.3146 25.0271C68.1254 25.0271 69.6711 25.6675 70.9519 26.9482C72.2327 28.2069 72.8731 29.7527 72.8731 31.5634V31.5855C72.8731 33.0871 72.5418 34.7874 71.3936 35.8695C71.2169 36.0461 71.0402 36.2007 70.8636 36.3332C70.3336 36.7307 69.2074 37.2827 67.2421 37.2827H63.3556V25.0271H66.3146Z" fill="#D9D9D9"/>
<path d="M128.145 48.8315L117.634 24.7839H115.514V50.046H117.634V25.9764L128.145 50.046H130.243V24.7839H128.145V48.8315Z" fill="#D9D9D9"/>
<path d="M151.487 24.7839H143.471V50.046H151.487C153.341 50.046 154.931 49.3836 156.234 48.0586C157.559 46.7558 158.222 45.1658 158.222 43.2889V31.4969C158.222 29.642 157.559 28.0521 156.234 26.7493C154.931 25.4243 153.341 24.7839 151.487 24.7839ZM156.124 44.7242C156.124 46.1154 155.616 47.3078 154.622 48.3015C153.629 49.2731 152.458 49.781 151.067 49.781H145.591V25.0268H151.067C152.458 25.0268 153.629 25.5347 154.622 26.5284C155.616 27.5221 156.124 28.6925 156.124 30.0837V44.7242Z" fill="#D9D9D9"/>
<path d="M172.443 24.7621V24.7842H170.5V50.0463H171.957H185.251V49.7813V49.4942H172.62V37.7906H182.005V37.5477V37.2827V37.2386H172.62V25.3141H185.251V25.0271V24.7842V24.7621H172.443Z" fill="#D9D9D9"/>
</g>
<defs>
<clipPath id="clip0_2521_536">
<rect width="152.5" height="25.4167" fill="white" transform="translate(32.75 24.7289)"/>
</clipPath>
</defs>
</svg>
