<svg width="217" height="90" viewBox="0 0 217 90" fill="none" xmlns="http://www.w3.org/2000/svg">
<path d="M55.3264 49.3603C55.0592 49.1822 54.5249 48.9151 53.8125 48.9151C52.2096 48.9151 51.6753 49.9837 51.6753 50.6961C51.6753 51.7647 52.2096 52.3881 53.6344 52.9224C55.1483 53.5457 55.9498 54.1691 55.9498 55.5939C55.9498 56.9297 54.9702 58.0872 53.1001 58.0872C52.2987 58.0872 51.4972 57.8201 50.9629 57.4639L51.141 57.1967C51.6753 57.5529 52.3877 57.8202 53.1001 57.8202C54.614 57.8202 55.4154 56.9297 55.4154 55.772C55.4154 54.7034 54.8811 53.9909 53.5454 53.4566C52.0315 52.9223 51.141 52.1209 51.141 50.8742C51.141 49.5384 52.2096 48.5588 53.7235 48.5588C54.5249 48.5588 55.2373 48.8259 55.5045 49.004L55.3264 49.3603Z" fill="#D9D9D9"/>
<path d="M53.1004 58.6216C52.2099 58.6216 51.2304 58.3544 50.696 57.9091L50.3398 57.642L51.0523 56.5734L51.4085 56.8405C51.7647 57.1077 52.388 57.3748 53.1004 57.3748C54.2581 57.3748 54.9705 56.7515 54.9705 55.7719C54.9705 54.9705 54.7033 54.4362 53.3676 53.9018C51.5866 53.2785 50.696 52.2989 50.696 50.9632C50.696 49.3602 51.9428 48.2026 53.7238 48.2026C54.7033 48.2026 55.4158 48.4697 55.772 48.7369L56.1282 49.004L55.4158 50.0726L55.0596 49.7164C54.8815 49.6274 54.4362 49.3602 53.8128 49.3602C52.2099 49.3602 52.1209 50.607 52.1209 50.696C52.1209 51.4084 52.388 51.9427 53.8128 52.477C55.4158 53.1004 56.3953 53.9018 56.3953 55.5938C56.3063 57.1077 55.3267 58.6216 53.1004 58.6216Z" fill="#D9D9D9"/>
<path d="M66.6359 49.093H63.5191V57.9981H63.0738V49.093H59.957V48.7368H66.5468V49.093H66.6359Z" fill="#D9D9D9"/>
<path d="M64.0541 58.4435H62.7184V49.5384H59.6016V48.2917H67.0819V49.5384H64.0541V58.4435Z" fill="#D9D9D9"/>
<path d="M75.8963 57.9981H71.2656V48.7368H75.6291V49.093H71.7109V52.9222H75.451V53.2784H71.7109V57.6419H75.8963V57.9981Z" fill="#D9D9D9"/>
<path d="M76.3415 58.4435H70.8203V48.2917H76.1634V49.5384H72.1561V52.4771H75.8962V53.8129H72.1561V57.1968H76.3415V58.4435Z" fill="#D9D9D9"/>
<path d="M85.8709 57.9981H81.2402V48.7368H81.6855V57.6419H85.8709V57.9981Z" fill="#D9D9D9"/>
<path d="M86.3161 58.4435H80.7949V48.2917H82.1307V57.1968H86.3161V58.4435Z" fill="#D9D9D9"/>
<path d="M95.5779 57.9981H90.9473V48.7368H91.3925V57.6419H95.5779V57.9981Z" fill="#D9D9D9"/>
<path d="M96.0231 58.4435H90.502V48.2917H91.8377V57.1968H96.0231V58.4435Z" fill="#D9D9D9"/>
<path d="M107.155 57.9981H106.709L105.463 54.6141H101.633L100.387 57.9981H99.9414L103.414 48.7368H103.771L107.155 57.9981ZM105.284 54.2579L104.127 50.963C103.86 50.3397 103.771 49.8944 103.592 49.3601C103.414 49.9835 103.325 50.4287 103.058 50.963L101.811 54.2579H105.284Z" fill="#D9D9D9"/>
<path d="M107.778 58.4435H106.442L105.196 55.0596H101.99L100.743 58.4435H99.3184L103.059 48.2917H104.038L107.778 58.4435ZM102.435 53.8129H104.661L103.682 51.1413C103.682 51.0523 103.593 50.8742 103.593 50.7851C103.593 50.8742 103.504 50.9632 103.504 51.0523L102.435 53.8129Z" fill="#D9D9D9"/>
<path d="M127.37 57.998H126.924L126.657 53.4564C126.568 51.8535 126.479 50.2506 126.479 49.271C126.034 50.3396 125.678 51.3192 125.143 52.744L123.006 58.0871H122.739L120.78 52.9221C120.245 51.4082 119.8 50.3396 119.533 49.3601C119.533 50.4287 119.444 52.0316 119.355 53.6345L119.088 57.998H118.643L119.355 48.7367H119.8L121.937 54.436C122.383 55.5936 122.739 56.4841 123.006 57.3747C123.273 56.5732 123.629 55.7717 124.075 54.436L126.301 48.6476H126.835L127.37 57.998Z" fill="#D9D9D9"/>
<path d="M123.361 58.5326H122.471L120.245 52.6552C120.156 52.299 119.977 52.0318 119.888 51.6756C119.888 52.299 119.799 52.9223 119.799 53.6348L119.443 58.4435H118.107L118.82 48.2917H119.977L122.293 54.2581C122.56 54.9705 122.738 55.5048 122.916 56.0391C123.005 55.772 123.094 55.4158 123.272 55.1486L125.944 48.2917H127.191L127.814 58.4435H126.478L126.122 53.0114C126.122 52.4771 126.033 51.9428 126.033 51.4975C125.855 51.9428 125.677 52.388 125.499 52.9223L123.361 58.5326Z" fill="#D9D9D9"/>
<path d="M139.569 57.9981H139.123L137.877 54.6141H134.047L132.801 57.9981H132.355L135.828 48.7368H136.185L139.569 57.9981ZM137.699 54.2579L136.452 50.963C136.185 50.3397 136.096 49.8944 135.918 49.3601C135.739 49.9835 135.65 50.4287 135.383 50.963L134.136 54.2579H137.699Z" fill="#D9D9D9"/>
<path d="M140.192 58.4435H138.857L137.61 55.0596H134.404L133.157 58.4435H131.732L135.473 48.2917H136.452L140.192 58.4435ZM134.76 53.8129H136.987L136.007 51.1413C136.007 51.0523 135.918 50.8742 135.918 50.7851C135.918 50.8742 135.829 50.9632 135.829 51.0523L134.76 53.8129Z" fill="#D9D9D9"/>
<path d="M147.761 53.5455C148.563 53.8127 149.008 54.5251 149.186 55.5046C149.542 57.0185 149.72 57.6419 149.899 57.9981H149.453C149.275 57.7309 149.097 56.9295 148.83 55.6827C148.563 54.347 147.939 53.6346 146.693 53.6346H145.09V57.9981H144.645V48.9149C145.179 48.8258 145.98 48.7368 146.515 48.7368C147.672 48.7368 148.385 49.0039 148.919 49.5382C149.275 49.8944 149.542 50.5178 149.542 51.1411C149.542 52.2988 148.83 53.1003 147.761 53.5455ZM146.604 53.2784C148.118 53.2784 149.097 52.3879 149.097 51.1411C149.097 49.5382 147.85 49.0039 146.426 49.0039C145.802 49.0039 145.268 49.093 145.001 49.182V53.2784C145.09 53.2784 146.604 53.2784 146.604 53.2784Z" fill="#D9D9D9"/>
<path d="M150.612 58.4435H149.187L149.098 58.1764C148.92 57.9092 148.742 57.1968 148.474 55.772C148.207 54.5253 147.762 54.08 146.782 54.08H145.625V58.4435H144.289V48.5588L144.645 48.4698C145.18 48.3807 145.981 48.2917 146.604 48.2917C147.851 48.2917 148.742 48.5588 149.365 49.1822C149.81 49.6275 150.077 50.3399 150.077 51.1413C150.077 52.2099 149.632 53.1004 148.742 53.6348C149.187 54.08 149.543 54.7034 149.721 55.5048C149.988 56.9296 150.166 57.553 150.345 57.9092L150.612 58.4435ZM145.536 52.8333H146.604C147.851 52.8333 148.653 52.1209 148.653 51.1413C148.653 49.9837 147.94 49.4494 146.426 49.4494C146.07 49.4494 145.714 49.4494 145.447 49.5384V52.8333H145.536Z" fill="#D9D9D9"/>
<path d="M155.152 48.7368H155.598V57.9981H155.152V48.7368Z" fill="#D9D9D9"/>
<path d="M156.043 48.2917H154.707V58.4435H156.043V48.2917Z" fill="#D9D9D9"/>
<path d="M165.393 49.3604C165.126 49.1823 164.591 48.9152 163.879 48.9152C162.276 48.9152 161.742 49.9838 161.742 50.6962C161.742 51.7648 162.276 52.3882 163.701 52.9225C165.215 53.5458 166.016 54.1692 166.016 55.594C166.016 56.9298 165.037 58.0874 163.167 58.0874C162.365 58.0874 161.564 57.8203 161.029 57.4641L161.207 57.1079C161.742 57.4641 162.454 57.7312 163.167 57.7312C164.68 57.7312 165.482 56.8407 165.482 55.683C165.482 54.6144 164.948 53.902 163.612 53.3677C162.098 52.8334 161.207 52.032 161.207 50.7852C161.207 49.4495 162.276 48.4699 163.79 48.4699C164.591 48.4699 165.304 48.7371 165.571 48.9152L165.393 49.3604Z" fill="#D9D9D9"/>
<path d="M163.167 58.6216C162.276 58.6216 161.297 58.3544 160.762 57.9091L160.406 57.642L161.119 56.5734L161.475 56.8405C161.831 57.1077 162.454 57.3748 163.167 57.3748C164.324 57.3748 165.037 56.7515 165.037 55.7719C165.037 54.9705 164.77 54.4362 163.434 53.9018C161.653 53.2785 160.762 52.2989 160.762 50.9632C160.762 49.3602 162.009 48.2026 163.79 48.2026C164.77 48.2026 165.482 48.4697 165.838 48.7369L166.195 49.004L165.482 50.1617L165.126 49.8055C164.948 49.7164 164.503 49.4493 163.879 49.4493C162.276 49.4493 162.187 50.696 162.187 50.7851C162.187 51.4975 162.454 52.0318 163.879 52.5661C165.482 53.1894 166.462 53.9909 166.462 55.6829C166.462 57.1077 165.393 58.6216 163.167 58.6216Z" fill="#D9D9D9"/>
<path d="M112.407 22.3778C112.318 22.2888 112.319 22.2888 112.229 22.1997C111.873 21.8435 111.517 21.4873 111.072 21.2202C110.092 20.5078 109.024 19.9735 107.955 19.8844C107.599 19.7954 107.154 19.7954 106.797 19.8844C106.708 19.8844 106.619 19.8844 106.619 19.8844C106.619 19.8844 106.619 19.8844 106.53 19.8844C106.352 19.8844 106.263 19.9735 106.085 19.9735C105.907 19.9735 105.729 20.0625 105.551 20.0625C104.927 20.2406 104.393 20.5078 103.948 20.864C103.77 21.0421 103.502 21.2202 103.324 21.3092C102.968 21.6654 102.701 22.0216 102.434 22.2888C102.345 22.3778 102.345 22.4669 102.256 22.5559V22.645C102.256 22.7341 102.167 22.7341 102.167 22.8231V22.9122C102.167 23.0012 102.078 23.0012 102.078 23.0903V23.1793C101.989 23.3574 101.989 23.3574 101.989 23.4465C101.989 23.2684 102.078 23.1793 102.167 23.0012C102.078 23.2684 101.989 23.6246 101.9 23.9808C101.9 24.0698 101.81 24.1589 101.81 24.337C101.009 27.0976 100.297 29.2348 99.7623 30.9268C99.6733 31.283 99.4951 31.6392 99.406 31.9063C98.7827 33.5983 97.9813 34.9341 97.2689 35.9136C96.5565 36.8041 95.666 37.3384 94.5974 37.3384C93.7959 37.3384 93.0835 36.9822 92.3711 36.4479C93.7959 37.8727 96.4674 39.2976 101.098 38.6742C101.187 38.6742 101.187 38.6742 101.276 38.6742C101.365 38.6742 101.365 38.5851 101.454 38.5851C101.454 38.5851 101.543 38.4961 101.632 38.4961C105.907 35.1122 106.975 27.0085 109.469 23.0012C109.914 22.3778 110.359 22.1107 110.716 22.0216C110.894 22.0216 111.072 21.9326 111.161 22.0216H111.25C111.25 22.0216 111.25 22.0216 111.339 22.0216H111.428C111.784 22.1107 112.051 22.2888 112.14 22.3778C112.229 22.2888 112.318 22.3778 112.407 22.3778Z" fill="url(#paint0_linear_2521_431)"/>
<path d="M116.504 40.2772C115.257 40.1881 114.188 39.8319 113.298 39.3867H113.209C111.873 38.7633 110.359 37.6947 108.934 35.9137C108.044 34.845 107.599 34.0436 107.599 34.0436C107.064 33.1531 106.53 32.1735 105.996 31.0159C104.927 28.6115 104.037 27.0086 103.235 25.8509C101.543 23.7137 99.4951 23.0903 97.9812 23.0013C96.5564 22.9122 94.8643 23.1794 93.3505 24.337C92.549 24.8713 92.0147 25.5837 91.5694 26.2071L91.4805 26.2961C91.5695 26.2071 91.6586 26.118 91.6586 26.029C91.8367 25.8509 91.9257 25.6728 92.1038 25.4947C92.1929 25.4056 92.2818 25.4056 92.2818 25.3166C92.3709 25.2275 92.4599 25.2275 92.4599 25.1385C92.638 25.0494 92.7271 24.9604 92.9052 24.8713H92.9943C93.0834 24.8713 93.0833 24.8713 93.1723 24.7823C93.2614 24.6932 93.2614 24.7823 93.3505 24.6932C93.3505 24.6932 93.4396 24.6932 93.5286 24.6932C93.6177 24.6932 93.7067 24.6932 93.7067 24.6932H93.7957C93.8848 24.6932 93.9739 24.6932 94.152 24.6932C95.0425 24.6932 95.933 25.1385 96.5564 25.9399C98.0703 27.721 99.2278 30.8377 99.4059 31.1049C101.632 35.3794 105.283 41.9691 116.504 40.2772Z" fill="url(#paint1_linear_2521_431)"/>
<path d="M90.4119 29.4129C90.4119 29.2348 90.501 29.0567 90.501 28.9677C90.501 28.9677 90.501 28.8786 90.59 28.6115C90.59 28.6115 90.59 28.6115 90.59 28.5224C90.59 28.4334 90.6791 28.2552 90.6791 28.1662C90.6791 28.0771 90.7681 27.899 90.8572 27.81C90.8572 27.7209 90.9462 27.5428 91.0353 27.4538C91.1243 27.1866 91.3024 27.0085 91.3915 26.7414C91.4805 26.6523 91.5696 26.4742 91.6586 26.3852C92.1039 25.7618 92.6382 25.0494 93.4396 24.5151C94.9535 23.4465 96.5564 23.1793 98.0703 23.1793C99.6732 23.2684 101.632 23.8917 103.324 26.029C103.324 26.029 102.79 24.9604 101.543 23.8917C101.543 23.8917 101.543 23.8917 101.454 23.8027C100.208 22.7341 98.3375 21.6655 95.5769 21.5764C95.4878 21.5764 95.3988 21.5764 95.3097 21.5764H95.2207C95.0426 21.5764 94.8645 21.5764 94.7754 21.5764H94.6864C94.5083 21.5764 94.4192 21.5764 94.2411 21.5764H94.1521C94.063 21.5764 93.8849 21.5764 93.7959 21.5764C93.7959 21.5764 93.7959 21.5764 93.7068 21.5764C89.4323 22.1998 85.8703 25.4947 85.336 29.7691C84.7126 35.0231 88.5418 39.7428 93.974 40.4553C95.0426 40.5443 96.0221 40.5443 97.0017 40.3662C98.7827 40.01 100.029 39.2976 100.742 38.9414C100.92 38.8523 101.098 38.6742 101.276 38.5852C101.187 38.5852 101.098 38.5852 101.098 38.5852C94.6864 39.4757 92.1039 36.3589 91.2134 34.756C90.501 33.3312 90.4119 32.0844 90.4119 32.0844C90.4119 31.8173 90.3229 31.4611 90.3229 31.1939C90.3229 31.1049 90.3229 31.1049 90.3229 31.0158C90.3229 30.5706 90.3229 30.2144 90.4119 29.8582C90.3229 29.6801 90.3229 29.591 90.4119 29.4129Z" fill="url(#paint2_linear_2521_431)"/>
<path d="M131.642 40.099C130.93 40.099 125.854 39.9209 123.717 32.9749C121.401 25.5837 122.203 16.4114 115.079 14.2742C108.133 12.137 103.769 17.0348 101.988 23.4465C102.255 22.5559 103.324 20.5968 106.085 19.9735C109.825 19.172 113.476 22.3778 115.524 27.6319C117.839 33.153 119.353 41.3457 129.861 40.3662C130.485 40.2771 131.108 40.1881 131.642 40.099C131.731 40.099 131.731 40.099 131.642 40.099Z" fill="url(#paint3_linear_2521_431)"/>
<path d="M59.0667 70.1097C59.0667 69.9316 59.0667 69.8426 59.0667 69.5754C59.0667 69.3973 58.9776 69.2191 58.9776 68.952C58.9776 68.7739 58.8886 68.5067 58.7995 68.3286C58.7105 68.1505 58.7105 67.8835 58.6214 67.7054L59.512 67.4381C59.601 67.6162 59.601 67.7943 59.6901 68.0615C59.7791 68.3286 59.7791 68.5068 59.8682 68.6849C59.9572 68.863 59.9572 69.1301 59.9572 69.3972C59.9572 69.6644 60.0463 69.8425 60.0463 70.1097C60.3134 70.1987 60.5806 70.2879 60.8477 70.3769C61.1149 70.466 61.4711 70.466 61.7382 70.466H61.9163C62.3616 70.466 62.6287 70.3768 62.8068 70.1987C62.9849 70.0206 63.074 69.7535 63.074 69.3972V66.8148H63.9645V69.6644C63.9645 69.7535 63.9645 69.7535 63.9645 69.8425C63.9645 69.9316 63.9645 69.9316 63.9645 70.0207C64.2317 70.1988 64.4988 70.1987 64.766 70.2878C65.0331 70.3768 65.3893 70.3769 65.6565 70.3769H65.8346C66.2798 70.3769 66.547 70.2878 66.7251 70.1097C66.9032 69.9316 66.9922 69.6644 66.9922 69.3082V65.9243H67.8828V69.6644V69.7535V69.8425C68.4171 70.1097 69.0404 70.2878 69.8419 70.2878H69.9309C70.109 70.2878 70.198 70.3769 70.198 70.466V71.0002C70.198 71.0892 70.1981 71.1783 70.109 71.1783C70.02 71.1783 70.02 71.1783 69.9309 71.1783H69.8419C69.5747 71.1783 69.3076 71.1783 69.1295 71.0892C68.9514 71.0892 68.6842 71.0002 68.5952 71.0002C68.4171 70.9111 68.239 70.9112 68.1499 70.8222C67.9718 70.7331 67.8828 70.644 67.7047 70.5549C67.6156 70.733 67.3485 70.9111 67.1703 71.0002C66.9032 71.0892 66.636 71.1783 66.1907 71.1783H65.8346C65.6565 71.1783 65.4784 71.1783 65.3003 71.1783C65.1222 71.1783 64.9441 71.0892 64.766 71.0892C64.5879 71.0892 64.4098 71.0003 64.2317 70.9112C64.0536 70.8222 63.8755 70.733 63.7864 70.644C63.6083 70.8221 63.4302 70.9111 63.2521 71.0002C62.9849 71.0892 62.7178 71.1783 62.3616 71.1783H62.0054C61.7382 71.1783 61.382 71.1783 61.1149 71.0892C60.8477 71.0002 60.4915 71.0003 60.2244 70.8222C60.1353 71.3565 60.0463 71.8017 59.7791 72.247C59.601 72.6922 59.2448 73.0483 58.8886 73.4045C58.5324 73.7608 58.0871 73.9389 57.5528 74.117C57.0185 74.2951 56.4842 74.3842 55.8608 74.3842C55.1484 74.3842 54.6141 74.2951 54.0798 74.117C53.5455 73.9389 53.1893 73.6717 52.8331 73.3155C52.4769 72.9593 52.2097 72.6031 52.1207 72.0688C51.9426 71.6235 51.8535 71.0892 51.8535 70.644C51.8535 70.4659 51.8535 70.1988 51.9426 69.9316C51.9426 69.6645 52.0316 69.4863 52.1207 69.2191C52.2097 69.041 52.2988 68.774 52.2988 68.5959C52.3878 68.4178 52.4769 68.2396 52.5659 68.0615L53.3674 68.5067C53.2783 68.6848 53.1893 68.7739 53.1893 68.952C53.1893 69.1301 53.1002 69.3083 53.0112 69.4864C52.9221 69.6645 52.9221 69.8426 52.9221 70.0207C52.9221 70.1988 52.9221 70.3768 52.9221 70.5549C52.9221 71.0002 53.0112 71.3565 53.1002 71.8017C53.1893 72.247 53.4564 72.514 53.7236 72.7812C53.9907 73.0483 54.3469 73.3155 54.7032 73.4045C55.0594 73.4936 55.5937 73.6717 56.0389 73.6717C56.5732 73.6717 57.0185 73.5826 57.4638 73.4045C57.909 73.2264 58.2652 73.0484 58.5324 72.6922C58.7995 72.336 59.0667 71.9797 59.2448 71.6235C59.4229 71.2673 59.0667 70.644 59.0667 70.1097Z" fill="#D9D9D9"/>
<path d="M69.3972 71.2675C69.2191 71.2675 69.041 71.1785 69.041 71.0894V70.5551C69.041 70.4661 69.041 70.377 69.1301 70.377C69.2191 70.377 69.2191 70.377 69.3082 70.377H71.7125C71.8907 70.377 72.0688 70.4661 72.0688 70.5551V71.0894C72.0688 71.1785 72.0688 71.2675 71.9797 71.2675C71.8907 71.2675 71.8907 71.2675 71.8016 71.2675H69.3972Z" fill="#D9D9D9"/>
<path d="M71.3562 71.2675C71.1781 71.2675 71 71.1785 71 71.0894V70.5551C71 70.4661 70.9999 70.377 71.089 70.377C71.178 70.377 71.1781 70.377 71.2672 70.377H73.5825C73.7606 70.377 73.9387 70.4661 73.9387 70.5551V71.0894C73.9387 71.1785 73.9387 71.2675 73.8496 71.2675C73.7606 71.2675 73.7606 71.2675 73.6715 71.2675H71.3562Z" fill="#D9D9D9"/>
<path d="M73.2254 71.2675C73.0473 71.2675 72.8691 71.1785 72.8691 71.0894V70.5551C72.8691 70.4661 72.8691 70.377 72.9582 70.377C73.0472 70.377 73.0472 70.377 73.1363 70.377H75.4517C75.6298 70.377 75.8078 70.4661 75.8078 70.5551V71.0894C75.8078 71.1785 75.8078 71.2675 75.7188 71.2675C75.6297 71.2675 75.6297 71.2675 75.5407 71.2675H73.2254Z" fill="#D9D9D9"/>
<path d="M75.1843 71.2675C75.0062 71.2675 74.8281 71.1785 74.8281 71.0894V70.5551C74.8281 70.4661 74.8281 70.377 74.9172 70.377C75.0062 70.377 75.0062 70.377 75.0953 70.377H77.4106C77.5887 70.377 77.6778 70.4661 77.6778 70.5551V71.0894C77.6778 71.1785 77.6778 71.2675 77.5887 71.2675C77.4997 71.2675 77.4106 71.2675 77.4106 71.2675H75.1843Z" fill="#D9D9D9"/>
<path d="M77.0543 71.2675C76.8762 71.2675 76.7871 71.1785 76.7871 71.0894V70.5551C76.7871 70.466 76.787 70.377 76.8761 70.377C76.9651 70.377 77.0543 70.377 77.0543 70.377H79.8148V65.8354H80.7053V71.2675H77.0543ZM78.301 73.1376C78.301 72.9595 78.3899 72.8704 78.479 72.6923C78.568 72.5142 78.7461 72.5142 78.9242 72.5142C79.1023 72.5142 79.1914 72.6033 79.3695 72.6923C79.5476 72.7814 79.5476 72.9595 79.5476 73.1376C79.5476 73.3157 79.4586 73.4047 79.3695 73.4938C79.2804 73.5828 79.1023 73.6719 78.9242 73.6719C78.7461 73.6719 78.6571 73.5828 78.479 73.4938C78.3899 73.4047 78.301 73.3157 78.301 73.1376ZM80.082 73.1376C80.082 72.9595 80.171 72.8704 80.26 72.6923C80.3491 72.5142 80.5272 72.5142 80.7053 72.5142C80.8834 72.5142 80.9724 72.6033 81.1505 72.6923C81.3286 72.7814 81.3286 72.9595 81.3286 73.1376C81.3286 73.3157 81.2396 73.4047 81.1505 73.4938C81.0615 73.5828 80.8834 73.6719 80.7053 73.6719C80.5272 73.6719 80.4381 73.5828 80.26 73.4938C80.171 73.4047 80.082 73.3157 80.082 73.1376Z" fill="#D9D9D9"/>
<path d="M82.3984 73.5827C82.9327 73.4937 83.378 73.4045 83.6452 73.2264C84.0014 73.0483 84.2685 72.8703 84.4466 72.6032C84.6247 72.336 84.7138 72.0689 84.8028 71.7127C84.8919 71.3565 84.8919 70.9112 84.8919 70.466V65.9243H85.7824V70.5549C85.7824 71.1783 85.6933 71.7127 85.6043 72.1579C85.5152 72.6032 85.2481 72.9593 84.9809 73.3155C84.7138 73.5826 84.3576 73.8499 83.9123 74.028C83.4671 74.2061 83.0218 74.3842 82.3984 74.4733V73.5827Z" fill="#D9D9D9"/>
<path d="M88.2754 61.2044H89.1659V69.0409C89.1659 69.3081 89.1659 69.4862 89.255 69.6643C89.344 69.8424 89.344 70.0205 89.4331 70.1095C89.5221 70.1986 89.6112 70.2876 89.7893 70.2876C89.9674 70.2876 90.1455 70.3767 90.4126 70.3767H90.6798C90.8579 70.3767 90.9469 70.4657 90.9469 70.5548V71.0891C90.9469 71.1781 90.9469 71.2672 90.8579 71.2672C90.7688 71.2672 90.6798 71.2672 90.6798 71.2672H90.0564C89.7002 71.2672 89.4331 71.1781 89.255 71.0891C88.9878 71 88.8097 70.8219 88.7206 70.6438C88.5425 70.4657 88.4535 70.2876 88.4535 70.0205C88.4535 69.7533 88.3644 69.4862 88.3644 69.219L88.2754 61.2044Z" fill="#D9D9D9"/>
<path d="M90.3238 71.2675C90.1457 71.2675 90.0566 71.1785 90.0566 71.0894V70.5551C90.0566 70.4661 90.0566 70.377 90.1457 70.377C90.2347 70.377 90.3238 70.377 90.3238 70.377H92.6391C92.8172 70.377 92.9063 70.4661 92.9063 70.5551V71.0894C92.9063 71.1785 92.9063 71.2675 92.8172 71.2675C92.7282 71.2675 92.6391 71.2675 92.6391 71.2675H90.3238Z" fill="#D9D9D9"/>
<path d="M94.241 70.377C94.152 70.5551 94.063 70.7332 93.8849 70.8223C93.7959 70.9113 93.6178 71.0004 93.5287 71.0894C93.3506 71.1785 93.2615 71.1785 93.0834 71.2675C92.9053 71.2675 92.7272 71.2675 92.5491 71.2675H92.1929C92.0148 71.2675 91.9258 71.1785 91.9258 71.0894V70.5551C91.9258 70.466 91.9257 70.377 92.0147 70.377C92.1038 70.377 92.1929 70.377 92.1929 70.377H92.46C92.6381 70.377 92.7272 70.377 92.9053 70.2879C93.0834 70.1989 93.1724 70.1989 93.3505 70.1098C93.4396 70.0208 93.6178 69.9317 93.7068 69.8427C93.7959 69.7536 93.8849 69.5755 93.8849 69.3974C94.063 68.8631 94.1521 68.4179 94.3302 68.0617C94.5083 67.7055 94.6864 67.3493 94.8645 67.0821C95.0426 66.8149 95.2207 66.6368 95.4878 66.4587C95.755 66.2806 95.844 66.1916 96.1112 66.1025C96.2893 66.0135 96.4674 65.9244 96.6455 65.9244C96.8236 65.9244 97.0017 65.8354 97.0907 65.8354C97.3579 65.8354 97.7141 65.8354 97.8922 66.0135C98.1594 66.1025 98.3375 66.1916 98.6046 66.3697C98.8718 66.5478 98.9607 66.7259 99.1388 66.904C99.3169 67.0821 99.4061 67.3493 99.4951 67.5274C99.5842 67.7055 99.6732 67.9726 99.7623 68.2398C99.8513 68.4179 99.8512 68.685 99.8512 68.8631C99.8512 69.2193 99.7623 69.4865 99.6732 69.8427C99.5842 70.1098 99.4061 70.466 99.228 70.6441C99.0499 70.8222 98.6937 71.0894 98.4265 71.2675C98.0703 71.4456 97.714 71.4456 97.1797 71.4456C96.9126 71.4456 96.6455 71.4456 96.3783 71.3566C96.1112 71.2675 95.8439 71.2675 95.5768 71.1785C95.3096 71.0894 95.1316 71.0004 94.8645 70.9113C94.5973 70.6441 94.4191 70.466 94.241 70.377ZM99.0499 68.8631C99.0499 68.685 99.0499 68.4179 98.8718 68.1507C98.7827 67.8836 98.6936 67.6164 98.5155 67.4383C98.3374 67.2602 98.1594 66.9931 97.8922 66.8149C97.6251 66.6368 97.3579 66.5478 97.0017 66.5478C96.7345 66.5478 96.4674 66.6368 96.2002 66.8149C95.9331 66.9931 95.755 67.1712 95.4878 67.4383C95.3097 67.7055 95.1315 68.0617 94.9534 68.4179C94.7753 68.7741 94.6864 69.1303 94.5973 69.5755C94.6864 69.6646 94.7753 69.7536 94.9534 69.8427C95.1315 69.9317 95.3097 70.0208 95.4878 70.1098C95.6659 70.1989 95.9331 70.2879 96.2002 70.2879C96.4674 70.377 96.6454 70.377 96.9126 70.377C97.2688 70.377 97.5359 70.377 97.8031 70.2879C98.0702 70.1989 98.3374 70.1098 98.5155 70.0208C98.6936 69.9317 98.8717 69.7536 98.9607 69.4865C99.0498 69.3974 99.0499 69.1303 99.0499 68.8631Z" fill="#D9D9D9"/>
<path d="M111.963 70.3766C112.141 70.3766 112.23 70.3766 112.408 70.2876C112.497 70.2876 112.586 70.1985 112.675 70.1095C112.764 70.0204 112.764 69.9314 112.853 69.7533C112.853 69.5751 112.942 69.397 112.942 69.2189V61.1153H113.833V69.4861C113.833 69.5752 113.833 69.6642 113.833 69.6642C113.833 69.7533 113.833 69.8423 113.833 69.8423C114.367 70.1095 114.902 70.2876 115.703 70.2876H115.792C115.97 70.2876 116.059 70.3766 116.059 70.4657V71C116.059 71.089 116.059 71.1781 115.97 71.1781C115.881 71.1781 115.792 71.1781 115.792 71.1781H115.703C115.436 71.1781 115.169 71.1781 114.991 71.1781C114.813 71.1781 114.634 71.089 114.456 71.089C114.278 71 114.1 71 114.011 70.9109C113.833 70.8219 113.744 70.7328 113.566 70.6438C113.477 70.8219 113.299 70.9109 113.031 71.089C112.764 71.2671 112.586 71.2671 112.23 71.2671H105.818V70.3766H109.024V64.143H109.915V70.3766C109.826 70.3766 111.963 70.3766 111.963 70.3766Z" fill="#D9D9D9"/>
<path d="M115.257 71.2675C115.079 71.2675 114.99 71.1785 114.99 71.0894V70.5551C114.99 70.4661 114.99 70.377 115.079 70.377C115.168 70.377 115.257 70.377 115.257 70.377H117.573C117.751 70.377 117.84 70.4661 117.84 70.5551V71.0894C117.84 71.1785 117.84 71.2675 117.751 71.2675C117.662 71.2675 117.573 71.2675 117.573 71.2675H115.257Z" fill="#D9D9D9"/>
<path d="M117.216 71.2675C117.038 71.2675 116.949 71.1785 116.949 71.0894V70.5551C116.949 70.4661 116.949 70.377 117.038 70.377C117.127 70.377 117.216 70.377 117.216 70.377H119.532C119.71 70.377 119.799 70.4661 119.799 70.5551V71.0894C119.799 71.1785 119.799 71.2675 119.71 71.2675C119.621 71.2675 119.532 71.2675 119.532 71.2675H117.216Z" fill="#D9D9D9"/>
<path d="M119.087 71.2675C118.909 71.2675 118.82 71.1785 118.82 71.0894V70.5551C118.82 70.4661 118.82 70.377 118.909 70.377C118.998 70.377 119.087 70.377 119.087 70.377H121.403C121.581 70.377 121.67 70.4661 121.67 70.5551V71.0894C121.67 71.1785 121.67 71.2675 121.581 71.2675C121.492 71.2675 121.403 71.2675 121.403 71.2675H119.087Z" fill="#D9D9D9"/>
<path d="M121.046 71.2675C120.868 71.2675 120.779 71.1785 120.779 71.0894V70.5551C120.779 70.4661 120.779 70.377 120.868 70.377C120.957 70.377 121.046 70.377 121.046 70.377H123.362C123.54 70.377 123.629 70.4661 123.629 70.5551V71.0894C123.629 71.1785 123.629 71.2675 123.54 71.2675C123.451 71.2675 123.362 71.2675 123.362 71.2675H121.046Z" fill="#D9D9D9"/>
<path d="M123.005 71.2675C122.827 71.2675 122.738 71.1785 122.738 71.0894V70.5551C122.738 70.4661 122.738 70.377 122.827 70.377C122.916 70.377 123.005 70.377 123.005 70.377H125.321C125.499 70.377 125.588 70.4661 125.588 70.5551V71.0894C125.588 71.1785 125.588 71.2675 125.499 71.2675C125.41 71.2675 125.321 71.2675 125.321 71.2675H123.005Z" fill="#D9D9D9"/>
<path d="M124.875 71.2675C124.696 71.2675 124.607 71.1785 124.607 71.0894V70.5551C124.607 70.466 124.607 70.377 124.696 70.377C124.786 70.377 124.875 70.377 124.875 70.377H126.388C126.567 70.377 126.656 70.377 126.834 70.2879C126.923 70.2879 127.012 70.1989 127.101 70.1098C127.19 70.0208 127.19 69.9317 127.279 69.7536C127.279 69.5755 127.368 69.3974 127.368 69.2193V65.8354H128.259V69.5755C128.259 69.6646 128.259 69.7536 128.259 69.7536C128.259 69.8427 128.259 69.9317 128.259 69.9317C128.793 70.1989 129.327 70.377 130.129 70.377H130.218C130.396 70.377 130.485 70.466 130.485 70.5551V71.0894C130.485 71.1785 130.485 71.2675 130.396 71.2675C130.307 71.2675 130.218 71.2675 130.218 71.2675H130.129C129.861 71.2675 129.594 71.2675 129.416 71.2675C129.238 71.2675 129.06 71.1785 128.882 71.1785C128.704 71.0894 128.526 71.0894 128.437 71.0004C128.259 70.9113 128.169 70.8223 127.991 70.7332C127.902 70.9113 127.724 71.0004 127.546 71.1785C127.368 71.2675 127.101 71.3566 126.745 71.3566L124.875 71.2675ZM125.943 73.1376C125.943 72.9595 126.032 72.8704 126.121 72.6923C126.21 72.5142 126.388 72.5142 126.567 72.5142C126.745 72.5142 126.834 72.6033 126.923 72.6923C127.012 72.7814 127.101 72.9595 127.101 73.1376C127.101 73.3157 127.012 73.4047 126.923 73.4938C126.834 73.5828 126.656 73.6719 126.567 73.6719C126.388 73.6719 126.299 73.5828 126.121 73.4938C126.032 73.4047 125.943 73.3157 125.943 73.1376ZM127.813 73.1376C127.813 72.9595 127.902 72.8704 127.991 72.6923C128.08 72.5142 128.259 72.5142 128.348 72.5142C128.526 72.5142 128.615 72.6033 128.704 72.6923C128.793 72.7814 128.882 72.9595 128.882 73.1376C128.882 73.3157 128.793 73.4047 128.704 73.4938C128.615 73.5828 128.437 73.6719 128.348 73.6719C128.169 73.6719 128.08 73.5828 127.991 73.4938C127.813 73.4047 127.813 73.3157 127.813 73.1376Z" fill="#D9D9D9"/>
<path d="M129.683 71.2675C129.505 71.2675 129.416 71.1785 129.416 71.0894V70.5551C129.416 70.4661 129.416 70.377 129.505 70.377C129.594 70.377 129.683 70.377 129.683 70.377H131.998C132.177 70.377 132.266 70.4661 132.266 70.5551V71.0894C132.266 71.1785 132.266 71.2675 132.177 71.2675C132.088 71.2675 131.998 71.2675 131.998 71.2675H129.683Z" fill="#D9D9D9"/>
<path d="M131.554 71.2675C131.376 71.2675 131.287 71.1785 131.287 71.0894V70.5551C131.287 70.4661 131.287 70.377 131.376 70.377C131.465 70.377 131.554 70.377 131.554 70.377H133.87C134.048 70.377 134.137 70.4661 134.137 70.5551V71.0894C134.137 71.1785 134.137 71.2675 134.048 71.2675C133.959 71.2675 133.87 71.2675 133.87 71.2675H131.554Z" fill="#D9D9D9"/>
<path d="M133.513 71.2675C133.335 71.2675 133.246 71.1785 133.246 71.0894V70.5551C133.246 70.4661 133.246 70.377 133.335 70.377C133.424 70.377 133.513 70.377 133.513 70.377H135.829C136.007 70.377 136.096 70.4661 136.096 70.5551V71.0894C136.096 71.1785 136.096 71.2675 136.007 71.2675C135.918 71.2675 135.829 71.2675 135.829 71.2675H133.513Z" fill="#D9D9D9"/>
<path d="M135.472 71.2675C135.294 71.2675 135.205 71.1785 135.205 71.0894V70.5551C135.205 70.4661 135.205 70.377 135.294 70.377C135.383 70.377 135.472 70.377 135.472 70.377H137.788C137.966 70.377 138.055 70.4661 138.055 70.5551V71.0894C138.055 71.1785 138.055 71.2675 137.966 71.2675C137.877 71.2675 137.788 71.2675 137.788 71.2675H135.472Z" fill="#D9D9D9"/>
<path d="M137.343 71.2666C137.165 71.2666 137.076 71.1775 137.076 71.0885V70.5541C137.076 70.4651 137.076 70.3761 137.165 70.3761C137.254 70.3761 137.343 70.3761 137.343 70.3761H138.857C139.035 70.3761 139.124 70.376 139.302 70.287C139.392 70.287 139.481 70.1979 139.57 70.1089C139.659 70.0198 139.659 69.9308 139.748 69.7527C139.748 69.5746 139.837 69.3965 139.837 69.2184V65.8345H140.727V69.5747C140.727 69.6637 140.727 69.7527 140.727 69.7527C140.727 69.8417 140.727 69.9309 140.727 69.9309C141.262 70.198 141.796 70.3761 142.597 70.3761H142.686C142.864 70.3761 142.954 70.4651 142.954 70.5541V71.0885C142.954 71.1775 142.954 71.2666 142.864 71.2666C142.775 71.2666 142.686 71.2666 142.686 71.2666H142.597C142.33 71.2666 142.063 71.2666 141.885 71.2666C141.707 71.2666 141.529 71.1775 141.351 71.1775C141.173 71.0885 140.994 71.0885 140.905 70.9994C140.727 70.9104 140.638 70.8213 140.46 70.7322C140.371 70.9103 140.193 70.9994 140.015 71.1775C139.837 71.2666 139.57 71.3557 139.213 71.3557L137.343 71.2666ZM139.837 63.4301C139.837 63.6082 139.748 63.6972 139.659 63.8753C139.57 64.0534 139.392 64.0535 139.302 64.0535C139.124 64.0535 139.035 63.9644 138.946 63.8753C138.857 63.7863 138.768 63.6082 138.768 63.4301C138.768 63.252 138.857 63.1629 138.946 62.9848C139.035 62.8958 139.213 62.8067 139.302 62.8067C139.481 62.8067 139.57 62.8958 139.659 62.9848C139.837 63.1629 139.837 63.252 139.837 63.4301ZM141.707 63.4301C141.707 63.6082 141.618 63.6972 141.529 63.8753C141.44 64.0534 141.262 64.0535 141.083 64.0535C140.905 64.0535 140.816 63.9644 140.727 63.8753C140.638 63.7863 140.549 63.6082 140.549 63.4301C140.549 63.252 140.638 63.1629 140.727 62.9848C140.816 62.8958 140.994 62.8067 141.083 62.8067C141.262 62.8067 141.351 62.8958 141.529 62.9848C141.618 63.1629 141.707 63.252 141.707 63.4301Z" fill="#D9D9D9"/>
<path d="M142.152 71.2675C141.974 71.2675 141.885 71.1785 141.885 71.0894V70.5551C141.885 70.4661 141.885 70.377 141.974 70.377C142.063 70.377 142.152 70.377 142.152 70.377H144.467C144.645 70.377 144.734 70.4661 144.734 70.5551V71.0894C144.734 71.1785 144.734 71.2675 144.645 71.2675C144.556 71.2675 144.467 71.2675 144.467 71.2675H142.152Z" fill="#D9D9D9"/>
<path d="M144.111 71.2675C143.933 71.2675 143.844 71.1785 143.844 71.0894V70.5551C143.844 70.4661 143.844 70.377 143.933 70.377C144.022 70.377 144.111 70.377 144.111 70.377H146.426C146.604 70.377 146.693 70.4661 146.693 70.5551V71.0894C146.693 71.1785 146.693 71.2675 146.604 71.2675C146.515 71.2675 146.426 71.2675 146.426 71.2675H144.111Z" fill="#D9D9D9"/>
<path d="M145.98 71.2675C145.802 71.2675 145.713 71.1785 145.713 71.0894V70.5551C145.713 70.4661 145.713 70.377 145.802 70.377C145.891 70.377 145.98 70.377 145.98 70.377H148.295C148.473 70.377 148.563 70.4661 148.563 70.5551V71.0894C148.563 71.1785 148.563 71.2675 148.473 71.2675C148.384 71.2675 148.295 71.2675 148.295 71.2675H145.98Z" fill="#D9D9D9"/>
<path d="M147.939 71.2675C147.761 71.2675 147.672 71.1785 147.672 71.0894V70.5551C147.672 70.4661 147.672 70.377 147.761 70.377C147.85 70.377 147.939 70.377 147.939 70.377H150.254C150.432 70.377 150.522 70.4661 150.522 70.5551V71.0894C150.522 71.1785 150.522 71.2675 150.432 71.2675C150.343 71.2675 150.254 71.2675 150.254 71.2675H147.939Z" fill="#D9D9D9"/>
<path d="M149.81 71.2675C149.632 71.2675 149.543 71.1785 149.543 71.0894V70.5551C149.543 70.4661 149.543 70.377 149.632 70.377C149.721 70.377 149.81 70.377 149.81 70.377H152.125C152.304 70.377 152.393 70.4661 152.393 70.5551V71.0894C152.393 71.1785 152.393 71.2675 152.304 71.2675C152.215 71.2675 152.125 71.2675 152.125 71.2675H149.81Z" fill="#D9D9D9"/>
<path d="M151.769 71.2675C151.591 71.2675 151.502 71.1785 151.502 71.0894V70.5551C151.502 70.4661 151.502 70.377 151.591 70.377C151.68 70.377 151.769 70.377 151.769 70.377H154.084C154.263 70.377 154.352 70.4661 154.352 70.5551V71.0894C154.352 71.1785 154.352 71.2675 154.263 71.2675C154.173 71.2675 154.084 71.2675 154.084 71.2675H151.769Z" fill="#D9D9D9"/>
<path d="M157.557 69.6646V69.7536V69.8427C157.824 70.0208 158.181 70.1989 158.448 70.1989C158.804 70.2879 159.16 70.2879 159.516 70.2879H159.695C160.14 70.2879 160.407 70.1989 160.585 70.0208C160.763 69.8427 160.852 69.5755 160.852 69.2193V66.6368H161.743V69.6646C161.743 69.7536 161.743 69.7536 161.743 69.8427C161.743 69.9317 161.743 69.9317 161.743 70.0208C162.01 70.1989 162.277 70.2879 162.722 70.2879C163.078 70.377 163.613 70.377 164.147 70.377H164.949V65.8354H165.839V71.2675H164.058C163.524 71.2675 162.989 71.2675 162.544 71.1785C162.099 71.0894 161.743 70.9113 161.386 70.7332C161.208 70.9113 161.03 71.0004 160.852 71.1785C160.585 71.2675 160.318 71.3566 159.873 71.3566H159.516C159.338 71.3566 159.16 71.3566 158.893 71.3566C158.715 71.3566 158.448 71.2675 158.27 71.2675C158.092 71.2675 157.913 71.1785 157.735 71.0894C157.557 71.0004 157.379 70.9113 157.29 70.8223C157.112 71.0004 156.934 71.1785 156.667 71.2675C156.4 71.3566 155.954 71.4456 155.509 71.4456H153.728C153.55 71.4456 153.461 71.3566 153.461 71.2675V70.5551C153.461 70.466 153.461 70.377 153.55 70.377C153.639 70.377 153.728 70.377 153.728 70.377H155.331C155.598 70.377 155.865 70.377 156.043 70.2879C156.222 70.1989 156.4 70.1989 156.489 70.1098C156.578 70.0208 156.667 69.9317 156.756 69.7536C156.845 69.5755 156.845 69.4865 156.845 69.3084V67.3493H157.735L157.557 69.6646Z" fill="#D9D9D9"/>
<defs>
<linearGradient id="paint0_linear_2521_431" x1="97.7158" y1="39.3698" x2="107.115" y2="19.2137" gradientUnits="userSpaceOnUse">
<stop stop-color="#D9D9D9"/>
</linearGradient>
<linearGradient id="paint1_linear_2521_431" x1="103.172" y1="39.0601" x2="105.766" y2="24.3476" gradientUnits="userSpaceOnUse">
<stop stop-color="#D9D9D9"/>
</linearGradient>
<linearGradient id="paint2_linear_2521_431" x1="96.3373" y1="40.4714" x2="93.0174" y2="21.6432" gradientUnits="userSpaceOnUse">
<stop offset="0.2631" stop-color="#D9D9D9"/>
</linearGradient>
<linearGradient id="paint3_linear_2521_431" x1="115.091" y1="36.4972" x2="122.236" y2="16.8679" gradientUnits="userSpaceOnUse">
<stop offset="0.1303" stop-color="#D9D9D9"/>
</linearGradient>
</defs>
</svg>
