<svg width="217" height="75" viewBox="0 0 217 75" fill="none" xmlns="http://www.w3.org/2000/svg">
<g clip-path="url(#clip0_2521_546)">
<path d="M108.647 44.7911C129.629 44.7511 152.53 44.7511 171.914 44.3914V44.1516C171.914 44.1516 145.056 43.8718 108.647 43.8718C72.2774 43.8718 45.4199 44.1516 45.4199 44.1516V44.3914C64.8037 44.7511 87.7045 44.831 108.647 44.7911Z" fill="#D9D9D9"/>
<path d="M73.5551 13.817C73.5551 13.817 64.083 20.4515 63.7233 35.2391H63.0039C63.1238 18.2533 73.5551 10.4598 73.5551 10.4598C73.5551 10.4598 84.0263 18.2533 84.1462 35.2391H83.4268C83.0671 20.4515 73.5551 13.817 73.5551 13.817Z" fill="#D9D9D9"/>
<path d="M45.0996 13.7371H51.2145C53.3327 13.7371 58.8081 13.7371 58.8081 19.1326C58.8081 23.1692 55.6907 24.608 51.814 24.568V24.3682C54.3319 24.3682 56.4101 22.7696 56.4101 19.812C56.4101 17.9736 55.6907 16.1351 54.172 15.1759C53.5325 14.7763 52.6533 14.4565 50.615 14.4565H49.0963V32.8811C49.0963 34.6796 49.2561 34.9993 50.7749 34.9993V35.2391H45.0996V34.9993C45.779 34.9993 46.6183 34.8794 46.6183 33.6404V15.8553C46.6183 14.6963 46.6183 13.937 45.0996 13.937V13.7371Z" fill="#D9D9D9"/>
<path d="M127.43 32.9609L119.557 13.4173H119.197L117.438 17.8136L111.084 33.8002C110.764 34.4797 110.324 34.9992 109.365 34.9992V35.239H112.563V34.9992C112.443 34.9992 111.923 35.0791 112.083 34.7194L115.64 25.7669H121.875C121.875 25.7669 124.912 33.2007 124.952 33.3206C125.112 33.6803 125.272 34.1599 125.272 34.4797C125.272 34.5196 125.272 34.9992 124.592 34.9992V35.239H129.628V34.9992C128.269 34.9992 127.75 33.8002 127.43 32.9609ZM121.395 24.6079H116.12L118.757 17.9335L121.395 24.6079Z" fill="#D9D9D9"/>
<path d="M90.7012 13.7371V13.937C92.2199 13.9769 92.2199 14.4965 92.2199 16.215V32.7212C92.2199 34.2799 92.2199 34.9993 90.7012 34.9993V35.2391H105.489V32.2017H105.289C104.969 33.8003 104.41 34.12 103.57 34.16H96.7361C95.0176 34.0801 94.7378 33.8802 94.6978 32.6013V15.8953C94.6978 14.6963 94.6978 13.937 96.3364 13.937V13.7371H90.7012Z" fill="#D9D9D9"/>
<path d="M170.914 13.7371H157.445V13.937C158.964 13.9769 158.964 14.4965 158.964 16.215V32.7212C158.964 34.2799 158.964 34.9993 157.445 34.9993V35.2391H172.233V32.2017H171.993C171.713 33.8003 171.154 34.12 170.315 34.16H161.442V25.0476H167.517C168.916 25.0876 169.155 24.9677 169.515 26.2866H169.755V22.6097H169.515C169.155 23.9685 168.916 23.8087 167.517 23.8486H161.442V14.8162H167.917C169.395 14.8562 170.315 14.5764 170.714 16.7746H170.914V13.7371Z" fill="#D9D9D9"/>
<path d="M45.0996 13.7371H51.2145C53.3327 13.7371 58.8081 13.7371 58.8081 19.1326C58.8081 23.1692 55.6907 24.608 51.814 24.568V24.3682C54.3319 24.3682 56.4101 22.7696 56.4101 19.812C56.4101 17.9736 55.6907 16.1351 54.172 15.1759C53.5325 14.7763 52.6533 14.4565 50.615 14.4565H49.0963V32.8811C49.0963 34.6796 49.2561 34.9993 50.7749 34.9993V35.2391H45.0996V34.9993C45.779 34.9993 46.6183 34.8794 46.6183 33.6404V15.8553C46.6183 14.6963 46.6183 13.937 45.0996 13.937V13.7371Z" fill="#D9D9D9"/>
<path d="M144.176 34.7594C139.02 34.7594 135.064 29.8835 135.064 24.3282C135.064 18.0534 139.78 14.0168 143.976 14.0168C148.972 14.0168 149.651 16.8544 149.811 17.8136H150.011L150.051 14.6163C150.011 14.6163 148.492 13.0176 143.577 13.0176C137.022 13.0176 132.506 18.6529 132.506 24.3681C132.506 30.5629 137.262 35.8785 143.577 35.8785C149.691 35.8785 151.37 34.1599 151.37 34.1599V30.9226H151.09C150.89 32.0017 150.011 34.7594 144.176 34.7594Z" fill="#D9D9D9"/>
<path d="M66.6021 64.2148C66.1225 63.4155 64.5638 60.7777 63.7245 59.299C63.4048 59.3389 62.9252 59.3789 62.5655 59.299L62.7253 59.1791C64.6837 59.1791 65.8427 57.9001 65.8427 56.3414C65.8427 55.0225 64.7636 53.6637 62.2857 53.8635L62.2058 53.9434V64.2148H60.9668C60.9668 63.2556 61.0068 55.0625 60.9668 53.3839H63.3248C65.8427 53.3839 67.0017 54.8227 67.0017 56.2615C67.0017 57.7403 66.2424 58.7394 64.9235 59.1391C65.6029 60.458 66.8818 62.4563 68.0009 64.2148H66.6021Z" fill="#D9D9D9"/>
<path d="M76.9926 64.2148H70.7578V53.3839H76.1933L76.3931 53.9035C75.6337 53.8235 71.9568 53.8235 71.9568 53.8235V58.4996C72.7561 58.4996 74.7944 58.5396 75.7137 58.4197V59.0192C74.7944 58.9393 73.4755 58.8993 71.9568 58.9393V63.7352C71.9568 63.7352 76.3531 63.8152 77.1924 63.6553L76.9926 64.2148Z" fill="#D9D9D9"/>
<path d="M82.6671 64.3346C81.3083 64.3346 80.389 63.935 79.5098 63.2156L79.8695 62.1764C80.6288 63.6152 81.668 63.855 82.6272 63.855C83.9461 63.855 84.9452 63.0157 84.9452 61.8168C84.9452 58.7393 79.8695 59.5786 79.8695 55.9417C79.8695 54.1831 81.4681 53.2639 82.867 53.2639C83.7462 53.2639 84.7454 53.5836 85.3049 54.0632L84.9052 54.9425C84.3057 53.8634 83.5064 53.7435 82.827 53.7435C81.8278 53.7435 80.7887 54.2631 80.7887 55.4621C80.7887 58.5395 85.9444 57.6203 85.9444 61.2173C85.9444 63.1756 84.3857 64.3346 82.6671 64.3346Z" fill="#D9D9D9"/>
<path d="M89.3418 64.2148C89.3418 63.2556 89.4217 55.0625 89.3818 53.3839H90.5408C90.5408 56.4613 90.5808 61.1374 90.5808 64.2148H89.3418Z" fill="#D9D9D9"/>
<path d="M99.3332 64.1349C98.374 64.2548 96.6155 64.2148 95.8961 64.2148H94.6172C94.6172 63.2556 94.6572 55.0625 94.6172 53.3839H97.2949C98.2142 53.3839 99.0535 53.3839 99.653 53.5038C101.092 53.6637 104.169 55.0225 104.169 58.5796C104.169 63.1757 100.572 64.015 99.3332 64.1349ZM99.2533 54.0633C98.374 53.8635 96.4956 53.9035 95.8561 53.9035C95.8561 56.9809 95.8561 60.498 95.8561 63.5754C96.1759 63.6953 98.8536 63.8551 99.9727 63.3755C100.972 62.9759 102.81 62.0966 102.93 59.0592C103.01 56.861 101.531 54.5829 99.2533 54.0633Z" fill="#D9D9D9"/>
<path d="M113.443 64.2148H107.248V53.3839H112.683L112.883 53.9035C112.084 53.8235 108.447 53.8235 108.447 53.8235V58.4996C109.246 58.4996 111.285 58.5396 112.204 58.4197V59.0192C111.285 58.9393 109.966 58.8993 108.407 58.9393L108.447 63.7352C108.447 63.7352 112.843 63.8152 113.643 63.6553L113.443 64.2148Z" fill="#D9D9D9"/>
<path d="M116.96 54.8227L117.08 55.1824V64.2148H116.56C116.56 63.3356 116.6 56.5413 116.56 54.2232L116.48 53.3839H117.16C117.839 54.3031 124.394 62.0167 124.394 62.0167L124.514 62.2964C124.514 61.3772 124.514 55.0625 124.474 53.3839H124.993C124.993 56.4613 124.913 61.2973 124.993 64.4147C123.834 63.1357 116.96 54.8227 116.96 54.8227Z" fill="#D9D9D9"/>
<path d="M137.621 63.5753C136.542 64.0149 134.944 64.3746 133.825 64.3746C131.027 64.3746 128.109 62.5361 128.109 58.9791C128.109 55.9417 130.228 53.2639 133.705 53.2639C135.263 53.2639 136.462 53.6236 137.741 54.5428L137.342 55.582C136.342 54.0632 135.223 53.7835 133.944 53.7835C130.907 53.7835 129.468 56.5012 129.468 58.9791C129.468 62.0166 131.467 63.935 134.184 63.935C135.343 63.935 136.862 63.3355 137.781 62.5361L137.621 63.5753Z" fill="#D9D9D9"/>
<path d="M147.374 64.2148H141.18V53.3839H146.615L146.815 53.9035C146.016 53.8235 142.379 53.8235 142.379 53.8235V58.4996C143.178 58.4996 145.176 58.5396 146.136 58.4197V59.0192C145.176 58.9393 143.897 58.8993 142.339 58.9393L142.379 63.7352C142.379 63.7352 146.775 63.8152 147.574 63.6553L147.374 64.2148Z" fill="#D9D9D9"/>
<path d="M153.049 64.3346C151.73 64.3346 150.771 63.935 149.932 63.2156L150.291 62.1764C151.011 63.6152 152.09 63.855 153.009 63.855C154.328 63.855 155.367 63.0157 155.367 61.8168C155.367 58.7393 150.291 59.5786 150.291 55.9417C150.291 54.1831 151.89 53.2639 153.249 53.2639C154.128 53.2639 155.167 53.5836 155.687 54.0632L155.287 54.9425C154.688 53.8634 153.888 53.7435 153.209 53.7435C152.21 53.7435 151.211 54.2631 151.211 55.4621C151.211 58.5395 156.366 57.6203 156.366 61.2173C156.366 63.1756 154.808 64.3346 153.049 64.3346Z" fill="#D9D9D9"/>
</g>
<defs>
<clipPath id="clip0_2521_546">
<rect width="127.333" height="53.9548" fill="white" transform="translate(45 10.4598)"/>
</clipPath>
</defs>
</svg>
