<svg width="217" height="90" viewBox="0 0 217 90" fill="none" xmlns="http://www.w3.org/2000/svg">
<g clip-path="url(#clip0_2521_521)">
<path d="M67.1866 67.9033C67.1866 68.5538 67.0383 69.0959 66.7415 69.5296C66.4448 69.9633 66.0511 70.3114 65.5603 70.5738C65.081 70.8249 64.556 71.0075 63.9854 71.1216C63.4262 71.2244 62.8784 71.2757 62.342 71.2757C61.6458 71.2757 60.9896 71.1673 60.3733 70.9505C60.1222 70.8592 59.8769 70.7621 59.6372 70.6594C59.3975 70.5453 59.1465 70.454 58.884 70.3855C58.8383 70.0203 58.7584 69.6209 58.6443 69.1872C58.5416 68.7535 58.4902 68.3598 58.4902 68.006C58.4902 67.8462 58.5131 67.7264 58.5587 67.6465C58.6158 67.5552 58.7356 67.5096 58.9182 67.5096C59.078 67.5096 59.1807 67.5495 59.2263 67.6294C59.272 67.6979 59.3062 67.7949 59.3291 67.9204C59.3747 68.0802 59.4147 68.24 59.4489 68.3997C59.4831 68.5481 59.5231 68.7022 59.5687 68.862C59.797 69.5467 60.1336 70.026 60.5787 70.2999C61.0352 70.5738 61.6173 70.7108 62.3249 70.7108C62.9069 70.7108 63.4262 70.6309 63.8827 70.4711C64.3506 70.2999 64.7158 70.026 64.9783 69.6494C65.2522 69.2728 65.3891 68.7707 65.3891 68.143C65.3891 67.6522 65.2237 67.2128 64.8927 66.8248C64.5617 66.4254 64.1965 66.1115 63.7971 65.8833C63.7058 65.8262 63.6088 65.7749 63.5061 65.7292C63.4034 65.6836 63.3006 65.6379 63.1979 65.5923C62.8441 65.4097 62.4846 65.2271 62.1194 65.0445C61.7656 64.8619 61.4062 64.685 61.0409 64.5138C60.6872 64.3312 60.322 64.1029 59.9453 63.829C59.5801 63.5437 59.2663 63.2184 59.0038 62.8532C58.7527 62.488 58.6272 62.0886 58.6272 61.6549C58.6272 60.9245 58.8212 60.3197 59.2092 59.8403C59.5973 59.361 60.0937 59.0015 60.6986 58.7618C61.3034 58.5222 61.9311 58.4023 62.5816 58.4023C63.0496 58.4023 63.4661 58.4594 63.8313 58.5735C64.2079 58.6877 64.5788 58.8075 64.9441 58.933C65.3093 59.0472 65.7087 59.127 66.1424 59.1727C66.1766 59.5151 66.2108 59.8574 66.2451 60.1998C66.2793 60.5422 66.3307 60.8846 66.3992 61.227C66.4106 61.2726 66.4163 61.3183 66.4163 61.3639C66.4277 61.4096 66.4334 61.4552 66.4334 61.5009C66.4334 61.6835 66.3706 61.8033 66.2451 61.8604C66.131 61.906 65.9997 61.9288 65.8514 61.9288C65.703 61.9288 65.6231 61.9003 65.6117 61.8432C65.6003 61.7862 65.5832 61.7006 65.5603 61.5865C65.412 60.6734 65.0981 59.9887 64.6188 59.5322C64.1395 59.0643 63.4205 58.8303 62.4618 58.8303C61.7542 58.8303 61.2007 59.0186 60.8013 59.3952C60.4133 59.7719 60.2192 60.3197 60.2192 61.0386C60.2192 61.518 60.3448 61.9231 60.5959 62.2541C60.8469 62.585 61.1779 62.8761 61.5888 63.1271C62.011 63.3668 62.4675 63.5951 62.9583 63.8119C63.4604 64.0287 63.9569 64.2513 64.4476 64.4795C64.9383 64.7078 65.3891 64.976 65.8 65.2841C66.2223 65.5808 66.5589 65.9403 66.81 66.3626C67.0611 66.7849 67.1866 67.2984 67.1866 67.9033ZM73.8758 70.8135C73.8758 70.8592 73.8701 70.9219 73.8587 71.0018C73.8473 71.0703 73.8074 71.1045 73.7389 71.1045C73.6019 71.1045 73.465 71.0988 73.328 71.0874C73.2025 71.076 73.0712 71.0703 72.9343 71.0703C72.3751 71.0361 71.8044 71.0189 71.2224 71.0189C70.9713 71.0189 70.7202 71.0246 70.4692 71.0361C70.2181 71.0475 69.967 71.0589 69.7159 71.0703C69.6018 71.0817 69.482 71.0931 69.3564 71.1045C69.2423 71.1159 69.1225 71.1216 68.9969 71.1216C68.9056 71.1216 68.86 71.0646 68.86 70.9505C68.86 70.8706 68.8657 70.7964 68.8771 70.7279C68.8885 70.6594 68.9456 70.6252 69.0483 70.6252C69.1624 70.6252 69.2708 70.6309 69.3736 70.6423C69.4763 70.6423 69.5847 70.6423 69.6988 70.6423C69.8358 70.6423 69.9955 70.6081 70.1781 70.5396C70.3722 70.4711 70.4692 70.357 70.4692 70.1972V59.5664C70.4692 59.3724 70.395 59.2469 70.2466 59.1898C70.0983 59.1213 69.9214 59.0871 69.7159 59.0871C69.5219 59.0871 69.3393 59.0928 69.1681 59.1042C69.0084 59.1042 68.9171 59.0757 68.8942 59.0186C68.8828 58.9958 68.8771 58.9444 68.8771 58.8646C68.8771 58.8189 68.8828 58.7675 68.8942 58.7105C68.9056 58.642 68.9399 58.6078 68.9969 58.6078C69.3736 58.6078 69.7502 58.6192 70.1268 58.642C70.5148 58.6648 70.8971 58.6762 71.2738 58.6762H72.0441C72.2267 58.6762 72.4093 58.6762 72.5919 58.6762C72.7859 58.6762 72.9742 58.6705 73.1568 58.6591C73.2481 58.6477 73.3337 58.642 73.4136 58.642C73.5049 58.6306 73.5905 58.6249 73.6704 58.6249C73.7959 58.6249 73.8587 58.6877 73.8587 58.8132C73.8587 58.8817 73.853 58.9444 73.8416 59.0015C73.8302 59.0586 73.7788 59.0871 73.6875 59.0871C73.5506 59.0871 73.4136 59.0871 73.2767 59.0871C73.1511 59.0757 73.0199 59.07 72.8829 59.07C72.746 59.07 72.5976 59.1156 72.4378 59.2069C72.2895 59.2868 72.2153 59.4067 72.2153 59.5664V70.1972C72.2153 70.3456 72.2838 70.454 72.4207 70.5225C72.5577 70.591 72.6946 70.6252 72.8316 70.6252C72.9799 70.6252 73.1226 70.6252 73.2595 70.6252C73.4079 70.6138 73.5563 70.6081 73.7046 70.6081C73.8188 70.6081 73.8758 70.6766 73.8758 70.8135ZM88.0518 70.882C88.0518 70.9733 88.0175 71.0418 87.949 71.0874C87.892 71.1331 87.8178 71.1559 87.7265 71.1559C87.5553 71.1559 87.3784 71.1502 87.1958 71.1388C87.0246 71.1388 86.8534 71.1331 86.6822 71.1216C86.3627 71.1102 86.0374 71.1102 85.7065 71.1216C85.3869 71.1216 85.0617 71.1216 84.7307 71.1216C84.5481 71.1216 84.4111 71.0303 84.3198 70.8477C83.8633 69.9233 83.3726 69.0617 82.8476 68.2628C82.334 67.4639 81.8034 66.6308 81.2556 65.7634C81.1871 65.8776 81.0444 66.0944 80.8276 66.414C80.6222 66.7335 80.3825 67.0987 80.1086 67.5096C79.8347 67.9204 79.5665 68.3256 79.304 68.725C79.0529 69.1244 78.8418 69.4668 78.6706 69.7521C78.5108 70.026 78.4309 70.1858 78.4309 70.2315C78.4309 70.4027 78.5051 70.5168 78.6535 70.5738C78.8133 70.6309 78.9902 70.6651 79.1842 70.6766C79.3896 70.6766 79.5665 70.6823 79.7149 70.6937C79.8746 70.6937 79.9545 70.7393 79.9545 70.8306C79.9545 71.0132 79.8689 71.1045 79.6977 71.1045C79.6064 71.1045 79.5151 71.1102 79.4238 71.1216C79.3325 71.1216 79.2412 71.1216 79.1499 71.1216C78.9217 71.1216 78.6934 71.1159 78.4652 71.1045C78.2483 71.0817 78.0258 71.0703 77.7975 71.0703C77.3981 71.0703 76.993 71.0817 76.5821 71.1045C76.1827 71.1274 75.7832 71.1388 75.3838 71.1388C75.2354 71.1388 75.1612 71.0589 75.1612 70.8991C75.1612 70.7507 75.2183 70.6708 75.3324 70.6594C75.3895 70.648 75.4466 70.648 75.5036 70.6594C75.5721 70.6594 75.6349 70.6594 75.6919 70.6594C75.9772 70.6594 76.2283 70.6366 76.4452 70.591C76.662 70.5453 76.8788 70.4312 77.0957 70.2486C77.2897 70.0774 77.478 69.8948 77.6606 69.7008C77.8546 69.5068 78.0258 69.307 78.1742 69.1016C78.6535 68.4968 79.1271 67.8862 79.595 67.2699C80.0744 66.6422 80.5252 66.0088 80.9474 65.3697C80.3197 64.4225 79.7034 63.4752 79.0986 62.528C78.5051 61.5807 77.8888 60.6449 77.2497 59.7205C77.1356 59.5607 77.0272 59.458 76.9245 59.4124C76.8332 59.3553 76.6905 59.3268 76.4965 59.3268C76.3824 59.3268 76.2568 59.3325 76.1199 59.3439C75.9944 59.3553 75.8688 59.361 75.7433 59.361C75.6862 59.361 75.6234 59.3496 75.555 59.3268C75.4865 59.2925 75.4523 59.2355 75.4523 59.1556C75.4523 59.0757 75.458 59.0072 75.4694 58.9501C75.4808 58.8817 75.5264 58.836 75.6063 58.8132C75.846 58.7561 76.1541 58.7219 76.5308 58.7105C76.9188 58.6991 77.244 58.6877 77.5065 58.6762C77.6663 58.6648 77.8204 58.6534 77.9687 58.642C78.1285 58.6306 78.2826 58.6249 78.4309 58.6249C78.5679 58.6249 78.682 58.6877 78.7733 58.8132C78.8304 58.8588 78.8703 58.9102 78.8932 58.9673C78.9274 59.0243 78.9673 59.0814 79.013 59.1385C79.5037 59.9487 79.9945 60.7647 80.4852 61.5865C80.976 62.3967 81.4553 63.2184 81.9232 64.0516C82.0259 63.8918 82.1857 63.6521 82.4025 63.3326C82.6194 63.0016 82.8533 62.6364 83.1044 62.237C83.3669 61.8261 83.618 61.421 83.8576 61.0215C84.1087 60.6221 84.3084 60.2683 84.4568 59.9602C84.6166 59.6406 84.6965 59.4181 84.6965 59.2925C84.6965 59.1784 84.6337 59.1156 84.5082 59.1042C84.394 59.0814 84.297 59.07 84.2171 59.07C84.0916 59.07 83.9603 59.0757 83.8234 59.0871C83.6979 59.0985 83.5666 59.1042 83.4297 59.1042C83.3384 59.1042 83.2813 59.0871 83.2585 59.0529C83.2356 59.0072 83.2242 58.9444 83.2242 58.8646C83.2242 58.7276 83.2984 58.6591 83.4468 58.6591C83.5951 58.6591 83.7435 58.6648 83.8919 58.6762C84.0402 58.6877 84.1886 58.6934 84.337 58.6934C84.6565 58.6934 84.9761 58.6934 85.2956 58.6934C85.6266 58.682 85.9518 58.6705 86.2714 58.6591C86.4312 58.6477 86.5852 58.6363 86.7336 58.6249C86.8934 58.6135 87.0532 58.6078 87.2129 58.6078C87.3727 58.6078 87.4526 58.6877 87.4526 58.8474C87.4526 59.0072 87.3613 59.0985 87.1787 59.1213C87.0075 59.1442 86.8021 59.1613 86.5624 59.1727C86.3342 59.1727 86.1401 59.224 85.9804 59.3268C85.8891 59.3838 85.7864 59.4694 85.6722 59.5835C85.5695 59.6977 85.4839 59.8004 85.4154 59.8917C84.9019 60.6563 84.3769 61.4153 83.8405 62.1685C83.3041 62.9103 82.7563 63.6521 82.1971 64.3939C82.5965 64.9874 82.996 65.5808 83.3954 66.1743C83.8063 66.7563 84.2114 67.3384 84.6109 67.9204C84.8848 68.3199 85.1644 68.7193 85.4497 69.1187C85.735 69.5182 86.0317 69.9062 86.3399 70.2828C86.4654 70.4312 86.6195 70.5282 86.8021 70.5738C86.9961 70.6081 87.1844 70.6252 87.367 70.6252C87.4469 70.6252 87.5211 70.6195 87.5895 70.6081C87.6694 70.5967 87.7493 70.591 87.8292 70.591C87.9205 70.591 87.9776 70.6252 88.0004 70.6937C88.0346 70.7507 88.0518 70.8135 88.0518 70.882ZM101.792 67.9033C101.792 68.5538 101.644 69.0959 101.347 69.5296C101.05 69.9633 100.657 70.3114 100.166 70.5738C99.6865 70.8249 99.1616 71.0075 98.5909 71.1216C98.0317 71.2244 97.4839 71.2757 96.9475 71.2757C96.2513 71.2757 95.5951 71.1673 94.9788 70.9505C94.7278 70.8592 94.4824 70.7621 94.2427 70.6594C94.0031 70.5453 93.752 70.454 93.4895 70.3855C93.4438 70.0203 93.364 69.6209 93.2498 69.1872C93.1471 68.7535 93.0958 68.3598 93.0958 68.006C93.0958 67.8462 93.1186 67.7264 93.1642 67.6465C93.2213 67.5552 93.3411 67.5096 93.5237 67.5096C93.6835 67.5096 93.7862 67.5495 93.8319 67.6294C93.8775 67.6979 93.9118 67.7949 93.9346 67.9204C93.9802 68.0802 94.0202 68.24 94.0544 68.3997C94.0887 68.5481 94.1286 68.7022 94.1743 68.862C94.4025 69.5467 94.7392 70.026 95.1843 70.2999C95.6408 70.5738 96.2228 70.7108 96.9304 70.7108C97.5124 70.7108 98.0317 70.6309 98.4882 70.4711C98.9561 70.2999 99.3213 70.026 99.5838 69.6494C99.8577 69.2728 99.9947 68.7707 99.9947 68.143C99.9947 67.6522 99.8292 67.2128 99.4982 66.8248C99.1673 66.4254 98.8021 66.1115 98.4026 65.8833C98.3113 65.8262 98.2143 65.7749 98.1116 65.7292C98.0089 65.6836 97.9062 65.6379 97.8035 65.5923C97.4497 65.4097 97.0902 65.2271 96.725 65.0445C96.3712 64.8619 96.0117 64.685 95.6465 64.5138C95.2927 64.3312 94.9275 64.1029 94.5509 63.829C94.1857 63.5437 93.8718 63.2184 93.6093 62.8532C93.3583 62.488 93.2327 62.0886 93.2327 61.6549C93.2327 60.9245 93.4267 60.3197 93.8148 59.8403C94.2028 59.361 94.6992 59.0015 95.3041 58.7618C95.909 58.5222 96.5367 58.4023 97.1872 58.4023C97.6551 58.4023 98.0717 58.4594 98.4369 58.5735C98.8135 58.6877 99.1844 58.8075 99.5496 58.933C99.9148 59.0472 100.314 59.127 100.748 59.1727C100.782 59.5151 100.816 59.8574 100.851 60.1998C100.885 60.5422 100.936 60.8846 101.005 61.227C101.016 61.2726 101.022 61.3183 101.022 61.3639C101.033 61.4096 101.039 61.4552 101.039 61.5009C101.039 61.6835 100.976 61.8033 100.851 61.8604C100.736 61.906 100.605 61.9288 100.457 61.9288C100.309 61.9288 100.229 61.9003 100.217 61.8432C100.206 61.7862 100.189 61.7006 100.166 61.5865C100.017 60.6734 99.7037 59.9887 99.2243 59.5322C98.745 59.0643 98.026 58.8303 97.0673 58.8303C96.3598 58.8303 95.8063 59.0186 95.4068 59.3952C95.0188 59.7719 94.8248 60.3197 94.8248 61.0386C94.8248 61.518 94.9503 61.9231 95.2014 62.2541C95.4525 62.585 95.7834 62.8761 96.1943 63.1271C96.6165 63.3668 97.073 63.5951 97.5638 63.8119C98.0659 64.0287 98.5624 64.2513 99.0531 64.4795C99.5439 64.7078 99.9947 64.976 100.406 65.2841C100.828 65.5808 101.164 65.9403 101.416 66.3626C101.667 66.7849 101.792 67.2984 101.792 67.9033ZM113.429 68.1943C113.429 68.3998 113.412 68.6109 113.377 68.8277C113.343 69.0331 113.315 69.2386 113.292 69.444C113.258 69.6723 113.235 69.9062 113.223 70.1459C113.212 70.3741 113.178 70.6024 113.121 70.8306C113.109 70.8991 113.075 70.9676 113.018 71.0361C112.972 71.0931 112.909 71.1216 112.83 71.1216C111.608 71.1216 110.387 71.1159 109.166 71.1045C107.945 71.0817 106.724 71.0703 105.503 71.0703C105.137 71.0703 104.767 71.0874 104.39 71.1216C104.025 71.1445 103.66 71.1559 103.294 71.1559C103.237 71.1559 103.18 71.1388 103.123 71.1045C103.077 71.0589 103.055 71.0075 103.055 70.9505C103.055 70.882 103.072 70.8192 103.106 70.7622C103.14 70.6937 103.197 70.6594 103.277 70.6594C103.517 70.6594 103.745 70.648 103.962 70.6252C104.179 70.591 104.356 70.5111 104.493 70.3855C104.641 70.2486 104.715 70.0317 104.715 69.735V59.9088C104.715 59.6463 104.635 59.4751 104.476 59.3952C104.316 59.3039 104.122 59.2583 103.893 59.2583C103.779 59.2583 103.671 59.264 103.568 59.2754C103.466 59.2754 103.363 59.2754 103.26 59.2754C103.169 59.2754 103.089 59.2526 103.02 59.2069C102.952 59.1613 102.918 59.0871 102.918 58.9844C102.918 58.8931 102.935 58.8132 102.969 58.7447C103.003 58.6762 103.077 58.642 103.192 58.642C103.386 58.642 103.574 58.6477 103.757 58.6591C103.951 58.6705 104.139 58.6762 104.321 58.6762C105.474 58.6762 106.627 58.6705 107.779 58.6591C108.932 58.6363 110.079 58.6249 111.22 58.6249C111.745 58.6249 112.265 58.6078 112.778 58.5735C112.824 58.9045 112.881 59.2355 112.949 59.5664C113.018 59.8974 113.075 60.2284 113.121 60.5593C113.143 60.6278 113.161 60.6963 113.172 60.7647C113.183 60.8218 113.189 60.8846 113.189 60.9531C113.189 61.0672 113.149 61.1471 113.069 61.1927C113.001 61.2384 112.915 61.2612 112.812 61.2612C112.721 61.2612 112.653 61.2441 112.607 61.2098C112.573 61.1642 112.539 61.0957 112.504 61.0044C112.287 60.3197 111.996 59.846 111.631 59.5835C111.277 59.3211 110.735 59.1898 110.005 59.1898H106.444V64.3426C106.889 64.3426 107.334 64.3426 107.779 64.3426C108.225 64.3312 108.675 64.3141 109.132 64.2912C109.6 64.2684 110.033 64.2285 110.433 64.1714C110.844 64.1029 111.277 64.0287 111.734 63.9489H111.751C111.82 63.9489 111.854 63.9774 111.854 64.0344C111.854 64.1143 111.82 64.257 111.751 64.4624C111.683 64.6678 111.631 64.8048 111.597 64.8733C111.54 65.0102 111.449 65.0787 111.323 65.0787C111.038 65.0787 110.741 65.0616 110.433 65.0273C110.136 64.9817 109.839 64.9589 109.543 64.9589C109.337 64.9475 109.132 64.9475 108.926 64.9589C108.721 64.9589 108.51 64.9589 108.293 64.9589C108.213 64.9589 108.128 64.9589 108.036 64.9589C107.956 64.9475 107.871 64.9417 107.779 64.9417C107.608 64.9417 107.42 64.9589 107.215 64.9931C107.009 65.0159 106.827 65.0844 106.667 65.1985C106.518 65.3012 106.444 65.4724 106.444 65.7121V69.8206C106.444 70.2086 106.541 70.4369 106.735 70.5054C106.929 70.5624 107.186 70.591 107.506 70.591H108.875C109.195 70.591 109.548 70.5738 109.936 70.5396C110.336 70.5054 110.724 70.4312 111.101 70.3171C111.477 70.2029 111.785 70.0375 112.025 69.8206C112.287 69.581 112.47 69.3185 112.573 69.0331C112.687 68.7364 112.818 68.4397 112.966 68.143C113.024 68.0403 113.115 67.9889 113.24 67.9889C113.366 67.9889 113.429 68.0574 113.429 68.1943ZM127.07 58.8646C127.07 58.8988 127.058 58.9501 127.035 59.0186C127.012 59.0757 126.973 59.1042 126.915 59.1042C126.824 59.1042 126.733 59.1042 126.642 59.1042C126.55 59.0928 126.459 59.0871 126.368 59.0871C126.06 59.0871 125.843 59.1213 125.717 59.1898C125.603 59.2469 125.535 59.3496 125.512 59.498C125.5 59.6463 125.495 59.8517 125.495 60.1142V70.9162C125.495 71.0189 125.455 71.0703 125.375 71.0703L124.604 71.0874C124.559 70.8363 124.473 70.5853 124.348 70.3342C124.234 70.0831 124.097 69.8549 123.937 69.6494C122.704 68.0288 121.472 66.4197 120.239 64.8219C119.007 63.2127 117.791 61.5922 116.593 59.9602V70.1801C116.593 70.3399 116.65 70.454 116.764 70.5225C116.89 70.5796 117.026 70.6138 117.175 70.6252C117.335 70.6252 117.472 70.6252 117.586 70.6252C117.677 70.6252 117.763 70.6252 117.842 70.6252C117.934 70.6138 118.025 70.6081 118.116 70.6081C118.219 70.6081 118.27 70.6708 118.27 70.7964C118.27 70.8877 118.259 70.9676 118.236 71.0361C118.225 71.1045 118.156 71.1388 118.031 71.1388C117.928 71.1388 117.82 71.1331 117.706 71.1216C117.603 71.0988 117.5 71.0817 117.397 71.0703C117.226 71.0475 117.049 71.0418 116.867 71.0532C116.684 71.0532 116.507 71.0532 116.336 71.0532C116.016 71.0532 115.703 71.0703 115.394 71.1045C115.098 71.1274 114.79 71.1388 114.47 71.1388C114.39 71.1388 114.35 71.0874 114.35 70.9847C114.35 70.8135 114.367 70.7108 114.402 70.6766C114.436 70.6423 114.533 70.6252 114.693 70.6252C114.784 70.6252 114.869 70.6309 114.949 70.6423C115.041 70.6423 115.126 70.6423 115.206 70.6423C115.389 70.6423 115.549 70.6195 115.685 70.5738C115.834 70.5282 115.914 70.3969 115.925 70.1801C115.948 69.6323 115.954 69.0788 115.942 68.5196C115.931 67.9604 115.925 67.4069 115.925 66.8591C115.925 65.6607 115.931 64.4624 115.942 63.2641C115.965 62.0658 115.977 60.8618 115.977 59.652C115.977 59.4466 115.919 59.3039 115.805 59.224C115.703 59.1327 115.571 59.0814 115.412 59.07C115.252 59.0586 115.092 59.0529 114.932 59.0529C114.875 59.0529 114.812 59.0586 114.744 59.07C114.675 59.07 114.613 59.07 114.556 59.07C114.407 59.07 114.333 59.0129 114.333 58.8988C114.333 58.8189 114.339 58.7504 114.35 58.6934C114.373 58.6249 114.436 58.5907 114.539 58.5907C114.835 58.5907 115.132 58.6021 115.429 58.6249C115.725 58.6363 116.022 58.642 116.319 58.642C116.524 58.642 116.73 58.642 116.935 58.642C117.152 58.6306 117.363 58.6249 117.569 58.6249C117.991 59.1955 118.424 59.7547 118.87 60.3025C119.315 60.8503 119.76 61.3981 120.205 61.9459C120.981 62.8932 121.757 63.8404 122.533 64.7877C123.309 65.7235 124.085 66.665 124.861 67.6123V59.5322C124.861 59.3724 124.776 59.2583 124.604 59.1898C124.433 59.1213 124.285 59.0871 124.159 59.0871C124.011 59.0871 123.868 59.0928 123.731 59.1042C123.594 59.1156 123.452 59.1213 123.303 59.1213C123.223 59.1213 123.184 59.0643 123.184 58.9501C123.184 58.9159 123.184 58.8817 123.184 58.8474C123.184 58.8018 123.189 58.7675 123.201 58.7447C123.201 58.642 123.263 58.5907 123.389 58.5907C123.549 58.5907 123.714 58.6021 123.885 58.6249C124.057 58.6363 124.222 58.642 124.382 58.642C124.816 58.642 125.244 58.6363 125.666 58.6249C126.088 58.6135 126.51 58.5907 126.933 58.5564C127.001 58.6021 127.041 58.6477 127.052 58.6934C127.064 58.7276 127.07 58.7847 127.07 58.8646ZM136.849 67.9033C136.849 68.5538 136.701 69.0959 136.404 69.5296C136.107 69.9633 135.713 70.3114 135.223 70.5738C134.743 70.8249 134.218 71.0075 133.648 71.1216C133.089 71.2244 132.541 71.2757 132.004 71.2757C131.308 71.2757 130.652 71.1673 130.036 70.9505C129.785 70.8592 129.539 70.7621 129.3 70.6594C129.06 70.5453 128.809 70.454 128.546 70.3855C128.501 70.0203 128.421 69.6209 128.307 69.1872C128.204 68.7535 128.153 68.3598 128.153 68.006C128.153 67.8462 128.176 67.7264 128.221 67.6465C128.278 67.5552 128.398 67.5096 128.581 67.5096C128.74 67.5096 128.843 67.5495 128.889 67.6294C128.934 67.6979 128.969 67.7949 128.992 67.9204C129.037 68.0802 129.077 68.24 129.111 68.3997C129.146 68.5481 129.186 68.7022 129.231 68.862C129.459 69.5467 129.796 70.026 130.241 70.2999C130.698 70.5738 131.28 70.7108 131.987 70.7108C132.569 70.7108 133.089 70.6309 133.545 70.4711C134.013 70.2999 134.378 70.026 134.641 69.6494C134.915 69.2728 135.052 68.7707 135.052 68.143C135.052 67.6522 134.886 67.2128 134.555 66.8248C134.224 66.4254 133.859 66.1115 133.46 65.8833C133.368 65.8262 133.271 65.7749 133.168 65.7292C133.066 65.6836 132.963 65.6379 132.86 65.5923C132.507 65.4097 132.147 65.2271 131.782 65.0445C131.428 64.8619 131.069 64.685 130.703 64.5138C130.35 64.3312 129.984 64.1029 129.608 63.829C129.243 63.5437 128.929 63.2184 128.666 62.8532C128.415 62.488 128.29 62.0886 128.29 61.6549C128.29 60.9245 128.484 60.3197 128.872 59.8403C129.26 59.361 129.756 59.0015 130.361 58.7618C130.966 58.5222 131.594 58.4023 132.244 58.4023C132.712 58.4023 133.129 58.4594 133.494 58.5735C133.87 58.6877 134.241 58.8075 134.606 58.933C134.972 59.0472 135.371 59.127 135.805 59.1727C135.839 59.5151 135.873 59.8574 135.908 60.1998C135.942 60.5422 135.993 60.8846 136.062 61.227C136.073 61.2726 136.079 61.3183 136.079 61.3639C136.09 61.4096 136.096 61.4552 136.096 61.5009C136.096 61.6835 136.033 61.8033 135.908 61.8604C135.793 61.906 135.662 61.9288 135.514 61.9288C135.365 61.9288 135.286 61.9003 135.274 61.8432C135.263 61.7862 135.246 61.7006 135.223 61.5865C135.074 60.6734 134.761 59.9887 134.281 59.5322C133.802 59.0643 133.083 58.8303 132.124 58.8303C131.417 58.8303 130.863 59.0186 130.464 59.3952C130.076 59.7719 129.882 60.3197 129.882 61.0386C129.882 61.518 130.007 61.9231 130.258 62.2541C130.509 62.585 130.84 62.8761 131.251 63.1271C131.673 63.3668 132.13 63.5951 132.621 63.8119C133.123 64.0287 133.619 64.2513 134.11 64.4795C134.601 64.7078 135.052 64.976 135.462 65.2841C135.885 65.5808 136.221 65.9403 136.472 66.3626C136.724 66.7849 136.849 67.2984 136.849 67.9033ZM148.486 68.1943C148.486 68.3998 148.468 68.6109 148.434 68.8277C148.4 69.0331 148.371 69.2386 148.349 69.444C148.314 69.6723 148.292 69.9062 148.28 70.1459C148.269 70.3741 148.235 70.6024 148.177 70.8306C148.166 70.8991 148.132 70.9676 148.075 71.0361C148.029 71.0931 147.966 71.1216 147.886 71.1216C146.665 71.1216 145.444 71.1159 144.223 71.1045C143.002 71.0817 141.781 71.0703 140.56 71.0703C140.194 71.0703 139.823 71.0874 139.447 71.1216C139.082 71.1445 138.716 71.1559 138.351 71.1559C138.294 71.1559 138.237 71.1388 138.18 71.1045C138.134 71.0589 138.112 71.0075 138.112 70.9505C138.112 70.882 138.129 70.8192 138.163 70.7622C138.197 70.6937 138.254 70.6594 138.334 70.6594C138.574 70.6594 138.802 70.648 139.019 70.6252C139.236 70.591 139.413 70.5111 139.55 70.3855C139.698 70.2486 139.772 70.0317 139.772 69.735V59.9088C139.772 59.6463 139.692 59.4751 139.532 59.3952C139.373 59.3039 139.179 59.2583 138.95 59.2583C138.836 59.2583 138.728 59.264 138.625 59.2754C138.522 59.2754 138.42 59.2754 138.317 59.2754C138.226 59.2754 138.146 59.2526 138.077 59.2069C138.009 59.1613 137.975 59.0871 137.975 58.9844C137.975 58.8931 137.992 58.8132 138.026 58.7447C138.06 58.6762 138.134 58.642 138.249 58.642C138.443 58.642 138.631 58.6477 138.813 58.6591C139.007 58.6705 139.196 58.6762 139.378 58.6762C140.531 58.6762 141.684 58.6705 142.836 58.6591C143.989 58.6363 145.136 58.6249 146.277 58.6249C146.802 58.6249 147.322 58.6078 147.835 58.5735C147.881 58.9045 147.938 59.2355 148.006 59.5664C148.075 59.8974 148.132 60.2284 148.177 60.5593C148.2 60.6278 148.217 60.6963 148.229 60.7647C148.24 60.8218 148.246 60.8846 148.246 60.9531C148.246 61.0672 148.206 61.1471 148.126 61.1927C148.058 61.2384 147.972 61.2612 147.869 61.2612C147.778 61.2612 147.71 61.2441 147.664 61.2098C147.63 61.1642 147.595 61.0957 147.561 61.0044C147.344 60.3197 147.053 59.846 146.688 59.5835C146.334 59.3211 145.792 59.1898 145.062 59.1898H141.501V64.3426C141.946 64.3426 142.391 64.3426 142.836 64.3426C143.281 64.3312 143.732 64.3141 144.189 64.2912C144.657 64.2684 145.09 64.2285 145.49 64.1714C145.901 64.1029 146.334 64.0287 146.791 63.9489H146.808C146.876 63.9489 146.911 63.9774 146.911 64.0344C146.911 64.1143 146.876 64.257 146.808 64.4624C146.739 64.6678 146.688 64.8048 146.654 64.8733C146.597 65.0102 146.506 65.0787 146.38 65.0787C146.095 65.0787 145.798 65.0616 145.49 65.0273C145.193 64.9817 144.896 64.9589 144.6 64.9589C144.394 64.9475 144.189 64.9475 143.983 64.9589C143.778 64.9589 143.567 64.9589 143.35 64.9589C143.27 64.9589 143.184 64.9589 143.093 64.9589C143.013 64.9475 142.928 64.9417 142.836 64.9417C142.665 64.9417 142.477 64.9589 142.271 64.9931C142.066 65.0159 141.883 65.0844 141.724 65.1985C141.575 65.3012 141.501 65.4724 141.501 65.7121V69.8206C141.501 70.2086 141.598 70.4369 141.792 70.5054C141.986 70.5624 142.243 70.591 142.562 70.591H143.932C144.252 70.591 144.605 70.5738 144.993 70.5396C145.393 70.5054 145.781 70.4312 146.157 70.3171C146.534 70.2029 146.842 70.0375 147.082 69.8206C147.344 69.581 147.527 69.3185 147.63 69.0331C147.744 68.7364 147.875 68.4397 148.023 68.143C148.08 68.0403 148.172 67.9889 148.297 67.9889C148.423 67.9889 148.486 68.0574 148.486 68.1943ZM158.549 67.9033C158.549 68.5538 158.4 69.0959 158.104 69.5296C157.807 69.9633 157.413 70.3114 156.922 70.5738C156.443 70.8249 155.918 71.0075 155.347 71.1216C154.788 71.2244 154.24 71.2757 153.704 71.2757C153.008 71.2757 152.352 71.1673 151.735 70.9505C151.484 70.8592 151.239 70.7621 150.999 70.6594C150.76 70.5453 150.508 70.454 150.246 70.3855C150.2 70.0203 150.12 69.6209 150.006 69.1872C149.904 68.7535 149.852 68.3598 149.852 68.006C149.852 67.8462 149.875 67.7264 149.921 67.6465C149.978 67.5552 150.098 67.5096 150.28 67.5096C150.44 67.5096 150.543 67.5495 150.588 67.6294C150.634 67.6979 150.668 67.7949 150.691 67.9204C150.737 68.0802 150.777 68.24 150.811 68.3997C150.845 68.5481 150.885 68.7022 150.931 68.862C151.159 69.5467 151.496 70.026 151.941 70.2999C152.397 70.5738 152.979 70.7108 153.687 70.7108C154.269 70.7108 154.788 70.6309 155.245 70.4711C155.713 70.2999 156.078 70.026 156.34 69.6494C156.614 69.2728 156.751 68.7707 156.751 68.143C156.751 67.6522 156.586 67.2128 156.255 66.8248C155.924 66.4254 155.559 66.1115 155.159 65.8833C155.068 65.8262 154.971 65.7749 154.868 65.7292C154.765 65.6836 154.663 65.6379 154.56 65.5923C154.206 65.4097 153.847 65.2271 153.481 65.0445C153.128 64.8619 152.768 64.685 152.403 64.5138C152.049 64.3312 151.684 64.1029 151.307 63.829C150.942 63.5437 150.628 63.2184 150.366 62.8532C150.115 62.488 149.989 62.0886 149.989 61.6549C149.989 60.9245 150.183 60.3197 150.571 59.8403C150.959 59.361 151.456 59.0015 152.061 58.7618C152.665 58.5222 153.293 58.4023 153.944 58.4023C154.412 58.4023 154.828 58.4594 155.193 58.5735C155.57 58.6877 155.941 58.8075 156.306 58.933C156.671 59.0472 157.071 59.127 157.504 59.1727C157.539 59.5151 157.573 59.8574 157.607 60.1998C157.641 60.5422 157.693 60.8846 157.761 61.227C157.773 61.2726 157.778 61.3183 157.778 61.3639C157.79 61.4096 157.795 61.4552 157.795 61.5009C157.795 61.6835 157.733 61.8033 157.607 61.8604C157.493 61.906 157.362 61.9288 157.213 61.9288C157.065 61.9288 156.985 61.9003 156.974 61.8432C156.962 61.7862 156.945 61.7006 156.922 61.5865C156.774 60.6734 156.46 59.9887 155.981 59.5322C155.502 59.0643 154.783 58.8303 153.824 58.8303C153.116 58.8303 152.563 59.0186 152.163 59.3952C151.775 59.7719 151.581 60.3197 151.581 61.0386C151.581 61.518 151.707 61.9231 151.958 62.2541C152.209 62.585 152.54 62.8761 152.951 63.1271C153.373 63.3668 153.83 63.5951 154.32 63.8119C154.822 64.0287 155.319 64.2513 155.81 64.4795C156.3 64.7078 156.751 64.976 157.162 65.2841C157.584 65.5808 157.921 65.9403 158.172 66.3626C158.423 66.7849 158.549 67.2984 158.549 67.9033Z" fill="#D9D9D9"/>
<path d="M136.129 55.4299C140.068 55.4299 143.262 52.2364 143.262 48.297C143.262 44.3577 140.068 41.1642 136.129 41.1642C132.19 41.1642 128.996 44.3577 128.996 48.297C128.996 52.2364 132.19 55.4299 136.129 55.4299Z" fill="#D9D9D9"/>
<path d="M122.576 41.1633C126.516 41.1633 129.709 37.9698 129.709 34.0304C129.709 30.0911 126.516 26.8976 122.576 26.8976C118.637 26.8976 115.443 30.0911 115.443 34.0304C115.443 37.9698 118.637 41.1633 122.576 41.1633Z" fill="#D9D9D9"/>
<path d="M108.311 27.6112C112.25 27.6112 115.443 24.4177 115.443 20.4783C115.443 16.5389 112.25 13.3455 108.311 13.3455C104.371 13.3455 101.178 16.5389 101.178 20.4783C101.178 24.4177 104.371 27.6112 108.311 27.6112Z" fill="#D9D9D9"/>
<path d="M94.7598 41.1633C98.6992 41.1633 101.893 37.9698 101.893 34.0304C101.893 30.0911 98.6992 26.8976 94.7598 26.8976C90.8204 26.8976 87.627 30.0911 87.627 34.0304C87.627 37.9698 90.8204 41.1633 94.7598 41.1633Z" fill="#D9D9D9"/>
<path d="M108.311 55.4299C112.25 55.4299 115.443 52.2364 115.443 48.297C115.443 44.3577 112.25 41.1642 108.311 41.1642C104.371 41.1642 101.178 44.3577 101.178 48.297C101.178 52.2364 104.371 55.4299 108.311 55.4299Z" fill="#D9D9D9"/>
<path d="M80.4922 55.4299C84.4316 55.4299 87.6251 52.2364 87.6251 48.297C87.6251 44.3577 84.4316 41.1642 80.4922 41.1642C76.5529 41.1642 73.3594 44.3577 73.3594 48.297C73.3594 52.2364 76.5529 55.4299 80.4922 55.4299Z" fill="#D9D9D9"/>
</g>
<defs>
<clipPath id="clip0_2521_521">
<rect width="102" height="62.7691" fill="white" transform="translate(57.668 13.3454)"/>
</clipPath>
</defs>
</svg>
