<svg width="217" height="75" viewBox="0 0 217 75" fill="none" xmlns="http://www.w3.org/2000/svg">
<g clip-path="url(#clip0_2521_582)">
<path d="M44.8422 40.5716H38.8164C41.8623 38.9996 41.9604 33.9232 41.9604 33.9232C42.2553 38.5736 44.8422 40.5716 44.8422 40.5716ZM135.633 21.8054C135.083 21.8054 134.65 22.2174 134.65 22.7656C134.65 23.3032 135.083 23.7146 135.633 23.7146C136.181 23.7146 136.627 23.3032 136.627 22.7656C136.627 22.2174 136.181 21.8054 135.633 21.8054ZM125.871 29.2373C125.161 29.2373 124.819 29.0085 124.819 28.3568V26.1277H126.419V24.8235H124.819V23.3945H123.275V24.8235H122.382V26.1277H123.275V28.4943C123.275 29.9467 124.144 30.6212 125.538 30.6212C125.939 30.6212 126.282 30.5638 126.602 30.4837V29.1911C126.305 29.214 126.054 29.2373 125.871 29.2373ZM86.3194 27.191V30.4846H87.8637V27.1561C87.8637 26.5278 88.2874 26.0933 88.9044 26.0933C89.5104 26.0933 89.9108 26.5157 89.9108 27.1905V30.4841H91.4545V26.9729C91.4545 25.6124 90.6654 24.6978 89.3164 24.6978C88.5157 24.6978 87.8524 25.0184 87.4292 25.5101C87.0748 24.9946 86.5147 24.6978 85.7488 24.6978C85.0738 24.6978 84.5252 24.9382 84.1477 25.3275V24.8236H82.7297V30.4846H84.2726V27.191C84.2726 26.516 84.6958 26.0938 85.3144 26.0938C85.9199 26.0938 86.3194 26.516 86.3194 27.191ZM94.8149 27.2828C93.5116 27.2828 92.6764 27.9004 92.6764 28.9291C92.6764 29.8898 93.3969 30.6212 94.6321 30.6212C95.364 30.6212 95.9583 30.3587 96.3592 29.9351V30.4846H97.7772V27.1225C97.7772 25.5106 96.7936 24.6978 95.3524 24.6978C94.3582 24.6978 93.5457 25.0748 92.8824 25.8645L93.6832 26.8135C94.152 26.3218 94.5749 26.0356 95.1809 26.0356C95.8786 26.0356 96.2329 26.4126 96.2329 27.0302V27.2815L94.8149 27.2828ZM96.2329 28.3689C96.2329 29.0317 95.6954 29.4895 95.0434 29.4895C94.5633 29.4895 94.2318 29.2601 94.2318 28.8722C94.2318 28.4938 94.518 28.2994 95.0209 28.2994H96.2333L96.2329 28.3689ZM101.79 30.6212C102.568 30.6212 103.22 30.3243 103.608 29.7868V30.4846H105.026V21.9075H103.483V25.3726C103.083 24.9387 102.5 24.6978 101.79 24.6978C100.19 24.6978 99.0459 25.9558 99.0459 27.6595C99.0459 29.3627 100.19 30.6212 101.79 30.6212ZM102.076 26.0928C102.786 26.0928 103.505 26.5846 103.505 27.6599C103.505 28.7465 102.786 29.2148 102.076 29.2148C101.265 29.2148 100.613 28.609 100.613 27.6478C100.613 26.6875 101.277 26.0928 102.076 26.0928ZM106.661 30.4846H108.205V24.8235H106.661V30.4846ZM107.428 23.7142C107.976 23.7142 108.422 23.3021 108.422 22.7651C108.422 22.2162 107.976 21.8049 107.428 21.8049C106.879 21.8049 106.445 22.2162 106.445 22.7651C106.445 23.3021 106.879 23.7142 107.428 23.7142ZM111.383 27.1797C111.383 26.5272 111.829 26.0812 112.458 26.0812C113.087 26.0812 113.512 26.5272 113.512 27.1797V30.4841H115.043V26.9743C115.043 25.6132 114.242 24.6986 112.916 24.6986C112.219 24.6986 111.647 24.9499 111.258 25.3386V24.8249H109.84V30.4846H111.384L111.383 27.1797ZM118.416 27.2828C117.112 27.2828 116.277 27.9004 116.277 28.9291C116.277 29.8898 116.998 30.6212 118.233 30.6212C118.964 30.6212 119.559 30.3587 119.96 29.9351V30.4846H121.377V27.1225C121.377 25.5106 120.393 24.6978 118.953 24.6978C117.958 24.6978 117.146 25.0748 116.483 25.8645L117.284 26.8135C117.752 26.3218 118.176 26.0356 118.782 26.0356C119.479 26.0356 119.834 26.4126 119.834 27.0302V27.2815L118.416 27.2828ZM119.834 28.3689C119.834 29.0317 119.297 29.4895 118.645 29.4895C118.164 29.4895 117.833 29.2601 117.833 28.8722C117.833 28.4938 118.119 28.2994 118.623 28.2994H119.834L119.834 28.3689ZM176.337 24.6981C175.697 24.6981 175.16 24.9275 174.782 25.305V21.9085H173.239V30.4854H174.782V27.1918C174.782 26.5398 175.228 26.0938 175.858 26.0938C176.486 26.0938 176.91 26.5286 176.91 27.1918V30.4854H178.442V26.9746C178.442 25.6146 177.63 24.6981 176.337 24.6981ZM171.981 30.4851V27.1228C171.981 25.5101 170.997 24.6981 169.556 24.6981C168.562 24.6981 167.75 25.0762 167.086 25.8645L167.887 26.8143C168.356 26.3218 168.778 26.0364 169.385 26.0364C170.083 26.0364 170.437 26.4134 170.437 27.0307V27.282H169.019C167.716 27.282 166.881 27.8999 166.881 28.9296C166.881 29.8898 167.602 30.6216 168.837 30.6216C169.568 30.6216 170.163 30.3592 170.563 29.9355V30.4837L171.981 30.4851ZM170.437 28.3693C170.437 29.0322 169.9 29.4895 169.247 29.4895C168.767 29.4895 168.436 29.261 168.436 28.8727C168.436 28.4952 168.721 28.3013 169.225 28.3013H170.437V28.3693ZM164.685 27.6609C164.685 26.6424 165.314 26.1851 166.206 26.1851H166.618V24.8241C166.469 24.7787 166.32 24.7559 166.115 24.7559C165.498 24.7559 164.937 25.0188 164.56 25.4989V24.8241H163.142V30.4851H164.686L164.685 27.6609ZM160.294 30.4851H161.838V24.824H160.294V30.4851ZM160.078 22.7661C160.078 23.304 160.511 23.7151 161.061 23.7151C161.61 23.7151 162.055 23.304 162.055 22.7661C162.055 22.2179 161.609 21.8059 161.061 21.8059C160.511 21.8059 160.078 22.2179 160.078 22.7661ZM159.06 29.7757L158.419 28.7236C157.961 29.0778 157.459 29.2956 156.84 29.2956C156.018 29.2956 155.434 28.8955 155.25 28.1745H159.219C159.265 27.9801 159.322 27.6488 159.322 27.3285C159.322 25.8653 158.247 24.6981 156.658 24.6981C154.989 24.6981 153.696 25.9902 153.696 27.6603C153.696 29.3295 155 30.6216 156.796 30.6216C157.665 30.6216 158.42 30.3127 159.06 29.7757ZM156.6 25.9451C157.253 25.9451 157.813 26.3674 157.824 27.0884H155.25C155.423 26.3798 155.948 25.9451 156.6 25.9451ZM145.59 27.1915C145.59 26.5165 146.013 26.0933 146.63 26.0933C147.236 26.0933 147.637 26.5165 147.637 27.1915V30.4841H149.181V27.1569C149.181 26.5286 149.604 26.0933 150.221 26.0933C150.827 26.0933 151.227 26.5165 151.227 27.1915V30.4841H152.771V26.9738C152.771 25.6141 151.982 24.6987 150.633 24.6987C149.833 24.6987 149.169 25.0193 148.746 25.5101C148.391 24.9965 147.832 24.6987 147.065 24.6987C146.39 24.6987 145.842 24.9387 145.464 25.3275V24.8246H144.046V30.4841H145.59V27.1915ZM141.256 28.1181C141.256 28.7814 140.787 29.2046 140.204 29.2046C139.598 29.2046 139.129 28.7809 139.129 28.1181V24.8245H137.586V27.9922C137.586 29.5925 138.706 30.6221 140.204 30.6221C141.68 30.6221 142.8 29.5925 142.8 27.9922V24.8245H141.257L141.256 28.1181ZM134.864 30.4166C134.864 31.056 134.521 31.2974 133.846 31.2974C133.687 31.2974 133.561 31.2863 133.378 31.263V32.5551C133.595 32.6228 133.869 32.6805 134.235 32.6805C135.539 32.6805 136.407 32.0055 136.407 30.5536V24.8245H134.864L134.864 30.4166ZM87.8204 53.3342H89.9238V32.8395H87.8204V53.3342ZM104.291 35.395C104.291 34.5488 105.003 33.8671 105.876 33.8671C106.726 33.8671 107.434 34.5488 107.434 35.395C107.434 36.2714 106.726 36.9267 105.876 36.9267C105.003 36.9267 104.291 36.2714 104.291 35.395ZM104.809 40.4794H106.913V53.7874H104.809V40.4794ZM127.402 40.4794L121.143 54.0886H120.378L114.092 40.4794H116.335L120.761 50.5079L125.16 40.4794H127.402ZM134.067 35.395C134.067 34.5488 134.779 33.8671 135.652 33.8671C136.5 33.8671 137.21 34.5488 137.21 35.395C137.21 36.2714 136.5 36.9267 135.652 36.9267C134.779 36.9267 134.067 36.2714 134.067 35.395ZM134.585 40.4794H136.689V53.7874H134.585V40.4794ZM156.032 45.4271V53.7874H153.928V45.6713C153.928 43.568 152.669 42.1199 150.62 42.1199C148.572 42.1199 147.121 43.5944 147.121 45.6713V53.7874H145.018V40.4794H146.987V41.9008C147.943 40.835 149.363 40.1809 151.085 40.1809C154.225 40.1809 156.032 42.3386 156.032 45.4271ZM175.385 40.4794V52.5011C175.385 56.5992 172.789 59.006 168.909 59.006C166.12 59.006 163.963 57.7476 162.651 56.4361L163.881 54.9612C165.165 56.0807 166.667 57.066 168.854 57.066C171.559 57.066 173.28 55.5621 173.28 52.6099V51.4361C172.214 52.8277 170.329 53.6495 168.333 53.6495C164.59 53.6495 161.803 50.8076 161.803 46.9271C161.803 43.0734 164.59 40.1773 168.333 40.1773C170.438 40.1773 172.352 41.0791 173.389 42.6082V40.4782L175.385 40.4794ZM173.308 46.9284C173.308 43.5958 170.958 42.1741 168.661 42.1741C165.957 42.1741 163.935 44.1408 163.935 46.9564C163.935 49.7705 165.957 51.7105 168.661 51.7105C170.983 51.7105 173.308 50.2614 173.308 46.9284ZM64.6217 46.9415C64.5958 46.9339 64.5701 46.9264 64.5442 46.9197C64.525 46.9144 64.506 46.9097 64.4866 46.9051C64.4534 46.8969 64.4197 46.8891 64.3861 46.8821C64.3711 46.8788 64.3565 46.8753 64.3415 46.8724C64.2409 46.8524 64.1391 46.8368 64.0355 46.8259C64.0225 46.8245 64.0091 46.8231 63.9958 46.8219C63.9561 46.8182 63.9157 46.8155 63.8755 46.8127C63.861 46.8119 63.8467 46.8109 63.8321 46.8104C63.7798 46.808 63.7271 46.8063 63.6741 46.8063C63.6053 46.8063 63.5371 46.8092 63.4693 46.8129C63.4547 46.8139 63.44 46.8151 63.4257 46.8165C63.3669 46.8207 63.3082 46.8264 63.2502 46.8337C63.2427 46.8345 63.2351 46.8354 63.2276 46.8366C61.5668 47.0552 60.2848 48.4754 60.2848 50.1958C60.2848 50.3892 60.3016 50.5788 60.333 50.7633C60.3374 50.7895 60.3434 50.8154 60.3485 50.8411C60.3754 51.013 60.4141 51.1935 60.4567 51.3586C60.5046 51.5441 60.5598 51.7266 60.6223 51.906C61.176 53.4974 62.2858 54.8283 63.7184 55.6686C63.6649 55.6057 63.6128 55.542 63.5634 55.4759C63.1032 54.9311 62.8189 54.2334 62.7967 53.47C63.0155 53.5284 63.2433 53.5657 63.4773 53.5793C63.5424 53.5833 63.6082 53.5856 63.6743 53.5856C65.5465 53.5856 67.064 52.0676 67.064 50.1956C67.064 48.6526 66.0324 47.3516 64.6217 46.9415ZM76.4756 30.8775L76.481 30.4846H70.5465L70.5479 30.8775V35.639V36.8904V40.6796V53.1578V53.3727C70.5479 54.1748 70.2579 54.9091 69.778 55.4769C69.4132 55.9654 68.9353 56.3642 68.3838 56.6361H69.44C73.3287 56.6361 76.481 53.4839 76.481 49.5952V43.8439C76.481 43.7715 76.4776 43.6996 76.4756 43.6273V30.8775ZM54.3066 34.3162L56.7303 30.9756L53.3244 40.5716H50.0169L41.4691 14.8957L41.312 14.4373H47.7242L54.3066 34.3162ZM66.1293 40.1783V14.7974L66.1247 14.4374H62.2979L60.235 20.5287V40.1785L60.2468 40.5717H66.1355L66.1293 40.1783Z" fill="#D9D9D9"/>
</g>
<defs>
<clipPath id="clip0_2521_582">
<rect width="139.704" height="46" fill="white" transform="translate(38.8164 14.4373)"/>
</clipPath>
</defs>
</svg>
