<svg width="217" height="90" viewBox="0 0 217 90" fill="none" xmlns="http://www.w3.org/2000/svg">
<path d="M76.6749 38.4983C76.6749 38.6574 76.6352 38.8086 76.5556 38.9519C76.476 39.0792 76.3487 39.1429 76.1736 39.1429C75.9189 39.1429 75.7438 39.0872 75.6483 38.9758C75.5687 38.8644 75.4971 38.7052 75.4334 38.4983C75.3857 38.2754 75.3061 38.0049 75.1947 37.6865C75.0992 37.3522 74.9878 37.026 74.8604 36.7076C74.749 36.3734 74.6296 36.1187 74.5023 35.9436C74.4386 35.8481 74.367 35.7606 74.2874 35.681C74.2078 35.5855 74.1283 35.4979 74.0487 35.4183C73.9372 35.2751 73.7383 35.1796 73.4518 35.1318C73.1653 35.0682 72.8708 35.0363 72.5684 35.0363C72.266 35.0204 72.0272 35.0125 71.8521 35.0125C71.6452 35.0125 71.4224 35.0125 71.1836 35.0125C70.9448 35.0125 70.7379 35.0682 70.5628 35.1796C70.3877 35.2751 70.2922 35.4661 70.2763 35.7526C70.2604 36.2938 70.2525 36.8509 70.2525 37.4239C70.2525 37.981 70.2525 38.538 70.2525 39.0951C70.2525 40.9097 70.2525 42.7242 70.2525 44.5387C70.2684 46.3533 70.2763 48.1678 70.2763 49.9823C70.2763 50.1733 70.3002 50.3962 70.348 50.6509C70.4116 50.9055 70.5708 51.0329 70.8255 51.0329C71.0642 51.0329 71.295 51.0249 71.5179 51.009C71.7566 50.9931 71.9954 50.9851 72.2341 50.9851C72.3615 50.9851 72.457 51.0408 72.5206 51.1522C72.5843 51.2477 72.6161 51.3432 72.6161 51.4387C72.6161 51.7253 72.4808 51.8685 72.2102 51.8685C72.0351 51.8685 71.8521 51.8605 71.6611 51.8446C71.486 51.8287 71.311 51.8128 71.1358 51.7969C70.8334 51.765 70.531 51.7491 70.2286 51.7491C69.9262 51.7491 69.6158 51.7491 69.2974 51.7491C68.7722 51.7491 68.2469 51.7491 67.7217 51.7491C67.1964 51.7491 66.6711 51.765 66.1459 51.7969C65.9549 51.8128 65.7559 51.8287 65.549 51.8446C65.358 51.8605 65.167 51.8685 64.976 51.8685C64.8327 51.8685 64.7213 51.8208 64.6417 51.7253C64.5621 51.6297 64.5224 51.5183 64.5224 51.391C64.5224 51.2159 64.594 51.1125 64.7372 51.0806C64.8805 51.0329 65.0158 51.009 65.1431 51.009C65.3182 51.009 65.4774 51.017 65.6206 51.0329C65.7798 51.0329 65.939 51.0329 66.0981 51.0329C66.512 51.0329 66.7428 50.9374 66.7905 50.7464C66.8542 50.5554 66.886 50.2848 66.886 49.9346V36.6121C66.886 35.9913 66.8542 35.5775 66.7905 35.3706C66.7269 35.1477 66.5597 35.0363 66.2891 35.0363C66.0185 35.0204 65.5729 35.0125 64.9521 35.0125C64.7452 35.0125 64.4587 35.0204 64.0926 35.0363C63.7424 35.0522 63.4798 35.108 63.3047 35.2035C63.0978 35.3149 62.9307 35.4661 62.8033 35.6571C62.676 35.8322 62.5725 36.0311 62.4929 36.254C62.3656 36.6201 62.2383 36.9941 62.1109 37.3761C61.9995 37.7581 61.8802 38.1322 61.7528 38.4983C61.6892 38.7211 61.6096 38.8882 61.514 38.9996C61.4185 39.0951 61.2434 39.1429 60.9888 39.1429C60.6864 39.1429 60.5352 38.9837 60.5352 38.6654C60.5352 38.2515 60.5749 37.782 60.6545 37.2567C60.75 36.7156 60.8058 36.2142 60.8217 35.7526C60.8376 35.4979 60.8376 35.2432 60.8217 34.9886C60.8217 34.718 60.8455 34.4633 60.8933 34.2246C60.9092 34.1132 60.9649 34.0574 61.0604 34.0574C61.2355 34.0574 61.4106 34.0813 61.5857 34.1291C61.7767 34.1768 61.9597 34.2166 62.1348 34.2484C62.3258 34.2643 62.5168 34.2803 62.7078 34.2962C62.9147 34.2962 63.1217 34.3042 63.3286 34.3201C64.1722 34.336 65.0476 34.3519 65.9549 34.3678C66.878 34.3678 67.7535 34.3678 68.5812 34.3678C69.5203 34.3678 70.5071 34.3598 71.5417 34.3439C72.5763 34.328 73.5632 34.3201 74.5023 34.3201C74.5978 34.3201 74.6933 34.3201 74.7888 34.3201C74.9002 34.3201 75.0037 34.3121 75.0992 34.2962C75.2743 34.2643 75.4414 34.2166 75.6006 34.1529C75.7757 34.0893 75.9507 34.0574 76.1258 34.0574C76.2054 34.0574 76.2611 34.0972 76.2929 34.1768C76.3407 34.3997 76.3725 34.6623 76.3884 34.9647C76.4043 35.2512 76.4203 35.5059 76.4362 35.7287C76.4839 36.1744 76.5317 36.636 76.5794 37.1135C76.6431 37.5751 76.6749 38.0367 76.6749 38.4983Z" fill="#D9D9D9"/>
<path d="M70.7457 54.6082L68.5527 52.6077L66.5522 54.8007L68.7452 56.8012L70.7457 54.6082Z" fill="#D9D9D9"/>
<path d="M56.5089 50.8049C56.5089 51.9866 56.244 52.9747 55.7143 53.7692C55.1846 54.5434 54.4817 55.1546 53.6057 55.6029C52.75 56.0511 51.8128 56.3669 50.7941 56.5503C49.7754 56.7336 48.7771 56.8253 47.7992 56.8253C47.0453 56.8253 46.3221 56.7132 45.6294 56.4891C44.9366 56.2854 44.2337 56.0511 43.5207 55.7862C43.1743 55.664 42.828 55.5927 42.4816 55.5723C42.1556 55.5316 41.8093 55.5112 41.4426 55.5112C41.3814 55.0222 41.3203 54.5434 41.2592 54.0748C41.1981 53.5859 41.1268 53.0969 41.0453 52.6079C41.0045 52.2616 40.9536 51.9254 40.8925 51.5994C40.8313 51.2735 40.8008 50.9475 40.8008 50.6215C40.8008 50.3363 40.8517 50.102 40.9536 49.9186C41.0758 49.7353 41.2898 49.6436 41.5954 49.6436C41.8806 49.6436 42.0945 49.7047 42.2371 49.8269C42.4001 49.9288 42.5224 50.1121 42.6039 50.377C42.7465 50.7437 42.8585 51.1206 42.94 51.5078C43.0419 51.8949 43.1641 52.2819 43.3067 52.6691C43.6531 53.6266 44.2134 54.3906 44.9876 54.9611C45.7822 55.5316 46.7091 55.8168 47.7686 55.8168C49.1948 55.8168 50.2847 55.4093 51.0386 54.5944C51.8128 53.7591 52.1999 52.6385 52.1999 51.2327C52.1999 50.4178 52.0267 49.7454 51.6803 49.2157C51.334 48.6656 50.8858 48.1971 50.3357 47.8099C49.7856 47.4228 49.1948 47.0561 48.5632 46.7098C47.9723 46.3838 47.3713 46.0782 46.7601 45.7929C46.1489 45.5077 45.5478 45.2123 44.957 44.9067C44.3051 44.5603 43.6633 44.1325 43.0317 43.6231C42.4205 43.0934 41.9111 42.4924 41.5037 41.8201C41.1166 41.1273 40.923 40.3837 40.923 39.5891C40.923 38.2445 41.2694 37.1341 41.9621 36.258C42.6752 35.382 43.5818 34.73 44.682 34.3022C45.8025 33.8743 46.9638 33.6604 48.1659 33.6604C48.9401 33.6604 49.6837 33.7725 50.3968 33.9966C51.1303 34.2003 51.8433 34.4448 52.536 34.73C52.7601 34.8115 52.9639 34.8727 53.1472 34.9134C53.351 34.9541 53.5649 34.9745 53.789 34.9745C53.952 34.9745 54.1048 34.9745 54.2474 34.9745C54.3901 34.9541 54.5326 34.9338 54.6753 34.9134C54.7364 35.5653 54.8077 36.2173 54.8892 36.8693C54.9707 37.5212 55.0522 38.1732 55.1337 38.8251C55.1541 38.927 55.1642 39.0391 55.1642 39.1613C55.1846 39.2632 55.1948 39.3651 55.1948 39.4669C55.1948 39.7521 55.1337 40.017 55.0114 40.2615C54.8892 40.4856 54.6549 40.5976 54.3086 40.5976C54.0437 40.5976 53.8501 40.5365 53.7279 40.4143C53.6057 40.292 53.4936 40.1188 53.3917 39.8948C53.1472 39.2632 52.9129 38.6418 52.6888 38.0306C52.4647 37.4193 52.1388 36.8489 51.7109 36.3192C51.2627 35.7487 50.7024 35.3311 50.0301 35.0662C49.3577 34.781 48.665 34.6383 47.952 34.6383C47.2592 34.6383 46.6786 34.8319 46.21 35.219C45.7414 35.5857 45.395 36.0645 45.1709 36.6553C44.9468 37.2462 44.8348 37.8574 44.8348 38.489C44.8348 39.4669 45.0894 40.2309 45.5988 40.781C46.1285 41.3107 46.7805 41.7997 47.5547 42.2479C47.9825 42.472 48.4104 42.6962 48.8382 42.9202C49.2864 43.124 49.7245 43.3277 50.1523 43.5315C51.171 44 52.1591 44.5705 53.1167 45.2429C54.0946 45.8948 54.8994 46.6792 55.531 47.596C56.1829 48.4924 56.5089 49.5621 56.5089 50.8049ZM94.5186 39.6197C94.5186 38.1121 94.1824 36.9508 93.5101 36.1358C92.8583 35.3208 91.7476 34.9134 90.179 34.9134H89.6289C89.4661 34.9134 89.2928 34.9134 89.1094 34.9134C88.926 34.9134 88.7527 34.9338 88.5899 34.9745C88.386 35.0356 88.2537 35.1273 88.1926 35.2495C88.1315 35.3718 88.1009 35.545 88.1009 35.7691C88.1009 36.9508 88.0909 38.1324 88.0703 39.3141C88.0703 40.4754 88.0703 41.6571 88.0703 42.8591V44.1121C88.2131 44.1325 88.3554 44.1528 88.4982 44.1732C88.641 44.1732 88.7833 44.1732 88.926 44.1732C89.9856 44.1732 90.933 44.051 91.7682 43.8065C92.6239 43.5416 93.2962 43.0832 93.7852 42.4313C94.2741 41.7589 94.5186 40.8217 94.5186 39.6197ZM102.281 56.0002C102.281 56.1835 102.108 56.3262 101.761 56.428C101.435 56.5095 101.038 56.5604 100.57 56.5808C100.121 56.6215 99.6934 56.6419 99.2861 56.6419C98.8787 56.6623 98.6037 56.6725 98.4609 56.6725C97.6869 56.6725 96.984 56.591 96.3522 56.428C95.741 56.265 95.2215 55.8066 94.7937 55.0528C93.8563 53.4229 92.9395 51.7726 92.0432 50.102C91.1469 48.411 90.2502 46.7301 89.3539 45.0595L88.0703 45.0289C88.0703 46.6385 88.0703 48.2582 88.0703 49.8881C88.0909 51.4976 88.1009 53.1173 88.1009 54.7472C88.1009 54.9305 88.152 55.1139 88.2537 55.2973C88.3554 55.4602 88.5082 55.5418 88.7121 55.5418C88.9566 55.5418 89.2011 55.5316 89.4456 55.5112C89.69 55.4908 89.9345 55.4806 90.179 55.4806C90.2807 55.4806 90.3724 55.5519 90.4541 55.6946C90.5558 55.8168 90.6069 55.9289 90.6069 56.0307C90.6069 56.1734 90.5663 56.2956 90.4846 56.3974C90.4235 56.4993 90.3218 56.5503 90.179 56.5503C89.9957 56.5503 89.8223 56.5401 89.6595 56.5197C89.4967 56.4993 89.3333 56.4891 89.1705 56.4891C88.8038 56.4484 88.4371 56.428 88.0703 56.428C87.7036 56.428 87.3369 56.428 86.9702 56.428C86.0941 56.428 85.2078 56.4484 84.3114 56.4891C83.4353 56.5299 82.549 56.5503 81.6526 56.5503C81.3063 56.5503 81.1331 56.3669 81.1331 56.0002C81.1331 55.8575 81.1942 55.7455 81.3164 55.664C81.4387 55.5621 81.5711 55.5112 81.7137 55.5112C81.9175 55.5112 82.1212 55.5214 82.3249 55.5418C82.5287 55.5621 82.7324 55.5723 82.9362 55.5723C83.2214 55.5723 83.4659 55.5214 83.6696 55.4195C83.8734 55.3177 83.9752 55.1037 83.9752 54.7777V35.8913C83.9752 35.5857 83.9141 35.382 83.7919 35.2801C83.6696 35.1579 83.4659 35.0967 83.1806 35.0967C82.9769 35.0967 82.7732 35.1069 82.5694 35.1273C82.3657 35.1477 82.162 35.1579 81.9582 35.1579C81.8156 35.1579 81.6628 35.1069 81.4998 35.0051C81.3572 34.9032 81.2859 34.7708 81.2859 34.6078C81.2859 34.2207 81.51 34.0271 81.9582 34.0271C82.162 34.0271 82.3657 34.0373 82.5694 34.0577C82.7732 34.0577 82.9769 34.0679 83.1806 34.0882C83.5881 34.1086 84.0058 34.129 84.4336 34.1494C84.8615 34.1494 85.2792 34.1494 85.6866 34.1494C86.6645 34.1494 87.6325 34.1188 88.5899 34.0577C89.5678 33.9762 90.5357 33.9354 91.4931 33.9354C92.3283 33.9354 93.184 34.017 94.0602 34.1799C94.9364 34.3226 95.7511 34.5874 96.505 34.9745C97.2791 35.3616 97.9008 35.8913 98.3692 36.5637C98.8377 37.2156 99.0721 38.0509 99.0721 39.0696C99.0721 40.3124 98.8176 41.3107 98.3081 42.0646C97.8192 42.8184 97.1368 43.399 96.2606 43.8065C95.4049 44.214 94.4269 44.5298 93.3268 44.7539C94.223 46.3838 95.1909 47.9831 96.23 49.5519C97.2691 51.1206 98.3182 52.6691 99.3777 54.1971C99.6628 54.5842 100.03 54.9305 100.478 55.2361C100.926 55.5214 101.385 55.664 101.853 55.664C101.996 55.664 102.098 55.6844 102.159 55.7251C102.24 55.7455 102.281 55.8372 102.281 56.0002ZM121.81 51.1716C121.81 51.4976 121.77 51.8338 121.688 52.1801C121.627 52.5061 121.576 52.8423 121.535 53.1886C121.495 53.5757 121.443 53.973 121.382 54.3805C121.342 54.7879 121.301 55.1954 121.26 55.6029C121.199 55.9289 121.107 56.153 120.985 56.2752C120.863 56.3771 120.628 56.428 120.282 56.428C118.204 56.428 116.126 56.4178 114.048 56.3974C111.97 56.3567 109.892 56.3363 107.813 56.3363C107.1 56.3363 106.387 56.3669 105.674 56.428C104.961 56.5095 104.248 56.5503 103.535 56.5503C103.189 56.5503 103.015 56.3771 103.015 56.0307C103.015 55.6844 103.168 55.5112 103.474 55.5112C103.779 55.4908 104.106 55.4602 104.452 55.4195C104.859 55.3788 105.185 55.226 105.43 54.9611C105.695 54.6759 105.827 54.1054 105.827 53.2497V36.7776C105.827 36.4516 105.766 36.1358 105.644 35.8302C105.542 35.5246 105.287 35.3718 104.88 35.3718C104.635 35.3718 104.391 35.382 104.146 35.4024C103.902 35.4024 103.657 35.4024 103.413 35.4024C102.903 35.4024 102.649 35.1579 102.649 34.6689C102.649 34.4244 102.73 34.2716 102.893 34.2105C103.056 34.129 103.239 34.0882 103.443 34.0882C104.034 34.0882 104.615 34.1086 105.185 34.1494C105.756 34.1698 106.326 34.1799 106.897 34.1799C108.812 34.1799 110.727 34.1698 112.642 34.1494C114.557 34.1086 116.472 34.0882 118.387 34.0882C118.754 34.0882 119.121 34.0781 119.488 34.0577C119.854 34.017 120.221 33.9762 120.588 33.9354C120.628 34.2614 120.669 34.5874 120.71 34.9134C120.771 35.2394 120.822 35.5653 120.863 35.8913C120.924 36.2784 121.006 36.6859 121.107 37.1137C121.229 37.5416 121.291 37.9593 121.291 38.3667C121.291 38.6112 121.189 38.815 120.985 38.9779C120.781 39.1206 120.567 39.1919 120.343 39.1919C119.854 39.1919 119.528 38.9779 119.365 38.5501C119.06 37.5925 118.601 36.798 117.99 36.1664C117.399 35.5144 116.564 35.1884 115.484 35.1884H109.983V44.1732C110.757 44.1732 111.511 44.1631 112.245 44.1427C112.999 44.1223 113.752 44.0815 114.506 44.0204C115.26 43.9593 115.983 43.8371 116.676 43.6537C116.961 43.5926 117.257 43.5111 117.562 43.4092C117.888 43.3074 118.194 43.2564 118.479 43.2564C118.724 43.2564 118.846 43.3685 118.846 43.5926C118.846 43.7352 118.805 43.9491 118.724 44.2344C118.662 44.5196 118.611 44.7335 118.571 44.8761C118.469 45.141 118.367 45.304 118.265 45.3651C118.163 45.4058 117.98 45.4262 117.715 45.4262C117.226 45.4262 116.747 45.3957 116.279 45.3345C115.505 45.253 114.72 45.2021 113.926 45.1817C113.131 45.141 112.336 45.1206 111.542 45.1206C111.093 45.1206 110.717 45.2429 110.411 45.4873C110.126 45.7114 109.983 46.068 109.983 46.557V54.0748C109.983 54.5638 110.044 54.9102 110.167 55.1139C110.309 55.3177 110.635 55.4195 111.145 55.4195C111.695 55.4195 112.306 55.4195 112.978 55.4195C113.65 55.4195 114.333 55.389 115.026 55.3278C115.739 55.2667 116.401 55.1343 117.012 54.9305C117.623 54.7268 118.133 54.4212 118.54 54.0137C118.886 53.6674 119.223 53.209 119.549 52.6385C119.875 52.068 120.139 51.5587 120.343 51.1105C120.445 50.866 120.547 50.703 120.649 50.6215C120.751 50.5197 120.934 50.4687 121.199 50.4687C121.443 50.4687 121.606 50.5298 121.688 50.6521C121.77 50.7743 121.81 50.9475 121.81 51.1716ZM145.826 47.1376C145.826 47.3006 145.785 47.4534 145.703 47.596C145.642 47.7386 145.51 47.8099 145.306 47.8099H143.747V54.136C143.034 54.3805 142.332 54.6555 141.639 54.9611C140.946 55.2463 140.253 55.5519 139.561 55.8779C138.868 56.2039 138.114 56.4076 137.299 56.4891C136.505 56.5706 135.72 56.6114 134.946 56.6114C134.274 56.6114 133.55 56.5401 132.776 56.3974C132.002 56.2548 131.248 56.0511 130.515 55.7862C129.781 55.501 129.139 55.1649 128.589 54.7777C127.102 53.698 126.012 52.3227 125.319 50.6521C124.647 48.9814 124.311 47.2598 124.311 45.4873C124.311 43.8778 124.555 42.3702 125.044 40.9644C125.554 39.5586 126.277 38.326 127.214 37.2665C128.172 36.2071 129.313 35.382 130.637 34.7911C131.982 34.1799 133.489 33.8743 135.16 33.8743C136.484 33.8743 137.788 34.0781 139.072 34.4855C139.255 34.5467 139.53 34.6485 139.897 34.7911C140.284 34.9338 140.661 35.0764 141.027 35.219C141.415 35.3412 141.669 35.4024 141.792 35.4024C142.097 35.4024 142.311 35.2903 142.433 35.0662C142.556 34.8421 142.668 34.6179 142.769 34.3939C142.892 34.1698 143.065 34.0577 143.289 34.0577C143.411 34.0577 143.523 34.0882 143.625 34.1494C143.747 34.2105 143.809 34.3123 143.809 34.455C143.809 35.3922 143.819 36.3192 143.839 37.236C143.88 38.1528 143.9 39.0798 143.9 40.017C143.9 40.3022 143.798 40.5365 143.595 40.7199C143.411 40.9033 143.177 40.9949 142.892 40.9949C142.545 40.9949 142.301 40.9236 142.158 40.781C142.036 40.618 141.924 40.3837 141.822 40.0781C141.313 38.5094 140.518 37.2462 139.438 36.2886C138.379 35.3311 136.993 34.8523 135.282 34.8523C134.467 34.8523 133.724 35.0458 133.051 35.4329C132.379 35.82 131.788 36.3293 131.279 36.9609C130.79 37.5722 130.372 38.2445 130.026 38.9779C129.679 39.7114 129.414 40.4245 129.231 41.1172C129.048 41.8099 128.915 42.523 128.834 43.2564C128.752 43.9899 128.712 44.7233 128.712 45.4568C128.712 46.1698 128.752 46.8829 128.834 47.596C128.915 48.3091 129.058 49.012 129.262 49.7047C129.527 50.6419 129.924 51.5383 130.454 52.394C130.983 53.2497 131.645 53.9526 132.44 54.5027C133.255 55.0528 134.192 55.3278 135.252 55.3278C135.639 55.3278 136.077 55.2769 136.566 55.175C137.075 55.0732 137.554 54.9204 138.002 54.7166C138.47 54.5129 138.858 54.248 139.163 53.922C139.469 53.5757 139.622 53.158 139.622 52.6691V48.6351C139.622 48.4721 139.571 48.3091 139.469 48.1461C139.387 47.9831 139.255 47.9016 139.072 47.9016C138.787 47.9016 138.491 47.922 138.185 47.9627C137.9 47.9831 137.615 47.9933 137.33 47.9933C137.167 47.9933 137.024 47.9016 136.902 47.7183C136.8 47.5145 136.749 47.3414 136.749 47.1987C136.749 47.0561 136.81 46.9339 136.932 46.832C137.055 46.7301 137.187 46.6792 137.33 46.6792C137.615 46.6792 137.9 46.6894 138.185 46.7098C138.491 46.7098 138.787 46.7098 139.072 46.7098C139.764 46.7098 140.447 46.7098 141.119 46.7098C141.812 46.6894 142.504 46.669 143.197 46.6486C143.564 46.6282 143.931 46.6079 144.297 46.5875C144.664 46.5468 145.031 46.5264 145.398 46.5264C145.56 46.5264 145.673 46.5977 145.734 46.7403C145.795 46.8626 145.826 46.995 145.826 47.1376ZM157.018 34.6383C157.018 34.9847 156.855 35.1579 156.529 35.1579C156.285 35.1579 156.03 35.1579 155.765 35.1579C155.521 35.1375 155.276 35.1273 155.032 35.1273C154.828 35.1273 154.686 35.219 154.604 35.4024C154.522 35.5653 154.482 35.7385 154.482 35.9219C154.482 36.6349 154.472 37.3582 154.451 38.0917C154.451 38.8047 154.451 39.5179 154.451 40.2309C154.451 42.472 154.451 44.7233 154.451 46.9848C154.472 49.2259 154.482 51.467 154.482 53.7081C154.482 53.8508 154.472 54.0748 154.451 54.3805C154.431 54.6861 154.451 54.9713 154.512 55.2361C154.594 55.4806 154.747 55.6029 154.971 55.6029C155.236 55.6029 155.5 55.5927 155.765 55.5723C156.03 55.5519 156.295 55.5418 156.56 55.5418C156.703 55.5418 156.804 55.6029 156.866 55.7251C156.927 55.827 156.957 55.9492 156.957 56.0918C156.957 56.2345 156.906 56.3567 156.804 56.4586C156.723 56.5808 156.6 56.6419 156.438 56.6419C155.745 56.6419 155.052 56.6318 154.36 56.6114C153.687 56.591 153.005 56.5808 152.312 56.5808C151.619 56.5808 150.927 56.591 150.234 56.6114C149.541 56.6318 148.849 56.6419 148.156 56.6419C147.952 56.6419 147.82 56.6012 147.758 56.5197C147.697 56.4382 147.667 56.3058 147.667 56.1224C147.667 55.9594 147.697 55.827 147.758 55.7251C147.84 55.6029 147.962 55.5418 148.125 55.5418C148.349 55.5418 148.574 55.5519 148.798 55.5723C149.021 55.5927 149.235 55.6029 149.439 55.6029C149.724 55.6029 149.918 55.5112 150.02 55.3278C150.122 55.1445 150.183 54.9305 150.203 54.6861C150.224 54.4212 150.234 54.1971 150.234 54.0137L150.264 36.472C150.264 36.2886 150.244 36.0237 150.203 35.6774C150.163 35.3107 150.02 35.1171 149.775 35.0967C149.714 35.0967 149.653 35.0967 149.592 35.0967C149.551 35.0967 149.5 35.0967 149.439 35.0967C149.235 35.0967 149.032 35.1069 148.828 35.1273C148.645 35.1477 148.451 35.1579 148.247 35.1579C147.86 35.1579 147.667 34.9643 147.667 34.5772C147.667 34.4346 147.707 34.3123 147.789 34.2105C147.891 34.1086 148.013 34.0577 148.156 34.0577C149.032 34.0577 149.898 34.0781 150.753 34.1188C151.63 34.1595 152.505 34.1799 153.382 34.1799C153.911 34.1799 154.441 34.1595 154.971 34.1188C155.521 34.0781 156.061 34.0577 156.59 34.0577C156.753 34.0577 156.866 34.1188 156.927 34.2411C156.988 34.3633 157.018 34.4957 157.018 34.6383ZM176.274 50.8049C176.274 51.9866 176.009 52.9747 175.48 53.7692C174.95 54.5434 174.247 55.1546 173.371 55.6029C172.515 56.0511 171.578 56.3669 170.56 56.5503C169.54 56.7336 168.543 56.8253 167.565 56.8253C166.811 56.8253 166.087 56.7132 165.395 56.4891C164.702 56.2854 163.999 56.0511 163.286 55.7862C162.939 55.664 162.593 55.5927 162.247 55.5723C161.921 55.5316 161.575 55.5112 161.208 55.5112C161.147 55.0222 161.086 54.5434 161.025 54.0748C160.963 53.5859 160.892 53.0969 160.811 52.6079C160.77 52.2616 160.719 51.9254 160.658 51.5994C160.597 51.2735 160.566 50.9475 160.566 50.6215C160.566 50.3363 160.617 50.102 160.719 49.9186C160.841 49.7353 161.055 49.6436 161.361 49.6436C161.646 49.6436 161.86 49.7047 162.003 49.8269C162.165 49.9288 162.288 50.1121 162.369 50.377C162.512 50.7437 162.624 51.1206 162.705 51.5078C162.807 51.8949 162.929 52.2819 163.072 52.6691C163.418 53.6266 163.978 54.3906 164.753 54.9611C165.548 55.5316 166.474 55.8168 167.534 55.8168C168.96 55.8168 170.05 55.4093 170.804 54.5944C171.578 53.7591 171.965 52.6385 171.965 51.2327C171.965 50.4178 171.792 49.7454 171.446 49.2157C171.099 48.6656 170.651 48.1971 170.101 47.8099C169.551 47.4228 168.96 47.0561 168.329 46.7098C167.737 46.3838 167.137 46.0782 166.526 45.7929C165.914 45.5077 165.313 45.2123 164.722 44.9067C164.07 44.5603 163.428 44.1325 162.797 43.6231C162.186 43.0934 161.676 42.4924 161.269 41.8201C160.882 41.1273 160.688 40.3837 160.688 39.5891C160.688 38.2445 161.035 37.1341 161.727 36.258C162.44 35.382 163.347 34.73 164.447 34.3022C165.568 33.8743 166.729 33.6604 167.931 33.6604C168.705 33.6604 169.449 33.7725 170.162 33.9966C170.896 34.2003 171.609 34.4448 172.301 34.73C172.525 34.8115 172.729 34.8727 172.913 34.9134C173.116 34.9541 173.33 34.9745 173.554 34.9745C173.717 34.9745 173.87 34.9745 174.013 34.9745C174.155 34.9541 174.298 34.9338 174.441 34.9134C174.502 35.5653 174.573 36.2173 174.655 36.8693C174.736 37.5212 174.817 38.1732 174.899 38.8251C174.919 38.927 174.93 39.0391 174.93 39.1613C174.95 39.2632 174.96 39.3651 174.96 39.4669C174.96 39.7521 174.899 40.017 174.777 40.2615C174.655 40.4856 174.42 40.5976 174.074 40.5976C173.809 40.5976 173.616 40.5365 173.493 40.4143C173.371 40.292 173.259 40.1188 173.157 39.8948C172.913 39.2632 172.678 38.6418 172.454 38.0306C172.23 37.4193 171.904 36.8489 171.476 36.3192C171.028 35.7487 170.468 35.3311 169.796 35.0662C169.123 34.781 168.43 34.6383 167.717 34.6383C167.025 34.6383 166.444 34.8319 165.975 35.219C165.507 35.5857 165.16 36.0645 164.936 36.6553C164.712 37.2462 164.6 37.8574 164.6 38.489C164.6 39.4669 164.855 40.2309 165.364 40.781C165.894 41.3107 166.546 41.7997 167.32 42.2479C167.748 42.472 168.176 42.6962 168.604 42.9202C169.052 43.124 169.49 43.3277 169.918 43.5315C170.936 44 171.924 44.5705 172.882 45.2429C173.86 45.8948 174.665 46.6792 175.296 47.596C175.948 48.4924 176.274 49.5621 176.274 50.8049Z" fill="#D9D9D9"/>
</svg>
