<svg width="217" height="75" viewBox="0 0 217 75" fill="none" xmlns="http://www.w3.org/2000/svg">
<g clip-path="url(#clip0_2521_533)">
<path d="M32.6834 31.836C32.6834 32.4468 32.8638 33.0021 33.2248 33.5019C33.6135 34.0017 34.1133 34.432 34.7241 34.793C35.3349 35.1261 36.0291 35.4177 36.8065 35.6676C37.5839 35.9175 38.403 36.1812 39.2637 36.4589C40.1522 36.7365 40.999 37.0419 41.8042 37.3751C42.6372 37.7083 43.3729 38.1248 44.0116 38.6246C45.3998 39.7074 46.0939 41.1928 46.0939 43.0808C46.0939 43.9693 45.8718 44.8162 45.4276 45.6213C45.0111 46.3987 44.4141 47.0651 43.6367 47.6204C42.0819 48.731 40.0411 49.2863 37.5145 49.2863C34.9323 49.2863 32.7805 48.6755 31.0591 47.4538C30.004 46.7597 29.4487 46.2738 29.3932 45.9962C29.3654 45.8851 29.3516 45.7741 29.3516 45.663C29.3516 45.5241 29.3793 45.3715 29.4349 45.2049C29.4904 45.0383 29.5598 44.8995 29.6431 44.7884C29.893 44.483 30.1151 44.3303 30.3095 44.3303C30.5316 44.3303 30.7398 44.3997 30.9342 44.5385C31.1285 44.6773 31.3506 44.8439 31.6005 45.0383C31.8782 45.2326 32.2114 45.4547 32.6001 45.7046C33.0166 45.9545 33.4747 46.1767 33.9744 46.371C35.0851 46.7597 36.154 46.9541 37.1813 46.9541C38.2364 46.9541 39.0971 46.8846 39.7635 46.7458C40.4576 46.5792 41.0546 46.3294 41.5543 45.9962C42.6094 45.2743 43.137 44.358 43.137 43.2474C43.137 41.3316 41.7486 39.9434 38.9721 39.0827C38.1947 38.8328 37.3757 38.5829 36.515 38.333C35.682 38.0554 34.849 37.7361 34.0161 37.3751C33.1831 37.0142 32.4474 36.5838 31.8088 36.084C31.1702 35.5842 30.6565 34.9873 30.2678 34.2932C29.9069 33.5713 29.7264 32.7661 29.7264 31.8776C29.7264 30.9892 29.9485 30.1562 30.3928 29.3788C30.837 28.6014 31.4201 27.9628 32.142 27.463C33.6413 26.3802 35.4877 25.8387 37.6811 25.8387C40.8185 25.8387 43.359 26.8661 45.3026 28.9207C45.4415 29.0595 45.5108 29.24 45.5108 29.4621C45.5108 29.6842 45.4831 29.8647 45.4276 30.0035C45.3998 30.1423 45.3443 30.2673 45.261 30.3783C45.0666 30.656 44.8028 30.7948 44.4697 30.7948C44.1364 30.7948 43.7755 30.6005 43.3868 30.2117C42.5261 29.5731 41.8042 29.1289 41.2212 28.879C40.1938 28.4625 39.0971 28.2543 37.931 28.2543C36.5428 28.2543 35.3627 28.5458 34.3909 29.1289C33.2526 29.7675 32.6834 30.6699 32.6834 31.836ZM69.3193 47.204C69.3748 47.3983 69.4026 47.5788 69.4026 47.7454C69.4026 47.8842 69.3471 48.0369 69.236 48.2035C69.1527 48.3701 69.0417 48.5089 68.9028 48.62C68.6252 48.8421 68.3197 48.9531 67.9866 48.9531C67.3202 48.9531 66.8759 48.6755 66.6539 48.1202L64.6131 42.9559H53.2433L51.2026 48.1202C51.0082 48.6755 50.6195 48.9531 50.0364 48.9531C49.4256 48.9531 48.9952 48.7033 48.7454 48.2035C48.6621 48.0369 48.6204 47.8842 48.6204 47.7454C48.6204 47.5788 48.6482 47.3983 48.7037 47.204L56.3252 28.5458C56.8528 27.1021 57.4913 26.2969 58.241 26.1303C58.4631 26.0747 58.7131 26.047 58.9907 26.047C59.5738 26.047 60.0041 26.158 60.2817 26.3802C60.8093 26.8522 61.2535 27.5741 61.6145 28.5458L69.3193 47.204ZM54.0763 40.7902H63.8218L58.949 28.4209L54.0763 40.7902ZM73.1584 27.4214C73.1584 27.0049 73.2834 26.6717 73.5333 26.4218C73.811 26.1719 74.1302 26.047 74.4912 26.047H85.8193C86.208 26.047 86.4996 26.1719 86.6939 26.4218C86.8883 26.6439 86.9855 26.9077 86.9855 27.2131C86.9855 27.5185 86.8883 27.7962 86.6939 28.0461C86.4996 28.2682 86.208 28.3792 85.8193 28.3792H75.9905V35.8758H85.4029C85.7916 35.8758 86.0831 36.0008 86.2774 36.2506C86.4996 36.4728 86.6106 36.7365 86.6106 37.0419C86.6106 37.3196 86.4996 37.5833 86.2774 37.8333C86.0831 38.0831 85.7916 38.2081 85.4029 38.2081H75.9905V47.6204C75.9905 48.259 75.6851 48.6755 75.0742 48.8698C74.9076 48.9254 74.6855 48.9531 74.4079 48.9531C74.158 48.9531 73.8803 48.8421 73.5749 48.62C73.2973 48.3978 73.1584 48.0647 73.1584 47.6204V27.4214ZM110.093 47.204C110.148 47.3983 110.176 47.5788 110.176 47.7454C110.176 47.8842 110.121 48.0369 110.009 48.2035C109.927 48.3701 109.815 48.5089 109.676 48.62C109.399 48.8421 109.093 48.9531 108.76 48.9531C108.094 48.9531 107.65 48.6755 107.427 48.1202L105.387 42.9559H94.0169L91.9762 48.1202C91.7818 48.6755 91.3931 48.9531 90.81 48.9531C90.1992 48.9531 89.7688 48.7033 89.519 48.2035C89.4357 48.0369 89.394 47.8842 89.394 47.7454C89.394 47.5788 89.4218 47.3983 89.4773 47.204L97.0989 28.5458C97.6266 27.1021 98.2649 26.2969 99.0144 26.1303C99.2368 26.0747 99.4869 26.047 99.7645 26.047C100.348 26.047 100.778 26.158 101.056 26.3802C101.583 26.8522 102.027 27.5741 102.388 28.5458L110.093 47.204ZM94.8497 40.7902H104.595L99.7224 28.4209L94.8497 40.7902ZM125.502 34.1682C125.224 35.3344 125.085 36.4728 125.085 37.5833C125.085 38.694 125.224 39.8323 125.502 40.9985C125.807 42.1646 126.265 43.1919 126.875 44.0804C127.514 44.9411 128.319 45.6491 129.291 46.2044C130.263 46.732 131.429 46.9957 132.789 46.9957C134.15 46.9957 135.316 46.732 136.288 46.2044C137.26 45.6491 138.065 44.9411 138.704 44.0804C139.342 43.1919 139.801 42.1646 140.078 40.9985C140.355 39.8323 140.494 38.694 140.494 37.5833C140.494 36.4728 140.355 35.3344 140.078 34.1682C139.801 33.0021 139.342 31.9748 138.704 31.0863C138.065 30.1979 137.26 29.4898 136.288 28.9623C135.316 28.4348 134.15 28.171 132.789 28.171C131.429 28.171 130.263 28.4348 129.291 28.9623C128.319 29.4898 127.514 30.1979 126.875 31.0863C126.265 31.9748 125.807 33.0021 125.502 34.1682ZM122.003 37.5833C122.003 35.9452 122.239 34.3904 122.711 32.9188C123.183 31.4473 123.877 30.184 124.793 29.1289C126.737 26.9355 129.402 25.8387 132.789 25.8387C136.204 25.8387 138.87 26.9355 140.786 29.1289C141.675 30.184 142.354 31.4473 142.827 32.9188C143.299 34.3904 143.535 35.9452 143.535 37.5833C143.535 39.2215 143.299 40.7763 142.827 42.2479C142.354 43.7194 141.675 44.9827 140.786 46.0378C138.87 48.2035 136.204 49.2863 132.789 49.2863C129.375 49.2863 126.709 48.2035 124.793 46.0378C123.877 44.9827 123.183 43.7194 122.711 42.2479C122.239 40.7763 122.003 39.2215 122.003 37.5833ZM148.476 27.9211C148.476 27.3936 148.615 26.991 148.893 26.7133C149.337 26.2691 149.767 26.047 150.184 26.047C150.906 26.047 151.516 26.3524 152.016 26.9632L164.177 45.2882V27.3381C164.177 26.7272 164.454 26.3246 165.01 26.1303C165.177 26.0747 165.343 26.047 165.51 26.047C165.676 26.047 165.843 26.0747 166.009 26.1303C166.176 26.1858 166.315 26.2691 166.426 26.3802C166.704 26.6023 166.842 26.9216 166.842 27.3381V47.0374C166.842 47.9536 166.454 48.5506 165.676 48.8282C165.426 48.9115 165.162 48.9531 164.885 48.9531C164.191 48.9531 163.622 48.6478 163.178 48.0369L151.183 29.9619V47.7037C151.183 48.0647 151.072 48.3284 150.85 48.495C150.517 48.8004 150.17 48.9531 149.809 48.9531C149.476 48.9531 149.17 48.856 148.893 48.6616C148.615 48.4395 148.476 48.1202 148.476 47.7037V27.9211ZM174.355 48.9531C173.772 48.9531 173.342 48.6616 173.064 48.0786C172.981 47.9119 172.939 47.7454 172.939 47.5788V27.4214C172.939 26.8383 173.203 26.4218 173.731 26.1719C173.897 26.0886 174.077 26.047 174.272 26.047H186.266C186.655 26.047 186.947 26.1719 187.141 26.4218C187.336 26.6439 187.432 26.9077 187.432 27.2131C187.432 27.5185 187.336 27.7962 187.141 28.0461C186.947 28.2682 186.655 28.3792 186.266 28.3792H175.73V36.0008H185.725C186.141 36.0008 186.447 36.1257 186.641 36.3756C186.835 36.5977 186.933 36.8615 186.933 37.1669C186.933 37.4445 186.822 37.7083 186.6 37.9582C186.405 38.2081 186.114 38.333 185.725 38.333H175.73V46.6209H186.683C187.072 46.6209 187.363 46.7458 187.557 46.9957C187.78 47.2179 187.891 47.4816 187.891 47.787C187.891 48.0924 187.794 48.3701 187.599 48.62C187.405 48.8421 187.099 48.9531 186.683 48.9531H174.355Z" fill="#D9D9D9"/>
</g>
<defs>
<clipPath id="clip0_2521_533">
<rect width="159.244" height="24.3472" fill="white" transform="translate(28.7109 25.2637)"/>
</clipPath>
</defs>
</svg>
