<svg width="217" height="90" viewBox="0 0 217 90" fill="none" xmlns="http://www.w3.org/2000/svg">
<g clip-path="url(#clip0_2521_417)">
<path d="M59.3814 55.6453L58.9718 58.3593H39.377C40.1877 56.4817 40.1365 55.4234 40.1365 54.0665V35.4104C40.1365 34.0962 40.1877 32.944 39.377 31.1177H45.2486H58.4938L58.528 33.8828C58.1695 33.7377 57.8794 33.6097 57.6148 33.4902C56.9065 33.2257 56.0104 32.9782 55.0801 32.9867C53.5951 32.9867 47.3651 32.9867 44.6 32.9867V43.6546H56.8979L56.292 45.754H44.6V56.4305C46.8616 56.4305 54.0901 56.4305 55.686 56.4305C57.5551 56.4646 59.4155 55.4064 59.4155 55.4064L59.3643 55.6368C59.3643 55.6453 59.3729 55.6453 59.3814 55.6453ZM88.876 58.3593C89.1406 57.0194 89.1406 55.1247 88.9272 53.58L87.1862 40.7444L77.679 58.3507H75.8697L66.2089 39.9507L64.3313 53.8617C64.1265 55.4661 64.0668 57.4973 64.2374 58.3593H60.8408C61.4979 56.9682 61.6601 56.3622 61.9673 54.075L65.0397 31.1177H66.6014L77.8753 52.5388L89.1406 31.1177H90.3183L93.4931 54.0238C93.8089 56.3025 94.0478 56.9596 94.6794 58.3593H88.876ZM117.492 58.3593L112.968 48.3826H103.871L99.4074 58.3593H99.0234H95.8742H95.8571C96.9836 56.9596 97.3677 56.311 98.1614 54.57L108.71 31.1177H109.896L120.274 53.9129C121.383 56.1403 121.904 56.8316 123.491 58.3593H117.492ZM145.954 58.3593L141.43 48.3826H132.333L127.869 58.3593H127.494H124.336H124.319C125.446 56.9596 125.83 56.311 126.623 54.57L137.172 31.1177H138.358L148.744 53.9129C149.854 56.1403 150.374 56.8316 151.962 58.3593H145.954ZM171.744 58.3763C169.022 55.8928 165.497 52.5986 161.085 47.3756C159.822 45.8991 158.934 45.7114 158.363 45.6772V54.0665C158.363 55.4149 158.363 56.4817 159.131 58.3593H153.14C153.95 56.4817 153.899 55.4234 153.899 54.0665V35.3934C153.899 34.0791 153.95 32.9269 153.14 31.1006H159.011C163.022 31.1006 172.504 30.7422 172.504 38.5767C172.504 42.7158 169.218 44.9433 165.361 45.5066L164.217 45.6175C164.217 45.6175 176.728 57.8472 177.266 58.3763H171.744ZM164.652 43.9448L164.644 43.9533C167.17 42.9975 168.023 40.5993 167.938 38.5681C167.844 36.6138 166.965 32.3637 158.371 32.7051V44.3203C158.371 44.3203 163.184 44.5848 164.533 43.996C164.61 43.9618 164.652 43.9448 164.652 43.9448ZM133.203 46.4795H140.551L136.847 38.3462L133.203 46.4795ZM104.75 46.4795H112.098L108.394 38.3462L104.75 46.4795Z" fill="#D9D9D9"/>
</g>
<defs>
<clipPath id="clip0_2521_417">
<rect width="138" height="27.3952" fill="white" transform="translate(39.334 31.0323)"/>
</clipPath>
</defs>
</svg>
