<svg width="20" height="20" viewBox="0 0 20 20" fill="none" xmlns="http://www.w3.org/2000/svg">
<path d="M16.2468 6.65751L9.9993 12.7475L3.7518 6.65751C3.64018 6.54848 3.49034 6.48744 3.3343 6.48744C3.17827 6.48744 3.02842 6.54848 2.9168 6.65751C2.86275 6.71046 2.81982 6.77367 2.7905 6.84343C2.76119 6.91318 2.74609 6.98809 2.74609 7.06376C2.74609 7.13942 2.76119 7.21433 2.7905 7.28409C2.81982 7.35384 2.86275 7.41705 2.9168 7.47001L9.56305 13.95C9.67977 14.0638 9.83631 14.1274 9.9993 14.1274C10.1623 14.1274 10.3188 14.0638 10.4356 13.95L17.0818 7.47126C17.1362 7.41826 17.1795 7.3549 17.209 7.28491C17.2386 7.21492 17.2538 7.13972 17.2538 7.06376C17.2538 6.98779 17.2386 6.91259 17.209 6.8426C17.1795 6.77261 17.1362 6.70925 17.0818 6.65626C16.9702 6.54723 16.8203 6.48619 16.6643 6.48619C16.5083 6.48619 16.3584 6.54723 16.2468 6.65626V6.65751Z" fill="#232323"/>
</svg>
