<svg width="21" height="21" viewBox="0 0 21 21" fill="none" xmlns="http://www.w3.org/2000/svg">
<path d="M15.2439 17.6954H4.83559C4.54545 17.6836 4.26048 17.6146 3.997 17.4925C3.73352 17.3704 3.4967 17.1976 3.30008 16.9839C3.10347 16.7702 2.95093 16.5198 2.85119 16.2471C2.75145 15.9743 2.70645 15.6847 2.71879 15.3945V12.8845C2.71879 12.7181 2.78491 12.5584 2.90259 12.4408C3.02027 12.3231 3.17988 12.257 3.3463 12.257C3.51273 12.257 3.67234 12.3231 3.79002 12.4408C3.90771 12.5584 3.97381 12.7181 3.97381 12.8845V15.3945C3.95222 15.6429 4.02707 15.8902 4.18285 16.0849C4.33862 16.2796 4.56338 16.4069 4.81049 16.4404H15.2439C15.491 16.4069 15.7158 16.2796 15.8716 16.0849C16.0274 15.8902 16.1022 15.6429 16.0806 15.3945V12.8845C16.0806 12.7181 16.1467 12.5584 16.2644 12.4408C16.382 12.3231 16.5417 12.257 16.7081 12.257C16.8745 12.257 17.0341 12.3231 17.1518 12.4408C17.2695 12.5584 17.3356 12.7181 17.3356 12.8845V15.3945C17.3607 15.9763 17.155 16.5444 16.7632 16.9753C16.3715 17.4063 15.8255 17.665 15.2439 17.6954Z" fill="#C89D6C"/>
<path d="M10.0406 13.512C9.9582 13.5123 9.87646 13.4963 9.80032 13.4647C9.72418 13.4331 9.65507 13.3866 9.59717 13.3279L6.25045 9.98122C6.13961 9.86224 6.07927 9.70486 6.08213 9.5423C6.085 9.37973 6.15085 9.22469 6.26583 9.10965C6.3808 8.99469 6.53591 8.92884 6.69848 8.926C6.86104 8.92315 7.01837 8.98348 7.13733 9.09434L10.0406 11.9976L12.9439 9.09434C13.0629 8.98348 13.2202 8.92315 13.3827 8.926C13.5453 8.92884 13.7004 8.99469 13.8154 9.10965C13.9303 9.22469 13.9962 9.37973 13.9991 9.5423C14.002 9.70486 13.9416 9.86224 13.8308 9.98122L10.4841 13.3279C10.4262 13.3866 10.357 13.4331 10.2809 13.4647C10.2048 13.4963 10.123 13.5123 10.0406 13.512Z" fill="#C89D6C"/>
<path d="M10.0396 13.5118C9.87387 13.5097 9.71549 13.4429 9.59827 13.3257C9.48105 13.2085 9.41428 13.0501 9.41211 12.8843V3.68085C9.41211 3.51443 9.47821 3.35482 9.59593 3.23714C9.71357 3.11946 9.8732 3.05334 10.0396 3.05334C10.206 3.05334 10.3657 3.11946 10.4833 3.23714C10.601 3.35482 10.6671 3.51443 10.6671 3.68085V12.8843C10.665 13.0501 10.5982 13.2085 10.481 13.3257C10.3637 13.4429 10.2054 13.5097 10.0396 13.5118Z" fill="#C89D6C"/>
</svg>
