<svg width="41" height="41" viewBox="0 0 41 41" fill="none" xmlns="http://www.w3.org/2000/svg">
<rect x="0.5" y="0.414551" width="40" height="40" rx="20" fill="#232323" fill-opacity="0.9"/>
<path d="M27.25 13.8049H13.75C12.8961 13.8061 12.2043 14.4979 12.2031 15.3518V25.4768C12.2043 26.3307 12.8961 27.0226 13.75 27.0237H27.25C28.1039 27.0226 28.7957 26.3307 28.7969 25.4768V15.3518C28.7957 14.4979 28.1039 13.8061 27.25 13.8049ZM13.75 14.6487H27.25C27.5667 14.6515 27.8328 14.8658 27.9137 15.1572L27.9149 15.1622L20.5 20.4587L13.0851 15.1622C13.1673 14.8658 13.4339 14.6515 13.75 14.6487ZM27.25 26.1799H13.75C13.3619 26.1794 13.0474 25.8649 13.0469 25.4768V16.1714L20.2548 21.3199C20.2626 21.3256 20.2727 21.3233 20.2806 21.3284C20.3414 21.3694 20.4156 21.3947 20.4955 21.3976H20.4961L20.4989 21.3987H20.5L20.5028 21.3976C20.5832 21.3947 20.6575 21.3689 20.7199 21.3272L20.7183 21.3284C20.7261 21.3233 20.7362 21.3256 20.7441 21.3199L27.952 16.1714V25.4768C27.9514 25.8649 27.637 26.1794 27.2489 26.1799H27.25Z" fill="white"/>
</svg>
