<svg width="41" height="41" viewBox="0 0 41 41" fill="none" xmlns="http://www.w3.org/2000/svg">
<rect x="0.5" y="0.414551" width="40" height="40" rx="20" fill="#20BC5F"/>
<path d="M24.4355 22.1313C24.2227 22.022 23.1621 21.5024 22.9648 21.4321C22.7676 21.3579 22.623 21.3228 22.4805 21.5415C22.3359 21.7583 21.9258 22.2407 21.7969 22.3872C21.6719 22.5317 21.5449 22.5493 21.332 22.4419C20.0664 21.8091 19.2363 21.313 18.4023 19.8813C18.1816 19.5005 18.623 19.5278 19.0352 18.7056C19.1055 18.561 19.0703 18.438 19.0156 18.3286C18.9609 18.2192 18.5312 17.1606 18.3516 16.729C18.1777 16.3091 17.998 16.3677 17.8672 16.3599C17.7422 16.3521 17.5996 16.3521 17.4551 16.3521C17.3105 16.3521 17.0781 16.4067 16.8809 16.6196C16.6836 16.8364 16.127 17.3579 16.127 18.4165C16.127 19.4751 16.8984 20.5005 17.0039 20.645C17.1133 20.7896 18.5215 22.9614 20.6836 23.897C22.0508 24.4868 22.5859 24.5376 23.2695 24.436C23.6855 24.3735 24.543 23.9165 24.7207 23.4106C24.8984 22.9067 24.8984 22.4751 24.8457 22.3853C24.793 22.2896 24.6484 22.2349 24.4355 22.1313Z" fill="white"/>
<path d="M28.5704 17.0239C28.129 15.9751 27.4962 15.0337 26.6896 14.2251C25.8829 13.4185 24.9415 12.7837 23.8907 12.3442C22.8165 11.8931 21.6759 11.6646 20.5001 11.6646H20.461C19.2775 11.6704 18.131 11.9048 17.0528 12.3657C16.0118 12.811 15.0782 13.4438 14.2794 14.2505C13.4806 15.0571 12.8536 15.9946 12.42 17.0396C11.9708 18.1216 11.7443 19.272 11.7501 20.4556C11.756 21.811 12.0802 23.1567 12.6876 24.3599V27.3286C12.6876 27.8247 13.09 28.2271 13.586 28.2271H16.5568C17.7599 28.8345 19.1056 29.1587 20.461 29.1646H20.5021C21.672 29.1646 22.8068 28.938 23.8751 28.4946C24.92 28.0591 25.8595 27.4341 26.6642 26.6353C27.4708 25.8364 28.1056 24.9028 28.5489 23.8618C29.0099 22.7837 29.2442 21.6372 29.2501 20.4536C29.256 19.2642 29.0255 18.1099 28.5704 17.0239ZM25.6192 25.5786C24.2501 26.9341 22.4337 27.6802 20.5001 27.6802H20.4669C19.2892 27.6743 18.1193 27.3813 17.086 26.8306L16.922 26.7427H14.172V23.9927L14.0841 23.8286C13.5333 22.7954 13.2403 21.6255 13.2345 20.4478C13.2267 18.5005 13.9708 16.6724 15.336 15.2954C16.6993 13.9185 18.5216 13.1567 20.4689 13.1489H20.5021C21.4786 13.1489 22.4259 13.3384 23.3185 13.7134C24.1896 14.0786 24.9708 14.604 25.6427 15.2759C26.3126 15.9458 26.84 16.729 27.2052 17.6001C27.5841 18.5024 27.7735 19.4595 27.7696 20.4478C27.7579 22.3931 26.9942 24.2153 25.6192 25.5786Z" fill="white"/>
</svg>
