<svg width="41" height="41" viewBox="0 0 41 41" fill="none" xmlns="http://www.w3.org/2000/svg">
<rect x="0.5" y="0.414551" width="40" height="40" rx="20" fill="#232323" fill-opacity="0.9"/>
<g clip-path="url(#clip0_2521_720)">
<path d="M23.7063 22.7208C23.875 22.2146 23.875 21.8208 23.8187 21.7083C23.7625 21.5958 23.65 21.5958 23.425 21.4833C23.2 21.3708 22.1875 20.8646 22.0188 20.8083C21.85 20.7521 21.625 20.7521 21.5125 20.9771C21.2875 21.2583 21.1188 21.5396 20.95 21.7083C20.8375 21.8208 20.6125 21.8771 20.4437 21.7646C20.2187 21.6521 19.5437 21.4271 18.7562 20.7521C18.1375 20.1896 17.7438 19.5146 17.575 19.2896C17.4625 19.0646 17.575 18.9521 17.6875 18.8396C17.8 18.7271 17.9125 18.6146 18.025 18.5021C18.1375 18.3896 18.1937 18.3333 18.25 18.1646C18.3063 18.0521 18.25 17.8833 18.1937 17.7708C18.1375 17.6583 17.7438 16.6458 17.575 16.2521C17.4625 15.9708 17.35 15.9708 17.125 15.9708C17.0687 15.9146 16.9563 15.9146 16.9 15.9146C16.6188 15.9146 16.3375 15.9708 16.1688 16.1958C15.9438 16.4208 15.4375 16.9271 15.4375 17.9396C15.4375 18.9521 16.1687 19.9646 16.2812 20.0771C16.3938 20.1896 17.7438 22.3271 19.825 23.2271C21.4563 23.9021 21.9625 23.8458 22.3 23.7896C22.8625 23.6208 23.5375 23.2271 23.7063 22.7208Z" stroke="white" stroke-width="1.125" stroke-miterlimit="10" stroke-linecap="round" stroke-linejoin="round"/>
<path d="M20.5 11.9771C15.8312 11.9771 12.0625 13.0458 12.0625 19.2896C12.0625 23.3395 13.6375 25.1958 16 26.0395V28.5145C16 28.852 16.3937 29.0208 16.675 28.7958L18.8688 26.602C19.375 26.602 19.9375 26.602 20.5 26.602C25.1688 26.602 28.9375 25.5333 28.9375 19.2896C28.9375 13.0458 25.1688 11.9771 20.5 11.9771Z" stroke="white" stroke-width="1.125" stroke-miterlimit="10" stroke-linecap="round" stroke-linejoin="round"/>
<path d="M20.2188 17.7146C20.95 17.7146 21.5125 18.2771 21.5125 19.0083" stroke="white" stroke-width="1.125" stroke-miterlimit="10" stroke-linecap="round" stroke-linejoin="round"/>
<path d="M20.2188 14.2271C22.8625 14.2271 25 16.3646 25 19.0083" stroke="white" stroke-width="1.125" stroke-miterlimit="10" stroke-linecap="round" stroke-linejoin="round"/>
<path d="M20.2188 15.9707C21.9062 15.9707 23.2562 17.3207 23.2562 19.0082" stroke="white" stroke-width="1.125" stroke-miterlimit="10" stroke-linecap="round" stroke-linejoin="round"/>
</g>
<defs>
<clipPath id="clip0_2521_720">
<rect width="18" height="18" fill="white" transform="translate(11.5 11.4146)"/>
</clipPath>
</defs>
</svg>
