<svg width="109" height="42" viewBox="0 0 109 42" fill="none" xmlns="http://www.w3.org/2000/svg">
<path d="M29.8664 16.8955C28.5638 15.9889 26.9418 15.6739 25.3771 15.6693C24.1905 15.6758 23.0126 15.8722 21.8881 16.2511C21.3307 16.4479 20.7835 16.6729 20.2487 16.925C18.3599 17.8316 16.6426 19.0608 15.0772 20.4555C14.0059 19.3955 12.9938 18.2774 12.0453 17.1063C13.091 16.3108 14.0852 15.454 15.0417 14.5731C16.6532 13.087 18.3085 11.4354 18.962 9.26711C19.4199 7.82106 19.3708 6.25488 18.9756 4.79825C17.9066 0.695068 13.4612 -0.469932 10.0251 1.56995C10.0205 1.5724 10.0164 1.57574 10.013 1.57977C7.93837 2.20231 6.7643 4.67737 6.77639 7.18718C6.78697 10.1956 8.02979 12.8905 9.72742 15.3097C9.28016 15.6504 8.82081 15.9798 8.35617 16.2919C5.78743 18.0295 2.97163 19.3623 0.159616 20.6648C0.128617 20.6757 0.100243 20.693 0.0763063 20.7156C0.0523699 20.7381 0.0333974 20.7654 0.0206001 20.7957C0.00780282 20.826 0.00146208 20.8586 0.00198278 20.8915C0.00250349 20.9243 0.0098742 20.9567 0.0236242 20.9866C0.050041 21.04 0.0960517 21.0812 0.152061 21.1015C2.94217 22.4614 5.71112 23.878 8.24208 25.6345C8.69539 25.9488 9.13988 26.2762 9.57556 26.6167C8.04036 28.8303 6.8935 31.2767 6.69857 34.0086C6.47872 36.5494 7.57497 39.6667 10.0077 40.3753C10.0092 40.3811 10.0119 40.3864 10.0157 40.391C10.0195 40.3956 10.0242 40.3993 10.0296 40.4018C10.6665 40.7347 11.3479 40.9743 12.0529 41.1135C15.1361 41.7232 18.2171 40.1011 19.0202 36.974C19.4044 35.5052 19.3916 33.9606 18.9832 32.4984C18.7445 31.7719 18.4001 31.0845 17.961 30.4585C17.2319 29.3879 16.3631 28.4579 15.4383 27.5694C14.3649 26.5473 13.2387 25.5822 12.0642 24.678C12.6127 24.0124 13.1778 23.3642 13.7415 22.7288C14.1812 22.2473 14.6345 21.7759 15.1014 21.3145C16.5263 22.5898 18.0766 23.7269 19.7795 24.5987C21.5225 25.5197 23.4626 26.106 25.4459 26.0961C27.2017 26.0893 29.0489 25.6995 30.4133 24.5353C31.4937 23.6203 32.0316 22.2831 32.0823 20.8869C31.9591 19.2829 31.2142 17.8044 29.8664 16.8955ZM17.6444 3.00542C18.0353 3.58908 18.3192 4.23758 18.4831 4.92065C19.0044 6.96431 18.6727 9.22102 17.4352 10.9496C16.632 12.1093 15.5932 13.0824 14.5483 14.0246C13.5843 14.8904 12.5908 15.7222 11.5505 16.4921C11.2951 16.1712 11.0433 15.8479 10.795 15.522C10.6831 15.3709 10.5736 15.2185 10.4663 15.0649C12.8008 13.1293 15.4942 10.9617 16.0934 7.82484C16.5376 5.4276 15.1868 2.82486 12.9383 1.84874C11.9788 1.44151 11.1145 1.34934 10.3568 1.49364C12.7691 0.339977 16.0737 0.675425 17.6444 3.00542ZM9.52041 13.6068C7.99428 11.0584 6.93127 7.92834 7.76007 4.97429C8.45741 2.55212 10.3243 1.30326 12.7578 2.27862C14.8619 3.12782 16.1863 5.5379 15.7957 7.77497C15.4179 10.0891 13.7067 11.9016 12.0181 13.4171C11.4606 13.9044 10.8947 14.3849 10.3145 14.8473C10.0369 14.4409 9.77225 14.0273 9.52041 13.6068ZM4.55292 22.7077C3.30481 22.064 2.04084 21.4649 0.768559 20.8786C2.02422 20.2636 3.27686 19.6365 4.50683 18.9656C6.37446 17.9464 8.19902 16.8321 9.88381 15.5288C10.2253 16.0055 10.5842 16.4709 10.9536 16.9257C9.0095 18.2938 6.93514 19.4668 4.76068 20.4275C4.57735 20.3459 4.39351 20.2659 4.20916 20.1873C3.7279 19.9727 3.15144 20.352 3.15975 20.8816C3.15903 21.0066 3.18936 21.1299 3.24802 21.2404C3.30669 21.3508 3.39184 21.445 3.49586 21.5144C3.59987 21.5838 3.71949 21.6263 3.84399 21.6381C3.96848 21.6499 4.09396 21.6306 4.20916 21.582C4.39426 21.5064 4.57936 21.4225 4.76446 21.341C6.92684 22.3004 8.99036 23.4686 10.9257 24.8291C10.6008 25.2271 10.2857 25.6328 9.98052 26.0463C8.27013 24.7802 6.45427 23.6633 4.55292 22.7077ZM7.89153 36.7874C7.44729 35.3821 7.50546 33.8296 7.82051 32.3994C8.25946 30.4864 9.13434 28.7495 10.2177 27.132C10.773 27.5853 11.3163 28.0514 11.8489 28.5259C13.9643 30.4192 16.3064 33.1164 15.4179 36.1497C14.8498 38.2047 12.8197 39.8706 10.6582 39.6002C9.22274 39.4128 8.28893 38.1148 7.89153 36.7874ZM14.5468 27.7454C15.591 28.6921 16.6003 29.6916 17.4178 30.8385C17.8329 31.4048 18.1621 32.0293 18.3947 32.6918C18.7963 34.0441 18.8416 35.4773 18.5261 36.8524C17.6527 40.565 13.638 41.8108 10.3704 40.4607C10.8512 40.5454 11.3431 40.5454 11.824 40.4607C13.0811 40.2643 14.2416 39.5601 15.053 38.587C16.7771 36.5539 16.8179 33.8145 15.4822 31.5759C14.6745 30.1774 13.5382 29.026 12.3438 27.9721C11.7897 27.476 11.2175 26.9992 10.6272 26.5419C10.9294 26.1178 11.2427 25.7015 11.5671 25.293C12.604 26.056 13.5987 26.8747 14.5468 27.7454ZM13.2224 22.2453C12.6225 22.8792 12.0219 23.5357 11.4409 24.2157C9.65462 22.9328 7.75345 21.818 5.76174 20.8854C7.76168 19.9478 9.67067 18.8274 11.4643 17.5385C12.0536 18.2328 12.6633 18.8984 13.27 19.5466C13.7059 19.9999 14.1547 20.4442 14.6163 20.8748C14.1368 21.319 13.6722 21.7759 13.2224 22.2453ZM27.7434 25.6708C26.0472 26.0485 24.2552 25.905 22.5998 25.4094C20.5834 24.7491 18.7513 23.6075 17.1088 22.2785C16.5656 21.8366 16.0405 21.3719 15.5305 20.8907C16.8655 19.6191 18.3138 18.467 19.9223 17.5664C20.9218 17.0058 21.9864 16.5087 23.1007 16.2261C25.3099 15.6799 27.8393 15.7214 29.7961 16.9998C31.1281 17.8656 31.8579 19.3245 31.9916 20.8831C31.8836 23.4798 30.2124 25.1321 27.7434 25.6708Z" fill="#C89D6C"/>
<path d="M40.1525 17.8749C40.1525 19.9496 40.7343 20.8804 43.0235 20.8804C44.1092 20.8804 44.7294 20.3183 44.7294 19.1933V19.0384H44.5549V19.1933C44.5549 20.2019 43.9732 20.6869 43.195 20.6869C42.0511 20.6869 41.8963 19.5038 41.8963 18.224V6.10254H38.4844V6.29595H40.1525V17.8749Z" fill="#232323"/>
<path d="M52.1273 20.8812C53.8726 20.8812 55.5015 20.4355 56.7231 19.1163L56.6257 19.0408C55.5015 20.1657 53.8529 20.65 52.4182 20.65C49.6833 20.65 47.8217 18.8466 47.8217 15.647C49.1015 16.3451 50.401 16.772 52.2437 16.772C55.2491 16.772 57.1885 15.6274 57.1885 13.8436C57.1885 12.0598 55.2106 10.7407 52.0692 10.7407C48.2485 10.7407 45.8438 12.6605 45.8438 15.7271C45.8437 18.9811 48.581 20.8812 52.1273 20.8812ZM51.9528 10.9137C54.2194 10.9137 55.3269 12.3681 55.3269 13.8806C55.3269 15.6652 53.9308 16.5763 51.9914 16.5763C50.5755 16.5763 49.063 16.1109 47.8217 15.4513C47.8799 12.659 49.4317 10.9137 51.9528 10.9137Z" fill="#232323"/>
<path d="M73.0729 6.10254H67.0703V6.29595H69.1102V20.6885H67.0703V20.8826H72.9837V20.6885H70.9295V13.3555H73.0729C77.0091 13.3555 79.9571 12.6966 79.9571 9.71011C79.9571 6.89885 77.0091 6.10254 73.0729 6.10254ZM72.8983 13.1802H70.9295V6.29746H72.9172C76.4681 6.29746 77.9399 7.32571 77.9399 9.71087C77.9399 12.1157 76.4084 13.1817 72.8983 13.1817V13.1802Z" fill="#232323"/>
<path d="M86.0777 20.8815C88.6563 20.8815 90.0918 19.718 90.8087 17.5459V18.5931C90.8087 20.2801 91.8952 20.8815 93.5822 20.8815C94.8424 20.8815 95.366 20.2612 95.366 19.1945V19.0396H95.1726V19.1945C95.1726 20.1834 94.6097 20.6881 93.8535 20.6881C92.6514 20.6881 92.5154 19.4664 92.5154 18.2251V15.8007C92.5154 12.3102 89.9558 10.7388 87.2216 10.7388C86.8842 10.7444 86.5474 10.7697 86.213 10.8143C84.371 11.047 82.5865 11.8615 82.5865 12.9471C82.5869 13.074 82.6125 13.1994 82.6618 13.3163C82.7111 13.4331 82.7832 13.539 82.8738 13.6277C82.9645 13.7164 83.0718 13.7863 83.1897 13.8331C83.3076 13.88 83.4335 13.9029 83.5604 13.9006C83.686 13.9037 83.811 13.8812 83.9277 13.8346C84.0444 13.7879 84.1505 13.718 84.2393 13.6291C84.3282 13.5403 84.3981 13.4342 84.4448 13.3175C84.4914 13.2008 84.5139 13.0758 84.5108 12.9502C84.5108 12.4077 84.1028 12.0005 83.4047 12.0005C84.1806 11.4376 85.1114 11.0886 86.2001 10.9722C86.4328 10.9533 86.6459 10.9337 86.8589 10.9337C89.6709 10.9337 90.8148 13.028 90.8148 15.6073V16.0916C89.7291 15.1804 88.5656 14.715 86.8982 14.6372C86.704 14.6183 86.491 14.6183 86.2583 14.6183C84.2796 14.6183 81.4102 15.2983 81.4102 17.7786C81.4041 19.8926 83.4402 20.8815 86.0777 20.8815ZM86.698 14.8699C88.1524 14.8117 89.6264 15.2582 90.7898 16.2857C90.6735 18.9232 88.7923 20.6677 86.4834 20.6677C84.3499 20.6677 83.3805 19.2715 83.3805 17.8172C83.3821 16.3824 84.2932 14.9674 86.698 14.8676V14.8699Z" fill="#232323"/>
<path d="M107.411 20.6902L103.106 15.2762L107.198 11.1073H108.652V10.9131H105.297V11.1073H106.926L102.99 15.1213L99.6344 11.1073H101.205V10.9131H96.3577V11.1073H97.5794L101.71 16.1299L97.4048 20.6902H96.125V20.8843H99.1108V20.6902H97.6761L101.845 16.2462L105.375 20.6902H103.397V20.8843H109.001V20.6902H107.411Z" fill="#232323"/>
<path d="M44.6144 31.468C44.7863 31.2978 44.9226 31.0952 45.0156 30.8719C45.1115 30.643 45.1603 30.3971 45.1591 30.1489C45.1567 29.9347 45.1183 29.7225 45.0458 29.5211C44.967 29.2899 44.8423 29.0771 44.6793 28.8954C44.5162 28.7136 44.3181 28.5667 44.0969 28.4633C43.8208 28.3371 43.5194 28.2761 43.2159 28.285C42.9582 28.2812 42.7019 28.3255 42.4604 28.4157C42.2449 28.498 42.0454 28.6174 41.8711 28.7686C41.7026 28.9165 41.5628 29.0943 41.4586 29.2929C41.3552 29.4899 41.2867 29.7033 41.2561 29.9237H40.6208V28.3455H40.1523V31.9606H40.6208V30.1542H41.2561C41.2546 30.4477 41.3186 30.7378 41.4435 31.0034C41.5529 31.227 41.7088 31.4248 41.9006 31.5836C42.0853 31.7351 42.2982 31.8486 42.5269 31.9175C42.7511 31.9868 42.9843 32.0225 43.219 32.0233C43.4866 32.0259 43.752 31.9745 43.9994 31.8722C44.2287 31.7787 44.4376 31.6414 44.6144 31.468ZM43.2159 31.7967C43.0548 31.7936 42.8953 31.764 42.7437 31.709C42.5687 31.6482 42.4082 31.5517 42.2723 31.4257C42.118 31.2808 41.9939 31.1067 41.9074 30.9135C41.8017 30.6727 41.7501 30.4117 41.7563 30.1489C41.7499 29.887 41.8015 29.6269 41.9074 29.3873C41.9936 29.1957 42.1177 29.0235 42.2723 28.8811C42.4092 28.7571 42.5695 28.6615 42.7437 28.6001C43.0448 28.4843 43.3781 28.4843 43.6791 28.6001C43.8515 28.6606 44.0098 28.7554 44.1445 28.8789C44.2972 29.0216 44.4196 29.1938 44.5041 29.3851C44.6975 29.8772 44.6975 30.4243 44.5041 30.9165C44.4194 31.1094 44.2972 31.2835 44.1445 31.4287C44.0106 31.5543 43.8521 31.6507 43.6791 31.712C43.5305 31.7658 43.3739 31.7944 43.2159 31.7967Z" fill="#232323"/>
<path d="M47.4159 32.0233C47.579 32.0252 47.7407 31.9925 47.8903 31.9274C48.0344 31.8657 48.1633 31.7734 48.2681 31.6569C48.3774 31.5329 48.4609 31.3883 48.5136 31.2316C48.6315 30.87 48.6315 30.4803 48.5136 30.1187C48.4595 29.9622 48.3762 29.8173 48.2681 29.6918C48.1639 29.5735 48.0349 29.4796 47.8903 29.4168C47.7407 29.3518 47.579 29.3191 47.4159 29.3209C47.0056 29.3209 46.7359 29.4795 46.609 29.7976H46.5893V29.379H46.1504V33.2556H46.5893V31.5413H46.609C46.6689 31.7026 46.7869 31.8357 46.9399 31.9145C47.0114 31.9522 47.0876 31.9799 47.1666 31.9969C47.2485 32.0146 47.3321 32.0235 47.4159 32.0233ZM46.8062 31.5239C46.737 31.4403 46.6835 31.3448 46.6483 31.2421C46.6072 31.1205 46.5873 30.9927 46.5893 30.8644V30.4111C46.5887 30.3007 46.6071 30.1911 46.6437 30.087C46.6765 29.9899 46.7279 29.9001 46.7948 29.8225C46.8581 29.7497 46.9351 29.6901 47.0215 29.6473C47.1094 29.604 47.2061 29.5817 47.3041 29.5823C47.4089 29.5824 47.5128 29.6026 47.61 29.642C47.7098 29.6823 47.7978 29.747 47.8662 29.8301C47.9454 29.9296 48.0039 30.0439 48.0384 30.1663C48.0846 30.3281 48.1062 30.4959 48.1026 30.6642C48.1064 30.8339 48.0847 31.0033 48.0384 31.1666C48.0035 31.2899 47.9441 31.405 47.8639 31.5051C47.7955 31.5888 47.7075 31.6544 47.6078 31.6962C47.5119 31.7355 47.4092 31.7558 47.3056 31.7559C47.2112 31.756 47.1178 31.7356 47.0321 31.6962C46.9449 31.6563 46.8677 31.5974 46.8062 31.5239Z" fill="#232323"/>
<path d="M51.3583 31.9605H51.7965V29.3789H51.2797L49.9643 31.6553V29.3789H49.5254V31.9605H50.0422L51.3583 29.6985V31.9605Z" fill="#232323"/>
<path d="M55.1534 32.5022H55.5138V31.7535H55.1534L54.163 29.3789H53.8532L52.8869 31.7535H52.5137V32.5022H52.8763V31.9597H55.1534V32.5022ZM53.1339 31.7535L53.8895 29.8904H53.9227L54.6911 31.7535H53.1339Z" fill="#232323"/>
<path d="M58.0653 31.9605H58.5042V29.3789H57.9875L56.6714 31.6553V29.3789H56.2324V31.9605H56.7492L58.0653 29.6985V31.9605Z" fill="#232323"/>
<path d="M60.9214 30.6795C60.8942 30.6863 60.8587 30.6946 60.8141 30.7036C60.7695 30.7127 60.7219 30.7218 60.6721 30.7301L60.521 30.7528C60.4772 30.7593 60.433 30.7628 60.3887 30.7633C60.2856 30.7692 60.1824 30.7522 60.0865 30.7135C60.0275 30.6867 59.9758 30.6463 59.9354 30.5956C59.9029 30.5534 59.882 30.5034 59.875 30.4505C59.8695 30.4087 59.8665 30.3666 59.8659 30.3244V29.3687H59.4277V30.3244C59.4277 30.3667 59.4277 30.4241 59.4391 30.4981C59.4483 30.5842 59.4784 30.6666 59.5269 30.7383C59.5754 30.8099 59.6407 30.8686 59.7171 30.9091C59.841 30.9697 59.9783 30.9976 60.116 30.99C60.2425 30.9887 60.3688 30.9781 60.4938 30.9583C60.6372 30.9356 60.7785 30.9007 60.9161 30.854V31.948H61.355V29.3687H60.9161L60.9214 30.6795Z" fill="#232323"/>
<path d="M64.2241 31.9059C64.4058 31.8293 64.5695 31.7156 64.7046 31.572L64.5422 31.408C64.4704 31.47 64.4032 31.5266 64.3412 31.578C64.2818 31.6273 64.2175 31.6703 64.1493 31.7065C64.0851 31.7418 64.0172 31.7699 63.9469 31.7903C63.8709 31.8101 63.7927 31.8198 63.7142 31.819C63.6104 31.818 63.5073 31.8033 63.4074 31.7752C63.2966 31.7447 63.1936 31.6909 63.1052 31.6173C63.0052 31.5312 62.9262 31.4235 62.874 31.3023C62.8065 31.1386 62.7748 30.9624 62.7811 30.7855H64.7296V30.6774C64.734 30.4735 64.701 30.2704 64.6321 30.0783C64.5749 29.9217 64.485 29.779 64.3684 29.6598C64.2588 29.5508 64.1272 29.4666 63.9824 29.4127C63.8339 29.3579 63.6768 29.3302 63.5185 29.3311C63.3518 29.3294 63.1864 29.3597 63.0312 29.4203C62.8842 29.4787 62.7515 29.5682 62.6421 29.6824C62.5283 29.803 62.4401 29.9454 62.383 30.101C62.3179 30.279 62.2862 30.4675 62.2893 30.657C62.2893 30.828 62.3166 30.9979 62.3701 31.1602C62.4221 31.3208 62.505 31.4697 62.6141 31.5984C62.7282 31.7308 62.8697 31.8368 63.0289 31.9089C63.2154 31.9907 63.4176 32.0307 63.6212 32.026C63.8283 32.0272 64.0334 31.9863 64.2241 31.9059ZM62.8249 30.1765C62.8513 30.056 62.8962 29.9403 62.9579 29.8335C63.0138 29.7368 63.0914 29.6543 63.1846 29.5925C63.2835 29.5304 63.3986 29.4988 63.5155 29.5019C63.6267 29.4975 63.7372 29.5215 63.8365 29.5716C63.9359 29.6217 64.0209 29.6962 64.0836 29.7882C64.2196 29.9786 64.2876 30.2413 64.2876 30.5762H62.7834C62.7821 30.4418 62.796 30.3078 62.8249 30.1765Z" fill="#232323"/>
<path d="M67.7094 31.4676C67.6019 31.5589 67.4808 31.6331 67.3506 31.6874C67.2263 31.7356 67.094 31.7597 66.9607 31.7584C66.8388 31.7585 66.7177 31.7392 66.6019 31.701C66.4871 31.6635 66.3821 31.601 66.2944 31.5182C66.1981 31.424 66.1247 31.309 66.0798 31.182C66.024 31.0161 65.9984 30.8416 66.0043 30.6667C65.9994 30.4842 66.0294 30.3024 66.0926 30.1311C66.1412 29.9999 66.2157 29.8799 66.3118 29.7782C66.3936 29.6938 66.4928 29.6283 66.6026 29.5863C66.6991 29.549 66.8014 29.5288 66.9048 29.5267C67.0516 29.5244 67.1953 29.5683 67.3158 29.6521C67.4245 29.7243 67.5061 29.8306 67.5478 29.9543H67.9051C67.877 29.8393 67.8204 29.7333 67.7404 29.646C67.665 29.5661 67.5763 29.4999 67.4783 29.4504C67.3788 29.4007 67.2727 29.3659 67.1632 29.3468C67.0569 29.3283 66.9493 29.3187 66.8414 29.3181C66.645 29.3144 66.45 29.3504 66.2679 29.4239C66.1099 29.4897 65.9674 29.5877 65.8494 29.7118C65.7355 29.8339 65.6485 29.9785 65.594 30.1364C65.5359 30.3027 65.5067 30.4777 65.5079 30.6539C65.5061 30.8376 65.5378 31.0202 65.6016 31.1926C65.6601 31.3534 65.7505 31.5006 65.8675 31.6255C65.9847 31.7494 66.1261 31.8479 66.283 31.9148C66.4567 31.9874 66.6434 32.0234 66.8315 32.0206C67.036 32.0249 67.2391 31.9863 67.4276 31.9073C67.5798 31.8424 67.7241 31.7603 67.8575 31.6625L67.7094 31.4676Z" fill="#232323"/>
<path d="M71.0668 31.9601V31.7538L70.9203 31.7591C70.8745 31.7578 70.8299 31.7451 70.7903 31.7221C70.7416 31.6952 70.696 31.663 70.6543 31.6261C70.6074 31.5859 70.5627 31.543 70.5206 31.4977C70.4783 31.4516 70.439 31.4055 70.4035 31.3602L69.7281 30.4778L70.7767 29.3838H70.4518L69.1675 30.715V29.3838H68.7285V31.9601H69.1675V31.0535L69.4523 30.7513L70.0922 31.5937C70.1345 31.6458 70.1768 31.6972 70.2207 31.7448C70.2637 31.7956 70.3118 31.8419 70.3642 31.883C70.4152 31.9237 70.4717 31.957 70.5319 31.982C70.5934 32.0065 70.6591 32.0189 70.7253 32.0183C70.7864 32.0181 70.8472 32.011 70.9067 31.9971C70.9694 31.988 71.0185 31.9737 71.0668 31.9601Z" fill="#232323"/>
<path d="M74.267 31.1859C74.3899 30.8549 74.3899 30.4909 74.267 30.1599C74.2077 29.9998 74.117 29.8532 74.0003 29.7285C73.8811 29.6031 73.7387 29.502 73.581 29.4308C73.4077 29.3541 73.2198 29.3159 73.0302 29.319C72.8376 29.3162 72.6465 29.3543 72.4696 29.4308C72.3099 29.5008 72.1658 29.602 72.0458 29.7285C71.93 29.8541 71.839 30.0005 71.7776 30.1599C71.6497 30.4881 71.6497 30.8524 71.7776 31.1806C71.839 31.3402 71.93 31.4869 72.0458 31.6128C72.1652 31.74 72.3095 31.8413 72.4696 31.9104C72.6466 31.9865 72.8376 32.0243 73.0302 32.0215C73.2194 32.0245 73.4071 31.9874 73.581 31.9127C73.7395 31.8442 73.8822 31.7439 74.0003 31.618C74.1168 31.493 74.2074 31.3461 74.267 31.1859ZM73.7895 31.2539C73.7493 31.3839 73.6804 31.5032 73.5878 31.6029C73.5123 31.6811 73.4182 31.7388 73.3143 31.7707C73.1263 31.8291 72.9251 31.8291 72.7371 31.7707C72.6322 31.7385 72.537 31.6809 72.4598 31.6029C72.3647 31.5042 72.2938 31.3847 72.2528 31.2539C72.147 30.8725 72.147 30.4695 72.2528 30.0881C72.2942 29.9575 72.365 29.838 72.4598 29.7391C72.5365 29.6602 72.6319 29.602 72.7371 29.5699C72.9249 29.5104 73.1265 29.5104 73.3143 29.5699C73.4185 29.6017 73.5127 29.66 73.5878 29.7391C73.6801 29.839 73.749 29.9583 73.7895 30.0881C73.8933 30.4698 73.8933 30.8722 73.7895 31.2539Z" fill="#232323"/>
<path d="M77.5464 31.5721L77.384 31.4081C77.312 31.4701 77.2447 31.5267 77.1823 31.5781C77.1232 31.6275 77.0592 31.6705 76.9911 31.7066C76.9268 31.7408 76.8589 31.768 76.7887 31.7874C76.7127 31.8072 76.6345 31.8169 76.556 31.8161C76.4522 31.8151 76.3491 31.8003 76.2492 31.7723C76.1384 31.7418 76.0354 31.6879 75.947 31.6144C75.847 31.5283 75.768 31.4206 75.7158 31.2993C75.6483 31.1357 75.6166 30.9595 75.6229 30.7826H77.5714V30.6745C77.5758 30.4705 77.5428 30.2675 77.4739 30.0754C77.4167 29.9188 77.3268 29.7761 77.2102 29.6568C77.1006 29.5479 76.969 29.4637 76.8242 29.4098C76.6757 29.355 76.5186 29.3274 76.3603 29.3282C76.1936 29.3264 76.0282 29.3567 75.873 29.4173C75.726 29.4758 75.5933 29.5652 75.4839 29.6795C75.3701 29.8001 75.2819 29.9425 75.2248 30.0981C75.1597 30.2761 75.128 30.4646 75.1311 30.6541C75.1311 30.8251 75.1584 30.9949 75.2119 31.1573C75.2639 31.3179 75.3468 31.4667 75.4559 31.5955C75.57 31.7279 75.7115 31.8339 75.8707 31.906C76.0572 31.9879 76.2594 32.0279 76.463 32.0231C76.6704 32.0255 76.876 31.9856 77.0674 31.906C77.2486 31.8292 77.4117 31.7155 77.5464 31.5721ZM75.6667 30.1766C75.6931 30.0561 75.738 29.9404 75.7997 29.8336C75.8556 29.7369 75.9332 29.6544 76.0264 29.5926C76.1253 29.5305 76.2404 29.4989 76.3573 29.502C76.4685 29.4976 76.579 29.5216 76.6783 29.5717C76.7777 29.6218 76.8627 29.6963 76.9254 29.7883C77.0614 29.9787 77.1294 30.2414 77.1294 30.5763H75.6184C75.6193 30.4417 75.6355 30.3076 75.6667 30.1766Z" fill="#232323"/>
<path d="M80.6659 31.4962C80.7763 31.6529 80.9223 31.7811 81.092 31.8702C81.3155 31.9804 81.5631 32.0323 81.812 32.0213C82.0163 32.0269 82.219 31.985 82.4043 31.8989C82.5598 31.824 82.6968 31.7157 82.8055 31.5816C82.9091 31.4516 82.9862 31.3024 83.0322 31.1427C83.0811 30.9838 83.1065 30.8186 83.1077 30.6523C83.1073 30.4868 83.0819 30.3222 83.0322 30.1643C82.9858 30.0088 82.9087 29.8641 82.8055 29.7389C82.696 29.6107 82.5602 29.5077 82.4074 29.4367C82.2235 29.3541 82.0233 29.3141 81.8218 29.3196C81.6789 29.3175 81.5365 29.3371 81.3995 29.3778C81.2841 29.4119 81.1744 29.4628 81.0739 29.5289C80.9837 29.5892 80.9034 29.6631 80.8359 29.748C80.7748 29.8255 80.724 29.9105 80.6848 30.0011H80.6651V29.9769C80.6636 29.77 80.7021 29.5648 80.7785 29.3725C80.8383 29.2071 80.9411 29.0606 81.0762 28.9479C81.2078 28.8463 81.3644 28.7818 81.5295 28.7613C81.705 28.7411 81.8816 28.7315 82.0583 28.7326H82.6937L82.9725 28.3442H82.2532C82.1059 28.3442 81.9593 28.348 81.8143 28.3556C81.6727 28.3632 81.5326 28.3886 81.3972 28.4311C81.2617 28.4734 81.1341 28.5377 81.0195 28.6215C80.8899 28.7183 80.7818 28.8411 80.7022 28.9819C80.6334 29.0951 80.5795 29.2167 80.542 29.3438C80.5045 29.4674 80.4765 29.5937 80.4581 29.7215C80.4409 29.8448 80.4305 29.9689 80.4272 30.0932C80.4234 30.2149 80.4219 30.3297 80.4219 30.437V30.576C80.4242 30.7264 80.4414 30.8763 80.4733 31.0233C80.5062 31.1919 80.5716 31.3526 80.6659 31.4962ZM80.9681 30.165C81.0017 30.0343 81.0613 29.9118 81.1434 29.8046C81.2139 29.7145 81.3051 29.6427 81.4093 29.5954C81.5145 29.5491 81.6283 29.5256 81.7433 29.5266C81.8177 29.5288 81.8919 29.5361 81.9654 29.5485C82.0709 29.567 82.1702 29.6117 82.254 29.6785C82.3656 29.77 82.4526 29.8879 82.5071 30.0215C82.5894 30.2323 82.6265 30.458 82.6159 30.6841C82.6221 30.8805 82.5932 31.0765 82.5305 31.2628C82.4861 31.391 82.4147 31.5082 82.3212 31.6065C82.2477 31.6818 82.1573 31.7385 82.0576 31.772C81.9791 31.7987 81.8971 31.8135 81.8143 31.8158C81.7146 31.8144 81.6157 31.7989 81.5204 31.7697C81.4093 31.7358 81.3078 31.676 81.2242 31.5952C81.1248 31.4974 81.0476 31.3794 80.9976 31.2492C80.9313 31.0684 80.9005 30.8765 80.9069 30.6841C80.9031 30.5092 80.9229 30.3346 80.9658 30.165H80.9681Z" fill="#232323"/>
<path d="M87.2094 29.7176C87.0912 29.5928 86.9484 29.4937 86.7901 29.4267C86.6133 29.354 86.4236 29.318 86.2325 29.321C86.0576 29.3198 85.8838 29.349 85.7188 29.4071C85.5648 29.4603 85.4226 29.5429 85.3002 29.6504C85.1792 29.7589 85.0817 29.891 85.0139 30.0387C84.9395 30.2003 84.9006 30.376 84.8998 30.554H84.4714V29.3837H84.0332V31.9653H84.4714V30.7277H84.8998C84.912 30.8856 84.9495 31.0404 85.0108 31.1863C85.0739 31.3396 85.1631 31.4807 85.2745 31.6034C85.3899 31.7293 85.5284 31.8319 85.6825 31.9056C85.8544 31.9862 86.0426 32.0263 86.2325 32.0227C86.4261 32.0259 86.6183 31.9899 86.7976 31.9169C86.9568 31.8512 87.0999 31.7517 87.2169 31.6253C87.3321 31.4987 87.421 31.3506 87.4783 31.1894C87.5408 31.0151 87.5718 30.8312 87.5698 30.6461C87.5706 30.4733 87.5388 30.3018 87.4761 30.1407C87.4155 29.9837 87.3249 29.84 87.2094 29.7176ZM87.0364 31.0571C87.0122 31.1894 86.967 31.3169 86.9026 31.4349C86.8409 31.5467 86.7524 31.6415 86.645 31.7107C86.5213 31.7846 86.3788 31.821 86.2348 31.8157C86.1368 31.815 86.0395 31.7994 85.9462 31.7696C85.8415 31.7355 85.7476 31.6749 85.6734 31.5935C85.581 31.4895 85.5116 31.3673 85.4694 31.2347C85.4102 31.0443 85.3829 30.8454 85.3886 30.6461C85.3796 30.4299 85.4112 30.2139 85.4815 30.0092C85.5277 29.8808 85.6057 29.7662 85.7082 29.6761C85.7866 29.6095 85.8817 29.5653 85.9832 29.5484C86.0667 29.5349 86.151 29.5276 86.2355 29.5265C86.3333 29.5272 86.4305 29.5404 86.5249 29.5658C86.6277 29.5946 86.7215 29.6489 86.7976 29.7237C86.8907 29.8195 86.9599 29.936 86.9993 30.0636C87.0555 30.2507 87.081 30.4456 87.0749 30.6408C87.0748 30.7805 87.0619 30.9198 87.0364 31.0571Z" fill="#232323"/>
<path d="M90.9399 30.677C90.9427 30.4872 90.9128 30.2984 90.8515 30.1187C90.7971 29.9621 90.7135 29.8173 90.6052 29.6918C90.501 29.5735 90.3721 29.4797 90.2275 29.4168C90.0781 29.3517 89.9167 29.319 89.7538 29.3209C89.3438 29.3209 89.0748 29.4798 88.9469 29.7976H88.9265V29.3791H88.4883V33.2556H88.9265V31.5413H88.9469C88.9766 31.6252 89.0228 31.7023 89.0829 31.768C89.1381 31.8295 89.2038 31.8807 89.277 31.9191C89.3486 31.9565 89.4248 31.9842 89.5037 32.0014C89.7454 32.0531 89.9971 32.0288 90.2244 31.9319C90.3685 31.8702 90.4974 31.7779 90.6022 31.6615C90.7118 31.5374 90.7955 31.3928 90.8485 31.2361C90.9109 31.0564 90.9419 30.8673 90.9399 30.677ZM90.3839 31.1696C90.3487 31.293 90.2891 31.4081 90.2086 31.5081C90.1402 31.5918 90.0522 31.6574 89.9525 31.6992C89.8565 31.7385 89.7539 31.7588 89.6503 31.7589C89.5545 31.7591 89.4599 31.7382 89.3731 31.6976C89.2864 31.657 89.2097 31.5977 89.1486 31.524C89.0796 31.4403 89.0264 31.3448 88.9915 31.2421C88.9497 31.1207 88.9295 30.9928 88.9318 30.8644V30.4111C88.9311 30.3007 88.9495 30.1911 88.9862 30.087C89.019 29.9899 89.0703 29.9001 89.1373 29.8225C89.2006 29.7498 89.2776 29.6903 89.3639 29.6473C89.4518 29.604 89.5485 29.5818 89.6465 29.5823C89.7516 29.5824 89.8557 29.6027 89.9532 29.642C90.0528 29.6822 90.1407 29.7469 90.2086 29.8301C90.288 29.9295 90.3469 30.0438 90.3816 30.1663C90.4274 30.3282 90.449 30.496 90.4458 30.6642C90.4502 30.8348 90.4293 31.0051 90.3839 31.1696Z" fill="#232323"/>
<path d="M94.0288 29.7305C93.9099 29.6047 93.7675 29.5036 93.6095 29.4328C93.4365 29.3561 93.2488 29.3179 93.0595 29.321C92.8666 29.318 92.6752 29.3561 92.4982 29.4328C92.3386 29.5025 92.1946 29.6038 92.0751 29.7305C91.9587 29.8558 91.8675 30.0022 91.8061 30.1619C91.6792 30.4903 91.6792 30.8542 91.8061 31.1826C91.8675 31.3424 91.9587 31.4891 92.0751 31.6147C92.194 31.7421 92.3381 31.8434 92.4982 31.9124C92.6754 31.9884 92.8667 32.0262 93.0595 32.0234C93.2485 32.0263 93.4359 31.9893 93.6095 31.9146C93.7682 31.8466 93.911 31.7462 94.0288 31.62C94.1456 31.4951 94.2363 31.3482 94.2955 31.1878C94.4184 30.8569 94.4184 30.4928 94.2955 30.1619C94.2364 30.0016 94.1457 29.8549 94.0288 29.7305ZM93.818 31.2558C93.7779 31.3858 93.7089 31.5051 93.6163 31.6049C93.5408 31.683 93.4467 31.7407 93.3428 31.7726C93.1549 31.831 92.9536 31.831 92.7656 31.7726C92.6608 31.7403 92.5656 31.6827 92.4883 31.6049C92.3934 31.506 92.3226 31.3865 92.2813 31.2558C92.1756 30.8744 92.1756 30.4715 92.2813 30.0901C92.3231 29.9596 92.3939 29.8402 92.4883 29.741C92.5652 29.6623 92.6605 29.6041 92.7656 29.5718C92.9534 29.5124 93.155 29.5124 93.3428 29.5718C93.4471 29.6037 93.5413 29.662 93.6163 29.741C93.7086 29.841 93.7775 29.9602 93.818 30.0901C93.9228 30.4716 93.9228 30.8743 93.818 31.2558Z" fill="#232323"/>
<path d="M42.817 34.9775H42.5571L40.6208 37.0121V34.9775H40.1523V38.5927H40.6208V37.3226L41.2055 36.6971L42.5775 38.5927H43.114L41.5032 36.3767L42.817 34.9775Z" fill="#232323"/>
<path d="M45.789 36.3365C45.7168 36.2155 45.6099 36.1189 45.4823 36.0592C45.2945 35.9791 45.0909 35.943 44.887 35.9534C44.7572 35.9512 44.6276 35.9641 44.5009 35.9919C44.4051 36.0143 44.3122 36.0481 44.2244 36.0924C44.1524 36.1292 44.0862 36.1763 44.0279 36.2322C43.9751 36.2836 43.9244 36.3357 43.8768 36.3878L44.1435 36.653C44.1876 36.5793 44.2357 36.5082 44.2878 36.44C44.3328 36.38 44.386 36.3266 44.4457 36.2813C44.5045 36.2373 44.5701 36.2034 44.6399 36.1808C44.7221 36.1553 44.8078 36.1431 44.8938 36.1446C45.1174 36.1446 45.2713 36.2133 45.3554 36.3508C45.4395 36.4883 45.4818 36.6976 45.4823 36.9786V37.1993C45.3898 37.0879 45.2719 37.0003 45.1386 36.9439C44.9991 36.8835 44.8486 36.8526 44.6966 36.8532C44.555 36.8505 44.4145 36.8786 44.2848 36.9356C44.1706 36.9859 44.0678 37.0589 43.9826 37.1502C43.902 37.2359 43.8394 37.3368 43.7983 37.4471C43.7175 37.6555 43.7157 37.8863 43.793 38.0961C43.8304 38.1992 43.8879 38.294 43.9622 38.3748C44.0417 38.4608 44.1378 38.5297 44.2448 38.5773C44.3677 38.6306 44.5007 38.6564 44.6346 38.6529C44.7939 38.6521 44.9517 38.6229 45.1008 38.5667C45.2432 38.5176 45.3737 38.4391 45.4838 38.3363V38.5902H45.922V37.1834C45.922 37.0283 45.9167 36.8772 45.9061 36.7301C45.8974 36.5917 45.8573 36.4571 45.789 36.3365ZM45.4823 37.9676C45.4516 38.0366 45.4114 38.1009 45.3629 38.1588C45.3157 38.2161 45.2611 38.2669 45.2005 38.3099C45.1419 38.3525 45.0776 38.3866 45.0094 38.4111C44.9455 38.4347 44.878 38.4469 44.8099 38.4474C44.6528 38.4446 44.5022 38.3847 44.3861 38.2789C44.3236 38.2201 44.2724 38.1505 44.235 38.0734C44.1936 37.9837 44.1734 37.8858 44.176 37.787C44.1754 37.6951 44.1912 37.6037 44.2229 37.5173C44.2516 37.434 44.2962 37.357 44.3543 37.2907C44.4125 37.225 44.4838 37.1723 44.5636 37.1358C44.6493 37.0953 44.7431 37.0749 44.8379 37.0761C44.9275 37.0737 45.0166 37.0923 45.0977 37.1305C45.1664 37.164 45.2292 37.2084 45.2836 37.262C45.3322 37.3093 45.3746 37.3626 45.4098 37.4206C45.4385 37.4671 45.4637 37.5156 45.4853 37.5657L45.4823 37.9676Z" fill="#232323"/>
<path d="M49.0974 36.3237C48.9932 36.2054 48.8642 36.1115 48.7197 36.0487C48.5703 35.9835 48.4089 35.9508 48.246 35.9527C47.836 35.9527 47.567 36.1116 47.4391 36.4294H47.4187V36.0109H46.9805V39.8874H47.4187V38.1739H47.4391C47.4688 38.2578 47.515 38.3349 47.5751 38.4006C47.6305 38.4619 47.6962 38.513 47.7692 38.5517C47.8408 38.5891 47.917 38.6168 47.9959 38.634C48.2376 38.6856 48.4893 38.6614 48.7166 38.5645C48.8605 38.5026 48.9894 38.4103 49.0944 38.294C49.2039 38.17 49.2877 38.0254 49.3407 37.8687C49.4585 37.5071 49.4585 37.1174 49.3407 36.7558C49.288 36.5975 49.2054 36.4508 49.0974 36.3237ZM48.876 37.8015C48.8408 37.9249 48.7812 38.04 48.7008 38.1399C48.6321 38.2234 48.5442 38.289 48.4447 38.3311C48.3487 38.3701 48.246 38.3901 48.1424 38.39C48.0466 38.3906 47.9518 38.3699 47.865 38.3292C47.7783 38.2886 47.7016 38.2291 47.6408 38.155C47.5717 38.0715 47.5184 37.976 47.4836 37.8732C47.4419 37.7518 47.4217 37.6239 47.424 37.4955V37.0459C47.4233 36.9353 47.4417 36.8254 47.4783 36.7211C47.5112 36.6242 47.5625 36.5347 47.6295 36.4574C47.693 36.3847 47.7699 36.3249 47.8561 36.2814C47.9442 36.2387 48.0408 36.2168 48.1387 36.2171C48.2438 36.2169 48.348 36.2372 48.4454 36.2768C48.545 36.317 48.6329 36.3817 48.7008 36.465C48.7802 36.5644 48.839 36.6787 48.8738 36.8012C48.9199 36.963 48.9416 37.1308 48.938 37.299C48.9426 37.4689 48.9217 37.6385 48.876 37.8022V37.8015Z" fill="#232323"/>
<path d="M50.7964 38.2881V36.0117H50.3574V38.5925H50.8749L52.1903 36.3313V38.5925H52.6292V36.0117H52.1125L50.7964 38.2881Z" fill="#232323"/>
<path d="M55.4554 37.1835H54.1491V36.0117H53.7109V38.5925H54.1491V37.3603H55.4554V38.5925H55.8936V36.0117H55.4554V37.1835Z" fill="#232323"/>
<path d="M58.6794 37.2852C58.5695 37.2389 58.4529 37.2104 58.3341 37.2006C58.214 37.1908 58.1127 37.1855 58.0319 37.1855H57.4116V36.0137H56.9727V38.59H58.3326C58.4264 38.5898 58.5196 38.5743 58.6083 38.5439C58.6968 38.5143 58.7786 38.4679 58.8493 38.4071C58.9184 38.3466 58.9751 38.2732 59.0163 38.1911C59.0605 38.103 59.0828 38.0055 59.0813 37.907C59.0898 37.7615 59.0488 37.6174 58.9649 37.4983C58.8898 37.4037 58.7914 37.3303 58.6794 37.2852ZM58.4527 38.2795C58.3525 38.3598 58.2275 38.4028 58.0991 38.4011H57.4192V37.36H58.0115C58.0417 37.36 58.087 37.36 58.1565 37.3698C58.227 37.3777 58.2951 37.3998 58.3568 37.4348C58.4282 37.4751 58.4891 37.5318 58.5343 37.6002C58.5904 37.6951 58.6168 37.8046 58.6098 37.9145C58.6145 37.9833 58.6029 38.0521 58.5759 38.1155C58.549 38.1789 58.5076 38.235 58.455 38.2795H58.4527Z" fill="#232323"/>
<path d="M60.0662 36.0117H59.625V38.5933H60.0662V36.0117Z" fill="#232323"/>
<path d="M63.418 38.5927H63.8864V35.2624H66.0494V38.5927H66.5209V34.9775H63.418V38.5927Z" fill="#232323"/>
<path d="M69.659 36.3365C69.5863 36.2155 69.4792 36.119 69.3515 36.0592C69.1636 35.9791 68.96 35.943 68.7561 35.9534C68.6264 35.9512 68.4968 35.9641 68.37 35.9919C68.274 36.0145 68.1809 36.0482 68.0928 36.0924C68.021 36.1292 67.9551 36.1763 67.8971 36.2322C67.8442 36.2836 67.7928 36.3357 67.746 36.3878L68.0127 36.653C68.0565 36.5792 68.1046 36.508 68.157 36.44C68.2019 36.3802 68.2548 36.3268 68.3141 36.2813C68.3732 36.2375 68.4391 36.2036 68.5091 36.1808C68.591 36.1553 68.6764 36.1431 68.7622 36.1446C68.9868 36.1446 69.1409 36.2133 69.2245 36.3508C69.3091 36.4883 69.3507 36.6976 69.3507 36.9786V37.1993C69.2587 37.0877 69.141 37.0001 69.0077 36.9439C68.8682 36.8835 68.7177 36.8526 68.5657 36.8532C68.4241 36.8505 68.2836 36.8786 68.154 36.9356C68.0398 36.9859 67.9369 37.0589 67.8518 37.1502C67.7712 37.236 67.7083 37.3369 67.6667 37.4471C67.6265 37.553 67.6058 37.6654 67.6055 37.7787C67.6057 37.887 67.6248 37.9944 67.6621 38.0961C67.6996 38.1992 67.7571 38.294 67.8314 38.3748C67.9108 38.4608 68.007 38.5297 68.1139 38.5773C68.2368 38.6306 68.3699 38.6564 68.5038 38.6529C68.663 38.6521 68.8209 38.6229 68.9699 38.5667C69.1122 38.5178 69.2425 38.4393 69.3522 38.3363V38.5902H69.7912V37.1834C69.7912 37.0283 69.7859 36.8772 69.7753 36.7301C69.7667 36.5918 69.727 36.4572 69.659 36.3365ZM69.3492 37.9676C69.319 38.0367 69.2791 38.1011 69.2306 38.1588C69.1834 38.2161 69.1287 38.2669 69.0681 38.3099C69.0094 38.3522 68.9451 38.3863 68.877 38.4111C68.8131 38.4347 68.7456 38.4469 68.6775 38.4474C68.6034 38.4465 68.5299 38.4324 68.4607 38.4058C68.3839 38.3774 68.3133 38.3343 68.2529 38.2789C68.1907 38.2199 68.1395 38.1503 68.1018 38.0734C68.0605 37.9837 68.0403 37.8858 68.0429 37.787C68.0422 37.6951 68.0581 37.6037 68.0898 37.5173C68.1184 37.4341 68.1628 37.3572 68.2205 37.2907C68.279 37.225 68.3505 37.1723 68.4305 37.1358C68.5162 37.0953 68.61 37.0749 68.7047 37.0761C68.7944 37.0738 68.8834 37.0924 68.9646 37.1305C69.0333 37.164 69.096 37.2084 69.1505 37.262C69.1989 37.3095 69.2412 37.3628 69.2767 37.4206C69.3057 37.4669 69.331 37.5154 69.3522 37.5657L69.3492 37.9676Z" fill="#232323"/>
<path d="M72.912 38.3544C72.8635 38.3272 72.8179 38.2951 72.776 38.2585C72.7289 38.2184 72.6842 38.1755 72.6423 38.13C72.5992 38.084 72.56 38.0379 72.5252 37.9925L71.8452 37.1101L72.8947 36.0161H72.569L71.2847 37.3473V36.0161H70.8457V38.5901H71.2847V37.6835L71.5695 37.3813L72.2102 38.223C72.2517 38.2751 72.2948 38.3272 72.3386 38.3786C72.3817 38.4294 72.4298 38.4757 72.4821 38.5169C72.533 38.5575 72.5895 38.5906 72.6499 38.6151C72.711 38.6401 72.7765 38.6527 72.8425 38.6521C72.9036 38.6521 72.9645 38.6447 73.0238 38.6302C73.0828 38.6158 73.1349 38.6022 73.1802 38.5886V38.3862L73.0344 38.3907C72.9913 38.3885 72.9494 38.3761 72.912 38.3544Z" fill="#232323"/>
<path d="M74.6036 36.4115C74.6851 36.3267 74.7845 36.2612 74.8945 36.2196C74.991 36.1821 75.0933 36.1619 75.1967 36.16C75.3443 36.1571 75.4889 36.201 75.61 36.2854C75.7191 36.3572 75.8008 36.4636 75.8419 36.5876H76.2C76.1716 36.4726 76.1147 36.3666 76.0346 36.2793C75.9593 36.1992 75.8706 36.133 75.7724 36.0837C75.673 36.034 75.5669 35.9992 75.4574 35.9801C75.3513 35.9616 75.2439 35.952 75.1363 35.9514C74.94 35.9477 74.7449 35.9837 74.5628 36.0572C74.4048 36.123 74.2623 36.221 74.1443 36.3451C74.0305 36.4674 73.9433 36.6119 73.8882 36.7697C73.8306 36.9361 73.8017 37.1111 73.8028 37.2872C73.8011 37.4709 73.8326 37.6533 73.8957 37.8259C73.9545 37.9865 74.0449 38.1337 74.1617 38.2588C74.2791 38.3828 74.4208 38.4812 74.578 38.5481C74.7515 38.621 74.9383 38.657 75.1265 38.6539C75.3309 38.6582 75.534 38.6196 75.7226 38.5406C75.8746 38.4754 76.0188 38.3933 76.1524 38.2958L76.0013 38.0986C75.8933 38.1897 75.772 38.2638 75.6417 38.3185C75.5176 38.3663 75.3856 38.3902 75.2526 38.3887C75.1305 38.3891 75.0091 38.3699 74.893 38.3321C74.7784 38.2944 74.6734 38.2319 74.5855 38.1492C74.4895 38.055 74.4163 37.94 74.3717 37.813C74.2621 37.4708 74.265 37.1025 74.38 36.7621C74.4305 36.6315 74.5065 36.5123 74.6036 36.4115Z" fill="#232323"/>
<path d="M78.8769 36.3365C78.8048 36.2154 78.6979 36.1188 78.5702 36.0592C78.3821 35.9791 78.1782 35.9429 77.9741 35.9534C77.8443 35.9513 77.7148 35.9642 77.588 35.992C77.4922 36.0144 77.3994 36.0481 77.3115 36.0925C77.2397 36.1294 77.1735 36.1765 77.1151 36.2322C77.0622 36.2836 77.0116 36.3357 76.964 36.3879L77.2307 36.653C77.2744 36.5794 77.3224 36.5082 77.3742 36.44C77.4194 36.3802 77.4725 36.3268 77.5321 36.2813C77.5909 36.2375 77.6565 36.2036 77.7263 36.1808C77.8084 36.1554 77.8941 36.1431 77.9801 36.1446C78.2043 36.1446 78.3584 36.2133 78.4425 36.3508C78.5266 36.4883 78.5687 36.6976 78.5687 36.9787V37.1993C78.4763 37.0877 78.3584 37.0001 78.2249 36.9439C78.0854 36.8835 77.9349 36.8526 77.7829 36.8533C77.6416 36.8506 77.5014 36.8787 77.3719 36.9356C77.2579 36.9862 77.1551 37.0592 77.0697 37.1502C76.9894 37.2361 76.9268 37.337 76.8854 37.4471C76.8057 37.6557 76.8038 37.8861 76.8801 38.0961C76.9178 38.1993 76.9756 38.2941 77.0501 38.3749C77.1293 38.4608 77.2252 38.5297 77.3319 38.5773C77.4551 38.6306 77.5884 38.6563 77.7225 38.6529C77.8818 38.6521 78.0396 38.6229 78.1886 38.5668C78.3309 38.5178 78.4612 38.4393 78.5709 38.3363V38.5902H79.0099V37.1834C79.0099 37.0283 79.0046 36.8772 78.994 36.7301C78.9856 36.5917 78.9455 36.457 78.8769 36.3365ZM78.5679 37.9676C78.5378 38.0367 78.4978 38.1011 78.4493 38.1588C78.4018 38.2161 78.347 38.267 78.2861 38.3099C78.2277 38.3524 78.1636 38.3865 78.0957 38.4111C78.0318 38.4347 77.9644 38.447 77.8963 38.4474C77.8218 38.4465 77.7482 38.4325 77.6787 38.4058C77.6022 38.3772 77.5319 38.3341 77.4717 38.2789C77.4092 38.2202 77.358 38.1505 77.3206 38.0734C77.2789 37.9838 77.2585 37.8858 77.2609 37.7871C77.2606 37.6951 77.2764 37.6038 77.3077 37.5173C77.3364 37.434 77.3811 37.357 77.4392 37.2907C77.4977 37.225 77.5692 37.1723 77.6492 37.1358C77.7347 37.0954 77.8282 37.075 77.9227 37.0761C78.0126 37.0737 78.1019 37.0923 78.1834 37.1305C78.2517 37.1642 78.3141 37.2086 78.3685 37.262C78.4171 37.3095 78.4597 37.3628 78.4954 37.4206C78.5244 37.4669 78.5497 37.5154 78.5709 37.5657L78.5679 37.9676Z" fill="#232323"/>
<path d="M83.1785 38.3863H82.0618V36.0117H81.6236V38.3863H80.5093V36.0117H80.0703V38.5925H83.6227V36.0117H83.1785V38.3863Z" fill="#232323"/>
<path d="M86.5506 37.3817C86.4747 37.3325 86.3909 37.2968 86.3028 37.2759C86.2241 37.2562 86.1436 37.2441 86.0625 37.2397V37.2049C86.1334 37.1908 86.2025 37.1693 86.2688 37.1407C86.3367 37.1119 86.3991 37.0715 86.4532 37.0213C86.507 36.9715 86.5511 36.9121 86.5831 36.8461C86.6162 36.7751 86.633 36.6977 86.6322 36.6194C86.6306 36.5596 86.6217 36.5003 86.6058 36.4426C86.5847 36.3679 86.5458 36.2995 86.4924 36.2432C86.4206 36.17 86.333 36.1142 86.2363 36.08C86.0928 36.0306 85.9415 36.0081 85.7898 36.0135H84.7109V38.5905H85.8782C86.0245 38.5936 86.1703 38.5737 86.3104 38.5316C86.4171 38.4992 86.5166 38.4466 86.6035 38.3767C86.6738 38.3188 86.7285 38.2443 86.7629 38.1599C86.7944 38.0806 86.8103 37.9959 86.8098 37.9106C86.8133 37.7973 86.7872 37.6851 86.7342 37.585C86.6905 37.5032 86.6275 37.4334 86.5506 37.3817ZM85.1476 36.2182H85.6591C85.7555 36.214 85.8517 36.2318 85.9402 36.2704C86.0028 36.2987 86.0582 36.3411 86.1018 36.3943C86.1377 36.4385 86.1635 36.4901 86.1774 36.5454C86.1891 36.5916 86.1955 36.639 86.1963 36.6866C86.1977 36.7597 86.1808 36.8319 86.1472 36.8967C86.1145 36.9572 86.0694 37.0102 86.015 37.0523C85.9574 37.0963 85.8924 37.1296 85.823 37.1505C85.7497 37.1734 85.6732 37.1849 85.5964 37.1845H85.1476V36.2182ZM86.2635 38.1773C86.2126 38.2432 86.1458 38.2952 86.0693 38.3284C85.9973 38.3588 85.9207 38.3771 85.8427 38.3828C85.7671 38.3873 85.715 38.3903 85.6818 38.3903H85.1476V37.3606H85.6009C85.6561 37.3606 85.7256 37.3606 85.8102 37.3704C85.8945 37.3771 85.977 37.3981 86.0542 37.4323C86.1349 37.4676 86.2053 37.5227 86.259 37.5925C86.3201 37.679 86.3502 37.7837 86.3444 37.8894C86.3504 37.9922 86.3207 38.0938 86.2605 38.1773H86.2635Z" fill="#232323"/>
<path d="M88.1823 38.2881V36.0117H87.7441V38.5925H88.2609L89.5763 36.3313V38.5925H90.0152V36.0117H89.4984L88.1823 38.2881Z" fill="#232323"/>
<path d="M92.2701 36.0115L91.4836 37.957C91.4669 37.9963 91.4488 38.0401 91.4284 38.09C91.4069 38.1389 91.3817 38.1862 91.3529 38.2312C91.3271 38.273 91.2947 38.3102 91.2569 38.3415C91.2243 38.3697 91.1829 38.3855 91.1398 38.3861C91.0868 38.385 91.0349 38.3707 90.9887 38.3446C90.9449 38.3219 90.9038 38.2943 90.8663 38.2622L90.7832 38.535C90.8759 38.6154 90.9961 38.6568 91.1187 38.6505C91.1783 38.6514 91.2377 38.6417 91.2939 38.6218C91.3498 38.5994 91.3996 38.5639 91.439 38.5183C91.4911 38.4586 91.5355 38.3926 91.5712 38.3219C91.6223 38.2221 91.6682 38.1197 91.7087 38.0152L92.301 36.523H92.3312L93.1631 38.5901H93.627L92.5806 36.0093L92.2701 36.0115Z" fill="#232323"/>
<path d="M94.8393 38.2881V36.0117H94.4004V38.5925H94.9172L96.2333 36.3313V38.5925H96.6722V36.0117H96.1554L94.8393 38.2881Z" fill="#232323"/>
</svg>
