<svg width="312" height="179" viewBox="0 0 312 179" fill="none" xmlns="http://www.w3.org/2000/svg">
<g filter="url(#filter0_d_2521_1016)">
<rect x="17" y="13.4141" width="278" height="137.653" rx="10" fill="white"/>
<g clip-path="url(#clip0_2521_1016)">
<path d="M66.8664 48.7222C65.5638 47.8156 63.9418 47.5005 62.3771 47.496C61.1905 47.5025 60.0126 47.6989 58.8881 48.0777C58.3307 48.2746 57.7835 48.4995 57.2487 48.7516C55.3599 49.6583 53.6426 50.8875 52.0772 52.2822C51.0059 51.2222 49.9938 50.1041 49.0453 48.933C50.091 48.1374 51.0852 47.2807 52.0417 46.3997C53.6532 44.9136 55.3085 43.2621 55.962 41.0938C56.4199 39.6477 56.3708 38.0815 55.9756 36.6249C54.9066 32.5217 50.4612 31.3567 47.0251 33.3966C47.0205 33.3991 47.0164 33.4024 47.013 33.4064C44.9384 34.029 43.7643 36.504 43.7764 39.0138C43.787 42.0223 45.0298 44.7172 46.7274 47.1364C46.2802 47.4771 45.8208 47.8065 45.3562 48.1185C42.7874 49.8562 39.9716 51.1889 37.1596 52.4914C37.1286 52.5024 37.1002 52.5197 37.0763 52.5422C37.0524 52.5648 37.0334 52.5921 37.0206 52.6223C37.0078 52.6526 37.0015 52.6853 37.002 52.7181C37.0025 52.751 37.0099 52.7834 37.0236 52.8133C37.05 52.8667 37.0961 52.9078 37.1521 52.9281C39.9422 54.288 42.7111 55.7046 45.2421 57.4612C45.6954 57.7755 46.1399 58.1029 46.5756 58.4433C45.0404 60.657 43.8935 63.1033 43.6986 65.8353C43.4787 68.3761 44.575 71.4933 47.0077 72.202C47.0092 72.2077 47.0119 72.2131 47.0157 72.2177C47.0195 72.2222 47.0242 72.2259 47.0296 72.2284C47.6665 72.5613 48.3479 72.801 49.0529 72.9401C52.1361 73.5498 55.2171 71.9277 56.0202 68.8007C56.4044 67.3318 56.3916 65.7873 55.9832 64.325C55.7445 63.5985 55.4001 62.9112 54.961 62.2851C54.2319 61.2146 53.3631 60.2845 52.4383 59.3961C51.3649 58.374 50.2387 57.4089 49.0642 56.5047C49.6127 55.8391 50.1778 55.1909 50.7415 54.5555C51.1812 54.074 51.6345 53.6025 52.1014 53.1412C53.5263 54.4165 55.0766 55.5535 56.7795 56.4254C58.5225 57.3463 60.4626 57.9326 62.4459 57.9228C64.2017 57.916 66.0489 57.5262 67.4133 56.3619C68.4937 55.447 69.0316 54.1097 69.0823 52.7135C68.9591 51.1096 68.2142 49.6311 66.8664 48.7222ZM54.6444 34.8321C55.0353 35.4157 55.3192 36.0642 55.4831 36.7473C56.0044 38.791 55.6727 41.0477 54.4352 42.7763C53.632 43.936 52.5932 44.9091 51.5483 45.8512C50.5843 46.717 49.5908 47.5489 48.5505 48.3187C48.2951 47.9979 48.0433 47.6745 47.795 47.3487C47.6831 47.1976 47.5736 47.0452 47.4663 46.8916C49.8008 44.9559 52.4942 42.7884 53.0934 39.6515C53.5376 37.2543 52.1868 34.6515 49.9383 33.6754C48.9788 33.2682 48.1145 33.176 47.3568 33.3203C49.7691 32.1666 53.0737 32.5021 54.6444 34.8321ZM46.5204 45.4334C44.9943 42.8851 43.9313 39.755 44.7601 36.8009C45.4574 34.3788 47.3243 33.1299 49.7578 34.1053C51.8619 34.9545 53.1863 37.3646 52.7957 39.6016C52.4179 41.9158 50.7067 43.7282 49.0181 45.2438C48.4606 45.7311 47.8947 46.2116 47.3145 46.674C47.0369 46.2675 46.7722 45.854 46.5204 45.4334ZM41.5529 54.5343C40.3048 53.8906 39.0408 53.2915 37.7686 52.7052C39.0242 52.0903 40.2769 51.4632 41.5068 50.7923C43.3745 49.7731 45.199 48.6587 46.8838 47.3555C47.2253 47.8322 47.5842 48.2976 47.9536 48.7524C46.0095 50.1205 43.9351 51.2935 41.7607 52.2542C41.5773 52.1726 41.3935 52.0925 41.2092 52.0139C40.7279 51.7994 40.1514 52.1786 40.1598 52.7083C40.159 52.8333 40.1894 52.9566 40.248 53.067C40.3067 53.1775 40.3918 53.2716 40.4959 53.341C40.5999 53.4105 40.7195 53.453 40.844 53.4648C40.9685 53.4766 41.094 53.4573 41.2092 53.4086C41.3943 53.3331 41.5794 53.2492 41.7645 53.1676C43.9268 54.127 45.9904 55.2953 47.9257 56.6558C47.6008 57.0537 47.2857 57.4594 46.9805 57.8729C45.2701 56.6069 43.4543 55.4899 41.5529 54.5343ZM44.8915 68.6141C44.4473 67.2088 44.5055 65.6562 44.8205 64.226C45.2595 62.3131 46.1343 60.5762 47.2177 58.9586C47.773 59.4119 48.3163 59.8781 48.8489 60.3525C50.9643 62.2458 53.3064 64.943 52.4179 67.9764C51.8498 70.0314 49.8197 71.6973 47.6582 71.4268C46.2227 71.2395 45.2889 69.9415 44.8915 68.6141ZM51.5468 59.5721C52.591 60.5187 53.6003 61.5183 54.4178 62.6652C54.8329 63.2314 55.1621 63.8559 55.3947 64.5184C55.7963 65.8708 55.8416 67.304 55.5261 68.679C54.6527 72.3916 50.638 73.6375 47.3704 72.2874C47.8512 72.372 48.3431 72.372 48.824 72.2874C50.0811 72.0909 51.2416 71.3868 52.053 70.4137C53.7771 68.3806 53.8179 65.6411 52.4822 63.4025C51.6745 62.0041 50.5382 60.8527 49.3438 59.7987C48.7897 59.3026 48.2175 58.8259 47.6272 58.3686C47.9294 57.9445 48.2427 57.5282 48.5671 57.1197C49.604 57.8827 50.5987 58.7013 51.5468 59.5721ZM50.2224 54.072C49.6225 54.7058 49.0219 55.3624 48.4409 56.0423C46.6546 54.7595 44.7535 53.6446 42.7617 52.712C44.7617 51.7745 46.6707 50.6541 48.4643 49.3651C49.0536 50.0594 49.6633 50.725 50.27 51.3733C50.7059 51.8266 51.1547 52.2708 51.6163 52.7015C51.1368 53.1457 50.6722 53.6025 50.2224 54.072ZM64.7434 57.4974C63.0472 57.8752 61.2552 57.7317 59.5998 57.236C57.5834 56.5757 55.7513 55.4341 54.1088 54.1052C53.5656 53.6632 53.0405 53.1986 52.5305 52.7173C53.8655 51.4458 55.3138 50.2936 56.9223 49.3931C57.9218 48.8325 58.9864 48.3354 60.1007 48.0528C62.3099 47.5066 64.8393 47.5481 66.7961 48.8264C68.1281 49.6923 68.8579 51.1511 68.9916 52.7098C68.8836 55.3065 67.2124 56.9588 64.7434 57.4974Z" fill="#C89D6C"/>
<path d="M77.1525 49.7016C77.1525 51.7762 77.7343 52.707 80.0235 52.707C81.1092 52.707 81.7294 52.1449 81.7294 51.02V50.8651H81.5549V51.02C81.5549 52.0286 80.9732 52.5136 80.195 52.5136C79.0511 52.5136 78.8963 51.3305 78.8963 50.0506V37.9292H75.4844V38.1226H77.1525V49.7016Z" fill="#232323"/>
<path d="M89.1273 52.7079C90.8726 52.7079 92.5015 52.2621 93.7231 50.943L93.6257 50.8674C92.5015 51.9924 90.8529 52.4767 89.4182 52.4767C86.6833 52.4767 84.8217 50.6733 84.8217 47.4737C86.1015 48.1718 87.401 48.5986 89.2437 48.5986C92.2491 48.5986 94.1885 47.454 94.1885 45.6703C94.1885 43.8865 92.2106 42.5674 89.0692 42.5674C85.2485 42.5674 82.8438 44.4871 82.8438 47.5538C82.8437 50.8078 85.581 52.7079 89.1273 52.7079ZM88.9528 42.7404C91.2194 42.7404 92.3269 44.1948 92.3269 45.7073C92.3269 47.4918 90.9308 48.403 88.9914 48.403C87.5755 48.403 86.063 47.9376 84.8217 47.278C84.8799 44.4856 86.4317 42.7404 88.9528 42.7404Z" fill="#232323"/>
<path d="M110.073 37.9292H104.07V38.1226H106.11V52.5151H104.07V52.7093H109.984V52.5151H107.929V45.1821H110.073C114.009 45.1821 116.957 44.5233 116.957 41.5368C116.957 38.7255 114.009 37.9292 110.073 37.9292ZM109.898 45.0068H107.929V38.1241H109.917C113.468 38.1241 114.94 39.1524 114.94 41.5375C114.94 43.9423 113.408 45.0083 109.898 45.0083V45.0068Z" fill="#232323"/>
<path d="M123.078 52.7082C125.656 52.7082 127.092 51.5447 127.809 49.3726V50.4197C127.809 52.1068 128.895 52.7082 130.582 52.7082C131.842 52.7082 132.366 52.0879 132.366 51.0211V50.8662H132.173V51.0211C132.173 52.0101 131.61 52.5148 130.853 52.5148C129.651 52.5148 129.515 51.2931 129.515 50.0518V47.6274C129.515 44.1369 126.956 42.5654 124.222 42.5654C123.884 42.5711 123.547 42.5963 123.213 42.641C121.371 42.8737 119.586 43.6881 119.586 44.7738C119.587 44.9006 119.612 45.0261 119.662 45.1429C119.711 45.2598 119.783 45.3657 119.874 45.4544C119.964 45.5431 120.072 45.6129 120.19 45.6598C120.308 45.7066 120.434 45.7296 120.56 45.7272C120.686 45.7304 120.811 45.7079 120.928 45.6612C121.044 45.6146 121.15 45.5447 121.239 45.4558C121.328 45.3669 121.398 45.2609 121.445 45.1442C121.491 45.0275 121.514 44.9025 121.511 44.7768C121.511 44.2344 121.103 43.8271 120.405 43.8271C121.181 43.2643 122.111 42.9152 123.2 42.7989C123.433 42.78 123.646 42.7604 123.859 42.7604C126.671 42.7604 127.815 44.8546 127.815 47.4339V47.9182C126.729 47.0071 125.566 46.5417 123.898 46.4639C123.704 46.445 123.491 46.445 123.258 46.445C121.28 46.445 118.41 47.1249 118.41 49.6053C118.404 51.7192 120.44 52.7082 123.078 52.7082ZM123.698 46.6966C125.152 46.6384 126.626 47.0849 127.79 48.1124C127.673 50.7499 125.792 52.4944 123.483 52.4944C121.35 52.4944 120.381 51.0982 120.381 49.6438C120.382 48.2091 121.293 46.794 123.698 46.6943V46.6966Z" fill="#232323"/>
<path d="M144.411 52.5168L140.106 47.1028L144.198 42.9339H145.652V42.7397H142.297V42.9339H143.926L139.99 46.9479L136.634 42.9339H138.205V42.7397H133.358V42.9339H134.579L138.71 47.9566L134.405 52.5168H133.125V52.711H136.111V52.5168H134.676L138.845 48.0729L142.375 52.5168H140.397V52.711H146.001V52.5168H144.411Z" fill="#232323"/>
<path d="M81.6144 63.2947C81.7863 63.1245 81.9226 62.9219 82.0156 62.6986C82.1115 62.4696 82.1603 62.2237 82.1591 61.9755C82.1567 61.7614 82.1183 61.5492 82.0458 61.3477C81.967 61.1166 81.8423 60.9038 81.6793 60.722C81.5162 60.5403 81.3181 60.3933 81.0969 60.29C80.8208 60.1638 80.5194 60.1028 80.2159 60.1117C79.9582 60.1079 79.7019 60.1522 79.4604 60.2424C79.2449 60.3247 79.0454 60.4441 78.8711 60.5952C78.7026 60.7432 78.5628 60.9209 78.4586 61.1195C78.3552 61.3166 78.2867 61.53 78.2561 61.7504H77.6208V60.1721H77.1523V63.7873H77.6208V61.9808H78.2561C78.2546 62.2743 78.3186 62.5644 78.4435 62.83C78.5529 63.0537 78.7088 63.2515 78.9006 63.4103C79.0853 63.5617 79.2982 63.6752 79.5269 63.7442C79.7511 63.8135 79.9843 63.8491 80.219 63.85C80.4866 63.8525 80.752 63.8011 80.9994 63.6989C81.2287 63.6053 81.4376 63.4681 81.6144 63.2947ZM80.2159 63.6233C80.0548 63.6203 79.8953 63.5907 79.7437 63.5357C79.5687 63.4749 79.4082 63.3784 79.2723 63.2524C79.118 63.1075 78.9939 62.9333 78.9074 62.7401C78.8017 62.4994 78.7501 62.2384 78.7563 61.9755C78.7499 61.7137 78.8015 61.4536 78.9074 61.214C78.9936 61.0223 79.1177 60.8501 79.2723 60.7078C79.4092 60.5837 79.5695 60.4882 79.7437 60.4267C80.0448 60.3109 80.3781 60.3109 80.6791 60.4267C80.8515 60.4872 81.0098 60.5821 81.1445 60.7055C81.2972 60.8483 81.4196 61.0205 81.5041 61.2117C81.6975 61.7039 81.6975 62.251 81.5041 62.7431C81.4194 62.9361 81.2972 63.1102 81.1445 63.2554C81.0106 63.3809 80.8521 63.4774 80.6791 63.5387C80.5305 63.5924 80.3739 63.621 80.2159 63.6233Z" fill="#232323"/>
<path d="M84.4159 63.85C84.579 63.8518 84.7407 63.8191 84.8903 63.754C85.0344 63.6924 85.1633 63.6001 85.2681 63.4836C85.3774 63.3595 85.4609 63.2149 85.5136 63.0582C85.6315 62.6966 85.6315 62.307 85.5136 61.9454C85.4595 61.7888 85.3762 61.644 85.2681 61.5185C85.1639 61.4002 85.0349 61.3063 84.8903 61.2435C84.7407 61.1784 84.579 61.1457 84.4159 61.1475C84.0056 61.1475 83.7359 61.3062 83.609 61.6243H83.5893V61.2057H83.1504V65.0822H83.5893V63.368H83.609C83.6689 63.5293 83.7869 63.6624 83.9399 63.7412C84.0114 63.7788 84.0876 63.8065 84.1666 63.8236C84.2485 63.8413 84.3321 63.8501 84.4159 63.85ZM83.8062 63.3506C83.737 63.267 83.6835 63.1715 83.6483 63.0688C83.6072 62.9472 83.5873 62.8194 83.5893 62.691V62.2377C83.5887 62.1274 83.6071 62.0177 83.6437 61.9136C83.6765 61.8165 83.7279 61.7267 83.7948 61.6492C83.8581 61.5764 83.9351 61.5168 84.0215 61.4739C84.1094 61.4306 84.2061 61.4084 84.3041 61.4089C84.4089 61.409 84.5128 61.4293 84.61 61.4686C84.7098 61.509 84.7978 61.5737 84.8662 61.6567C84.9454 61.7562 85.0039 61.8705 85.0384 61.993C85.0846 62.1548 85.1062 62.3226 85.1026 62.4908C85.1064 62.6606 85.0847 62.8299 85.0384 62.9932C85.0035 63.1166 84.9441 63.2317 84.8639 63.3317C84.7955 63.4154 84.7075 63.4811 84.6078 63.5229C84.5119 63.5621 84.4092 63.5824 84.3056 63.5825C84.2112 63.5827 84.1178 63.5623 84.0321 63.5229C83.9449 63.4829 83.8677 63.4241 83.8062 63.3506Z" fill="#232323"/>
<path d="M88.3583 63.7872H88.7965V61.2056H88.2797L86.9643 63.4819V61.2056H86.5254V63.7872H87.0422L88.3583 61.5251V63.7872Z" fill="#232323"/>
<path d="M92.1534 64.3289H92.5138V63.5801H92.1534L91.163 61.2056H90.8532L89.8869 63.5801H89.5137V64.3289H89.8763V63.7864H92.1534V64.3289ZM90.1339 63.5801L90.8895 61.717H90.9227L91.6911 63.5801H90.1339Z" fill="#232323"/>
<path d="M95.0653 63.7872H95.5042V61.2056H94.9875L93.6714 63.4819V61.2056H93.2324V63.7872H93.7492L95.0653 61.5251V63.7872Z" fill="#232323"/>
<path d="M97.9214 62.5061C97.8942 62.5129 97.8587 62.5212 97.8141 62.5303C97.7695 62.5394 97.7219 62.5484 97.6721 62.5567L97.521 62.5794C97.4772 62.5859 97.433 62.5894 97.3887 62.59C97.2856 62.5959 97.1824 62.5789 97.0865 62.5401C97.0275 62.5134 96.9758 62.473 96.9354 62.4223C96.9029 62.3801 96.882 62.33 96.875 62.2772C96.8695 62.2354 96.8665 62.1932 96.8659 62.151V61.1953H96.4277V62.151C96.4277 62.1933 96.4277 62.2508 96.4391 62.3248C96.4483 62.4108 96.4784 62.4933 96.5269 62.5649C96.5754 62.6366 96.6407 62.6953 96.7171 62.7358C96.841 62.7964 96.9783 62.8242 97.116 62.8166C97.2425 62.8153 97.3688 62.8047 97.4938 62.7849C97.6372 62.7622 97.7785 62.7274 97.9161 62.6806V63.7746H98.355V61.1953H97.9161L97.9214 62.5061Z" fill="#232323"/>
<path d="M101.224 63.7326C101.406 63.656 101.57 63.5422 101.705 63.3986L101.542 63.2347C101.47 63.2966 101.403 63.3533 101.341 63.4047C101.282 63.4539 101.218 63.4969 101.149 63.5331C101.085 63.5684 101.017 63.5966 100.947 63.617C100.871 63.6368 100.793 63.6464 100.714 63.6457C100.61 63.6446 100.507 63.6299 100.407 63.6019C100.297 63.5714 100.194 63.5175 100.105 63.444C100.005 63.3579 99.9262 63.2501 99.874 63.1289C99.8065 62.9653 99.7748 62.7891 99.7811 62.6121H101.73V62.5041C101.734 62.3001 101.701 62.0971 101.632 61.905C101.575 61.7484 101.485 61.6057 101.368 61.4864C101.259 61.3775 101.127 61.2933 100.982 61.2394C100.834 61.1845 100.677 61.1569 100.518 61.1578C100.352 61.1561 100.186 61.1863 100.031 61.2469C99.8842 61.3054 99.7515 61.3948 99.6421 61.5091C99.5283 61.6296 99.4401 61.772 99.383 61.9277C99.3179 62.1057 99.2862 62.2942 99.2893 62.4837C99.2893 62.6547 99.3166 62.8245 99.3701 62.9869C99.4221 63.1475 99.505 63.2963 99.6141 63.4251C99.7282 63.5575 99.8697 63.6634 100.029 63.7356C100.215 63.8174 100.418 63.8574 100.621 63.8527C100.828 63.8539 101.033 63.813 101.224 63.7326ZM99.8249 62.0032C99.8513 61.8827 99.8962 61.767 99.9579 61.6602C100.014 61.5634 100.091 61.4809 100.185 61.4192C100.284 61.357 100.399 61.3255 100.515 61.3285C100.627 61.3242 100.737 61.3482 100.837 61.3983C100.936 61.4484 101.021 61.5229 101.084 61.6149C101.22 61.8053 101.288 62.0679 101.288 62.4029H99.7834C99.7821 62.2685 99.796 62.1344 99.8249 62.0032Z" fill="#232323"/>
<path d="M104.709 63.2942C104.602 63.3856 104.481 63.4597 104.351 63.5141C104.226 63.5622 104.094 63.5863 103.961 63.5851C103.839 63.5852 103.718 63.5658 103.602 63.5277C103.487 63.4901 103.382 63.4277 103.294 63.3448C103.198 63.2507 103.125 63.1357 103.08 63.0086C103.024 62.8428 102.998 62.6683 103.004 62.4934C102.999 62.3108 103.029 62.129 103.093 61.9577C103.141 61.8266 103.216 61.7066 103.312 61.6049C103.394 61.5205 103.493 61.455 103.603 61.413C103.699 61.3756 103.801 61.3554 103.905 61.3533C104.052 61.3511 104.195 61.3949 104.316 61.4787C104.425 61.5509 104.506 61.6572 104.548 61.7809H104.905C104.877 61.666 104.82 61.56 104.74 61.4727C104.665 61.3928 104.576 61.3265 104.478 61.277C104.379 61.2274 104.273 61.1925 104.163 61.1735C104.057 61.155 103.949 61.1454 103.841 61.1448C103.645 61.141 103.45 61.177 103.268 61.2506C103.11 61.3164 102.967 61.4144 102.849 61.5384C102.736 61.6606 102.649 61.8052 102.594 61.963C102.536 62.1293 102.507 62.3044 102.508 62.4805C102.506 62.6643 102.538 62.8469 102.602 63.0192C102.66 63.18 102.751 63.3273 102.868 63.4521C102.985 63.5761 103.126 63.6746 103.283 63.7415C103.457 63.8141 103.643 63.8501 103.832 63.8473C104.036 63.8516 104.239 63.813 104.428 63.7339C104.58 63.6691 104.724 63.587 104.858 63.4892L104.709 63.2942Z" fill="#232323"/>
<path d="M108.067 63.7867V63.5805L107.92 63.5858C107.875 63.5844 107.83 63.5717 107.79 63.5488C107.742 63.5218 107.696 63.4897 107.654 63.4528C107.607 63.4126 107.563 63.3697 107.521 63.3244C107.478 63.2783 107.439 63.2322 107.403 63.1869L106.728 62.3044L107.777 61.2104H107.452L106.167 62.5417V61.2104H105.729V63.7867H106.167V62.8801L106.452 62.5779L107.092 63.4203C107.135 63.4725 107.177 63.5238 107.221 63.5714C107.264 63.6222 107.312 63.6685 107.364 63.7097C107.415 63.7503 107.472 63.7836 107.532 63.8087C107.593 63.8332 107.659 63.8455 107.725 63.8449C107.786 63.8448 107.847 63.8377 107.907 63.8238C107.969 63.8147 108.018 63.8003 108.067 63.7867Z" fill="#232323"/>
<path d="M111.267 63.0126C111.39 62.6816 111.39 62.3175 111.267 61.9866C111.208 61.8265 111.117 61.6798 111 61.5552C110.881 61.4297 110.739 61.3286 110.581 61.2575C110.408 61.1807 110.22 61.1426 110.03 61.1457C109.838 61.1428 109.646 61.1809 109.47 61.2575C109.31 61.3274 109.166 61.4287 109.046 61.5552C108.93 61.6807 108.839 61.8271 108.778 61.9866C108.65 62.3148 108.65 62.6791 108.778 63.0073C108.839 63.1669 108.93 63.3135 109.046 63.4394C109.165 63.5666 109.309 63.668 109.47 63.7371C109.647 63.8131 109.838 63.851 110.03 63.8481C110.219 63.8511 110.407 63.8141 110.581 63.7394C110.739 63.6709 110.882 63.5706 111 63.4447C111.117 63.3196 111.207 63.1728 111.267 63.0126ZM110.79 63.0805C110.749 63.2106 110.68 63.3299 110.588 63.4296C110.512 63.5077 110.418 63.5654 110.314 63.5973C110.126 63.6557 109.925 63.6557 109.737 63.5973C109.632 63.5652 109.537 63.5075 109.46 63.4296C109.365 63.3309 109.294 63.2114 109.253 63.0805C109.147 62.6992 109.147 62.2962 109.253 61.9148C109.294 61.7841 109.365 61.6647 109.46 61.5657C109.537 61.4869 109.632 61.4287 109.737 61.3965C109.925 61.3371 110.126 61.3371 110.314 61.3965C110.419 61.4284 110.513 61.4867 110.588 61.5657C110.68 61.6657 110.749 61.7849 110.79 61.9148C110.893 62.2965 110.893 62.6989 110.79 63.0805Z" fill="#232323"/>
<path d="M114.546 63.3987L114.384 63.2348C114.312 63.2967 114.245 63.3534 114.182 63.4048C114.123 63.4542 114.059 63.4972 113.991 63.5332C113.927 63.5675 113.859 63.5946 113.789 63.6141C113.713 63.6339 113.634 63.6435 113.556 63.6428C113.452 63.6417 113.349 63.627 113.249 63.5989C113.138 63.5684 113.035 63.5146 112.947 63.441C112.847 63.355 112.768 63.2472 112.716 63.126C112.648 62.9623 112.617 62.7861 112.623 62.6092H114.571V62.5012C114.576 62.2972 114.543 62.0941 114.474 61.9021C114.417 61.7454 114.327 61.6028 114.21 61.4835C114.101 61.3746 113.969 61.2903 113.824 61.2365C113.676 61.1817 113.519 61.154 113.36 61.1549C113.194 61.1531 113.028 61.1833 112.873 61.244C112.726 61.3025 112.593 61.3919 112.484 61.5062C112.37 61.6267 112.282 61.7691 112.225 61.9247C112.16 62.1028 112.128 62.2913 112.131 62.4808C112.131 62.6517 112.158 62.8216 112.212 62.984C112.264 63.1445 112.347 63.2934 112.456 63.4222C112.57 63.5546 112.712 63.6605 112.871 63.7327C113.057 63.8146 113.259 63.8545 113.463 63.8498C113.67 63.8521 113.876 63.8123 114.067 63.7327C114.249 63.6559 114.412 63.5421 114.546 63.3987ZM112.667 62.0033C112.693 61.8828 112.738 61.7671 112.8 61.6603C112.856 61.5635 112.933 61.481 113.026 61.4193C113.125 61.3571 113.24 61.3256 113.357 61.3286C113.468 61.3243 113.579 61.3483 113.678 61.3984C113.778 61.4485 113.863 61.523 113.925 61.615C114.061 61.8054 114.129 62.068 114.129 62.403H112.618C112.619 62.2683 112.636 62.1343 112.667 62.0033Z" fill="#232323"/>
<path d="M117.666 63.3229C117.776 63.4796 117.922 63.6078 118.092 63.6969C118.315 63.807 118.563 63.859 118.812 63.848C119.016 63.8536 119.219 63.8117 119.404 63.7256C119.56 63.6507 119.697 63.5423 119.806 63.4083C119.909 63.2782 119.986 63.1291 120.032 62.9693C120.081 62.8104 120.107 62.6452 120.108 62.479C120.107 62.3134 120.082 62.1489 120.032 61.9909C119.986 61.8354 119.909 61.6908 119.806 61.5656C119.696 61.4374 119.56 61.3343 119.407 61.2634C119.223 61.1808 119.023 61.1407 118.822 61.1463C118.679 61.1442 118.537 61.1638 118.4 61.2044C118.284 61.2385 118.174 61.2894 118.074 61.3555C117.984 61.4158 117.903 61.4897 117.836 61.5746C117.775 61.6521 117.724 61.7372 117.685 61.8277H117.665V61.8036C117.664 61.5967 117.702 61.3914 117.778 61.1991C117.838 61.0337 117.941 60.8872 118.076 60.7746C118.208 60.6729 118.364 60.6085 118.529 60.5879C118.705 60.5677 118.882 60.5581 119.058 60.5592H119.694L119.972 60.1709H119.253C119.106 60.1709 118.959 60.1747 118.814 60.1822C118.673 60.1899 118.533 60.2153 118.397 60.2578C118.262 60.3 118.134 60.3644 118.019 60.4482C117.89 60.545 117.782 60.6677 117.702 60.8085C117.633 60.9217 117.58 61.0434 117.542 61.1704C117.505 61.2941 117.476 61.4203 117.458 61.5482C117.441 61.6714 117.431 61.7955 117.427 61.9199C117.423 62.0415 117.422 62.1564 117.422 62.2637V62.4027C117.424 62.5531 117.441 62.7029 117.473 62.8499C117.506 63.0186 117.572 63.1792 117.666 63.3229ZM117.968 61.9917C118.002 61.861 118.061 61.7384 118.143 61.6313C118.214 61.5412 118.305 61.4694 118.409 61.422C118.515 61.3757 118.628 61.3523 118.743 61.3533C118.818 61.3555 118.892 61.3628 118.965 61.3752C119.071 61.3937 119.17 61.4384 119.254 61.5051C119.366 61.5966 119.453 61.7145 119.507 61.8481C119.589 62.0589 119.627 62.2847 119.616 62.5107C119.622 62.7072 119.593 62.9032 119.531 63.0894C119.486 63.2177 119.415 63.3349 119.321 63.4332C119.248 63.5084 119.157 63.5651 119.058 63.5987C118.979 63.6254 118.897 63.6401 118.814 63.6425C118.715 63.641 118.616 63.6255 118.52 63.5964C118.409 63.5624 118.308 63.5026 118.224 63.4219C118.125 63.324 118.048 63.206 117.998 63.0758C117.931 62.8951 117.901 62.7032 117.907 62.5107C117.903 62.3358 117.923 62.1612 117.966 61.9917H117.968Z" fill="#232323"/>
<path d="M124.209 61.5443C124.091 61.4194 123.948 61.3204 123.79 61.2534C123.613 61.1807 123.424 61.1447 123.232 61.1476C123.058 61.1465 122.884 61.1756 122.719 61.2338C122.565 61.287 122.423 61.3696 122.3 61.477C122.179 61.5855 122.082 61.7177 122.014 61.8654C121.939 62.027 121.901 62.2027 121.9 62.3806H121.471V61.2103H121.033V63.7919H121.471V62.5544H121.9C121.912 62.7122 121.949 62.8671 122.011 63.013C122.074 63.1662 122.163 63.3073 122.275 63.43C122.39 63.556 122.528 63.6586 122.682 63.7322C122.854 63.8129 123.043 63.8529 123.232 63.8493C123.426 63.8526 123.618 63.8166 123.798 63.7436C123.957 63.6778 124.1 63.5783 124.217 63.4519C124.332 63.3254 124.421 63.1772 124.478 63.016C124.541 62.8418 124.572 62.6579 124.57 62.4728C124.571 62.2999 124.539 62.1284 124.476 61.9674C124.415 61.8103 124.325 61.6666 124.209 61.5443ZM124.036 62.8838C124.012 63.016 123.967 63.1435 123.903 63.2616C123.841 63.3734 123.752 63.4682 123.645 63.5373C123.521 63.6112 123.379 63.6477 123.235 63.6423C123.137 63.6416 123.039 63.6261 122.946 63.5962C122.842 63.5622 122.748 63.5015 122.673 63.4202C122.581 63.3162 122.512 63.1939 122.469 63.0613C122.41 62.871 122.383 62.6721 122.389 62.4728C122.38 62.2566 122.411 62.0406 122.482 61.8359C122.528 61.7075 122.606 61.5929 122.708 61.5027C122.787 61.4361 122.882 61.392 122.983 61.375C123.067 61.3616 123.151 61.3543 123.236 61.3531C123.333 61.3539 123.43 61.3671 123.525 61.3924C123.628 61.4212 123.721 61.4755 123.798 61.5503C123.891 61.6461 123.96 61.7626 123.999 61.8903C124.055 62.0774 124.081 62.2723 124.075 62.4675C124.075 62.6072 124.062 62.7465 124.036 62.8838Z" fill="#232323"/>
<path d="M127.94 62.5037C127.943 62.3139 127.913 62.125 127.852 61.9454C127.797 61.7888 127.714 61.644 127.605 61.5185C127.501 61.4002 127.372 61.3063 127.227 61.2435C127.078 61.1783 126.917 61.1456 126.754 61.1475C126.344 61.1475 126.075 61.3064 125.947 61.6243H125.926V61.2057H125.488V65.0822H125.926V63.368H125.947C125.977 63.4519 126.023 63.5289 126.083 63.5946C126.138 63.6562 126.204 63.7074 126.277 63.7457C126.349 63.7832 126.425 63.8109 126.504 63.8281C126.745 63.8797 126.997 63.8554 127.224 63.7586C127.368 63.6969 127.497 63.6046 127.602 63.4881C127.712 63.3641 127.795 63.2195 127.849 63.0628C127.911 62.8831 127.942 62.6939 127.94 62.5037ZM127.384 62.9963C127.349 63.1197 127.289 63.2348 127.209 63.3347C127.14 63.4185 127.052 63.4841 126.952 63.5259C126.857 63.5652 126.754 63.5854 126.65 63.5856C126.554 63.5858 126.46 63.5649 126.373 63.5242C126.286 63.4836 126.21 63.4243 126.149 63.3506C126.08 63.2669 126.026 63.1715 125.991 63.0688C125.95 62.9473 125.93 62.8195 125.932 62.691V62.2377C125.931 62.1274 125.949 62.0177 125.986 61.9136C126.019 61.8166 126.07 61.7268 126.137 61.6492C126.201 61.5765 126.278 61.5169 126.364 61.4739C126.452 61.4307 126.549 61.4085 126.646 61.4089C126.752 61.4091 126.856 61.4294 126.953 61.4686C127.053 61.5088 127.141 61.5735 127.209 61.6568C127.288 61.7562 127.347 61.8705 127.382 61.993C127.427 62.1549 127.449 62.3226 127.446 62.4908C127.45 62.6615 127.429 62.8318 127.384 62.9963Z" fill="#232323"/>
<path d="M131.029 61.5571C130.91 61.4314 130.767 61.3302 130.61 61.2594C130.436 61.1828 130.249 61.1446 130.06 61.1476C129.867 61.1447 129.675 61.1828 129.498 61.2594C129.339 61.3292 129.195 61.4304 129.075 61.5571C128.959 61.6825 128.867 61.8289 128.806 61.9885C128.679 62.3169 128.679 62.6808 128.806 63.0092C128.867 63.1691 128.959 63.3157 129.075 63.4414C129.194 63.5687 129.338 63.6701 129.498 63.739C129.675 63.8151 129.867 63.8529 130.06 63.8501C130.248 63.853 130.436 63.8159 130.61 63.7413C130.768 63.6732 130.911 63.5729 131.029 63.4467C131.146 63.3218 131.236 63.1749 131.296 63.0145C131.418 62.6835 131.418 62.3195 131.296 61.9885C131.236 61.8283 131.146 61.6816 131.029 61.5571ZM130.818 63.0825C130.778 63.2125 130.709 63.3318 130.616 63.4315C130.541 63.5097 130.447 63.5674 130.343 63.5993C130.155 63.6577 129.954 63.6577 129.766 63.5993C129.661 63.5669 129.566 63.5093 129.488 63.4315C129.393 63.3326 129.323 63.2132 129.281 63.0825C129.176 62.7011 129.176 62.2981 129.281 61.9167C129.323 61.7862 129.394 61.6669 129.488 61.5677C129.565 61.489 129.66 61.4308 129.766 61.3985C129.953 61.339 130.155 61.339 130.343 61.3985C130.447 61.4304 130.541 61.4887 130.616 61.5677C130.709 61.6676 130.778 61.7869 130.818 61.9167C130.923 62.2983 130.923 62.701 130.818 63.0825Z" fill="#232323"/>
<path d="M79.817 66.8042H79.5571L77.6208 68.8388V66.8042H77.1523V70.4193H77.6208V69.1493L78.2055 68.5237L79.5775 70.4193H80.114L78.5032 68.2034L79.817 66.8042Z" fill="#232323"/>
<path d="M82.789 68.1631C82.7168 68.0421 82.6099 67.9456 82.4823 67.8859C82.2945 67.8058 82.0909 67.7696 81.887 67.7801C81.7572 67.7779 81.6276 67.7908 81.5009 67.8186C81.4051 67.841 81.3122 67.8747 81.2244 67.9191C81.1524 67.9558 81.0862 68.0029 81.0279 68.0589C80.9751 68.1102 80.9244 68.1624 80.8768 68.2145L81.1435 68.4797C81.1876 68.406 81.2357 68.3349 81.2878 68.2666C81.3328 68.2067 81.386 68.1532 81.4457 68.108C81.5045 68.064 81.5701 68.0301 81.6399 68.0075C81.7221 67.982 81.8078 67.9698 81.8938 67.9712C82.1174 67.9712 82.2713 68.04 82.3554 68.1775C82.4395 68.315 82.4818 68.5243 82.4823 68.8053V69.0259C82.3898 68.9146 82.2719 68.827 82.1386 68.7706C81.9991 68.7102 81.8486 68.6793 81.6966 68.6799C81.555 68.6772 81.4145 68.7053 81.2848 68.7622C81.1706 68.8126 81.0678 68.8856 80.9826 68.9768C80.902 69.0625 80.8394 69.1635 80.7983 69.2737C80.7175 69.4822 80.7157 69.713 80.793 69.9227C80.8304 70.0259 80.8879 70.1207 80.9622 70.2015C81.0417 70.2875 81.1378 70.3564 81.2448 70.404C81.3677 70.4573 81.5007 70.4831 81.6346 70.4795C81.7939 70.4787 81.9517 70.4496 82.1008 70.3934C82.2432 70.3443 82.3737 70.2658 82.4838 70.163V70.4168H82.922V69.0101C82.922 68.8549 82.9167 68.7038 82.9061 68.5567C82.8974 68.4184 82.8573 68.2838 82.789 68.1631ZM82.4823 69.7943C82.4516 69.8632 82.4114 69.9276 82.3629 69.9854C82.3157 70.0428 82.2611 70.0936 82.2005 70.1365C82.1419 70.1792 82.0776 70.2133 82.0094 70.2378C81.9455 70.2613 81.878 70.2736 81.8099 70.274C81.6528 70.2713 81.5022 70.2114 81.3861 70.1055C81.3236 70.0468 81.2724 69.9771 81.235 69.9C81.1936 69.8104 81.1734 69.7124 81.176 69.6137C81.1754 69.5217 81.1912 69.4304 81.2229 69.344C81.2516 69.2606 81.2962 69.1836 81.3543 69.1173C81.4125 69.0517 81.4838 68.999 81.5636 68.9625C81.6493 68.922 81.7431 68.9016 81.8379 68.9028C81.9275 68.9003 82.0166 68.919 82.0977 68.9572C82.1664 68.9907 82.2292 69.0351 82.2836 69.0886C82.3322 69.136 82.3746 69.1893 82.4098 69.2473C82.4385 69.2937 82.4637 69.3422 82.4853 69.3923L82.4823 69.7943Z" fill="#232323"/>
<path d="M86.0974 68.1503C85.9932 68.032 85.8642 67.9381 85.7197 67.8753C85.5703 67.8102 85.4089 67.7775 85.246 67.7794C84.836 67.7794 84.567 67.9383 84.4391 68.2561H84.4187V67.8375H83.9805V71.7141H84.4187V70.0006H84.4391C84.4688 70.0845 84.515 70.1615 84.5751 70.2272C84.6305 70.2885 84.6962 70.3397 84.7692 70.3783C84.8408 70.4158 84.917 70.4435 84.9959 70.4607C85.2376 70.5123 85.4893 70.488 85.7166 70.3912C85.8605 70.3292 85.9894 70.237 86.0944 70.1207C86.2039 69.9967 86.2877 69.8521 86.3407 69.6954C86.4585 69.3338 86.4585 68.9441 86.3407 68.5825C86.288 68.4242 86.2054 68.2775 86.0974 68.1503ZM85.876 69.6281C85.8408 69.7515 85.7812 69.8666 85.7008 69.9666C85.6321 70.0501 85.5442 70.1157 85.4447 70.1577C85.3487 70.1968 85.246 70.2168 85.1424 70.2167C85.0466 70.2173 84.9518 70.1966 84.865 70.1559C84.7783 70.1153 84.7016 70.0557 84.6408 69.9817C84.5717 69.8981 84.5184 69.8026 84.4836 69.6999C84.4419 69.5784 84.4217 69.4506 84.424 69.3221V68.8726C84.4233 68.762 84.4417 68.6521 84.4783 68.5477C84.5112 68.4509 84.5625 68.3613 84.6295 68.2841C84.693 68.2113 84.7699 68.1516 84.8561 68.108C84.9442 68.0654 85.0408 68.0434 85.1387 68.0438C85.2438 68.0436 85.348 68.0639 85.4454 68.1035C85.545 68.1437 85.6329 68.2084 85.7008 68.2916C85.7802 68.3911 85.839 68.5054 85.8738 68.6278C85.9199 68.7896 85.9416 68.9575 85.938 69.1257C85.9426 69.2956 85.9217 69.4652 85.876 69.6289V69.6281Z" fill="#232323"/>
<path d="M87.7964 70.1147V67.8384H87.3574V70.4192H87.8749L89.1903 68.158V70.4192H89.6292V67.8384H89.1125L87.7964 70.1147Z" fill="#232323"/>
<path d="M92.4554 69.0102H91.1491V67.8384H90.7109V70.4192H91.1491V69.187H92.4554V70.4192H92.8936V67.8384H92.4554V69.0102Z" fill="#232323"/>
<path d="M95.6794 69.1119C95.5695 69.0656 95.4529 69.037 95.3341 69.0272C95.214 69.0174 95.1127 69.0121 95.0319 69.0121H94.4116V67.8403H93.9727V70.4166H95.3326C95.4264 70.4165 95.5196 70.4009 95.6083 70.3705C95.6968 70.341 95.7786 70.2945 95.8493 70.2338C95.9184 70.1732 95.9751 70.0998 96.0163 70.0177C96.0605 69.9296 96.0828 69.8322 96.0813 69.7336C96.0898 69.5882 96.0488 69.4441 95.9649 69.3249C95.8898 69.2303 95.7914 69.1569 95.6794 69.1119ZM95.4527 70.1061C95.3525 70.1864 95.2275 70.2294 95.0991 70.2278H94.4192V69.1867H95.0115C95.0417 69.1867 95.087 69.1867 95.1565 69.1965C95.227 69.2043 95.2951 69.2264 95.3568 69.2615C95.4282 69.3017 95.4891 69.3584 95.5343 69.4269C95.5904 69.5217 95.6168 69.6312 95.6098 69.7412C95.6145 69.8099 95.6029 69.8787 95.5759 69.9421C95.549 70.0055 95.5076 70.0617 95.455 70.1061H95.4527Z" fill="#232323"/>
<path d="M97.0662 67.8384H96.625V70.42H97.0662V67.8384Z" fill="#232323"/>
<path d="M100.418 70.4193H100.886V67.089H103.049V70.4193H103.521V66.8042H100.418V70.4193Z" fill="#232323"/>
<path d="M106.659 68.1631C106.586 68.0422 106.479 67.9456 106.351 67.8859C106.164 67.8058 105.96 67.7696 105.756 67.7801C105.626 67.7779 105.497 67.7908 105.37 67.8186C105.274 67.8411 105.181 67.8749 105.093 67.9191C105.021 67.9558 104.955 68.0029 104.897 68.0589C104.844 68.1102 104.793 68.1624 104.746 68.2145L105.013 68.4797C105.056 68.4058 105.105 68.3347 105.157 68.2666C105.202 68.2069 105.255 68.1535 105.314 68.108C105.373 68.0642 105.439 68.0302 105.509 68.0075C105.591 67.982 105.676 67.9698 105.762 67.9712C105.987 67.9712 106.141 68.04 106.225 68.1775C106.309 68.315 106.351 68.5243 106.351 68.8053V69.0259C106.259 68.9144 106.141 68.8267 106.008 68.7706C105.868 68.7102 105.718 68.6793 105.566 68.6799C105.424 68.6772 105.284 68.7053 105.154 68.7622C105.04 68.8126 104.937 68.8856 104.852 68.9768C104.771 69.0627 104.708 69.1636 104.667 69.2737C104.626 69.3797 104.606 69.4921 104.605 69.6054C104.606 69.7137 104.625 69.8211 104.662 69.9227C104.7 70.0259 104.757 70.1207 104.831 70.2015C104.911 70.2875 105.007 70.3564 105.114 70.404C105.237 70.4573 105.37 70.4831 105.504 70.4795C105.663 70.4787 105.821 70.4496 105.97 70.3934C106.112 70.3444 106.242 70.2659 106.352 70.163V70.4168H106.791V69.0101C106.791 68.8549 106.786 68.7038 106.775 68.5567C106.767 68.4184 106.727 68.2839 106.659 68.1631ZM106.349 69.7943C106.319 69.8634 106.279 69.9277 106.231 69.9854C106.183 70.0428 106.129 70.0936 106.068 70.1365C106.009 70.1789 105.945 70.213 105.877 70.2378C105.813 70.2613 105.746 70.2736 105.678 70.274C105.603 70.2732 105.53 70.2591 105.461 70.2325C105.384 70.204 105.313 70.1609 105.253 70.1055C105.191 70.0466 105.14 69.977 105.102 69.9C105.06 69.8104 105.04 69.7124 105.043 69.6137C105.042 69.5217 105.058 69.4304 105.09 69.344C105.118 69.2608 105.163 69.1838 105.22 69.1173C105.279 69.0517 105.35 68.9989 105.43 68.9625C105.516 68.922 105.61 68.9016 105.705 68.9028C105.794 68.9004 105.883 68.9191 105.965 68.9572C106.033 68.9907 106.096 69.0351 106.15 69.0886C106.199 69.1362 106.241 69.1894 106.277 69.2473C106.306 69.2935 106.331 69.342 106.352 69.3923L106.349 69.7943Z" fill="#232323"/>
<path d="M109.912 70.1811C109.864 70.1539 109.818 70.1217 109.776 70.0851C109.729 70.0451 109.684 70.0022 109.642 69.9567C109.599 69.9106 109.56 69.8645 109.525 69.8192L108.845 68.9368L109.895 67.8428H109.569L108.285 69.174V67.8428H107.846V70.4168H108.285V69.5102L108.569 69.208L109.21 70.0496C109.252 70.1018 109.295 70.1539 109.339 70.2053C109.382 70.256 109.43 70.3024 109.482 70.3435C109.533 70.3842 109.59 70.4173 109.65 70.4417C109.711 70.4668 109.776 70.4794 109.843 70.4788C109.904 70.4787 109.964 70.4714 110.024 70.4568C110.083 70.4425 110.135 70.4289 110.18 70.4153V70.2128L110.034 70.2173C109.991 70.2152 109.949 70.2027 109.912 70.1811Z" fill="#232323"/>
<path d="M111.604 68.2382C111.685 68.1534 111.784 68.0878 111.895 68.0463C111.991 68.0088 112.093 67.9886 112.197 67.9866C112.344 67.9837 112.489 68.0276 112.61 68.112C112.719 68.1838 112.801 68.2903 112.842 68.4142H113.2C113.172 68.2992 113.115 68.1932 113.035 68.106C112.959 68.0259 112.871 67.9597 112.772 67.9103C112.673 67.8607 112.567 67.8258 112.457 67.8068C112.351 67.7883 112.244 67.7787 112.136 67.7781C111.94 67.7743 111.745 67.8103 111.563 67.8839C111.405 67.9497 111.262 68.0477 111.144 68.1717C111.03 68.294 110.943 68.4386 110.888 68.5963C110.831 68.7627 110.802 68.9377 110.803 69.1138C110.801 69.2975 110.833 69.48 110.896 69.6525C110.954 69.8132 111.045 69.9604 111.162 70.0854C111.279 70.2094 111.421 70.3079 111.578 70.3748C111.751 70.4476 111.938 70.4836 112.126 70.4806C112.331 70.4849 112.534 70.4463 112.723 70.3672C112.875 70.3021 113.019 70.2199 113.152 70.1225L113.001 69.9253C112.893 70.0164 112.772 70.0905 112.642 70.1451C112.518 70.193 112.386 70.2168 112.253 70.2154C112.13 70.2157 112.009 70.1966 111.893 70.1587C111.778 70.121 111.673 70.0586 111.586 69.9759C111.489 69.8816 111.416 69.7666 111.372 69.6397C111.262 69.2975 111.265 68.9292 111.38 68.5888C111.43 68.4582 111.507 68.339 111.604 68.2382Z" fill="#232323"/>
<path d="M115.877 68.1631C115.805 68.0421 115.698 67.9455 115.57 67.8859C115.382 67.8058 115.178 67.7696 114.974 67.7801C114.844 67.7779 114.715 67.7909 114.588 67.8186C114.492 67.841 114.399 67.8748 114.312 67.9191C114.24 67.956 114.174 68.0031 114.115 68.0589C114.062 68.1103 114.012 68.1624 113.964 68.2145L114.231 68.4797C114.274 68.406 114.322 68.3349 114.374 68.2666C114.419 68.2068 114.473 68.1535 114.532 68.108C114.591 68.0642 114.657 68.0302 114.726 68.0075C114.808 67.982 114.894 67.9698 114.98 67.9712C115.204 67.9712 115.358 68.04 115.443 68.1775C115.527 68.315 115.569 68.5243 115.569 68.8053V69.0259C115.476 68.9143 115.358 68.8267 115.225 68.7706C115.085 68.7101 114.935 68.6793 114.783 68.6799C114.642 68.6773 114.501 68.7054 114.372 68.7623C114.258 68.8129 114.155 68.8858 114.07 68.9768C113.989 69.0628 113.927 69.1636 113.885 69.2737C113.806 69.4824 113.804 69.7128 113.88 69.9227C113.918 70.026 113.976 70.1207 114.05 70.2015C114.129 70.2875 114.225 70.3564 114.332 70.404C114.455 70.4572 114.588 70.483 114.722 70.4795C114.882 70.4788 115.04 70.4496 115.189 70.3934C115.331 70.3445 115.461 70.2659 115.571 70.163V70.4168H116.01V69.0101C116.01 68.8549 116.005 68.7038 115.994 68.5568C115.986 68.4183 115.946 68.2837 115.877 68.1631ZM115.568 69.7943C115.538 69.8634 115.498 69.9278 115.449 69.9854C115.402 70.0428 115.347 70.0936 115.286 70.1365C115.228 70.1791 115.164 70.2131 115.096 70.2378C115.032 70.2613 114.964 70.2736 114.896 70.274C114.822 70.2732 114.748 70.2591 114.679 70.2325C114.602 70.2039 114.532 70.1608 114.472 70.1056C114.409 70.0468 114.358 69.9772 114.321 69.9001C114.279 69.8105 114.259 69.7125 114.261 69.6137C114.261 69.5218 114.276 69.4305 114.308 69.344C114.336 69.2606 114.381 69.1837 114.439 69.1174C114.498 69.0517 114.569 68.999 114.649 68.9625C114.735 68.9221 114.828 68.9017 114.923 68.9028C115.013 68.9004 115.102 68.919 115.183 68.9572C115.252 68.9909 115.314 69.0353 115.368 69.0886C115.417 69.1362 115.46 69.1894 115.495 69.2473C115.524 69.2936 115.55 69.3421 115.571 69.3924L115.568 69.7943Z" fill="#232323"/>
<path d="M120.178 70.213H119.062V67.8384H118.624V70.213H117.509V67.8384H117.07V70.4192H120.623V67.8384H120.178V70.213Z" fill="#232323"/>
<path d="M123.551 69.2084C123.475 69.1592 123.391 69.1234 123.303 69.1026C123.224 69.0829 123.144 69.0707 123.063 69.0663V69.0316C123.133 69.0175 123.202 68.9959 123.269 68.9674C123.337 68.9385 123.399 68.8981 123.453 68.848C123.507 68.7982 123.551 68.7387 123.583 68.6727C123.616 68.6018 123.633 68.5243 123.632 68.4461C123.631 68.3863 123.622 68.3269 123.606 68.2693C123.585 68.1946 123.546 68.1261 123.492 68.0698C123.421 67.9967 123.333 67.9409 123.236 67.9066C123.093 67.8572 122.941 67.8347 122.79 67.8401H121.711V70.4172H122.878C123.024 70.4203 123.17 70.4004 123.31 70.3583C123.417 70.3259 123.517 70.2733 123.603 70.2034C123.674 70.1454 123.729 70.0709 123.763 69.9866C123.794 69.9072 123.81 69.8226 123.81 69.7372C123.813 69.624 123.787 69.5118 123.734 69.4116C123.691 69.3299 123.628 69.2601 123.551 69.2084ZM122.148 68.0449H122.659C122.756 68.0407 122.852 68.0585 122.94 68.097C123.003 68.1254 123.058 68.1678 123.102 68.2209C123.138 68.2652 123.164 68.3168 123.177 68.372C123.189 68.4182 123.195 68.4656 123.196 68.5133C123.198 68.5863 123.181 68.6585 123.147 68.7233C123.114 68.7839 123.069 68.8369 123.015 68.879C122.957 68.923 122.892 68.9562 122.823 68.9772C122.75 69.0001 122.673 69.0116 122.596 69.0112H122.148V68.0449ZM123.264 70.0039C123.213 70.0699 123.146 70.1219 123.069 70.155C122.997 70.1854 122.921 70.2038 122.843 70.2094C122.767 70.214 122.715 70.217 122.682 70.217H122.148V69.1872H122.601C122.656 69.1872 122.726 69.1872 122.81 69.197C122.894 69.2038 122.977 69.2247 123.054 69.259C123.135 69.2943 123.205 69.3494 123.259 69.4192C123.32 69.5057 123.35 69.6103 123.344 69.7161C123.35 69.8188 123.321 69.9205 123.26 70.0039H123.264Z" fill="#232323"/>
<path d="M125.182 70.1147V67.8384H124.744V70.4192H125.261L126.576 68.158V70.4192H127.015V67.8384H126.498L125.182 70.1147Z" fill="#232323"/>
<path d="M129.27 67.8382L128.484 69.7836C128.467 69.8229 128.449 69.8668 128.428 69.9166C128.407 69.9656 128.382 70.0128 128.353 70.0579C128.327 70.0996 128.295 70.1369 128.257 70.1682C128.224 70.1963 128.183 70.2121 128.14 70.2128C128.087 70.2116 128.035 70.1973 127.989 70.1712C127.945 70.1485 127.904 70.1209 127.866 70.0889L127.783 70.3616C127.876 70.4421 127.996 70.4835 128.119 70.4772C128.178 70.4781 128.238 70.4684 128.294 70.4485C128.35 70.4261 128.4 70.3906 128.439 70.345C128.491 70.2853 128.535 70.2193 128.571 70.1486C128.622 70.0488 128.668 69.9464 128.709 69.8418L129.301 68.3497H129.331L130.163 70.4168H130.627L129.581 67.8359L129.27 67.8382Z" fill="#232323"/>
<path d="M131.839 70.1147V67.8384H131.4V70.4192H131.917L133.233 68.158V70.4192H133.672V67.8384H133.155L131.839 70.1147Z" fill="#232323"/>
</g>
<path d="M38.82 99.1674C38.82 98.402 38.988 97.7347 39.324 97.1654C39.6693 96.5867 40.1173 96.134 40.668 95.8074C41.2187 95.4807 41.816 95.3174 42.46 95.3174C42.9267 95.3174 43.3513 95.378 43.734 95.4994C44.126 95.6207 44.4807 95.7934 44.798 96.0174C45.1153 96.232 45.386 96.484 45.61 96.7734V95.2054C45.1993 94.8414 44.7513 94.5707 44.266 94.3934C43.7807 94.216 43.1787 94.1274 42.46 94.1274C41.7787 94.1274 41.1393 94.2534 40.542 94.5054C39.954 94.748 39.436 95.098 38.988 95.5554C38.54 96.0034 38.19 96.5354 37.938 97.1514C37.686 97.7674 37.56 98.4394 37.56 99.1674C37.56 99.8954 37.686 100.567 37.938 101.183C38.19 101.799 38.54 102.336 38.988 102.793C39.436 103.241 39.954 103.591 40.542 103.843C41.1393 104.086 41.7787 104.207 42.46 104.207C43.1787 104.207 43.7807 104.119 44.266 103.941C44.7513 103.764 45.1993 103.493 45.61 103.129V101.561C45.386 101.851 45.1153 102.107 44.798 102.331C44.4807 102.546 44.126 102.714 43.734 102.835C43.3513 102.957 42.9267 103.017 42.46 103.017C41.816 103.017 41.2187 102.854 40.668 102.527C40.1173 102.201 39.6693 101.748 39.324 101.169C38.988 100.591 38.82 99.9234 38.82 99.1674ZM51.204 98.6774L47.214 104.067H52.954V103.017H49.244L53.234 97.6274H47.634V98.6774H51.204ZM55.4174 102.079C55.4174 101.846 55.4734 101.645 55.5854 101.477C55.6974 101.309 55.8654 101.179 56.0894 101.085C56.3228 100.992 56.6214 100.945 56.9854 100.945C57.3774 100.945 57.7461 100.997 58.0914 101.099C58.4368 101.193 58.7728 101.351 59.0994 101.575V100.917C59.0341 100.833 58.9081 100.726 58.7214 100.595C58.5348 100.455 58.2828 100.334 57.9654 100.231C57.6574 100.119 57.2701 100.063 56.8034 100.063C56.0101 100.063 55.3894 100.255 54.9414 100.637C54.5028 101.011 54.2834 101.51 54.2834 102.135C54.2834 102.574 54.3861 102.947 54.5914 103.255C54.7968 103.563 55.0674 103.801 55.4034 103.969C55.7488 104.128 56.1174 104.207 56.5094 104.207C56.8641 104.207 57.2188 104.142 57.5734 104.011C57.9374 103.881 58.2408 103.68 58.4834 103.409C58.7354 103.139 58.8614 102.798 58.8614 102.387L58.6374 101.547C58.6374 101.883 58.5534 102.182 58.3854 102.443C58.2268 102.695 58.0074 102.891 57.7274 103.031C57.4568 103.171 57.1488 103.241 56.8034 103.241C56.5328 103.241 56.2901 103.199 56.0754 103.115C55.8701 103.022 55.7068 102.887 55.5854 102.709C55.4734 102.532 55.4174 102.322 55.4174 102.079ZM55.2494 99.1114C55.3521 99.0367 55.4921 98.948 55.6694 98.8454C55.8468 98.7427 56.0614 98.654 56.3134 98.5794C56.5748 98.5047 56.8641 98.4674 57.1814 98.4674C57.3774 98.4674 57.5641 98.486 57.7414 98.5234C57.9188 98.5607 58.0728 98.6214 58.2034 98.7054C58.3434 98.7894 58.4508 98.906 58.5254 99.0554C58.6001 99.1954 58.6374 99.3774 58.6374 99.6014V104.067H59.7574V99.4474C59.7574 99.0274 59.6501 98.6727 59.4354 98.3834C59.2301 98.094 58.9361 97.8747 58.5534 97.7254C58.1801 97.5667 57.7414 97.4874 57.2374 97.4874C56.6401 97.4874 56.1268 97.576 55.6974 97.7534C55.2774 97.9307 54.9461 98.108 54.7034 98.2854L55.2494 99.1114ZM63.1937 97.6274H62.0737V104.067H63.1937V97.6274ZM65.1397 98.8594L65.7557 97.9354C65.5877 97.758 65.401 97.6414 65.1957 97.5854C64.9997 97.52 64.785 97.4874 64.5517 97.4874C64.253 97.4874 63.959 97.604 63.6697 97.8374C63.3803 98.0707 63.1423 98.388 62.9557 98.7894C62.7783 99.1814 62.6897 99.634 62.6897 100.147H63.1937C63.1937 99.8394 63.2217 99.564 63.2777 99.3214C63.343 99.0787 63.455 98.8874 63.6137 98.7474C63.7723 98.6074 63.9917 98.5374 64.2717 98.5374C64.4583 98.5374 64.6123 98.5654 64.7337 98.6214C64.855 98.668 64.9903 98.7474 65.1397 98.8594ZM72.9178 98.8874H74.4998C75.0878 98.8874 75.5964 98.8034 76.0258 98.6354C76.4644 98.4674 76.8051 98.22 77.0478 97.8934C77.2904 97.5667 77.4118 97.1747 77.4118 96.7174C77.4118 96.1574 77.2904 95.7 77.0478 95.3454C76.8051 94.9814 76.4644 94.7107 76.0258 94.5334C75.5964 94.356 75.0878 94.2674 74.4998 94.2674H71.9798V104.067H74.6398C75.2744 104.067 75.8391 103.965 76.3338 103.759C76.8378 103.545 77.2344 103.227 77.5238 102.807C77.8224 102.378 77.9718 101.841 77.9718 101.197C77.9718 100.749 77.8878 100.362 77.7198 100.035C77.5518 99.7087 77.3138 99.4427 77.0058 99.2374C76.7071 99.0227 76.3571 98.864 75.9558 98.7614C75.5544 98.6587 75.1158 98.6074 74.6398 98.6074H72.9178V99.2654H74.6398C74.9571 99.2654 75.2464 99.3074 75.5078 99.3914C75.7691 99.466 75.9931 99.5827 76.1798 99.7414C76.3758 99.9 76.5251 100.096 76.6278 100.329C76.7304 100.563 76.7818 100.829 76.7818 101.127C76.7818 101.529 76.6884 101.869 76.5018 102.149C76.3244 102.429 76.0724 102.644 75.7458 102.793C75.4284 102.943 75.0598 103.017 74.6398 103.017H73.1698V95.3174H74.4998C74.9944 95.3174 75.4051 95.448 75.7318 95.7094C76.0584 95.9614 76.2218 96.3207 76.2218 96.7874C76.2218 97.0954 76.1471 97.3567 75.9978 97.5714C75.8484 97.786 75.6431 97.9494 75.3818 98.0614C75.1204 98.1734 74.8264 98.2294 74.4998 98.2294H72.9178V98.8874ZM81.2564 101.547V97.6274H80.1364V101.687C80.1364 102.453 80.3371 103.064 80.7384 103.521C81.1397 103.979 81.6764 104.207 82.3484 104.207C82.7777 104.207 83.1511 104.114 83.4684 103.927C83.7857 103.731 84.0517 103.442 84.2664 103.059V104.067H85.3864V97.6274H84.2664V101.547C84.2664 101.865 84.1964 102.145 84.0564 102.387C83.9257 102.63 83.7344 102.821 83.4824 102.961C83.2397 103.092 82.9551 103.157 82.6284 103.157C82.1804 103.157 81.8397 103.017 81.6064 102.737C81.3731 102.457 81.2564 102.061 81.2564 101.547ZM88.1779 102.093L87.2959 102.639C87.4172 102.891 87.5945 103.139 87.8279 103.381C88.0705 103.624 88.3645 103.825 88.7099 103.983C89.0552 104.133 89.4425 104.207 89.8719 104.207C90.5345 104.207 91.0665 104.021 91.4679 103.647C91.8785 103.274 92.0839 102.807 92.0839 102.247C92.0839 101.865 91.9905 101.552 91.8039 101.309C91.6265 101.067 91.3839 100.861 91.0759 100.693C90.7679 100.516 90.4272 100.353 90.0539 100.203C89.8299 100.11 89.6152 100.012 89.4099 99.9094C89.2045 99.8067 89.0365 99.69 88.9059 99.5594C88.7752 99.4287 88.7099 99.2794 88.7099 99.1114C88.7099 98.8967 88.7939 98.738 88.9619 98.6354C89.1299 98.5327 89.3305 98.4814 89.5639 98.4814C89.8999 98.4814 90.1985 98.5607 90.4599 98.7194C90.7305 98.878 90.9545 99.0787 91.1319 99.3214L92.0279 98.7474C91.8972 98.5047 91.7152 98.29 91.4819 98.1034C91.2485 97.9167 90.9779 97.7674 90.6699 97.6554C90.3712 97.5434 90.0492 97.4874 89.7039 97.4874C89.3585 97.4874 89.0225 97.548 88.6959 97.6694C88.3785 97.7907 88.1172 97.9774 87.9119 98.2294C87.7159 98.4814 87.6179 98.7987 87.6179 99.1814C87.6179 99.5547 87.7112 99.8674 87.8979 100.119C88.0939 100.362 88.3319 100.563 88.6119 100.721C88.9012 100.871 89.1859 101.001 89.4659 101.113C89.7179 101.207 89.9559 101.309 90.1799 101.421C90.4039 101.524 90.5859 101.655 90.7259 101.813C90.8752 101.963 90.9499 102.149 90.9499 102.373C90.9499 102.625 90.8565 102.826 90.6699 102.975C90.4925 103.115 90.2452 103.185 89.9279 103.185C89.6665 103.185 89.4239 103.139 89.1999 103.045C88.9852 102.943 88.7939 102.807 88.6259 102.639C88.4579 102.471 88.3085 102.289 88.1779 102.093ZM93.9784 94.9674C93.9784 95.1727 94.053 95.3547 94.2024 95.5134C94.361 95.6627 94.543 95.7374 94.7484 95.7374C94.963 95.7374 95.145 95.6627 95.2944 95.5134C95.4437 95.3547 95.5184 95.1727 95.5184 94.9674C95.5184 94.7527 95.4437 94.5707 95.2944 94.4214C95.145 94.272 94.963 94.1974 94.7484 94.1974C94.543 94.1974 94.361 94.272 94.2024 94.4214C94.053 94.5707 93.9784 94.7527 93.9784 94.9674ZM94.1884 97.6274V104.067H95.3084V97.6274H94.1884ZM102.165 100.147V104.067H103.285V100.007C103.285 99.2327 103.084 98.6214 102.683 98.1734C102.291 97.716 101.754 97.4874 101.073 97.4874C100.653 97.4874 100.28 97.5807 99.9531 97.7674C99.6357 97.954 99.3697 98.2434 99.1551 98.6354V97.6274H98.0351V104.067H99.1551V100.147C99.1551 99.83 99.2204 99.55 99.3511 99.3074C99.4911 99.0647 99.6824 98.878 99.9251 98.7474C100.177 98.6074 100.466 98.5374 100.793 98.5374C101.241 98.5374 101.582 98.6727 101.815 98.9434C102.048 99.214 102.165 99.6154 102.165 100.147ZM108.303 104.207C108.993 104.207 109.591 104.072 110.095 103.801C110.608 103.521 111.033 103.111 111.369 102.569L110.459 101.995C110.225 102.387 109.941 102.681 109.605 102.877C109.269 103.064 108.881 103.157 108.443 103.157C108.004 103.157 107.631 103.064 107.323 102.877C107.015 102.691 106.781 102.42 106.623 102.065C106.464 101.711 106.385 101.281 106.385 100.777C106.394 100.283 106.478 99.8674 106.637 99.5314C106.805 99.186 107.038 98.9247 107.337 98.7474C107.645 98.5607 108.013 98.4674 108.443 98.4674C108.807 98.4674 109.124 98.5467 109.395 98.7054C109.665 98.864 109.875 99.0834 110.025 99.3634C110.183 99.6434 110.263 99.9747 110.263 100.357C110.263 100.423 110.249 100.507 110.221 100.609C110.193 100.703 110.165 100.773 110.137 100.819L110.585 100.175H105.965V101.127H111.467C111.467 101.109 111.467 101.067 111.467 101.001C111.476 100.927 111.481 100.857 111.481 100.791C111.481 100.11 111.359 99.522 111.117 99.0274C110.874 98.5327 110.524 98.1547 110.067 97.8934C109.619 97.6227 109.077 97.4874 108.443 97.4874C107.808 97.4874 107.248 97.6274 106.763 97.9074C106.287 98.1874 105.913 98.5794 105.643 99.0834C105.381 99.5874 105.251 100.175 105.251 100.847C105.251 101.51 105.377 102.093 105.629 102.597C105.89 103.101 106.249 103.498 106.707 103.787C107.173 104.067 107.705 104.207 108.303 104.207ZM113.702 102.093L112.82 102.639C112.941 102.891 113.118 103.139 113.352 103.381C113.594 103.624 113.888 103.825 114.234 103.983C114.579 104.133 114.966 104.207 115.396 104.207C116.058 104.207 116.59 104.021 116.992 103.647C117.402 103.274 117.608 102.807 117.608 102.247C117.608 101.865 117.514 101.552 117.328 101.309C117.15 101.067 116.908 100.861 116.6 100.693C116.292 100.516 115.951 100.353 115.578 100.203C115.354 100.11 115.139 100.012 114.934 99.9094C114.728 99.8067 114.56 99.69 114.43 99.5594C114.299 99.4287 114.234 99.2794 114.234 99.1114C114.234 98.8967 114.318 98.738 114.486 98.6354C114.654 98.5327 114.854 98.4814 115.088 98.4814C115.424 98.4814 115.722 98.5607 115.984 98.7194C116.254 98.878 116.478 99.0787 116.656 99.3214L117.552 98.7474C117.421 98.5047 117.239 98.29 117.006 98.1034C116.772 97.9167 116.502 97.7674 116.194 97.6554C115.895 97.5434 115.573 97.4874 115.228 97.4874C114.882 97.4874 114.546 97.548 114.22 97.6694C113.902 97.7907 113.641 97.9774 113.436 98.2294C113.24 98.4814 113.142 98.7987 113.142 99.1814C113.142 99.5547 113.235 99.8674 113.422 100.119C113.618 100.362 113.856 100.563 114.136 100.721C114.425 100.871 114.71 101.001 114.99 101.113C115.242 101.207 115.48 101.309 115.704 101.421C115.928 101.524 116.11 101.655 116.25 101.813C116.399 101.963 116.474 102.149 116.474 102.373C116.474 102.625 116.38 102.826 116.194 102.975C116.016 103.115 115.769 103.185 115.452 103.185C115.19 103.185 114.948 103.139 114.724 103.045C114.509 102.943 114.318 102.807 114.15 102.639C113.982 102.471 113.832 102.289 113.702 102.093ZM119.768 102.093L118.886 102.639C119.007 102.891 119.185 103.139 119.418 103.381C119.661 103.624 119.955 103.825 120.3 103.983C120.645 104.133 121.033 104.207 121.462 104.207C122.125 104.207 122.657 104.021 123.058 103.647C123.469 103.274 123.674 102.807 123.674 102.247C123.674 101.865 123.581 101.552 123.394 101.309C123.217 101.067 122.974 100.861 122.666 100.693C122.358 100.516 122.017 100.353 121.644 100.203C121.42 100.11 121.205 100.012 121 99.9094C120.795 99.8067 120.627 99.69 120.496 99.5594C120.365 99.4287 120.3 99.2794 120.3 99.1114C120.3 98.8967 120.384 98.738 120.552 98.6354C120.72 98.5327 120.921 98.4814 121.154 98.4814C121.49 98.4814 121.789 98.5607 122.05 98.7194C122.321 98.878 122.545 99.0787 122.722 99.3214L123.618 98.7474C123.487 98.5047 123.305 98.29 123.072 98.1034C122.839 97.9167 122.568 97.7674 122.26 97.6554C121.961 97.5434 121.639 97.4874 121.294 97.4874C120.949 97.4874 120.613 97.548 120.286 97.6694C119.969 97.7907 119.707 97.9774 119.502 98.2294C119.306 98.4814 119.208 98.7987 119.208 99.1814C119.208 99.5547 119.301 99.8674 119.488 100.119C119.684 100.362 119.922 100.563 120.202 100.721C120.491 100.871 120.776 101.001 121.056 101.113C121.308 101.207 121.546 101.309 121.77 101.421C121.994 101.524 122.176 101.655 122.316 101.813C122.465 101.963 122.54 102.149 122.54 102.373C122.54 102.625 122.447 102.826 122.26 102.975C122.083 103.115 121.835 103.185 121.518 103.185C121.257 103.185 121.014 103.139 120.79 103.045C120.575 102.943 120.384 102.807 120.216 102.639C120.048 102.471 119.899 102.289 119.768 102.093ZM130.956 99.1674C130.956 98.402 131.124 97.7347 131.46 97.1654C131.805 96.5867 132.253 96.134 132.804 95.8074C133.355 95.4807 133.952 95.3174 134.596 95.3174C135.063 95.3174 135.487 95.378 135.87 95.4994C136.262 95.6207 136.617 95.7934 136.934 96.0174C137.251 96.232 137.522 96.484 137.746 96.7734V95.2054C137.335 94.8414 136.887 94.5707 136.402 94.3934C135.917 94.216 135.315 94.1274 134.596 94.1274C133.915 94.1274 133.275 94.2534 132.678 94.5054C132.09 94.748 131.572 95.098 131.124 95.5554C130.676 96.0034 130.326 96.5354 130.074 97.1514C129.822 97.7674 129.696 98.4394 129.696 99.1674C129.696 99.8954 129.822 100.567 130.074 101.183C130.326 101.799 130.676 102.336 131.124 102.793C131.572 103.241 132.09 103.591 132.678 103.843C133.275 104.086 133.915 104.207 134.596 104.207C135.315 104.207 135.917 104.119 136.402 103.941C136.887 103.764 137.335 103.493 137.746 103.129V101.561C137.522 101.851 137.251 102.107 136.934 102.331C136.617 102.546 136.262 102.714 135.87 102.835C135.487 102.957 135.063 103.017 134.596 103.017C133.952 103.017 133.355 102.854 132.804 102.527C132.253 102.201 131.805 101.748 131.46 101.169C131.124 100.591 130.956 99.9234 130.956 99.1674ZM142.682 104.207C143.373 104.207 143.97 104.072 144.474 103.801C144.987 103.521 145.412 103.111 145.748 102.569L144.838 101.995C144.605 102.387 144.32 102.681 143.984 102.877C143.648 103.064 143.261 103.157 142.822 103.157C142.383 103.157 142.01 103.064 141.702 102.877C141.394 102.691 141.161 102.42 141.002 102.065C140.843 101.711 140.764 101.281 140.764 100.777C140.773 100.283 140.857 99.8674 141.016 99.5314C141.184 99.186 141.417 98.9247 141.716 98.7474C142.024 98.5607 142.393 98.4674 142.822 98.4674C143.186 98.4674 143.503 98.5467 143.774 98.7054C144.045 98.864 144.255 99.0834 144.404 99.3634C144.563 99.6434 144.642 99.9747 144.642 100.357C144.642 100.423 144.628 100.507 144.6 100.609C144.572 100.703 144.544 100.773 144.516 100.819L144.964 100.175H140.344V101.127H145.846C145.846 101.109 145.846 101.067 145.846 101.001C145.855 100.927 145.86 100.857 145.86 100.791C145.86 100.11 145.739 99.522 145.496 99.0274C145.253 98.5327 144.903 98.1547 144.446 97.8934C143.998 97.6227 143.457 97.4874 142.822 97.4874C142.187 97.4874 141.627 97.6274 141.142 97.9074C140.666 98.1874 140.293 98.5794 140.022 99.0834C139.761 99.5874 139.63 100.175 139.63 100.847C139.63 101.51 139.756 102.093 140.008 102.597C140.269 103.101 140.629 103.498 141.086 103.787C141.553 104.067 142.085 104.207 142.682 104.207ZM151.945 100.147V104.067H153.065V100.007C153.065 99.2327 152.864 98.6214 152.463 98.1734C152.071 97.716 151.534 97.4874 150.853 97.4874C150.433 97.4874 150.06 97.5807 149.733 97.7674C149.416 97.954 149.15 98.2434 148.935 98.6354V97.6274H147.815V104.067H148.935V100.147C148.935 99.83 149 99.55 149.131 99.3074C149.271 99.0647 149.462 98.878 149.705 98.7474C149.957 98.6074 150.246 98.5374 150.573 98.5374C151.021 98.5374 151.362 98.6727 151.595 98.9434C151.828 99.214 151.945 99.6154 151.945 100.147ZM154.61 97.6274V98.6774H157.83V97.6274H154.61ZM155.66 95.3874V104.067H156.78V95.3874H155.66ZM161.866 104.207C162.556 104.207 163.154 104.072 163.658 103.801C164.171 103.521 164.596 103.111 164.932 102.569L164.022 101.995C163.788 102.387 163.504 102.681 163.168 102.877C162.832 103.064 162.444 103.157 162.006 103.157C161.567 103.157 161.194 103.064 160.886 102.877C160.578 102.691 160.344 102.42 160.186 102.065C160.027 101.711 159.948 101.281 159.948 100.777C159.957 100.283 160.041 99.8674 160.2 99.5314C160.368 99.186 160.601 98.9247 160.9 98.7474C161.208 98.5607 161.576 98.4674 162.006 98.4674C162.37 98.4674 162.687 98.5467 162.958 98.7054C163.228 98.864 163.438 99.0834 163.588 99.3634C163.746 99.6434 163.826 99.9747 163.826 100.357C163.826 100.423 163.812 100.507 163.784 100.609C163.756 100.703 163.728 100.773 163.7 100.819L164.148 100.175H159.528V101.127H165.03C165.03 101.109 165.03 101.067 165.03 101.001C165.039 100.927 165.044 100.857 165.044 100.791C165.044 100.11 164.922 99.522 164.68 99.0274C164.437 98.5327 164.087 98.1547 163.63 97.8934C163.182 97.6227 162.64 97.4874 162.006 97.4874C161.371 97.4874 160.811 97.6274 160.326 97.9074C159.85 98.1874 159.476 98.5794 159.206 99.0834C158.944 99.5874 158.814 100.175 158.814 100.847C158.814 101.51 158.94 102.093 159.192 102.597C159.453 103.101 159.812 103.498 160.27 103.787C160.736 104.067 161.268 104.207 161.866 104.207ZM168.119 97.6274H166.999V104.067H168.119V97.6274ZM170.065 98.8594L170.681 97.9354C170.513 97.758 170.326 97.6414 170.121 97.5854C169.925 97.52 169.71 97.4874 169.477 97.4874C169.178 97.4874 168.884 97.604 168.595 97.8374C168.305 98.0707 168.067 98.388 167.881 98.7894C167.703 99.1814 167.615 99.634 167.615 100.147H168.119C168.119 99.8394 168.147 99.564 168.203 99.3214C168.268 99.0787 168.38 98.8874 168.539 98.7474C168.697 98.6074 168.917 98.5374 169.197 98.5374C169.383 98.5374 169.537 98.5654 169.659 98.6214C169.78 98.668 169.915 98.7474 170.065 98.8594ZM172.406 102.527L171.174 106.153L171.986 106.447L173.526 102.947L172.406 102.527ZM180.168 100.847C180.168 101.491 180.312 102.07 180.602 102.583C180.9 103.087 181.302 103.484 181.806 103.773C182.31 104.063 182.874 104.207 183.5 104.207C184.134 104.207 184.699 104.063 185.194 103.773C185.698 103.484 186.094 103.087 186.384 102.583C186.682 102.07 186.832 101.491 186.832 100.847C186.832 100.194 186.682 99.6154 186.384 99.1114C186.094 98.6074 185.698 98.2107 185.194 97.9214C184.699 97.632 184.134 97.4874 183.5 97.4874C182.874 97.4874 182.31 97.632 181.806 97.9214C181.302 98.2107 180.9 98.6074 180.602 99.1114C180.312 99.6154 180.168 100.194 180.168 100.847ZM181.302 100.847C181.302 100.399 181.395 100.003 181.582 99.6574C181.778 99.3027 182.039 99.0274 182.366 98.8314C182.702 98.6354 183.08 98.5374 183.5 98.5374C183.92 98.5374 184.293 98.6354 184.62 98.8314C184.956 99.0274 185.217 99.3027 185.404 99.6574C185.6 100.003 185.698 100.399 185.698 100.847C185.698 101.295 185.6 101.692 185.404 102.037C185.217 102.383 184.956 102.658 184.62 102.863C184.293 103.059 183.92 103.157 183.5 103.157C183.08 103.157 182.702 103.059 182.366 102.863C182.039 102.658 181.778 102.383 181.582 102.037C181.395 101.692 181.302 101.295 181.302 100.847ZM188.3 97.6274V98.6774H191.52V97.6274H188.3ZM191.408 94.4914L192.024 93.5674C191.959 93.474 191.865 93.3854 191.744 93.3014C191.632 93.2174 191.497 93.1474 191.338 93.0914C191.179 93.0354 190.997 93.0074 190.792 93.0074C190.4 93.0074 190.064 93.0914 189.784 93.2594C189.513 93.418 189.303 93.6607 189.154 93.9874C189.005 94.314 188.93 94.734 188.93 95.2474V104.067H190.05V95.3874C190.05 95.0794 190.078 94.832 190.134 94.6454C190.19 94.4587 190.265 94.328 190.358 94.2534C190.461 94.1694 190.582 94.1274 190.722 94.1274C190.834 94.1274 190.951 94.1507 191.072 94.1974C191.203 94.2347 191.315 94.3327 191.408 94.4914ZM192.726 97.6274V98.6774H195.946V97.6274H192.726ZM195.834 94.4914L196.45 93.5674C196.385 93.474 196.291 93.3854 196.17 93.3014C196.058 93.2174 195.923 93.1474 195.764 93.0914C195.605 93.0354 195.423 93.0074 195.218 93.0074C194.826 93.0074 194.49 93.0914 194.21 93.2594C193.939 93.418 193.729 93.6607 193.58 93.9874C193.431 94.314 193.356 94.734 193.356 95.2474V104.067H194.476V95.3874C194.476 95.0794 194.504 94.832 194.56 94.6454C194.616 94.4587 194.691 94.328 194.784 94.2534C194.887 94.1694 195.008 94.1274 195.148 94.1274C195.26 94.1274 195.377 94.1507 195.498 94.1974C195.629 94.2347 195.741 94.3327 195.834 94.4914ZM197.642 94.9674C197.642 95.1727 197.716 95.3547 197.866 95.5134C198.024 95.6627 198.206 95.7374 198.412 95.7374C198.626 95.7374 198.808 95.6627 198.958 95.5134C199.107 95.3547 199.182 95.1727 199.182 94.9674C199.182 94.7527 199.107 94.5707 198.958 94.4214C198.808 94.272 198.626 94.1974 198.412 94.1974C198.206 94.1974 198.024 94.272 197.866 94.4214C197.716 94.5707 197.642 94.7527 197.642 94.9674ZM197.852 97.6274V104.067H198.972V97.6274H197.852ZM202.203 100.847C202.203 100.399 202.296 100.003 202.483 99.6574C202.679 99.3027 202.94 99.0274 203.267 98.8314C203.603 98.6354 203.981 98.5374 204.401 98.5374C204.746 98.5374 205.068 98.5934 205.367 98.7054C205.675 98.808 205.941 98.948 206.165 99.1254C206.389 99.3027 206.547 99.4987 206.641 99.7134V98.3134C206.417 98.052 206.095 97.8514 205.675 97.7114C205.264 97.562 204.839 97.4874 204.401 97.4874C203.775 97.4874 203.211 97.632 202.707 97.9214C202.203 98.2107 201.801 98.6074 201.503 99.1114C201.213 99.6154 201.069 100.194 201.069 100.847C201.069 101.491 201.213 102.07 201.503 102.583C201.801 103.087 202.203 103.484 202.707 103.773C203.211 104.063 203.775 104.207 204.401 104.207C204.839 104.207 205.264 104.137 205.675 103.997C206.095 103.848 206.417 103.643 206.641 103.381V101.981C206.547 102.187 206.389 102.383 206.165 102.569C205.941 102.747 205.675 102.891 205.367 103.003C205.068 103.106 204.746 103.157 204.401 103.157C203.981 103.157 203.603 103.059 203.267 102.863C202.94 102.658 202.679 102.383 202.483 102.037C202.296 101.692 202.203 101.295 202.203 100.847ZM211.296 104.207C211.987 104.207 212.584 104.072 213.088 103.801C213.601 103.521 214.026 103.111 214.362 102.569L213.452 101.995C213.219 102.387 212.934 102.681 212.598 102.877C212.262 103.064 211.875 103.157 211.436 103.157C210.997 103.157 210.624 103.064 210.316 102.877C210.008 102.691 209.775 102.42 209.616 102.065C209.457 101.711 209.378 101.281 209.378 100.777C209.387 100.283 209.471 99.8674 209.63 99.5314C209.798 99.186 210.031 98.9247 210.33 98.7474C210.638 98.5607 211.007 98.4674 211.436 98.4674C211.8 98.4674 212.117 98.5467 212.388 98.7054C212.659 98.864 212.869 99.0834 213.018 99.3634C213.177 99.6434 213.256 99.9747 213.256 100.357C213.256 100.423 213.242 100.507 213.214 100.609C213.186 100.703 213.158 100.773 213.13 100.819L213.578 100.175H208.958V101.127H214.46C214.46 101.109 214.46 101.067 214.46 101.001C214.469 100.927 214.474 100.857 214.474 100.791C214.474 100.11 214.353 99.522 214.11 99.0274C213.867 98.5327 213.517 98.1547 213.06 97.8934C212.612 97.6227 212.071 97.4874 211.436 97.4874C210.801 97.4874 210.241 97.6274 209.756 97.9074C209.28 98.1874 208.907 98.5794 208.636 99.0834C208.375 99.5874 208.244 100.175 208.244 100.847C208.244 101.51 208.37 102.093 208.622 102.597C208.883 103.101 209.243 103.498 209.7 103.787C210.167 104.067 210.699 104.207 211.296 104.207ZM221.116 96.1994L223.286 95.5554V104.067H224.476V94.1274L221.116 94.9674V96.1994ZM227.839 96.1994L230.009 95.5554V104.067H231.199V94.1274L227.839 94.9674V96.1994ZM233.722 102.107H241.184V101.057H239.182H238.944H235.682L238.454 96.9134V101.449V101.603V104.067H239.644V94.2674H239.154L233.722 102.107ZM242.094 101.267H244.894V100.217H242.094V101.267ZM247.133 99.1674C247.133 98.598 247.189 98.0754 247.301 97.5994C247.413 97.114 247.577 96.6987 247.791 96.3534C248.006 95.9987 248.263 95.728 248.561 95.5414C248.869 95.3454 249.21 95.2474 249.583 95.2474C249.966 95.2474 250.307 95.3454 250.605 95.5414C250.904 95.728 251.161 95.9987 251.375 96.3534C251.59 96.6987 251.753 97.114 251.865 97.5994C251.977 98.0754 252.033 98.598 252.033 99.1674C252.033 99.7367 251.977 100.264 251.865 100.749C251.753 101.225 251.59 101.641 251.375 101.995C251.161 102.341 250.904 102.611 250.605 102.807C250.307 102.994 249.966 103.087 249.583 103.087C249.21 103.087 248.869 102.994 248.561 102.807C248.263 102.611 248.006 102.341 247.791 101.995C247.577 101.641 247.413 101.225 247.301 100.749C247.189 100.264 247.133 99.7367 247.133 99.1674ZM245.943 99.1674C245.943 100.147 246.097 101.015 246.405 101.771C246.713 102.527 247.138 103.125 247.679 103.563C248.23 103.993 248.865 104.207 249.583 104.207C250.302 104.207 250.932 103.993 251.473 103.563C252.024 103.125 252.453 102.527 252.761 101.771C253.069 101.015 253.223 100.147 253.223 99.1674C253.223 98.1874 253.069 97.3194 252.761 96.5634C252.453 95.8074 252.024 95.2147 251.473 94.7854C250.932 94.3467 250.302 94.1274 249.583 94.1274C248.865 94.1274 248.23 94.3467 247.679 94.7854C247.138 95.2147 246.713 95.8074 246.405 96.5634C246.097 97.3194 245.943 98.1874 245.943 99.1674ZM254.478 102.107H261.94V101.057H259.938H259.7H256.438L259.21 96.9134V101.449V101.603V104.067H260.4V94.2674H259.91L254.478 102.107ZM263.06 104.067H269.976V102.947H265.51L268.632 99.7694C269.015 99.3774 269.327 98.934 269.57 98.4394C269.813 97.9447 269.934 97.4454 269.934 96.9414C269.934 96.6427 269.873 96.33 269.752 96.0034C269.631 95.6767 269.444 95.3734 269.192 95.0934C268.94 94.804 268.618 94.5707 268.226 94.3934C267.834 94.2067 267.367 94.1134 266.826 94.1134C266.154 94.1134 265.575 94.2627 265.09 94.5614C264.614 94.8507 264.25 95.2614 263.998 95.7934C263.746 96.316 263.62 96.9274 263.62 97.6274H264.81C264.81 97.1327 264.889 96.708 265.048 96.3534C265.207 95.9894 265.435 95.714 265.734 95.5274C266.042 95.3314 266.406 95.2334 266.826 95.2334C267.125 95.2334 267.391 95.2847 267.624 95.3874C267.857 95.49 268.053 95.6254 268.212 95.7934C268.38 95.9614 268.506 96.148 268.59 96.3534C268.674 96.5587 268.716 96.7687 268.716 96.9834C268.716 97.2447 268.674 97.4967 268.59 97.7394C268.515 97.9727 268.399 98.206 268.24 98.4394C268.091 98.6634 267.909 98.892 267.694 99.1254L263.06 104.067Z" fill="#232323"/>
<path d="M38.692 122.307C38.692 121.963 38.768 121.659 38.92 121.395C39.072 121.131 39.276 120.923 39.532 120.771C39.796 120.619 40.088 120.543 40.408 120.543C40.664 120.543 40.912 120.583 41.152 120.663C41.392 120.743 41.604 120.855 41.788 120.999C41.98 121.135 42.12 121.295 42.208 121.479V120.051C42.016 119.859 41.756 119.707 41.428 119.595C41.1 119.483 40.74 119.427 40.348 119.427C39.78 119.427 39.268 119.551 38.812 119.799C38.364 120.039 38.008 120.375 37.744 120.807C37.488 121.239 37.36 121.739 37.36 122.307C37.36 122.867 37.488 123.367 37.744 123.807C38.008 124.239 38.364 124.579 38.812 124.827C39.268 125.067 39.78 125.187 40.348 125.187C40.74 125.187 41.1 125.131 41.428 125.019C41.756 124.907 42.016 124.755 42.208 124.563V123.135C42.12 123.311 41.984 123.471 41.8 123.615C41.616 123.759 41.404 123.871 41.164 123.951C40.924 124.031 40.672 124.071 40.408 124.071C40.088 124.071 39.796 123.995 39.532 123.843C39.276 123.691 39.072 123.487 38.92 123.231C38.768 122.967 38.692 122.659 38.692 122.307ZM49.0022 120.867C49.0022 120.419 49.0462 120.007 49.1342 119.631C49.2222 119.255 49.3462 118.931 49.5062 118.659C49.6742 118.387 49.8742 118.179 50.1062 118.035C50.3382 117.883 50.5942 117.807 50.8742 117.807C51.1702 117.807 51.4302 117.883 51.6542 118.035C51.8862 118.179 52.0822 118.387 52.2422 118.659C52.4102 118.931 52.5382 119.255 52.6262 119.631C52.7142 120.007 52.7582 120.419 52.7582 120.867C52.7582 121.315 52.7142 121.727 52.6262 122.103C52.5382 122.479 52.4102 122.803 52.2422 123.075C52.0822 123.347 51.8862 123.559 51.6542 123.711C51.4302 123.855 51.1702 123.927 50.8742 123.927C50.5942 123.927 50.3382 123.855 50.1062 123.711C49.8742 123.559 49.6742 123.347 49.5062 123.075C49.3462 122.803 49.2222 122.479 49.1342 122.103C49.0462 121.727 49.0022 121.315 49.0022 120.867ZM47.6102 120.867C47.6102 121.739 47.7462 122.499 48.0182 123.147C48.2982 123.795 48.6822 124.299 49.1702 124.659C49.6662 125.019 50.2342 125.199 50.8742 125.199C51.5302 125.199 52.1022 125.019 52.5902 124.659C53.0862 124.299 53.4702 123.795 53.7422 123.147C54.0142 122.499 54.1502 121.739 54.1502 120.867C54.1502 119.995 54.0142 119.235 53.7422 118.587C53.4702 117.939 53.0862 117.435 52.5902 117.075C52.1022 116.715 51.5302 116.535 50.8742 116.535C50.2342 116.535 49.6662 116.715 49.1702 117.075C48.6822 117.435 48.2982 117.939 48.0182 118.587C47.7462 119.235 47.6102 119.995 47.6102 120.867ZM60.3662 119.499C60.3662 119.843 60.2902 120.147 60.1382 120.411C59.9942 120.675 59.7942 120.883 59.5382 121.035C59.2822 121.187 58.9942 121.263 58.6742 121.263C58.3462 121.263 58.0542 121.187 57.7982 121.035C57.5422 120.883 57.3382 120.675 57.1862 120.411C57.0422 120.147 56.9702 119.843 56.9702 119.499C56.9702 119.155 57.0422 118.855 57.1862 118.599C57.3382 118.335 57.5422 118.131 57.7982 117.987C58.0542 117.835 58.3462 117.759 58.6742 117.759C58.9942 117.759 59.2822 117.835 59.5382 117.987C59.7942 118.131 59.9942 118.335 60.1382 118.599C60.2902 118.855 60.3662 119.155 60.3662 119.499ZM58.3742 125.055L61.0382 121.479C61.2462 121.207 61.4142 120.907 61.5422 120.579C61.6782 120.251 61.7462 119.891 61.7462 119.499C61.7462 118.875 61.6102 118.343 61.3382 117.903C61.0662 117.455 60.6982 117.115 60.2342 116.883C59.7702 116.643 59.2502 116.523 58.6742 116.523C58.0982 116.523 57.5782 116.643 57.1142 116.883C56.6502 117.115 56.2782 117.455 55.9982 117.903C55.7262 118.343 55.5902 118.875 55.5902 119.499C55.5902 119.899 55.6582 120.267 55.7942 120.603C55.9302 120.939 56.1142 121.231 56.3462 121.479C56.5862 121.719 56.8582 121.903 57.1622 122.031C57.4662 122.159 57.7862 122.223 58.1222 122.223C58.4022 122.223 58.6462 122.191 58.8542 122.127C59.0622 122.063 59.2622 121.927 59.4542 121.719L59.2382 121.755L56.5742 125.055H58.3742ZM63.7175 124.455C63.7175 124.679 63.7975 124.875 63.9575 125.043C64.1255 125.211 64.3255 125.295 64.5575 125.295C64.8055 125.295 65.0095 125.211 65.1695 125.043C65.3295 124.875 65.4095 124.679 65.4095 124.455C65.4095 124.223 65.3295 124.027 65.1695 123.867C65.0095 123.699 64.8055 123.615 64.5575 123.615C64.3255 123.615 64.1255 123.699 63.9575 123.867C63.7975 124.027 63.7175 124.223 63.7175 124.455ZM63.7175 119.919C63.7175 120.151 63.7975 120.351 63.9575 120.519C64.1255 120.679 64.3255 120.759 64.5575 120.759C64.8055 120.759 65.0095 120.679 65.1695 120.519C65.3295 120.351 65.4095 120.151 65.4095 119.919C65.4095 119.687 65.3295 119.491 65.1695 119.331C65.0095 119.163 64.8055 119.079 64.5575 119.079C64.3255 119.079 64.1255 119.163 63.9575 119.331C63.7975 119.491 63.7175 119.687 63.7175 119.919ZM68.6447 120.867C68.6447 120.419 68.6887 120.007 68.7767 119.631C68.8647 119.255 68.9887 118.931 69.1487 118.659C69.3167 118.387 69.5167 118.179 69.7487 118.035C69.9807 117.883 70.2367 117.807 70.5167 117.807C70.8127 117.807 71.0727 117.883 71.2967 118.035C71.5287 118.179 71.7247 118.387 71.8847 118.659C72.0527 118.931 72.1807 119.255 72.2687 119.631C72.3567 120.007 72.4007 120.419 72.4007 120.867C72.4007 121.315 72.3567 121.727 72.2687 122.103C72.1807 122.479 72.0527 122.803 71.8847 123.075C71.7247 123.347 71.5287 123.559 71.2967 123.711C71.0727 123.855 70.8127 123.927 70.5167 123.927C70.2367 123.927 69.9807 123.855 69.7487 123.711C69.5167 123.559 69.3167 123.347 69.1487 123.075C68.9887 122.803 68.8647 122.479 68.7767 122.103C68.6887 121.727 68.6447 121.315 68.6447 120.867ZM67.2527 120.867C67.2527 121.739 67.3887 122.499 67.6607 123.147C67.9407 123.795 68.3247 124.299 68.8127 124.659C69.3087 125.019 69.8767 125.199 70.5167 125.199C71.1727 125.199 71.7447 125.019 72.2327 124.659C72.7287 124.299 73.1127 123.795 73.3847 123.147C73.6567 122.499 73.7927 121.739 73.7927 120.867C73.7927 119.995 73.6567 119.235 73.3847 118.587C73.1127 117.939 72.7287 117.435 72.2327 117.075C71.7447 116.715 71.1727 116.535 70.5167 116.535C69.8767 116.535 69.3087 116.715 68.8127 117.075C68.3247 117.435 67.9407 117.939 67.6607 118.587C67.3887 119.235 67.2527 119.995 67.2527 120.867ZM76.5047 120.867C76.5047 120.419 76.5487 120.007 76.6367 119.631C76.7247 119.255 76.8487 118.931 77.0087 118.659C77.1767 118.387 77.3767 118.179 77.6087 118.035C77.8407 117.883 78.0967 117.807 78.3767 117.807C78.6727 117.807 78.9327 117.883 79.1567 118.035C79.3887 118.179 79.5847 118.387 79.7447 118.659C79.9127 118.931 80.0407 119.255 80.1287 119.631C80.2167 120.007 80.2607 120.419 80.2607 120.867C80.2607 121.315 80.2167 121.727 80.1287 122.103C80.0407 122.479 79.9127 122.803 79.7447 123.075C79.5847 123.347 79.3887 123.559 79.1567 123.711C78.9327 123.855 78.6727 123.927 78.3767 123.927C78.0967 123.927 77.8407 123.855 77.6087 123.711C77.3767 123.559 77.1767 123.347 77.0087 123.075C76.8487 122.803 76.7247 122.479 76.6367 122.103C76.5487 121.727 76.5047 121.315 76.5047 120.867ZM75.1127 120.867C75.1127 121.739 75.2487 122.499 75.5207 123.147C75.8007 123.795 76.1847 124.299 76.6727 124.659C77.1687 125.019 77.7367 125.199 78.3767 125.199C79.0327 125.199 79.6047 125.019 80.0927 124.659C80.5887 124.299 80.9727 123.795 81.2447 123.147C81.5167 122.499 81.6527 121.739 81.6527 120.867C81.6527 119.995 81.5167 119.235 81.2447 118.587C80.9727 117.939 80.5887 117.435 80.0927 117.075C79.6047 116.715 79.0327 116.535 78.3767 116.535C77.7367 116.535 77.1687 116.715 76.6727 117.075C76.1847 117.435 75.8007 117.939 75.5207 118.587C75.2487 119.235 75.1127 119.995 75.1127 120.867ZM86.5103 122.799H88.9703V121.635H86.5103V122.799ZM93.5861 125.067H99.9941V123.747H96.3461L98.7341 121.407C99.0781 121.087 99.3541 120.723 99.5621 120.315C99.7781 119.907 99.8861 119.483 99.8861 119.043C99.8861 118.763 99.8261 118.475 99.7061 118.179C99.5941 117.883 99.4181 117.611 99.1781 117.363C98.9461 117.115 98.6501 116.915 98.2901 116.763C97.9301 116.603 97.5061 116.523 97.0181 116.523C96.3781 116.523 95.8341 116.659 95.3861 116.931C94.9461 117.195 94.6101 117.563 94.3781 118.035C94.1541 118.499 94.0421 119.031 94.0421 119.631H95.4461C95.4461 119.263 95.5061 118.939 95.6261 118.659C95.7541 118.379 95.9341 118.167 96.1661 118.023C96.3981 117.871 96.6741 117.795 96.9941 117.795C97.2261 117.795 97.4301 117.835 97.6061 117.915C97.7821 117.987 97.9301 118.087 98.0501 118.215C98.1781 118.343 98.2701 118.487 98.3261 118.647C98.3901 118.799 98.4221 118.955 98.4221 119.115C98.4221 119.339 98.3861 119.551 98.3141 119.751C98.2421 119.951 98.1341 120.151 97.9901 120.351C97.8461 120.551 97.6741 120.759 97.4741 120.975L93.5861 125.067ZM101.848 118.635L103.792 118.095V125.067H105.196V116.535L101.848 117.291V118.635ZM108 124.455C108 124.679 108.08 124.875 108.24 125.043C108.408 125.211 108.608 125.295 108.84 125.295C109.088 125.295 109.292 125.211 109.452 125.043C109.612 124.875 109.692 124.679 109.692 124.455C109.692 124.223 109.612 124.027 109.452 123.867C109.292 123.699 109.088 123.615 108.84 123.615C108.608 123.615 108.408 123.699 108.24 123.867C108.08 124.027 108 124.223 108 124.455ZM108 119.919C108 120.151 108.08 120.351 108.24 120.519C108.408 120.679 108.608 120.759 108.84 120.759C109.088 120.759 109.292 120.679 109.452 120.519C109.612 120.351 109.692 120.151 109.692 119.919C109.692 119.687 109.612 119.491 109.452 119.331C109.292 119.163 109.088 119.079 108.84 119.079C108.608 119.079 108.408 119.163 108.24 119.331C108.08 119.491 108 119.687 108 119.919ZM112.927 120.867C112.927 120.419 112.971 120.007 113.059 119.631C113.147 119.255 113.271 118.931 113.431 118.659C113.599 118.387 113.799 118.179 114.031 118.035C114.263 117.883 114.519 117.807 114.799 117.807C115.095 117.807 115.355 117.883 115.579 118.035C115.811 118.179 116.007 118.387 116.167 118.659C116.335 118.931 116.463 119.255 116.551 119.631C116.639 120.007 116.683 120.419 116.683 120.867C116.683 121.315 116.639 121.727 116.551 122.103C116.463 122.479 116.335 122.803 116.167 123.075C116.007 123.347 115.811 123.559 115.579 123.711C115.355 123.855 115.095 123.927 114.799 123.927C114.519 123.927 114.263 123.855 114.031 123.711C113.799 123.559 113.599 123.347 113.431 123.075C113.271 122.803 113.147 122.479 113.059 122.103C112.971 121.727 112.927 121.315 112.927 120.867ZM111.535 120.867C111.535 121.739 111.671 122.499 111.943 123.147C112.223 123.795 112.607 124.299 113.095 124.659C113.591 125.019 114.159 125.199 114.799 125.199C115.455 125.199 116.027 125.019 116.515 124.659C117.011 124.299 117.395 123.795 117.667 123.147C117.939 122.499 118.075 121.739 118.075 120.867C118.075 119.995 117.939 119.235 117.667 118.587C117.395 117.939 117.011 117.435 116.515 117.075C116.027 116.715 115.455 116.535 114.799 116.535C114.159 116.535 113.591 116.715 113.095 117.075C112.607 117.435 112.223 117.939 111.943 118.587C111.671 119.235 111.535 119.995 111.535 120.867ZM120.787 120.867C120.787 120.419 120.831 120.007 120.919 119.631C121.007 119.255 121.131 118.931 121.291 118.659C121.459 118.387 121.659 118.179 121.891 118.035C122.123 117.883 122.379 117.807 122.659 117.807C122.955 117.807 123.215 117.883 123.439 118.035C123.671 118.179 123.867 118.387 124.027 118.659C124.195 118.931 124.323 119.255 124.411 119.631C124.499 120.007 124.543 120.419 124.543 120.867C124.543 121.315 124.499 121.727 124.411 122.103C124.323 122.479 124.195 122.803 124.027 123.075C123.867 123.347 123.671 123.559 123.439 123.711C123.215 123.855 122.955 123.927 122.659 123.927C122.379 123.927 122.123 123.855 121.891 123.711C121.659 123.559 121.459 123.347 121.291 123.075C121.131 122.803 121.007 122.479 120.919 122.103C120.831 121.727 120.787 121.315 120.787 120.867ZM119.395 120.867C119.395 121.739 119.531 122.499 119.803 123.147C120.083 123.795 120.467 124.299 120.955 124.659C121.451 125.019 122.019 125.199 122.659 125.199C123.315 125.199 123.887 125.019 124.375 124.659C124.871 124.299 125.255 123.795 125.527 123.147C125.799 122.499 125.935 121.739 125.935 120.867C125.935 119.995 125.799 119.235 125.527 118.587C125.255 117.939 124.871 117.435 124.375 117.075C123.887 116.715 123.315 116.535 122.659 116.535C122.019 116.535 121.451 116.715 120.955 117.075C120.467 117.435 120.083 117.939 119.803 118.587C119.531 119.235 119.395 119.995 119.395 120.867Z" fill="#828281"/>
</g>
<path d="M155.812 134.942C151.536 134.942 147.434 136.641 144.41 139.665C141.386 142.689 139.688 146.791 139.688 151.067C139.688 159.224 153.188 173.661 155.475 176.061C155.517 176.106 155.568 176.142 155.624 176.166C155.681 176.191 155.742 176.203 155.803 176.203C155.865 176.203 155.925 176.191 155.982 176.166C156.038 176.142 156.089 176.106 156.131 176.061C158.419 173.68 171.919 159.186 171.919 151.067C171.919 146.794 170.222 142.695 167.202 139.672C164.183 136.648 160.086 134.947 155.812 134.942ZM155.812 156.824C154.676 156.813 153.569 156.466 152.63 155.826C151.691 155.187 150.962 154.284 150.535 153.232C150.108 152.179 150.002 151.023 150.23 149.91C150.458 148.797 151.011 147.777 151.818 146.978C152.626 146.178 153.651 145.636 154.766 145.418C155.881 145.2 157.036 145.318 158.084 145.755C159.133 146.192 160.029 146.93 160.659 147.875C161.289 148.821 161.625 149.931 161.625 151.067C161.625 151.828 161.474 152.581 161.182 153.283C160.889 153.985 160.46 154.622 159.919 155.158C159.379 155.693 158.737 156.116 158.033 156.402C157.328 156.688 156.573 156.831 155.812 156.824Z" fill="#C89D6C"/>
<defs>
<filter id="filter0_d_2521_1016" x="0" y="0.414062" width="312" height="171.653" filterUnits="userSpaceOnUse" color-interpolation-filters="sRGB">
<feFlood flood-opacity="0" result="BackgroundImageFix"/>
<feColorMatrix in="SourceAlpha" type="matrix" values="0 0 0 0 0 0 0 0 0 0 0 0 0 0 0 0 0 0 127 0" result="hardAlpha"/>
<feOffset dy="4"/>
<feGaussianBlur stdDeviation="8.5"/>
<feComposite in2="hardAlpha" operator="out"/>
<feColorMatrix type="matrix" values="0 0 0 0 0 0 0 0 0 0 0 0 0 0 0 0 0 0 0.11 0"/>
<feBlend mode="normal" in2="BackgroundImageFix" result="effect1_dropShadow_2521_1016"/>
<feBlend mode="normal" in="SourceGraphic" in2="effect1_dropShadow_2521_1016" result="shape"/>
</filter>
<clipPath id="clip0_2521_1016">
<rect width="109" height="40.6534" fill="white" transform="translate(37 32.4141)"/>
</clipPath>
</defs>
</svg>
