<svg width="14" height="15" viewBox="0 0 14 15" fill="none" xmlns="http://www.w3.org/2000/svg">
<path d="M11.3724 4.86113L6.99912 9.12413L2.62587 4.86113C2.54774 4.78481 2.44284 4.74209 2.33362 4.74209C2.2244 4.74209 2.11951 4.78481 2.04137 4.86113C2.00354 4.8982 1.97348 4.94245 1.95296 4.99128C1.93244 5.04011 1.92187 5.09254 1.92188 5.14551C1.92187 5.19847 1.93244 5.25091 1.95296 5.29974C1.97348 5.34857 2.00354 5.39281 2.04137 5.42988L6.69375 9.96588C6.77545 10.0455 6.88503 10.0901 6.99912 10.0901C7.11321 10.0901 7.22279 10.0455 7.3045 9.96588L11.9569 5.43076C11.995 5.39366 12.0253 5.34931 12.0459 5.30031C12.0666 5.25132 12.0773 5.19868 12.0773 5.14551C12.0773 5.09233 12.0666 5.03969 12.0459 4.9907C12.0253 4.94171 11.995 4.89735 11.9569 4.86026C11.8787 4.78394 11.7738 4.74121 11.6646 4.74121C11.5554 4.74121 11.4505 4.78394 11.3724 4.86026V4.86113Z" fill="white"/>
</svg>
