<svg width="20" height="21" viewBox="0 0 20 21" fill="none" xmlns="http://www.w3.org/2000/svg">
<g clip-path="url(#clip0_2521_1205)">
<path d="M15.184 17.7012C15.0757 17.7012 14.9674 17.6928 14.8674 17.6762C8.48405 16.7928 3.40904 11.7178 2.52571 5.33451C2.43404 4.66784 2.63404 4.00117 3.07571 3.49284C3.50904 2.99284 4.14238 2.70117 4.80904 2.70117H7.55904C8.27571 2.70117 8.87571 3.20951 9.00071 3.90951L9.32571 5.7345C9.48404 6.6095 9.10905 7.50117 8.39238 8.01784L8.11738 8.2095C9.12571 9.74284 10.4507 11.0595 12.0007 12.0678L12.1757 11.8262C12.684 11.1012 13.584 10.7345 14.459 10.8845L16.284 11.2095C16.984 11.3345 17.4924 11.9428 17.4924 12.6512V15.4012C17.4924 16.0678 17.2007 16.7012 16.7007 17.1428C16.284 17.5012 15.7424 17.7012 15.184 17.7012ZM4.80904 3.95117C4.50071 3.95117 4.21738 4.07617 4.00904 4.31784C3.80904 4.55117 3.71738 4.85951 3.75905 5.16784C4.56738 10.9928 9.20905 15.6345 15.034 16.4428C15.3424 16.4845 15.6507 16.3928 15.884 16.1928C16.1174 15.9845 16.2507 15.7095 16.2507 15.3928V12.6428C16.2507 12.5345 16.1757 12.4512 16.0757 12.4345L14.2507 12.1095C13.8424 12.0428 13.4424 12.2095 13.209 12.5428L12.6924 13.2678C12.5007 13.5345 12.1424 13.6095 11.859 13.4428C9.75071 12.2012 7.97571 10.4428 6.74238 8.35951C6.57571 8.07617 6.65071 7.71784 6.91738 7.53451L7.65904 7.00951C7.99238 6.77617 8.15905 6.36784 8.09238 5.96784L7.76738 4.12617C7.75071 4.02617 7.65904 3.95117 7.55904 3.95117H4.80904Z" fill="white"/>
</g>
<defs>
<clipPath id="clip0_2521_1205">
<rect width="20" height="20" fill="white" transform="translate(0 0.201172)"/>
</clipPath>
</defs>
</svg>
