<svg width="60" height="60" viewBox="0 0 60 60" fill="none" xmlns="http://www.w3.org/2000/svg">
<rect width="60" height="60" fill="white"/>
<path d="M32.7342 50.8227H30.0579C29.5961 50.8227 29.2207 50.4474 29.2207 49.9855C29.2207 49.5237 29.5961 49.1483 30.0579 49.1483H32.7342C33.1961 49.1483 33.5714 49.5237 33.5714 49.9855C33.5714 50.4474 33.1961 50.8227 32.7342 50.8227Z" fill="#C89D6C"/>
<path d="M32.7342 46.6103H30.0579C29.5961 46.6103 29.2207 46.2349 29.2207 45.7731C29.2207 45.3112 29.5961 44.9359 30.0579 44.9359H32.7342C33.1961 44.9359 33.5714 45.3112 33.5714 45.7731C33.5714 46.2349 33.1961 46.6103 32.7342 46.6103Z" fill="#C89D6C"/>
<path d="M26.4295 50.8224H23.7532C23.2914 50.8224 22.916 50.447 22.916 49.9852C22.916 49.5233 23.2914 49.148 23.7532 49.148H26.4295C26.8914 49.148 27.2667 49.5233 27.2667 49.9852C27.2667 50.447 26.8914 50.8224 26.4295 50.8224Z" fill="#C89D6C"/>
<path d="M26.4295 46.6105H23.7532C23.2914 46.6105 22.916 46.2352 22.916 45.7733C22.916 45.3114 23.2914 44.9361 23.7532 44.9361H26.4295C26.8914 44.9361 27.2667 45.3114 27.2667 45.7733C27.2667 46.2352 26.8914 46.6105 26.4295 46.6105Z" fill="#C89D6C"/>
<path d="M32.7479 42.5498H30.0716C29.6097 42.5498 29.2344 42.1744 29.2344 41.7126C29.2344 41.2507 29.6097 40.8754 30.0716 40.8754H32.7479C33.2097 40.8754 33.5851 41.2507 33.5851 41.7126C33.5851 42.1744 33.2097 42.5498 32.7479 42.5498Z" fill="#C89D6C"/>
<path d="M17.1902 16.1823H15.7474C15.2855 16.1823 14.9102 15.8069 14.9102 15.3451C14.9102 14.8832 15.2855 14.5079 15.7474 14.5079H17.1902C17.652 14.5079 18.0274 14.8832 18.0274 15.3451C18.0274 15.8069 17.6534 16.1823 17.1902 16.1823Z" fill="#C89D6C"/>
<path d="M17.1902 19.8507H15.7474C15.2855 19.8507 14.9102 19.4754 14.9102 19.0135C14.9102 18.5517 15.2855 18.1763 15.7474 18.1763H17.1902C17.652 18.1763 18.0274 18.5517 18.0274 19.0135C18.0274 19.4754 17.6534 19.8507 17.1902 19.8507Z" fill="#C89D6C"/>
<path d="M17.1902 23.5177H15.7474C15.2855 23.5177 14.9102 23.1423 14.9102 22.6805C14.9102 22.2186 15.2855 21.8433 15.7474 21.8433H17.1902C17.652 21.8433 18.0274 22.2186 18.0274 22.6805C18.0274 23.1423 17.6534 23.5177 17.1902 23.5177Z" fill="#C89D6C"/>
<path d="M17.1902 27.1846H15.7474C15.2855 27.1846 14.9102 26.8092 14.9102 26.3473C14.9102 25.8855 15.2855 25.5101 15.7474 25.5101H17.1902C17.652 25.5101 18.0274 25.8855 18.0274 26.3473C18.0274 26.8092 17.6534 27.1846 17.1902 27.1846Z" fill="#C89D6C"/>
<path d="M32.7337 35.7824H32.11V25.9884C32.11 25.5265 31.7346 25.1512 31.2728 25.1512H30.7872V20.4838C30.7872 20.114 30.5472 19.8 30.2137 19.6884V14.1349C30.2137 13.6731 29.8383 13.2977 29.3765 13.2977H29.0807V5.77538C29.0807 5.31352 28.7053 4.93817 28.2435 4.93817C27.7816 4.93817 27.4062 5.31352 27.4062 5.77538V13.2991H26.816C26.3542 13.2991 25.9788 13.6744 25.9788 14.1363V17.9819C25.5755 18.0419 25.2658 18.3893 25.2658 18.8093V30.8331H24.9546C24.4928 30.8331 24.1174 31.2084 24.1174 31.6703V40.4972H23.7532C23.2914 40.4972 22.916 40.8726 22.916 41.3345V54.1842C22.916 54.6461 23.2914 55.0214 23.7532 55.0214H32.7337C33.1955 55.0214 33.5709 54.6461 33.5709 54.1842V36.6196C33.5709 36.1577 33.1955 35.7824 32.7337 35.7824ZM31.8965 53.347H24.5904V42.1717H24.9546C25.4165 42.1717 25.7918 41.7963 25.7918 41.3345V32.5075H26.103C26.5649 32.5075 26.9402 32.1321 26.9402 31.6703V19.6368C27.3435 19.5768 27.6532 19.2293 27.6532 18.8093V14.9735H28.5393V20.4838C28.5393 20.8535 28.7793 21.1675 29.1128 21.2791V25.9884C29.1128 26.4503 29.4881 26.8256 29.95 26.8256H30.4356V36.6196C30.4356 37.0814 30.8109 37.4568 31.2728 37.4568H31.8965V53.347Z" fill="#232323"/>
<path d="M12.8676 27.2833C13.1732 27.3991 13.4913 27.5331 13.815 27.6852V10.1972H19.1243V32.1963C19.7481 33.0991 20.3174 34.1442 20.7988 35.354V9.36004C20.7988 8.89818 20.4234 8.52283 19.9616 8.52283H12.9778C12.516 8.52283 12.1406 8.89818 12.1406 9.36004V27.0321C12.3792 27.1075 12.622 27.1912 12.8676 27.2833Z" fill="#C89D6C"/>
<path d="M11.4405 41.0018H9.75908C9.29722 41.0018 8.92188 40.6265 8.92188 40.1646C8.92188 39.7027 9.29722 39.3274 9.75908 39.3274H11.4419C11.9037 39.3274 12.2791 39.7027 12.2791 40.1646C12.2791 40.6265 11.9037 41.0018 11.4405 41.0018Z" fill="#C89D6C"/>
<path d="M15.3975 41.0018H13.7161C13.2543 41.0018 12.8789 40.6265 12.8789 40.1646C12.8789 39.7027 13.2543 39.3274 13.7161 39.3274H15.3989C15.8608 39.3274 16.2361 39.7027 16.2361 40.1646C16.2361 40.6265 15.8608 41.0018 15.3975 41.0018Z" fill="#C89D6C"/>
<path d="M11.4405 43.8056H9.75908C9.29722 43.8056 8.92188 43.4302 8.92188 42.9684C8.92188 42.5065 9.29722 42.1312 9.75908 42.1312H11.4419C11.9037 42.1312 12.2791 42.5065 12.2791 42.9684C12.2791 43.4302 11.9037 43.8056 11.4405 43.8056Z" fill="#C89D6C"/>
<path d="M11.4405 35.4084H9.75908C9.29722 35.4084 8.92188 35.0331 8.92188 34.5712C8.92188 34.1094 9.29722 33.734 9.75908 33.734H11.4419C11.9037 33.734 12.2791 34.1094 12.2791 34.5712C12.2791 35.0331 11.9037 35.4084 11.4405 35.4084Z" fill="#C89D6C"/>
<path d="M15.3975 43.8056H13.7161C13.2543 43.8056 12.8789 43.4302 12.8789 42.9684C12.8789 42.5065 13.2543 42.1312 13.7161 42.1312H15.3989C15.8608 42.1312 16.2361 42.5065 16.2361 42.9684C16.2361 43.4302 15.8608 43.8056 15.3975 43.8056Z" fill="#C89D6C"/>
<path d="M11.4405 49.4135H9.75908C9.29722 49.4135 8.92188 49.0381 8.92188 48.5763C8.92188 48.1144 9.29722 47.7391 9.75908 47.7391H11.4419C11.9037 47.7391 12.2791 48.1144 12.2791 48.5763C12.2791 49.0381 11.9037 49.4135 11.4405 49.4135Z" fill="#C89D6C"/>
<path d="M15.3975 49.4135H13.7161C13.2543 49.4135 12.8789 49.0381 12.8789 48.5763C12.8789 48.1144 13.2543 47.7391 13.7161 47.7391H15.3989C15.8608 47.7391 16.2361 48.1144 16.2361 48.5763C16.2361 49.0381 15.8608 49.4135 15.3975 49.4135Z" fill="#C89D6C"/>
<path d="M11.4405 52.2182H9.75908C9.29722 52.2182 8.92188 51.8428 8.92188 51.3809C8.92188 50.9191 9.29722 50.5437 9.75908 50.5437H11.4419C11.9037 50.5437 12.2791 50.9191 12.2791 51.3809C12.2791 51.8428 11.9037 52.2182 11.4405 52.2182Z" fill="#C89D6C"/>
<path d="M15.3975 52.2182H13.7161C13.2543 52.2182 12.8789 51.8428 12.8789 51.3809C12.8789 50.9191 13.2543 50.5437 13.7161 50.5437H15.3989C15.8608 50.5437 16.2361 50.9191 16.2361 51.3809C16.2361 51.8428 15.8608 52.2182 15.3975 52.2182Z" fill="#C89D6C"/>
<path d="M19.7003 37.3257C19.678 37.2531 19.6542 37.1833 19.6319 37.1136C19.6249 37.0884 19.6166 37.0633 19.6082 37.0382C17.9631 32.001 14.7259 29.8354 12.2756 28.9061C10.5733 28.2615 9.02727 28.1122 8.09239 28.0926V26.2577C8.09239 25.7959 7.71704 25.4205 7.25518 25.4205C6.79332 25.4205 6.41797 25.7959 6.41797 26.2577V28.9508V54.1856C6.41797 54.6475 6.79332 55.0229 7.25518 55.0229H18.0217C18.358 55.0229 18.6608 54.8219 18.7919 54.5122C18.937 54.1661 22.3529 45.9489 19.7003 37.3257ZM8.09099 38.1684H18.2017C18.8729 40.5057 19.0682 42.8247 19.0068 44.9345H8.09099V38.1684ZM17.6268 36.494H8.09099V29.767C8.8975 29.788 10.2636 29.9219 11.7454 30.4954C14.4454 31.5391 16.4198 33.5554 17.6268 36.494ZM17.4426 53.347H8.09099V46.6103H18.9049C18.6091 49.8001 17.8124 52.3145 17.4426 53.347Z" fill="#232323"/>
<path d="M45.59 30.9949C45.59 30.9907 45.59 30.9865 45.59 30.9809V25.5698C46.0491 25.0298 46.3072 24.3405 46.3072 23.6247C46.3072 22.5754 45.7728 21.6195 44.8798 21.0684C44.4863 20.8256 43.97 20.9484 43.7272 21.3419C43.4844 21.7354 43.6072 22.2516 44.0007 22.4944C44.397 22.7386 44.6328 23.1614 44.6328 23.6247C44.6328 24.0014 44.4723 24.3614 44.1905 24.614C43.9477 24.8344 43.6309 24.9558 43.3016 24.9558C42.9821 24.9558 42.6765 24.8428 42.4365 24.6349C42.4281 24.6265 42.4198 24.6195 42.4114 24.6112C42.1281 24.3558 41.9719 24.0056 41.9719 23.6247C41.9719 23.5563 41.9774 23.4907 41.9872 23.4251C42.0584 22.9688 41.7458 22.5405 41.2895 22.4693C40.8319 22.3981 40.4049 22.7107 40.3337 23.167C40.31 23.3163 40.2988 23.4698 40.2988 23.6233C40.2988 24.3391 40.5556 25.0284 41.0146 25.567V54.2219C41.0146 54.6837 41.39 55.0591 41.8519 55.0591H44.7556C45.2174 55.0591 45.5928 54.6837 45.5928 54.2219V42.3698C45.5928 42.3656 45.5928 42.3614 45.5928 42.3558C45.5928 42.3502 45.5928 42.3475 45.5928 42.3419V36.6879C45.5928 36.6837 45.5928 36.6795 45.5928 36.674C45.5928 36.6684 45.5928 36.6656 45.5928 36.66V31.0061C45.5886 31.0047 45.59 31.0005 45.59 30.9949ZM42.6849 31.8321H43.9142V35.8395H42.6849V31.8321ZM42.6849 37.514H43.9142V41.5214H42.6849V37.514ZM43.9142 26.5647V30.1577H42.6849V26.5647C42.8858 26.6065 43.0909 26.6302 43.2988 26.6302C43.5081 26.6302 43.7132 26.6065 43.9142 26.5647ZM42.6849 53.3874V43.1958H43.9142V53.3874H42.6849Z" fill="#232323"/>
<path d="M40.8911 28.9089C40.8144 28.9089 40.7363 28.8978 40.6595 28.8768C38.7828 28.3368 37.5423 27.1647 37.1684 25.5782C36.846 24.2136 37.227 22.7303 38.1967 21.4354C36.8056 21.1438 35.3837 21.554 34.4851 22.5754C34.2409 22.8531 33.8446 22.9368 33.5098 22.7847C33.1735 22.6312 32.9781 22.2768 33.027 21.9112C33.2446 20.294 34.1279 18.854 35.4479 17.9596C35.9014 17.6526 36.387 17.4196 36.8921 17.2606C36.3925 17.1643 35.8777 17.1754 35.3823 17.3052C35.0251 17.3987 34.6484 17.248 34.4558 16.9326C34.2632 16.6187 34.2981 16.214 34.5437 15.9378C36.1218 14.1657 38.3851 13.4247 40.4544 14.0038C41.6544 14.3401 42.6395 15.0699 43.3023 16.0717C43.9651 15.0699 44.9516 14.3387 46.1502 14.0038C48.2181 13.4247 50.4828 14.1657 52.0609 15.9378C52.3065 16.214 52.3428 16.6173 52.1488 16.9326C51.9563 17.248 51.5795 17.3987 51.2223 17.3052C50.727 17.1754 50.2121 17.1643 49.7125 17.2606C50.2177 17.4182 50.7032 17.6526 51.1567 17.9596C52.4767 18.854 53.36 20.294 53.5777 21.9112C53.6265 22.2768 53.4312 22.6312 53.0949 22.7847C52.7586 22.9382 52.3623 22.8531 52.1195 22.5754C51.5391 21.9154 50.7325 21.5038 49.8479 21.381C50.2846 22.0871 50.5191 22.8685 50.5135 23.6568C50.5037 25.0494 49.7628 26.3806 48.4274 27.4061C48.1344 27.6308 47.7298 27.6378 47.4298 27.4215C47.1298 27.2066 47.007 26.8201 47.1256 26.4713C47.3349 25.8601 47.9711 23.9973 44.5665 22.708C44.0949 22.5294 43.6149 22.4066 43.4544 22.401C43.453 22.401 43.4516 22.401 43.4502 22.4024C43.3749 22.4331 43.1586 22.5517 42.6172 23.0219C40.7418 24.6503 40.3763 26.1671 41.533 27.5303C41.7716 27.8122 41.7981 28.2168 41.5972 28.5266C41.4367 28.7694 41.1688 28.9089 40.8911 28.9089ZM37.3205 19.6703C38.2288 19.6703 39.1595 19.881 40.0302 20.3178C40.2758 20.4406 40.446 20.6764 40.4851 20.9499C40.5242 21.2219 40.4251 21.4968 40.2228 21.6824C39.0632 22.7512 38.5288 24.0643 38.7967 25.1945C38.8679 25.4973 38.9977 25.7778 39.1805 26.0303C39.14 24.6112 39.9284 23.1392 41.5163 21.7592C42.1414 21.2164 42.6618 20.8368 43.1502 20.7559C43.58 20.6722 44.2539 20.8019 45.1567 21.1438C47.0614 21.8652 48.2851 22.9396 48.7553 24.2457C48.8084 24.0489 48.8349 23.8494 48.8363 23.6471C48.8418 22.7959 48.387 21.9657 47.5553 21.3085C47.3042 21.1103 47.187 20.7852 47.2553 20.4726C47.3237 20.1601 47.5651 19.9131 47.8763 19.8378C48.8907 19.5922 49.9149 19.6187 50.8512 19.8866C50.66 19.6843 50.4465 19.5029 50.2149 19.3452C49.3023 18.7271 48.1958 18.5373 47.1018 18.8122C46.7488 18.9015 46.3791 18.7508 46.1865 18.4424C45.9939 18.1326 46.0246 17.735 46.2605 17.4573C46.9805 16.6131 47.9181 16.0201 48.9298 15.7299C48.1735 15.4466 47.3711 15.4006 46.5981 15.6168C45.3074 15.9782 44.3809 17.0387 44.1214 18.4536C44.0488 18.8512 43.7028 19.1401 43.2981 19.1401C42.8935 19.1401 42.5474 18.8512 42.4749 18.4536C42.2153 17.0387 41.2902 15.9782 39.9995 15.6168C39.2265 15.4006 38.4242 15.4466 37.6679 15.7299C38.6795 16.0215 39.6172 16.6131 40.3372 17.4573C40.573 17.735 40.6037 18.1326 40.4111 18.4424C40.2186 18.7522 39.8488 18.9015 39.4958 18.8122C38.4018 18.5373 37.2967 18.7271 36.3828 19.3452C36.1498 19.5029 35.9363 19.6857 35.7451 19.888C36.253 19.7443 36.7832 19.6703 37.3205 19.6703Z" fill="#C89D6C"/>
</svg>
