<svg width="61" height="60" viewBox="0 0 61 60" fill="none" xmlns="http://www.w3.org/2000/svg">
<path d="M19.3197 20.1348C19.1341 20.1348 18.9471 20.0735 18.7922 19.9479C18.4336 19.6562 18.3778 19.1288 18.6694 18.7702C21.5369 15.2386 25.7885 13.2125 30.3346 13.2125C34.8025 13.2125 39.0067 15.1814 41.8713 18.6139C42.1671 18.9683 42.1197 19.4972 41.7653 19.793C41.4108 20.0888 40.882 20.0414 40.5862 19.6869C38.0411 16.6367 34.3043 14.8883 30.336 14.8883C26.2964 14.8883 22.5192 16.6883 19.9713 19.8265C19.8039 20.0302 19.5625 20.1348 19.3197 20.1348Z" fill="#C89D6C"/>
<path d="M44.521 29.0735C44.0592 29.0735 43.6838 28.6981 43.6838 28.2363C43.6838 25.7763 43.0099 23.3735 41.7331 21.2875C41.7289 21.2805 41.7247 21.2735 41.7206 21.2651C41.5364 20.9456 41.581 20.5298 41.8545 20.2549C42.181 19.9284 42.7113 19.9284 43.0378 20.2549C43.0894 20.3065 43.134 20.3651 43.1703 20.4279C44.602 22.7735 45.3582 25.4735 45.3582 28.2349C45.3582 28.6995 44.9829 29.0735 44.521 29.0735Z" fill="#C89D6C"/>
<path d="M16.1478 29.0735C15.6859 29.0735 15.3105 28.6981 15.3105 28.2363C15.3105 25.9228 15.8226 23.7042 16.8329 21.6418C17.0366 21.226 17.5375 21.0544 17.9533 21.2581C18.3692 21.4618 18.5408 21.9628 18.3371 22.3786C17.4398 24.2093 16.985 26.1809 16.985 28.2363C16.985 28.6995 16.6096 29.0735 16.1478 29.0735Z" fill="#C89D6C"/>
<path d="M11.7869 29.0386H6.13018C5.66832 29.0386 5.29297 28.6633 5.29297 28.2014C5.29297 27.7395 5.66832 27.3642 6.13018 27.3642H11.7869C12.2488 27.3642 12.6241 27.7395 12.6241 28.2014C12.6241 28.6633 12.2488 29.0386 11.7869 29.0386Z" fill="#C89D6C"/>
<path d="M54.5369 28.5516H48.8802C48.4183 28.5516 48.043 28.1763 48.043 27.7144C48.043 27.2525 48.4183 26.8772 48.8802 26.8772H54.5369C54.9988 26.8772 55.3741 27.2525 55.3741 27.7144C55.3741 28.1763 54.9988 28.5516 54.5369 28.5516Z" fill="#C89D6C"/>
<path d="M46.2735 19.3102C45.9847 19.3102 45.7028 19.1595 45.5479 18.8916C45.3163 18.4912 45.4544 17.9791 45.8549 17.7474L50.754 14.9191C51.1544 14.6874 51.6665 14.8256 51.8981 15.226C52.1298 15.6265 51.9916 16.1386 51.5912 16.3702L46.6921 19.1986C46.5595 19.274 46.4158 19.3102 46.2735 19.3102Z" fill="#C89D6C"/>
<path d="M39.3945 12.6111C39.2522 12.6111 39.1085 12.5749 38.9773 12.4995C38.5769 12.2679 38.4401 11.7558 38.6703 11.3553L41.4987 6.45626C41.7303 6.0558 42.2424 5.91905 42.6429 6.14929C43.0434 6.38092 43.1801 6.89301 42.9499 7.29347L40.1215 12.1925C39.9652 12.4604 39.6848 12.6111 39.3945 12.6111Z" fill="#C89D6C"/>
<path d="M30.0892 10.2488C29.6273 10.2488 29.252 9.87348 29.252 9.41162V3.75487C29.252 3.29301 29.6273 2.91766 30.0892 2.91766C30.551 2.91766 30.9264 3.29301 30.9264 3.75487V9.41162C30.9264 9.87348 30.5524 10.2488 30.0892 10.2488Z" fill="#C89D6C"/>
<path d="M20.8519 12.8554C20.563 12.8554 20.2812 12.7047 20.1263 12.4368L17.2979 7.53769C17.0663 7.13722 17.2044 6.62513 17.6049 6.3935C18.0054 6.16187 18.5175 6.30001 18.7491 6.70048L21.5775 11.5995C21.8091 12 21.6709 12.5121 21.2705 12.7437C21.1365 12.8191 20.9928 12.8554 20.8519 12.8554Z" fill="#C89D6C"/>
<path d="M14.1491 19.7331C14.0067 19.7331 13.863 19.6968 13.7319 19.6214L8.83279 16.7931C8.43233 16.5614 8.29558 16.0494 8.52581 15.6489C8.75744 15.2484 9.26814 15.1117 9.67 15.3419L14.5691 18.1703C14.9695 18.4019 15.1063 18.914 14.876 19.3145C14.7198 19.5824 14.4379 19.7331 14.1491 19.7331Z" fill="#C89D6C"/>
<path d="M21.9806 26.499H20.1694C18.2829 26.499 16.748 24.9642 16.748 23.0776V21.7381C16.748 19.8516 18.2829 18.3167 20.1694 18.3167C22.056 18.3167 23.5908 19.8516 23.5908 21.7381V24.8888C23.5908 25.7776 22.868 26.499 21.9806 26.499ZM20.168 19.9911C19.2039 19.9911 18.4211 20.7753 18.4211 21.7381V23.0776C18.4211 24.0418 19.2053 24.8246 20.168 24.8246H21.915V21.7381C21.9164 20.7753 21.1322 19.9911 20.168 19.9911Z" fill="#232323"/>
<path d="M20.1581 56.9149H14.2083C13.9209 56.9149 13.6544 56.7684 13.5009 56.5256C13.1925 56.0386 13.1116 55.4944 13.2651 54.9488C13.5539 53.926 14.6214 53.1488 15.2841 52.7526L14.9451 40.5014C14.9325 40.0395 15.2967 39.6544 15.7586 39.6419C16.2246 39.6293 16.6055 39.9935 16.6181 40.4553L16.9711 53.2186C16.9795 53.5465 16.7967 53.8493 16.5023 53.993C15.9902 54.2456 15.2074 54.7856 14.9465 55.2405H19.3195L19.3223 44.326C19.3223 43.8642 19.6976 43.4888 20.1595 43.4888C20.6214 43.4888 20.9967 43.8642 20.9967 44.326L20.9939 56.0777C20.9953 56.5409 20.6214 56.9149 20.1581 56.9149Z" fill="#232323"/>
<path d="M26.114 56.9149H20.1642C19.7024 56.9149 19.327 56.5396 19.327 56.0777L19.3242 44.3261C19.3242 43.8642 19.6996 43.4889 20.1614 43.4889C20.6233 43.4889 20.9986 43.8642 20.9986 44.3261L21.0014 55.2405H25.3745C25.1135 54.7856 24.3307 54.2456 23.8172 53.9917C23.5242 53.8466 23.3414 53.5438 23.3498 53.2172L23.7028 40.454C23.7154 39.9991 24.0879 39.6405 24.54 39.6405C24.5484 39.6405 24.5554 39.6405 24.5638 39.6405C25.0256 39.6531 25.3898 40.0382 25.3772 40.5L25.0382 52.7512C25.701 53.1475 26.7684 53.9247 27.0572 54.9475C27.2107 55.4931 27.1298 56.0372 26.8214 56.5242C26.6679 56.7684 26.4014 56.9149 26.114 56.9149Z" fill="#232323"/>
<path d="M24.5406 41.3163H15.7848C15.3229 41.3163 14.9475 40.9423 14.9475 40.4791L14.9434 32.8228C14.9434 32.3609 15.3173 31.9856 15.7806 31.9856C16.2424 31.9856 16.6178 32.3595 16.6178 32.8228L16.622 39.6419H23.7048V32.8228C23.7048 32.3609 24.0801 31.9856 24.542 31.9856C25.0038 31.9856 25.3792 32.3609 25.3792 32.8228V40.4791C25.3778 40.9409 25.0038 41.3163 24.5406 41.3163Z" fill="#232323"/>
<path d="M13.1152 43.8921C12.931 43.8921 12.804 43.8795 12.7635 43.8739C12.3421 43.8237 12.0254 43.4665 12.0254 43.0423V32.5465C12.0254 30.0558 13.8798 27.9614 16.3412 27.6739C17.6026 27.5274 18.8849 27.4521 20.1519 27.4521C20.1561 27.4521 20.1617 27.4521 20.1659 27.4521C20.6277 27.4521 21.0031 27.8274 21.0031 28.2893C21.0031 28.7512 20.6277 29.1265 20.1659 29.1265C20.1617 29.1251 20.1561 29.1265 20.1519 29.1265C18.9505 29.1265 17.7338 29.1977 16.5352 29.3372C14.9193 29.5256 13.7012 30.9056 13.7012 32.5465V42.1423C13.9356 42.0823 14.1882 41.9763 14.3975 41.7865C14.7617 41.4572 14.9459 40.913 14.9459 40.1679V32.82C14.9459 32.3581 15.3212 31.9828 15.7831 31.9828C16.2449 31.9828 16.6203 32.3581 16.6203 32.82V40.1679C16.6203 41.4181 16.2435 42.3865 15.5012 43.0451C14.6724 43.7832 13.6496 43.8921 13.1152 43.8921Z" fill="#232323"/>
<path d="M27.2121 43.8921C26.6763 43.8921 25.6549 43.7819 24.8275 43.0479C24.0851 42.3879 23.7084 41.4195 23.7084 40.1707V32.8228C23.7084 32.3609 24.0838 31.9856 24.5456 31.9856C25.0075 31.9856 25.3828 32.3609 25.3828 32.8228V40.1707C25.3828 40.9158 25.567 41.4614 25.9312 41.7893C26.1405 41.9777 26.3931 42.0851 26.6275 42.1451V32.5493C26.6275 30.9084 25.4093 29.5284 23.7921 29.34C22.5949 29.2005 21.3782 29.1293 20.1754 29.1293C20.1712 29.1293 20.167 29.1293 20.1614 29.1293C19.6996 29.1293 19.3242 28.7554 19.3242 28.2921C19.3242 27.8302 19.6982 27.4549 20.1614 27.4549C20.1656 27.4549 20.1712 27.4549 20.1754 27.4549C21.4424 27.4549 22.7233 27.5289 23.9861 27.6768C26.4461 27.9628 28.3019 30.0586 28.3019 32.5493V43.0451C28.3019 43.4693 27.9851 43.8265 27.5638 43.8768C27.5219 43.8795 27.3963 43.8921 27.2121 43.8921Z" fill="#232323"/>
<path d="M32.9882 44.0609C32.804 44.0609 32.677 44.0484 32.6366 44.0428C32.2152 43.9925 31.8984 43.6353 31.8984 43.2111V32.7153C31.8984 30.2246 33.7543 28.1302 36.2143 27.8428C37.4756 27.6963 38.758 27.6209 40.0249 27.6209C40.0291 27.6209 40.0347 27.6209 40.0389 27.6209C40.5008 27.6209 40.8761 27.9963 40.8761 28.4581C40.8761 28.92 40.5008 29.2953 40.0389 29.2953C40.0319 29.2939 40.0291 29.2953 40.0249 29.2953C38.8236 29.2953 37.6068 29.3665 36.4082 29.506C34.7924 29.6944 33.5729 31.0744 33.5729 32.7153V42.3125C33.8073 42.2525 34.0598 42.1465 34.2705 41.9567C34.6347 41.6274 34.8189 41.0832 34.8189 40.3381V32.9902C34.8189 32.5284 35.1943 32.153 35.6561 32.153C36.118 32.153 36.4933 32.5284 36.4933 32.9902V40.3381C36.4933 41.5884 36.1166 42.5567 35.3742 43.2153C34.5454 43.9507 33.524 44.0609 32.9882 44.0609Z" fill="#232323"/>
<path d="M47.0857 44.0609C46.5499 44.0609 45.5285 43.9507 44.7011 43.2167C43.9588 42.5567 43.582 41.5884 43.582 40.3395V32.9916C43.582 32.5298 43.9574 32.1544 44.4192 32.1544C44.8811 32.1544 45.2564 32.5298 45.2564 32.9916V40.3395C45.2564 41.0847 45.4406 41.6302 45.8048 41.9581C46.0141 42.1465 46.2667 42.254 46.5025 42.314V32.7181C46.5025 31.0772 45.2843 29.6972 43.6671 29.5088C42.4699 29.3693 41.2532 29.2981 40.0504 29.2981C40.0462 29.2981 40.0448 29.2995 40.0364 29.2981C39.5746 29.2981 39.1992 28.9242 39.1992 28.4609C39.1992 27.9991 39.5732 27.6237 40.0364 27.6237C40.0406 27.6237 40.0462 27.6237 40.0504 27.6237C41.3174 27.6237 42.5983 27.6977 43.8611 27.8456C46.3211 28.1316 48.1769 30.2274 48.1769 32.7181V43.214C48.1769 43.6381 47.8601 43.9953 47.4388 44.0456C47.3969 44.047 47.2699 44.0609 47.0857 44.0609Z" fill="#232323"/>
<path d="M41.5363 26.5888C41.4847 26.5888 41.433 26.586 41.3814 26.5804C41.3716 26.579 41.3605 26.5776 41.3507 26.5762L39.3051 26.2915C39.2926 26.2902 39.28 26.2874 39.2688 26.286C39.146 26.2636 36.2716 25.6804 36.407 21.1469C36.4781 18.7664 38.4637 18.066 39.5465 18.0227C39.8716 17.9836 41.2042 17.8943 42.2423 18.8585C43.1912 19.739 43.5791 21.1748 43.3977 23.1269C43.3126 24.1092 43.1702 24.9618 42.9944 25.5199C42.7963 26.159 42.1963 26.5888 41.5363 26.5888ZM39.5758 24.6395L41.4344 24.8976C41.5558 24.4525 41.666 23.7492 41.7316 22.9776C41.86 21.5948 41.6479 20.5999 41.1163 20.0962C40.5623 19.5716 39.7558 19.6832 39.7474 19.6846C39.7028 19.6916 39.6805 19.6943 39.6358 19.6943C39.3888 19.7041 38.1233 19.8241 38.0828 21.1957C37.9949 24.1022 39.3986 24.5906 39.5758 24.6395Z" fill="#232323"/>
<path d="M33.218 26.2218C32.7156 26.2218 32.2133 26.1269 31.7319 25.9371L31.4263 25.8171C30.9966 25.6469 30.7859 25.1613 30.9547 24.7315L32.4924 20.8315C32.8063 20.0348 33.4133 19.4069 34.1989 19.065C34.9845 18.7232 35.8566 18.7092 36.6547 19.0232L37.7389 19.4502C38.1687 19.6204 38.3808 20.106 38.2105 20.5357L36.9798 23.6571C36.5836 24.6632 35.8189 25.4529 34.8282 25.8841C34.3119 26.1088 33.765 26.2218 33.218 26.2218ZM32.8412 24.5153C33.285 24.5878 33.7412 24.532 34.1626 24.3478C34.7445 24.0953 35.1924 23.632 35.424 23.0418L36.3477 20.699L36.0422 20.579C35.6612 20.4283 35.244 20.4353 34.8673 20.5985C34.4919 20.7618 34.2017 21.0618 34.051 21.4427L32.8412 24.5153Z" fill="#232323"/>
<path d="M40.0337 57.0824H34.0839C33.7965 57.0824 33.53 56.9358 33.3765 56.693C33.0681 56.2061 32.9858 55.6605 33.1407 55.1163C33.4295 54.0935 34.497 53.3163 35.1598 52.92L34.9909 46.8419C34.9784 46.38 35.3426 45.9949 35.8044 45.9824C35.8128 45.9824 35.8198 45.9824 35.8281 45.9824C36.2802 45.9824 36.6514 46.3424 36.6653 46.7958L36.8481 53.3847C36.8565 53.7126 36.6737 54.0154 36.3793 54.1591C35.8672 54.4117 35.0844 54.9517 34.8235 55.4065H39.1965L39.1979 46.8182C39.1979 46.3563 39.5733 45.981 40.0351 45.981C40.497 45.981 40.8723 46.3563 40.8723 46.8182L40.8709 56.2437C40.8709 56.7084 40.4956 57.0824 40.0337 57.0824Z" fill="#232323"/>
<path d="M45.9895 57.0824H40.0398C39.5779 57.0824 39.2026 56.707 39.2026 56.2452L39.2012 46.8196C39.2012 46.3577 39.5765 45.9824 40.0384 45.9824C40.5002 45.9824 40.8756 46.3577 40.8756 46.8196L40.877 55.408H45.25C44.9891 54.9531 44.2063 54.4131 43.6928 54.1591C43.3998 54.014 43.217 53.7112 43.2254 53.3847L43.4081 46.7959C43.4207 46.334 43.8072 45.9698 44.2677 45.9824C44.7295 45.9949 45.0937 46.38 45.0812 46.8419L44.9123 52.92C45.5751 53.3163 46.6426 54.0921 46.9314 55.1163C47.0849 55.6619 47.004 56.2075 46.6956 56.6931C46.5435 56.9359 46.277 57.0824 45.9895 57.0824Z" fill="#232323"/>
<path d="M44.4173 39.7074C43.9554 39.7074 43.5801 39.3321 43.5801 38.8702V32.9902C43.5801 32.5284 43.9554 32.153 44.4173 32.153C44.8791 32.153 45.2545 32.5284 45.2545 32.9902V38.8702C45.2545 39.3335 44.8791 39.7074 44.4173 39.7074Z" fill="#232323"/>
<path d="M35.6584 39.7019C35.1965 39.7019 34.8211 39.3279 34.8211 38.8646L34.8184 32.9902C34.8184 32.5284 35.1923 32.153 35.6556 32.153C36.1174 32.153 36.4928 32.527 36.4928 32.9902L36.4956 38.8646C36.4956 39.3279 36.1216 39.7019 35.6584 39.7019Z" fill="#232323"/>
<path d="M46.3475 47.6568H33.7224C33.4656 47.6568 33.2229 47.5396 33.0638 47.3372C32.9047 47.1349 32.8475 46.8712 32.9089 46.6214L34.8429 38.6665C34.9336 38.2912 35.2698 38.0275 35.6563 38.0275H44.4136C44.8001 38.0275 45.1363 38.2912 45.227 38.6665L47.161 46.6214C47.221 46.8712 47.1638 47.1349 47.0061 47.3372C46.847 47.5396 46.6056 47.6568 46.3475 47.6568ZM34.7884 45.9824H45.2829L43.7563 39.7019H36.3149L34.7884 45.9824Z" fill="#232323"/>
</svg>
