<svg width="61" height="60" viewBox="0 0 61 60" fill="none" xmlns="http://www.w3.org/2000/svg">
<path d="M41.0424 37.2488C40.9126 37.2488 40.7801 37.2181 40.6573 37.154C40.2471 36.9405 40.088 36.4354 40.3015 36.0251C42.4978 31.8042 41.7108 26.7056 38.3424 23.3386C36.2926 21.2874 33.5661 20.1586 30.6666 20.1586C27.7671 20.1586 25.0406 21.2874 22.9908 23.3386C19.6224 26.7056 18.8354 31.8042 21.0317 36.0251C21.2452 36.4354 21.0861 36.9405 20.6759 37.154C20.2657 37.3674 19.7606 37.2084 19.5471 36.7981C17.0117 31.9256 17.9201 26.04 21.8075 22.1554C24.174 19.7888 27.3206 18.4842 30.668 18.4842C34.0154 18.4842 37.162 19.7874 39.5285 22.1554C43.4159 26.0414 44.3243 31.9256 41.7889 36.7981C41.6354 37.0842 41.3438 37.2488 41.0424 37.2488Z" fill="#C89D6C"/>
<path d="M52.437 31.8516H47.2044C46.7425 31.8516 46.3672 31.4763 46.3672 31.0144C46.3672 30.5525 46.7425 30.1772 47.2044 30.1772H52.437C52.8988 30.1772 53.2742 30.5525 53.2742 31.0144C53.2742 31.4763 52.8988 31.8516 52.437 31.8516Z" fill="#C89D6C"/>
<path d="M42.3599 20.1586C42.1451 20.1586 41.9316 20.0763 41.7683 19.913C41.4418 19.5865 41.4418 19.0563 41.7683 18.7284L45.4688 15.0279C45.7953 14.7014 46.3255 14.7014 46.652 15.0279C46.9786 15.3544 46.9786 15.8846 46.652 16.2126L42.9516 19.913C42.7897 20.0763 42.5748 20.1586 42.3599 20.1586Z" fill="#C89D6C"/>
<path d="M30.6653 15.3154C30.2035 15.3154 29.8281 14.94 29.8281 14.4782V9.2456C29.8281 8.78374 30.2035 8.40839 30.6653 8.40839C31.1272 8.40839 31.5025 8.78374 31.5025 9.2456V14.4782C31.5025 14.94 31.1272 15.3154 30.6653 15.3154Z" fill="#C89D6C"/>
<path d="M18.9725 20.1586C18.7576 20.1586 18.5442 20.0763 18.3809 19.913L14.6804 16.2126C14.3539 15.886 14.3539 15.3558 14.6804 15.0279C15.0069 14.7014 15.5372 14.7014 15.8637 15.0279L19.5642 18.7284C19.8907 19.0549 19.8907 19.5851 19.5642 19.913C19.4009 20.0763 19.186 20.1586 18.9725 20.1586Z" fill="#C89D6C"/>
<path d="M14.1284 31.8516H8.8958C8.43394 31.8516 8.05859 31.4763 8.05859 31.0144C8.05859 30.5525 8.43394 30.1772 8.8958 30.1772H14.1284C14.5902 30.1772 14.9656 30.5525 14.9656 31.0144C14.9656 31.4763 14.5916 31.8516 14.1284 31.8516Z" fill="#C89D6C"/>
<path d="M56.732 44.6442C54.3347 44.6442 53.0775 43.9172 51.9682 43.2753C50.9064 42.6614 49.991 42.1325 48.0431 42.1325C46.0952 42.1325 45.1799 42.6628 44.118 43.2753C43.0087 43.9172 41.7515 44.6442 39.3543 44.6442C36.9571 44.6442 35.6999 43.9172 34.5906 43.2753C33.5287 42.6614 32.6133 42.1325 30.6654 42.1325C28.7175 42.1325 27.8008 42.6628 26.7403 43.2753C25.631 43.9172 24.3738 44.6442 21.9766 44.6442C19.5794 44.6442 18.3222 43.9172 17.2129 43.2753C16.151 42.6614 15.2357 42.1325 13.2878 42.1325C11.3399 42.1325 10.4231 42.6628 9.36265 43.2753C8.25335 43.9172 6.99614 44.6442 4.59893 44.6442C4.13707 44.6442 3.76172 44.2688 3.76172 43.807C3.76172 43.3451 4.13707 42.9698 4.59893 42.9698C6.54684 42.9698 7.46358 42.4395 8.52404 41.827C9.63335 41.1851 10.8906 40.4581 13.2878 40.4581C15.685 40.4581 16.9422 41.1851 18.0515 41.827C19.1133 42.4409 20.0287 42.9698 21.9766 42.9698C23.9245 42.9698 24.8413 42.4395 25.9017 41.827C27.011 41.1851 28.2682 40.4581 30.6654 40.4581C33.0627 40.4581 34.3199 41.1851 35.4292 41.827C36.491 42.4409 37.4064 42.9698 39.3543 42.9698C41.3022 42.9698 42.2175 42.4395 43.2794 41.827C44.3887 41.1851 45.6459 40.4581 48.0417 40.4581C50.4389 40.4581 51.6961 41.1851 52.8054 41.827C53.8673 42.4409 54.7826 42.9698 56.7306 42.9698C57.1924 42.9698 57.5678 43.3451 57.5678 43.807C57.5678 44.2688 57.1938 44.6442 56.732 44.6442Z" fill="#232323"/>
<path d="M56.732 51.593C54.3347 51.593 53.0775 50.8661 51.9682 50.2242C50.9064 49.6102 49.991 49.0814 48.0431 49.0814C46.0952 49.0814 45.1799 49.6116 44.118 50.2242C43.0087 50.8661 41.7515 51.593 39.3543 51.593C36.9571 51.593 35.6999 50.8661 34.5906 50.2242C33.5287 49.6102 32.6133 49.0814 30.6654 49.0814C28.7175 49.0814 27.8008 49.6116 26.7403 50.2242C25.631 50.8661 24.3738 51.593 21.9766 51.593C19.5794 51.593 18.3222 50.8661 17.2129 50.2242C16.151 49.6102 15.2357 49.0814 13.2878 49.0814C11.3399 49.0814 10.4231 49.6116 9.36265 50.2242C8.25335 50.8661 6.99614 51.593 4.59893 51.593C4.13707 51.593 3.76172 51.2177 3.76172 50.7558C3.76172 50.294 4.13707 49.9186 4.59893 49.9186C6.54684 49.9186 7.46358 49.3884 8.52404 48.7758C9.63335 48.134 10.8906 47.407 13.2878 47.407C15.685 47.407 16.9422 48.134 18.0515 48.7758C19.1133 49.3898 20.0287 49.9186 21.9766 49.9186C23.9245 49.9186 24.8413 49.3884 25.9017 48.7758C27.011 48.134 28.2682 47.407 30.6654 47.407C33.0627 47.407 34.3199 48.134 35.4292 48.7758C36.491 49.3898 37.4064 49.9186 39.3543 49.9186C41.3022 49.9186 42.2175 49.3884 43.2794 48.7758C44.3887 48.134 45.6459 47.407 48.0417 47.407C50.4389 47.407 51.6961 48.134 52.8054 48.7758C53.8673 49.3898 54.7826 49.9186 56.7306 49.9186C57.1924 49.9186 57.5678 50.294 57.5678 50.7558C57.5678 51.2177 57.1938 51.593 56.732 51.593Z" fill="#232323"/>
<path d="M56.7315 37.2488H5.31573C4.85386 37.2488 4.47852 36.8735 4.47852 36.4116C4.47852 35.9498 4.85386 35.5744 5.31573 35.5744H56.7301C57.192 35.5744 57.5673 35.9498 57.5673 36.4116C57.5673 36.8735 57.1934 37.2488 56.7315 37.2488Z" fill="#232323"/>
</svg>
