<svg width="61" height="60" viewBox="0 0 61 60" fill="none" xmlns="http://www.w3.org/2000/svg">
<path d="M45.7637 49.7442H30.2195C29.759 49.7442 29.3823 49.3674 29.3823 48.907C29.3823 48.4465 29.759 48.0698 30.2195 48.0698H45.7776C46.6288 48.0698 47.3265 47.3721 47.3265 46.5209V12.5163H21.9869V39.0279C21.9869 39.4884 21.6102 39.8651 21.1497 39.8651C20.6892 39.8651 20.3125 39.4884 20.3125 39.0279V11.6791C20.3125 11.2186 20.6892 10.8419 21.1497 10.8419H48.1497C48.6102 10.8419 48.9869 11.2186 48.9869 11.6791V46.5349C48.9869 48.307 47.5497 49.7442 45.7637 49.7442Z" fill="#232323"/>
<path d="M33.3309 45.6977C33.3309 44.4837 32.6193 43.4372 31.6007 42.9488C31.9216 42.4605 32.117 41.8744 32.117 41.2605C32.117 39.5721 30.7495 38.2047 29.0611 38.2047H16.1263C14.4379 38.2047 13.0704 39.5721 13.0704 41.2605C13.0704 42.4744 13.7821 43.5209 14.8007 44.0093C14.4797 44.4977 14.2844 45.0837 14.2844 45.6977C14.2844 46.2419 14.4239 46.7442 14.6751 47.1907C13.3635 47.5256 12.3867 48.7256 12.3867 50.1488C12.3867 51.8372 13.7542 53.2047 15.4425 53.2047H28.3635C30.0518 53.2047 31.4193 51.8372 31.4193 50.1488C31.4193 49.6047 31.2797 49.1023 31.0286 48.6558C32.3542 48.3209 33.3309 47.1209 33.3309 45.6977ZM16.1263 39.8651H29.0472C29.8146 39.8651 30.4286 40.493 30.4286 41.2465C30.4286 42 29.8007 42.6279 29.0472 42.6279H17.3402H16.1263C15.3588 42.6279 14.7449 42 14.7449 41.2465C14.7449 40.493 15.3728 39.8651 16.1263 39.8651ZM28.3635 51.5302H15.4425C14.6751 51.5302 14.0611 50.9023 14.0611 50.1488C14.0611 49.3953 14.689 48.7674 15.4425 48.7674H17.3402H28.3635C29.1309 48.7674 29.7449 49.3953 29.7449 50.1488C29.7449 50.9023 29.1309 51.5302 28.3635 51.5302ZM30.2611 47.093H28.3635H17.3402C16.5728 47.093 15.9588 46.4651 15.9588 45.7116C15.9588 44.9581 16.5867 44.3302 17.3402 44.3302H29.0472H30.2611C31.0286 44.3302 31.6425 44.9581 31.6425 45.7116C31.6425 46.4651 31.0286 47.093 30.2611 47.093Z" fill="#C89D6C"/>
<path d="M25.7122 14.8326C25.2517 14.8326 24.875 14.4558 24.875 13.9954V7.67443C24.875 7.21396 25.2517 6.83722 25.7122 6.83722C26.1727 6.83722 26.5494 7.21396 26.5494 7.67443V13.9954C26.5494 14.4558 26.1866 14.8326 25.7122 14.8326Z" fill="#C89D6C"/>
<path d="M43.5872 14.8326C43.1267 14.8326 42.75 14.4558 42.75 13.9954V7.67443C42.75 7.21396 43.1267 6.83722 43.5872 6.83722C44.0477 6.83722 44.4244 7.21396 44.4244 7.67443V13.9954C44.4244 14.4558 44.0616 14.8326 43.5872 14.8326Z" fill="#C89D6C"/>
<path d="M34.6575 14.8326C34.1971 14.8326 33.8203 14.4558 33.8203 13.9954V7.67443C33.8203 7.21396 34.1971 6.83722 34.6575 6.83722C35.118 6.83722 35.4947 7.21396 35.4947 7.67443V13.9954C35.4947 14.4558 35.118 14.8326 34.6575 14.8326Z" fill="#C89D6C"/>
<path d="M42.9594 23.8186H26.3548C25.8943 23.8186 25.5176 23.4419 25.5176 22.9814C25.5176 22.5209 25.8943 22.1442 26.3548 22.1442H42.9594C43.4199 22.1442 43.7966 22.5209 43.7966 22.9814C43.7966 23.4419 43.4199 23.8186 42.9594 23.8186Z" fill="#232323"/>
<path d="M42.9594 29.4558H26.3548C25.8943 29.4558 25.5176 29.0791 25.5176 28.6186C25.5176 28.1581 25.8943 27.7814 26.3548 27.7814H42.9594C43.4199 27.7814 43.7966 28.1581 43.7966 28.6186C43.7966 29.0791 43.4199 29.4558 42.9594 29.4558Z" fill="#232323"/>
<path d="M34.8943 35.093H26.3548C25.8943 35.093 25.5176 34.7163 25.5176 34.2558C25.5176 33.7954 25.8943 33.4186 26.3548 33.4186H34.8943C35.3548 33.4186 35.7315 33.7954 35.7315 34.2558C35.7315 34.7163 35.3548 35.093 34.8943 35.093Z" fill="#232323"/>
<path d="M42.96 35.093H38.4251C37.9646 35.093 37.5879 34.7163 37.5879 34.2558C37.5879 33.7954 37.9646 33.4186 38.4251 33.4186H42.96C43.4204 33.4186 43.7972 33.7954 43.7972 34.2558C43.7972 34.7163 43.4204 35.093 42.96 35.093Z" fill="#232323"/>
</svg>
