<svg width="61" height="60" viewBox="0 0 61 60" fill="none" xmlns="http://www.w3.org/2000/svg">
<path d="M53.0178 53.407H7.64943C7.34524 53.407 7.06338 53.2479 6.90571 52.9884C6.74803 52.7288 6.73687 52.4051 6.8778 52.1358L13.4178 39.5819C13.5671 39.2944 13.8643 39.1144 14.1894 39.1144H21.8429C22.3229 39.1144 22.7122 39.5037 22.7122 39.9837C22.7122 40.4637 22.3229 40.853 21.8429 40.853H14.7169L9.08245 51.6684H51.582L45.9476 40.853H38.7978C38.3178 40.853 37.9285 40.4637 37.9285 39.9837C37.9285 39.5037 38.3178 39.1144 38.7978 39.1144H46.475C46.7987 39.1144 47.0959 39.2944 47.2466 39.5819L53.788 52.1358C53.929 52.4051 53.9178 52.7288 53.7601 52.9884C53.6025 53.2479 53.3206 53.407 53.0178 53.407Z" fill="#232323"/>
<path d="M30.3888 48.0656C30.0776 48.0656 29.7902 47.8995 29.6339 47.6288L18.1892 27.6949C17.6674 26.7851 17.2837 25.9521 17.0144 25.1498C16.5358 23.7153 16.293 22.214 16.293 20.6847C16.293 16.8056 17.9172 13.0591 20.7469 10.4051C23.6186 7.71209 27.372 6.36976 31.3209 6.62372C38.299 7.07302 43.9404 12.6726 44.4427 19.6479C44.5697 21.4158 44.373 23.1614 43.8581 24.8344C43.5706 25.7693 43.1506 26.7126 42.573 27.72L31.1423 47.6302C30.9888 47.8995 30.7013 48.0656 30.3888 48.0656ZM19.699 26.8284L30.3902 45.4493L41.066 26.8535C41.5781 25.9605 41.9492 25.1316 42.1976 24.3223C42.6483 22.8558 42.8213 21.3237 42.7097 19.7721C42.2688 13.6591 37.3265 8.75302 31.2106 8.35953C27.7488 8.13628 24.4558 9.31395 21.9386 11.6735C19.4213 14.0344 18.0344 17.2353 18.0344 20.6847C18.0344 22.0256 18.2465 23.3414 18.6665 24.5972C18.8967 25.2907 19.2344 26.0205 19.699 26.8284Z" fill="#C89D6C"/>
<path d="M30.3875 27.7772C26.4777 27.7772 23.2949 24.5958 23.2949 20.686C23.2949 16.7763 26.4763 13.5935 30.3875 13.5935C34.2986 13.5935 37.4786 16.7749 37.4786 20.686C37.4786 24.5972 34.2986 27.7772 30.3875 27.7772ZM30.3875 15.3335C27.4363 15.3335 25.0349 17.7349 25.0349 20.686C25.0349 23.6372 27.4363 26.0386 30.3875 26.0386C33.3386 26.0386 35.74 23.6372 35.74 20.686C35.74 17.7349 33.34 15.3335 30.3875 15.3335Z" fill="#232323"/>
</svg>
