<svg width="60" height="60" viewBox="0 0 60 60" fill="none" xmlns="http://www.w3.org/2000/svg">
<path d="M52.1968 50.2647H7.80513C7.3056 50.2647 6.90234 49.86 6.90234 49.3605V10.6395C6.90234 10.14 7.307 9.73535 7.80513 9.73535C8.30327 9.73535 8.70793 10.14 8.70793 10.6395V48.4563H52.1968C52.6963 48.4563 53.0996 48.8609 53.0996 49.3605C53.0996 49.86 52.6963 50.2647 52.1968 50.2647Z" fill="#232323"/>
<path d="M15.7372 41.813C13.9581 41.813 12.5098 40.3661 12.5098 38.5856C12.5098 36.8065 13.9567 35.3581 15.7372 35.3581C17.5177 35.3581 18.9646 36.8051 18.9646 38.5856C18.9633 40.3647 17.5163 41.813 15.7372 41.813ZM15.7372 37.1665C14.9544 37.1665 14.3167 37.8028 14.3167 38.5856C14.3167 39.3684 14.9544 40.006 15.7372 40.006C16.52 40.006 17.1577 39.3698 17.1577 38.5856C17.1563 37.8028 16.52 37.1665 15.7372 37.1665ZM35.8051 33.6809C34.026 33.6809 32.5777 32.234 32.5777 30.4535C32.5777 28.6744 34.0247 27.226 35.8051 27.226C37.5856 27.226 39.0312 28.673 39.0312 30.4535C39.0312 32.234 37.5842 33.6809 35.8051 33.6809ZM35.8051 29.0344C35.0223 29.0344 34.3846 29.6707 34.3846 30.4535C34.3846 31.2363 35.0223 31.874 35.8051 31.874C36.5879 31.874 37.2242 31.2377 37.2242 30.4535C37.2242 29.6721 36.5879 29.0344 35.8051 29.0344ZM28.9637 27.8051C27.1846 27.8051 25.7363 26.3581 25.7363 24.5777C25.7363 22.7972 27.1833 21.3502 28.9637 21.3502C30.7442 21.3502 32.1912 22.7972 32.1912 24.5777C32.1912 26.3581 30.7428 27.8051 28.9637 27.8051ZM28.9637 23.16C28.1809 23.16 27.5433 23.7963 27.5433 24.5791C27.5433 25.3619 28.1809 25.9981 28.9637 25.9981C29.7465 25.9981 30.3842 25.3619 30.3842 24.5791C30.3842 23.7963 29.7465 23.16 28.9637 23.16ZM48.7121 19.8042C46.933 19.8042 45.4846 18.3572 45.4846 16.5767C45.4846 14.7977 46.9316 13.3493 48.7121 13.3493C50.4926 13.3493 51.9381 14.7963 51.9381 16.5767C51.9381 18.3558 50.4912 19.8042 48.7121 19.8042ZM48.7121 15.1577C47.9293 15.1577 47.2916 15.794 47.2916 16.5767C47.2916 17.3595 47.9293 17.9972 48.7121 17.9972C49.4949 17.9972 50.1312 17.3609 50.1312 16.5767C50.1312 15.794 49.4949 15.1577 48.7121 15.1577Z" fill="#C89D6C"/>
<path d="M26.4933 25.1929L16.4258 36.099L17.7535 37.3247L27.8211 26.4185L26.4933 25.1929Z" fill="#C89D6C"/>
<path d="M31.6368 25.1995L30.2949 26.4098L33.2632 29.7007L34.6051 28.4904L31.6368 25.1995Z" fill="#C89D6C"/>
<path d="M46.5196 17.8776L36.582 27.9453L37.8681 29.2147L47.8057 19.147L46.5196 17.8776Z" fill="#C89D6C"/>
</svg>
