<svg width="24" height="25" viewBox="0 0 24 25" fill="none" xmlns="http://www.w3.org/2000/svg">
<g clip-path="url(#clip0_2521_670)">
<path d="M20.25 18.4146H3.75C3.34 18.4146 3 18.0746 3 17.6646C3 17.2546 3.34 16.9146 3.75 16.9146H20.25C20.66 16.9146 21 17.2546 21 17.6646C21 18.0746 20.66 18.4146 20.25 18.4146Z" fill="#C89D6C"/>
<path d="M12 12.4146C10.35 12.4146 9 11.0646 9 9.41455C9 7.76455 10.35 6.41455 12 6.41455C13.65 6.41455 15 7.76455 15 9.41455C15 11.0646 13.65 12.4146 12 12.4146ZM12 7.91455C11.17 7.91455 10.5 8.58455 10.5 9.41455C10.5 10.2446 11.17 10.9146 12 10.9146C12.83 10.9146 13.5 10.2446 13.5 9.41455C13.5 8.58455 12.83 7.91455 12 7.91455Z" fill="#C89D6C"/>
<path d="M20.25 3.41455H3.75C3.34 3.41455 3 3.75455 3 4.16455V14.6646C3 15.0746 3.34 15.4146 3.75 15.4146H20.25C20.66 15.4146 21 15.0746 21 14.6646V4.16455C21 3.75455 20.66 3.41455 20.25 3.41455ZM18.08 13.9146H5.93C5.73 13.2246 5.19 12.6846 4.5 12.4946V6.28455C5.14 6.05455 5.64 5.55455 5.87 4.91455H18.08C18.27 5.60455 18.81 6.14455 19.5 6.34455V12.4946C18.81 12.6846 18.27 13.2246 18.08 13.9146Z" fill="#C89D6C"/>
<path d="M20.25 21.4146H3.75C3.34 21.4146 3 21.0746 3 20.6646C3 20.2546 3.34 19.9146 3.75 19.9146H20.25C20.66 19.9146 21 20.2546 21 20.6646C21 21.0746 20.66 21.4146 20.25 21.4146Z" fill="#C89D6C"/>
</g>
<defs>
<clipPath id="clip0_2521_670">
<rect width="24" height="24" fill="white" transform="translate(0 0.414551)"/>
</clipPath>
</defs>
</svg>
