<svg width="24" height="25" viewBox="0 0 24 25" fill="none" xmlns="http://www.w3.org/2000/svg">
<g clip-path="url(#clip0_2521_656)">
<path d="M5.24945 11.4445C5.05945 11.4445 4.86945 11.3745 4.71945 11.2245L2.21945 8.72453C1.92945 8.43453 1.92945 7.95453 2.21945 7.66453C2.50945 7.37453 2.98945 7.37453 3.27945 7.66453L5.24945 9.63453L10.2195 4.67453C10.5095 4.38453 10.9895 4.38453 11.2795 4.67453C11.5695 4.96453 11.5695 5.44453 11.2795 5.73453L5.77945 11.2245C5.62945 11.3645 5.43945 11.4445 5.24945 11.4445Z" fill="#C89D6C"/>
<path d="M5.24945 20.3845C5.05945 20.3845 4.86945 20.3145 4.71945 20.1645L2.21945 17.6645C1.92945 17.3745 1.92945 16.8945 2.21945 16.6045C2.50945 16.3145 2.98945 16.3145 3.27945 16.6045L5.24945 18.5745L10.2195 13.6145C10.5095 13.3245 10.9895 13.3245 11.2795 13.6145C11.5695 13.9045 11.5695 14.3845 11.2795 14.6745L5.77945 20.1645C5.62945 20.3045 5.43945 20.3845 5.24945 20.3845Z" fill="#C89D6C"/>
<path d="M21.25 9.16455H13.75C13.34 9.16455 13 8.82455 13 8.41455C13 8.00455 13.34 7.66455 13.75 7.66455H21.25C21.66 7.66455 22 8.00455 22 8.41455C22 8.82455 21.66 9.16455 21.25 9.16455Z" fill="#C89D6C"/>
<path d="M21.25 18.1646H13.75C13.34 18.1646 13 17.8246 13 17.4146C13 17.0046 13.34 16.6646 13.75 16.6646H21.25C21.66 16.6646 22 17.0046 22 17.4146C22 17.8246 21.66 18.1646 21.25 18.1646Z" fill="#C89D6C"/>
</g>
<defs>
<clipPath id="clip0_2521_656">
<rect width="24" height="24" fill="white" transform="translate(0 0.414551)"/>
</clipPath>
</defs>
</svg>
