<svg width="24" height="25" viewBox="0 0 24 25" fill="none" xmlns="http://www.w3.org/2000/svg">
<g clip-path="url(#clip0_2521_644)">
<path d="M12 2.41455C7.59 2.41455 4 6.00455 4 10.4146C4 10.9946 4.06 11.5346 4.17 12.0346C4.42 13.2946 5 14.4946 5.84 15.5046L6.93 16.8046C6.96 16.8345 6.99 16.8746 7.02 16.9046L11.43 22.1446C11.57 22.3146 11.78 22.4146 12 22.4146C12.22 22.4146 12.43 22.3146 12.57 22.1446L17.06 16.8146L18.17 15.5046C19 14.4946 19.58 13.2945 19.82 12.0646C19.94 11.5346 20 10.9946 20 10.4146C20 6.00455 16.41 2.41455 12 2.41455ZM12 20.5046L8.4 16.2246C8.75 15.4746 9.51 14.9846 10.35 14.9846H13.65C14.49 14.9846 15.25 15.4746 15.6 16.2246L12 20.5046ZM18.35 11.7546C18.16 12.7646 17.69 13.7246 17.02 14.5446L16.62 15.0146C15.94 14.0746 14.85 13.4846 13.65 13.4846H10.35C9.16 13.4846 8.06 14.0746 7.38 15.0046L6.99 14.5446C6.31 13.7246 5.84 12.7646 5.64 11.7246C5.55 11.3146 5.5 10.8846 5.5 10.4146C5.5 6.83455 8.42 3.91455 12 3.91455C15.58 3.91455 18.5 6.83455 18.5 10.4146C18.5 10.8846 18.45 11.3146 18.35 11.7546Z" fill="#C89D6C"/>
<path d="M14 11.9146H12C10.48 11.9146 9.25 10.6846 9.25 9.16455V8.16455C9.25 6.64455 10.48 5.41455 12 5.41455C13.52 5.41455 14.75 6.64455 14.75 8.16455V11.1646C14.75 11.5746 14.41 11.9146 14 11.9146ZM12 6.91455C11.31 6.91455 10.75 7.47455 10.75 8.16455V9.16455C10.75 9.85455 11.31 10.4146 12 10.4146H13.25V8.16455C13.25 7.47455 12.69 6.91455 12 6.91455Z" fill="#C89D6C"/>
</g>
<defs>
<clipPath id="clip0_2521_644">
<rect width="24" height="24" fill="white" transform="translate(0 0.414551)"/>
</clipPath>
</defs>
</svg>
