<svg width="24" height="25" viewBox="0 0 24 25" fill="none" xmlns="http://www.w3.org/2000/svg">
<g clip-path="url(#clip0_2521_631)">
<path d="M15.25 20.4146H2.75C2.34 20.4146 2 20.0746 2 19.6646V11.1646C2 7.44455 5.03 4.41455 8.75 4.41455H15.25C18.97 4.41455 22 7.44455 22 11.1646V13.6646C22 17.3846 18.97 20.4146 15.25 20.4146ZM3.5 18.9146H15.25C18.14 18.9146 20.5 16.5546 20.5 13.6646V11.1646C20.5 8.26455 18.14 5.91455 15.25 5.91455H8.75C5.86 5.91455 3.5 8.26455 3.5 11.1646V18.9146Z" fill="#C89D6C"/>
<path d="M8 13.4145C7.74 13.4145 7.48 13.3045 7.29 13.1245C7.11 12.9345 7 12.6745 7 12.4145C7 12.1445 7.11 11.8945 7.29 11.7045C7.66 11.3345 8.34 11.3345 8.71 11.7045C8.75 11.7545 8.79 11.8045 8.83 11.8545C8.87 11.9145 8.9 11.9745 8.92 12.0345C8.95 12.0945 8.97 12.1545 8.98 12.2145C8.99 12.2845 9 12.3545 9 12.4145C9 12.4745 8.99 12.5445 8.98 12.6145C8.97 12.6745 8.95 12.7345 8.92 12.7945C8.9 12.8545 8.87 12.9145 8.83 12.9645C8.79 13.0245 8.75 13.0745 8.71 13.1245C8.52 13.3045 8.26 13.4145 8 13.4145Z" fill="#C89D6C"/>
<path d="M12 13.4146C11.87 13.4146 11.74 13.3846 11.62 13.3346C11.49 13.2846 11.39 13.2146 11.29 13.1246C11.11 12.9346 11 12.6746 11 12.4146C11 12.2846 11.03 12.1546 11.08 12.0346C11.13 11.9046 11.2 11.8046 11.29 11.7046C11.39 11.6146 11.49 11.5446 11.62 11.4946C11.8 11.4146 12 11.3946 12.19 11.4346C12.26 11.4446 12.32 11.4646 12.38 11.4946C12.44 11.5146 12.5 11.5446 12.55 11.5846C12.61 11.6146 12.66 11.6646 12.71 11.7046C12.8 11.8046 12.87 11.9046 12.92 12.0346C12.97 12.1546 13 12.2846 13 12.4146C13 12.6746 12.89 12.9346 12.71 13.1246C12.66 13.1646 12.61 13.2146 12.55 13.2446C12.5 13.2846 12.44 13.3146 12.38 13.3346C12.32 13.3646 12.26 13.3845 12.19 13.3945C12.13 13.4045 12.06 13.4146 12 13.4146Z" fill="#C89D6C"/>
<path d="M16 13.4146C15.94 13.4146 15.87 13.4046 15.81 13.3946C15.74 13.3846 15.68 13.3646 15.62 13.3346C15.56 13.3146 15.5 13.2846 15.44 13.2446C15.39 13.2046 15.34 13.1646 15.29 13.1246C15.11 12.9346 15 12.6846 15 12.4146C15 12.2846 15.03 12.1546 15.08 12.0346C15.13 11.9146 15.2 11.8046 15.29 11.7046C15.34 11.6646 15.39 11.6246 15.44 11.5846C15.5 11.5446 15.56 11.5146 15.62 11.4946C15.68 11.4646 15.74 11.4446 15.81 11.4346C16.13 11.3746 16.47 11.4746 16.71 11.7046C16.89 11.8946 17 12.1546 17 12.4146C17 12.4746 16.99 12.5446 16.98 12.6146C16.97 12.6746 16.95 12.7346 16.92 12.7946C16.9 12.8546 16.87 12.9146 16.83 12.9746C16.79 13.0246 16.75 13.0746 16.71 13.1246C16.52 13.3046 16.26 13.4146 16 13.4146Z" fill="#C89D6C"/>
</g>
<defs>
<clipPath id="clip0_2521_631">
<rect width="24" height="24" fill="white" transform="translate(0 0.414551)"/>
</clipPath>
</defs>
</svg>
