<svg width="29" height="30" viewBox="0 0 29 30" fill="none" xmlns="http://www.w3.org/2000/svg">
<path d="M24.8476 20.3083L26.6227 18.589C27.0006 18.2229 27.2176 17.7218 27.226 17.1957C27.2344 16.6696 27.0335 16.1618 26.6674 15.7838L21.5214 10.471C20.6007 9.53657 19.3488 9.00272 18.0371 8.98519C16.7254 8.96766 15.4596 9.46785 14.5143 10.3773L13.722 11.1448C13.5813 11.2656 13.448 11.3947 13.3227 11.5315L10.8062 8.93338C10.4117 8.52514 9.87492 8.28473 9.30763 8.26216C8.74033 8.23959 8.18617 8.43661 7.76043 8.81221C7.53873 9.02373 7.36153 9.2774 7.23923 9.55834C7.11693 9.83928 7.05199 10.1418 7.04822 10.4482C7.04446 10.7546 7.10196 11.0586 7.21732 11.3425C7.33269 11.6264 7.50361 11.8843 7.72005 12.1012L14.2225 18.8145" stroke="white" stroke-width="1.71017" stroke-linecap="round" stroke-linejoin="round"/>
<path d="M14.4552 19.0421L12.436 19.0099C11.8696 19.002 11.3218 19.2115 10.9052 19.5951C10.4885 19.9788 10.2347 20.5075 10.1958 21.0725C10.1869 21.3784 10.2393 21.683 10.35 21.9684C10.4608 22.2537 10.6275 22.514 10.8404 22.7338C11.0534 22.9536 11.3082 23.1286 11.5898 23.2483C11.8715 23.3681 12.1743 23.4302 12.4803 23.431L18.804 23.5319" stroke="white" stroke-width="1.71017" stroke-linecap="round" stroke-linejoin="round"/>
<path d="M23.4388 22.8618C23.778 22.5332 23.7866 21.9919 23.4581 21.6526C23.1295 21.3134 22.5882 21.3048 22.249 21.6334C21.9098 21.9619 21.9011 22.5033 22.2297 22.8425C22.5582 23.1817 23.0996 23.1903 23.4388 22.8618Z" fill="white"/>
<path d="M12.7451 6.4244C12.2673 5.93268 11.697 5.54034 11.0669 5.26995C10.4369 4.99955 9.75956 4.85645 9.07398 4.84889C8.3884 4.84132 7.70809 4.96944 7.07222 5.22586C6.43635 5.48228 5.85748 5.86195 5.36894 6.343C4.40063 7.30591 3.85006 8.61114 3.83619 9.97666C3.82233 11.3422 4.34628 12.6583 5.29484 13.6407" stroke="#C89D6C" stroke-width="1.71017" stroke-linecap="round" stroke-linejoin="round"/>
</svg>
