<svg width="20" height="21" viewBox="0 0 20 21" fill="none" xmlns="http://www.w3.org/2000/svg">
<path d="M16.2468 7.05987L9.9993 13.1499L3.7518 7.05987C3.64018 6.95084 3.49034 6.8898 3.3343 6.8898C3.17827 6.8898 3.02842 6.95084 2.9168 7.05987C2.86275 7.11282 2.81982 7.17603 2.7905 7.24579C2.76119 7.31554 2.74609 7.39045 2.74609 7.46612C2.74609 7.54178 2.76119 7.61669 2.7905 7.68644C2.81982 7.7562 2.86275 7.81941 2.9168 7.87237L9.56305 14.3524C9.67977 14.4661 9.83631 14.5298 9.9993 14.5298C10.1623 14.5298 10.3188 14.4661 10.4356 14.3524L17.0818 7.87362C17.1362 7.82062 17.1795 7.75726 17.209 7.68727C17.2386 7.61728 17.2538 7.54208 17.2538 7.46612C17.2538 7.39015 17.2386 7.31495 17.209 7.24496C17.1795 7.17497 17.1362 7.11161 17.0818 7.05862C16.9702 6.94959 16.8203 6.88855 16.6643 6.88855C16.5083 6.88855 16.3584 6.94959 16.2468 7.05862V7.05987Z" fill="#232323"/>
</svg>
