<svg width="156" height="72" viewBox="0 0 156 72" fill="none" xmlns="http://www.w3.org/2000/svg">
<g clip-path="url(#clip0_2521_1070)">
<path d="M42.7417 23.7541C40.8776 22.4566 38.5561 22.0057 36.3167 21.9992C34.6185 22.0085 32.9327 22.2896 31.3234 22.8318C30.5255 23.1136 29.7424 23.4355 28.977 23.7963C26.2738 25.0938 23.816 26.8531 21.5756 28.8491C20.0424 27.3321 18.5938 25.7319 17.2364 24.0558C18.7329 22.9172 20.1559 21.691 21.5248 20.4302C23.8311 18.3034 26.2002 15.9397 27.1355 12.8364C27.7908 10.7668 27.7205 8.52532 27.155 6.4406C25.625 0.568153 19.2627 -1.09919 14.345 1.82028C14.3384 1.82379 14.3325 1.82856 14.3277 1.83434C11.3585 2.72531 9.67823 6.2676 9.69553 9.85962C9.71066 14.1653 11.4894 18.0222 13.919 21.4845C13.2789 21.9722 12.6215 22.4436 11.9565 22.8902C8.28013 25.3771 4.25018 27.2845 0.225647 29.1486C0.18128 29.1643 0.140671 29.1891 0.106414 29.2213C0.0721562 29.2536 0.0450028 29.2927 0.0266874 29.336C0.00837204 29.3794 -0.000702783 29.426 4.24476e-05 29.4731C0.000787678 29.5201 0.0113366 29.5665 0.0310155 29.6093C0.068823 29.6857 0.134673 29.7446 0.214834 29.7736C4.20801 31.7199 8.17092 33.7473 11.7932 36.2613C12.442 36.7111 13.0781 37.1797 13.7017 37.667C11.5045 40.8351 9.86313 44.3363 9.58416 48.2463C9.2695 51.8826 10.8384 56.344 14.3202 57.3582C14.3223 57.3665 14.3262 57.3741 14.3316 57.3807C14.337 57.3872 14.3438 57.3925 14.3515 57.3961C15.263 57.8725 16.2382 58.2156 17.2472 58.4147C21.6599 59.2873 26.0694 56.9657 27.2188 52.4903C27.7686 50.3881 27.7503 48.1776 27.1658 46.0848C26.8243 45.045 26.3313 44.0613 25.7028 43.1653C24.6594 41.6331 23.4159 40.3021 22.0924 39.0305C20.5562 37.5677 18.9443 36.1864 17.2634 34.8924C18.0484 33.9398 18.8572 33.0121 19.6639 32.1027C20.2932 31.4136 20.942 30.7388 21.6102 30.0785C23.6495 31.9037 25.8683 33.5311 28.3055 34.7789C30.8 36.097 33.5768 36.936 36.4151 36.922C38.928 36.9123 41.5718 36.3543 43.5246 34.6881C45.0708 33.3786 45.8407 31.4647 45.9131 29.4665C45.7369 27.171 44.6707 25.0549 42.7417 23.7541ZM25.2498 3.87472C25.8092 4.71004 26.2156 5.63817 26.45 6.61577C27.1961 9.54064 26.7214 12.7704 24.9503 15.2444C23.8009 16.9042 22.3141 18.2969 20.8187 19.6452C19.439 20.8844 18.0171 22.0749 16.5282 23.1767C16.1627 22.7175 15.8023 22.2547 15.4469 21.7883C15.2868 21.5721 15.1301 21.354 14.9765 21.1342C18.3177 18.3639 22.1725 15.2617 23.0299 10.7722C23.6657 7.34131 21.7324 3.61629 18.5145 2.21927C17.1412 1.63646 15.9043 1.50454 14.8197 1.71107C18.2723 0.0599495 23.0018 0.54004 25.2498 3.87472ZM13.6227 19.0473C11.4386 15.4001 9.91719 10.9204 11.1034 6.69254C12.1014 3.22595 14.7732 1.43859 18.256 2.83452C21.2674 4.04989 23.1629 7.49918 22.6039 10.7009C22.0632 14.0128 19.6141 16.6068 17.1975 18.7759C16.3995 19.4733 15.5896 20.161 14.7592 20.8228C14.362 20.241 13.9832 19.6492 13.6227 19.0473ZM6.51331 32.0724C4.72703 31.1512 2.91804 30.2937 1.09716 29.4546C2.89425 28.5745 4.68702 27.677 6.44735 26.7168C9.12028 25.2582 11.7316 23.6633 14.1428 21.7981C14.6316 22.4804 15.1452 23.1464 15.6739 23.7974C12.8915 25.7554 9.92273 27.4341 6.81066 28.8091C6.54827 28.6923 6.28516 28.5777 6.02133 28.4653C5.33255 28.1582 4.50753 28.701 4.51942 29.459C4.51839 29.6379 4.5618 29.8144 4.64575 29.9724C4.72971 30.1305 4.85159 30.2652 5.00045 30.3646C5.14932 30.4639 5.32052 30.5248 5.49869 30.5417C5.67687 30.5585 5.85645 30.5309 6.02133 30.4613C6.28624 30.3532 6.55115 30.2332 6.81607 30.1164C9.91084 31.4895 12.8641 33.1615 15.6339 35.1087C15.169 35.6781 14.7181 36.2588 14.2813 36.8506C11.8334 35.0387 9.23451 33.4401 6.51331 32.0724ZM11.2915 52.2232C10.6557 50.212 10.739 47.99 11.1899 45.9431C11.8181 43.2053 13.0702 40.7194 14.6208 38.4044C15.4155 39.0532 16.193 39.7203 16.9553 40.3994C19.9829 43.1091 23.3348 46.9693 22.0632 51.3106C21.2501 54.2517 18.3447 56.6359 15.2512 56.2488C13.1967 55.9807 11.8603 54.123 11.2915 52.2232ZM20.8165 39.2824C22.3109 40.6373 23.7555 42.0678 24.9254 43.7092C25.5195 44.5196 25.9907 45.4134 26.3235 46.3616C26.8984 48.2971 26.9632 50.3483 26.5116 52.3162C25.2617 57.6296 19.5157 59.4127 14.8392 57.4804C15.5274 57.6016 16.2314 57.6016 16.9196 57.4804C18.7188 57.1993 20.3797 56.1915 21.541 54.7988C24.0085 51.8891 24.0669 47.9684 22.1552 44.7645C20.9993 42.7631 19.373 41.1152 17.6635 39.6068C16.8706 38.8968 16.0517 38.2145 15.2068 37.5599C15.6393 36.953 16.0877 36.3572 16.5519 35.7726C18.0359 36.8645 19.4595 38.0362 20.8165 39.2824ZM18.921 31.4107C18.0625 32.3179 17.2029 33.2575 16.3714 34.2307C13.8148 32.3946 11.0939 30.7991 8.24336 29.4644C11.1057 28.1226 13.8378 26.5191 16.4049 24.6743C17.2483 25.668 18.1209 26.6206 18.9892 27.5483C19.6131 28.1971 20.2553 28.8329 20.916 29.4492C20.2298 30.085 19.5648 30.7388 18.921 31.4107ZM39.7033 36.3132C37.2758 36.8539 34.711 36.6484 32.3419 35.9391C29.456 34.9941 26.8339 33.3602 24.4832 31.4583C23.7057 30.8257 22.9542 30.1607 22.2244 29.4719C24.135 27.6521 26.2078 26.0032 28.5099 24.7143C29.9404 23.912 31.4639 23.2005 33.0588 22.7961C36.2205 22.0143 39.8406 22.0738 42.6412 23.9033C44.5475 25.1425 45.592 27.2304 45.7834 29.4611C45.6287 33.1775 43.2369 35.5423 39.7033 36.3132Z" fill="#C89D6C"/>
<path d="M57.4636 25.1567C57.4636 28.1259 58.2962 29.458 61.5725 29.458C63.1263 29.458 64.0141 28.6535 64.0141 27.0435V26.8218H63.7643V27.0435C63.7643 28.487 62.9317 29.1812 61.818 29.1812C60.1809 29.1812 59.9593 27.4879 59.9593 25.6562V8.30811H55.0762V8.58491H57.4636V25.1567Z" fill="white"/>
<path d="M74.6005 29.4578C77.0982 29.4578 79.4295 28.8199 81.1779 26.9319L81.0384 26.8238C79.4295 28.4338 77.0701 29.1269 75.0167 29.1269C71.1025 29.1269 68.4382 26.5459 68.4382 21.9667C70.2699 22.9658 72.1297 23.5767 74.767 23.5767C79.0683 23.5767 81.844 21.9386 81.844 19.3857C81.844 16.8327 79.0132 14.9448 74.5172 14.9448C69.0491 14.9448 65.6074 17.6924 65.6074 22.0813C65.6074 26.7384 69.5249 29.4578 74.6005 29.4578ZM74.3507 15.1924C77.5945 15.1924 79.1797 17.2739 79.1797 19.4386C79.1797 21.9926 77.1815 23.2967 74.4058 23.2967C72.3795 23.2967 70.2148 22.6306 68.4382 21.6866C68.5215 17.6902 70.7424 15.1924 74.3507 15.1924Z" fill="white"/>
<path d="M104.577 8.30811H95.9863V8.58491H98.9058V29.1834H95.9863V29.4613H104.45V29.1834H101.51V18.6884H104.577C110.211 18.6884 114.43 17.7455 114.43 13.4712C114.43 9.44778 110.211 8.30811 104.577 8.30811ZM104.327 18.4376H101.51V8.58708H104.354C109.436 8.58708 111.543 10.0587 111.543 13.4723C111.543 16.914 109.351 18.4397 104.327 18.4397V18.4376Z" fill="white"/>
<path d="M123.19 29.4581C126.88 29.4581 128.935 27.7929 129.961 24.6843V26.1829C129.961 28.5974 131.516 29.4581 133.93 29.4581C135.734 29.4581 136.483 28.5704 136.483 27.0436V26.822H136.206V27.0436C136.206 28.459 135.401 29.1813 134.319 29.1813C132.598 29.1813 132.404 27.4329 132.404 25.6563V22.1865C132.404 17.191 128.74 14.9419 124.827 14.9419C124.344 14.95 123.862 14.9861 123.383 15.05C120.747 15.3831 118.193 16.5487 118.193 18.1025C118.194 18.284 118.231 18.4636 118.301 18.6308C118.372 18.798 118.475 18.9496 118.605 19.0765C118.734 19.2035 118.888 19.3034 119.057 19.3705C119.225 19.4375 119.406 19.4704 119.587 19.4671C119.767 19.4715 119.946 19.4394 120.113 19.3726C120.28 19.3058 120.432 19.2058 120.559 19.0786C120.686 18.9514 120.786 18.7996 120.853 18.6326C120.92 18.4655 120.952 18.2867 120.947 18.1068C120.947 17.3304 120.363 16.7476 119.364 16.7476C120.475 15.9421 121.807 15.4425 123.365 15.276C123.698 15.249 124.003 15.2209 124.308 15.2209C128.333 15.2209 129.97 18.2182 129.97 21.9097V22.6028C128.416 21.2988 126.751 20.6327 124.364 20.5213C124.086 20.4943 123.781 20.4943 123.448 20.4943C120.616 20.4943 116.51 21.4674 116.51 25.0173C116.501 28.0427 119.415 29.4581 123.19 29.4581ZM124.078 20.8544C126.159 20.7711 128.269 21.4101 129.934 22.8807C129.767 26.6554 127.075 29.1521 123.771 29.1521C120.717 29.1521 119.33 27.1539 119.33 25.0724C119.332 23.0191 120.636 20.9938 124.078 20.8511V20.8544Z" fill="white"/>
<path d="M153.723 29.1858L147.561 21.4373L153.418 15.4708H155.499V15.1929H150.697V15.4708H153.028L147.395 21.2156L142.593 15.4708H144.841V15.1929H137.903V15.4708H139.652L145.563 22.6591L139.402 29.1858H137.57V29.4636H141.844V29.1858H139.79L145.757 22.8257L150.808 29.1858H147.978V29.4636H155.999V29.1858H153.723Z" fill="white"/>
<path d="M63.849 44.6099C64.0949 44.3663 64.2901 44.0763 64.4231 43.7568C64.5604 43.4291 64.6302 43.0772 64.6286 42.722C64.625 42.4155 64.5702 42.1118 64.4664 41.8234C64.3536 41.4927 64.1752 41.1881 63.9418 40.9279C63.7084 40.6678 63.4249 40.4575 63.1083 40.3096C62.7131 40.129 62.2818 40.0417 61.8475 40.0544C61.4786 40.049 61.1119 40.1124 60.7662 40.2415C60.4577 40.3592 60.1723 40.5301 59.9228 40.7465C59.6816 40.9582 59.4815 41.2126 59.3324 41.4969C59.1844 41.7789 59.0864 42.0843 59.0426 42.3998H58.1333V40.1409H57.4629V45.3149H58.1333V42.7295H59.0426C59.0405 43.1496 59.1321 43.5648 59.3108 43.9449C59.4674 44.265 59.6904 44.5481 59.965 44.7753C60.2294 44.9921 60.534 45.1546 60.8614 45.2533C61.1822 45.3524 61.516 45.4034 61.8518 45.4046C62.2349 45.4083 62.6148 45.3347 62.9688 45.1884C63.297 45.0545 63.5959 44.858 63.849 44.6099ZM61.8475 45.0803C61.6169 45.0759 61.3885 45.0335 61.1717 44.9548C60.9212 44.8678 60.6914 44.7297 60.497 44.5493C60.2761 44.342 60.0985 44.0928 59.9747 43.8162C59.8235 43.4717 59.7496 43.0982 59.7585 42.722C59.7494 42.3472 59.8232 41.975 59.9747 41.632C60.098 41.3577 60.2757 41.1113 60.497 40.9076C60.6929 40.73 60.9223 40.5933 61.1717 40.5053C61.6025 40.3396 62.0795 40.3396 62.5103 40.5053C62.757 40.5919 62.9836 40.7277 63.1764 40.9043C63.395 41.1087 63.5701 41.3551 63.6911 41.6288C63.9679 42.3332 63.9679 43.1162 63.6911 43.8206C63.5699 44.0967 63.3949 44.3459 63.1764 44.5537C62.9847 44.7334 62.758 44.8714 62.5103 44.9591C62.2976 45.036 62.0736 45.077 61.8475 45.0803Z" fill="white"/>
<path d="M67.858 45.405C68.0915 45.4076 68.3229 45.3608 68.5371 45.2676C68.7432 45.1793 68.9277 45.0473 69.0777 44.8805C69.2342 44.703 69.3536 44.496 69.4291 44.2718C69.5978 43.7543 69.5978 43.1966 69.4291 42.679C69.3516 42.455 69.2324 42.2477 69.0777 42.0681C68.9286 41.8988 68.744 41.7644 68.5371 41.6745C68.3229 41.5814 68.0915 41.5346 67.858 41.5372C67.2709 41.5372 66.8849 41.7643 66.7032 42.2195H66.6751V41.6205H66.0469V47.1685H66.6751V44.7151H66.7032C66.789 44.9459 66.9579 45.1364 67.1768 45.2493C67.2791 45.3031 67.3882 45.3427 67.5012 45.3671C67.6184 45.3925 67.7381 45.4051 67.858 45.405ZM66.9854 44.6902C66.8864 44.5705 66.8098 44.4339 66.7594 44.2869C66.7006 44.1128 66.6721 43.93 66.6751 43.7463V43.0975C66.6741 42.9395 66.7005 42.7826 66.7529 42.6336C66.7999 42.4947 66.8733 42.3662 66.9692 42.2552C67.0597 42.151 67.17 42.0657 67.2936 42.0043C67.4193 41.9424 67.5578 41.9105 67.698 41.9113C67.8481 41.9115 67.9968 41.9405 68.1359 41.9968C68.2786 42.0545 68.4046 42.1471 68.5025 42.266C68.6158 42.4084 68.6996 42.572 68.749 42.7472C68.8151 42.9788 68.846 43.219 68.8409 43.4597C68.8463 43.7027 68.8153 43.945 68.749 44.1788C68.699 44.3553 68.614 44.5201 68.4992 44.6632C68.4013 44.783 68.2754 44.877 68.1327 44.9368C67.9954 44.993 67.8485 45.022 67.7002 45.0222C67.565 45.0224 67.4315 44.9932 67.3087 44.9368C67.184 44.8796 67.0735 44.7954 66.9854 44.6902Z" fill="white"/>
<path d="M73.5001 45.3149H74.1273V41.6201H73.3877L71.5052 44.878V41.6201H70.877V45.3149H71.6166L73.5001 42.0775V45.3149Z" fill="white"/>
<path d="M78.9323 46.0901H79.4481V45.0186H78.9323L77.5147 41.6201H77.0714L75.6885 45.0186H75.1543V46.0901H75.6733V45.3138H78.9323V46.0901ZM76.042 45.0186L77.1233 42.3521H77.1709L78.2706 45.0186H76.042Z" fill="white"/>
<path d="M83.0998 45.3149H83.728V41.6201H82.9884L81.1048 44.878V41.6201H80.4766V45.3149H81.2162L83.0998 42.0775V45.3149Z" fill="white"/>
<path d="M87.1885 43.481C87.1495 43.4907 87.0987 43.5026 87.0349 43.5156C86.9711 43.5286 86.903 43.5416 86.8317 43.5535L86.6154 43.5859C86.5527 43.5952 86.4895 43.6003 86.4262 43.601C86.2785 43.6095 86.1308 43.5851 85.9937 43.5297C85.9092 43.4914 85.8351 43.4336 85.7774 43.361C85.7308 43.3006 85.7009 43.229 85.6909 43.1534C85.6831 43.0935 85.6788 43.0332 85.6779 42.9728V41.605H85.0508V42.9728C85.0508 43.0334 85.0508 43.1155 85.067 43.2215C85.0802 43.3446 85.1233 43.4626 85.1927 43.5652C85.2621 43.6677 85.3555 43.7517 85.4649 43.8097C85.6422 43.8964 85.8388 43.9363 86.0358 43.9254C86.2169 43.9235 86.3976 43.9084 86.5765 43.88C86.7818 43.8476 86.984 43.7976 87.1809 43.7308V45.2965H87.8091V41.605H87.1809L87.1885 43.481Z" fill="white"/>
<path d="M91.914 45.2369C92.174 45.1272 92.4083 44.9644 92.6017 44.7589L92.3692 44.5243C92.2665 44.613 92.1703 44.6941 92.0816 44.7676C91.9965 44.8381 91.9045 44.8997 91.8069 44.9514C91.7151 45.002 91.6179 45.0422 91.5172 45.0714C91.4085 45.0998 91.2965 45.1136 91.1841 45.1125C91.0357 45.111 90.8881 45.09 90.7451 45.0498C90.5865 45.0061 90.439 44.9291 90.3126 44.8238C90.1695 44.7006 90.0563 44.5464 89.9817 44.3729C89.8851 44.1387 89.8398 43.8865 89.8487 43.6333H92.6374V43.4787C92.6437 43.1868 92.5964 42.8961 92.4979 42.6212C92.4159 42.3971 92.2873 42.1929 92.1205 42.0222C91.9637 41.8663 91.7753 41.7457 91.568 41.6686C91.3555 41.5901 91.1306 41.5506 90.9041 41.5519C90.6656 41.5494 90.4288 41.5927 90.2067 41.6794C89.9963 41.7631 89.8064 41.8911 89.6498 42.0547C89.4869 42.2272 89.3607 42.431 89.2789 42.6537C89.1858 42.9085 89.1404 43.1783 89.1448 43.4495C89.1449 43.6942 89.1839 43.9373 89.2605 44.1696C89.3349 44.3995 89.4536 44.6125 89.6098 44.7968C89.773 44.9863 89.9756 45.1379 90.2034 45.2412C90.4704 45.3583 90.7597 45.4155 91.0511 45.4088C91.3474 45.4105 91.641 45.352 91.914 45.2369ZM89.9115 42.7618C89.9492 42.5894 90.0134 42.4238 90.1018 42.2709C90.1818 42.1324 90.2928 42.0144 90.4261 41.926C90.5678 41.837 90.7325 41.7919 90.8998 41.7962C91.0589 41.79 91.217 41.8244 91.3593 41.8961C91.5015 41.9677 91.6232 42.0744 91.7129 42.206C91.9075 42.4785 92.0048 42.8544 92.0048 43.3338H89.852C89.8502 43.1415 89.8701 42.9496 89.9115 42.7618Z" fill="white"/>
<path d="M96.9029 44.6098C96.749 44.7406 96.5757 44.8467 96.3893 44.9245C96.2114 44.9934 96.0221 45.0279 95.8314 45.0261C95.6569 45.0263 95.4835 44.9985 95.3178 44.944C95.1536 44.8902 95.0033 44.8009 94.8777 44.6823C94.7398 44.5475 94.6348 44.3829 94.5706 44.2011C94.4907 43.9637 94.4541 43.714 94.4625 43.4637C94.4555 43.2024 94.4984 42.9422 94.589 42.697C94.6584 42.5093 94.7651 42.3376 94.9025 42.1921C95.0196 42.0713 95.1617 41.9775 95.3188 41.9174C95.4569 41.864 95.6033 41.835 95.7513 41.832C95.9614 41.8288 96.1671 41.8916 96.3396 42.0115C96.4952 42.1148 96.612 42.267 96.6715 42.444H97.183C97.1427 42.2795 97.0616 42.1278 96.9472 42.0029C96.8394 41.8885 96.7124 41.7937 96.572 41.7228C96.4297 41.6518 96.2778 41.6019 96.1211 41.5747C95.969 41.5482 95.8149 41.5344 95.6605 41.5336C95.3795 41.5282 95.1004 41.5797 94.8398 41.685C94.6137 41.7791 94.4097 41.9194 94.2408 42.0969C94.0779 42.2717 93.9534 42.4787 93.8753 42.7046C93.7921 42.9426 93.7504 43.1932 93.7521 43.4453C93.7495 43.7083 93.7949 43.9696 93.8861 44.2162C93.9698 44.4464 94.0993 44.6571 94.2667 44.8358C94.4344 45.0132 94.6369 45.1542 94.8615 45.25C95.1099 45.3539 95.3772 45.4054 95.6465 45.4013C95.9391 45.4075 96.2297 45.3523 96.4996 45.2391C96.7174 45.1463 96.9239 45.0288 97.1148 44.8888L96.9029 44.6098Z" fill="white"/>
<path d="M101.708 45.3136V45.0185L101.498 45.026C101.433 45.0241 101.369 45.0059 101.312 44.973C101.242 44.9345 101.177 44.8884 101.118 44.8357C101.05 44.7781 100.986 44.7167 100.926 44.6519C100.866 44.5859 100.809 44.52 100.759 44.4551L99.7919 43.1922L101.293 41.6265H100.828L98.9896 43.5317V41.6265H98.3613V45.3136H98.9896V44.0161L99.3972 43.5836L100.313 44.7892C100.374 44.8638 100.434 44.9374 100.497 45.0055C100.559 45.0782 100.627 45.1445 100.702 45.2033C100.775 45.2615 100.856 45.3092 100.942 45.345C101.03 45.3801 101.124 45.3978 101.219 45.3969C101.307 45.3967 101.394 45.3865 101.479 45.3666C101.568 45.3536 101.639 45.3331 101.708 45.3136Z" fill="white"/>
<path d="M106.288 44.2068C106.464 43.7331 106.464 43.2121 106.288 42.7384C106.203 42.5093 106.073 42.2994 105.906 42.121C105.736 41.9415 105.532 41.7968 105.306 41.6949C105.058 41.5851 104.789 41.5305 104.518 41.5349C104.242 41.5308 103.969 41.5854 103.716 41.6949C103.487 41.795 103.281 41.9399 103.109 42.121C102.943 42.3007 102.813 42.5102 102.725 42.7384C102.542 43.2081 102.542 43.7295 102.725 44.1992C102.813 44.4277 102.943 44.6375 103.109 44.8177C103.28 44.9998 103.486 45.1448 103.716 45.2437C103.969 45.3525 104.242 45.4067 104.518 45.4027C104.789 45.4069 105.057 45.3539 105.306 45.247C105.533 45.149 105.737 45.0055 105.906 44.8253C106.073 44.6463 106.203 44.4361 106.288 44.2068ZM105.605 44.3041C105.547 44.4902 105.448 44.6609 105.316 44.8036C105.208 44.9154 105.073 44.998 104.925 45.0437C104.656 45.1273 104.367 45.1273 104.098 45.0437C103.948 44.9977 103.812 44.9152 103.702 44.8036C103.565 44.6624 103.464 44.4913 103.405 44.3041C103.254 43.7582 103.254 43.1815 103.405 42.6357C103.465 42.4486 103.566 42.2777 103.702 42.1361C103.811 42.0232 103.948 41.9399 104.098 41.8939C104.367 41.8088 104.656 41.8088 104.925 41.8939C105.074 41.9396 105.209 42.023 105.316 42.1361C105.448 42.2792 105.547 42.4498 105.605 42.6357C105.753 43.1819 105.753 43.7579 105.605 44.3041Z" fill="white"/>
<path d="M110.981 44.7594L110.748 44.5247C110.645 44.6134 110.549 44.6945 110.459 44.768C110.375 44.8387 110.283 44.9003 110.186 44.9518C110.094 45.0009 109.997 45.0397 109.896 45.0675C109.787 45.0959 109.675 45.1097 109.563 45.1086C109.415 45.1071 109.267 45.0861 109.124 45.0459C108.965 45.0023 108.818 44.9252 108.692 44.8199C108.548 44.6967 108.435 44.5425 108.361 44.369C108.264 44.1348 108.219 43.8826 108.228 43.6294H111.016V43.4748C111.023 43.1829 110.975 42.8922 110.877 42.6173C110.795 42.3932 110.666 42.189 110.499 42.0183C110.343 41.8624 110.154 41.7418 109.947 41.6647C109.734 41.5863 109.509 41.5468 109.283 41.548C109.044 41.5454 108.808 41.5887 108.586 41.6755C108.375 41.7592 108.185 41.8872 108.029 42.0508C107.866 42.2233 107.74 42.4271 107.658 42.6498C107.565 42.9046 107.519 43.1744 107.524 43.4456C107.524 43.6903 107.563 43.9334 107.639 44.1657C107.714 44.3956 107.832 44.6086 107.989 44.7929C108.152 44.9824 108.355 45.134 108.582 45.2373C108.849 45.3545 109.139 45.4117 109.43 45.4049C109.727 45.4083 110.021 45.3512 110.295 45.2373C110.554 45.1274 110.788 44.9646 110.981 44.7594ZM108.29 42.7622C108.328 42.5898 108.392 42.4242 108.481 42.2713C108.561 42.1329 108.672 42.0148 108.805 41.9264C108.947 41.8374 109.111 41.7923 109.279 41.7967C109.438 41.7904 109.596 41.8248 109.738 41.8965C109.88 41.9682 110.002 42.0748 110.092 42.2065C110.286 42.4789 110.384 42.8549 110.384 43.3342H108.221C108.223 43.1416 108.246 42.9497 108.29 42.7622Z" fill="white"/>
<path d="M115.447 44.6512C115.605 44.8755 115.814 45.0589 116.057 45.1865C116.377 45.3442 116.731 45.4185 117.087 45.4027C117.38 45.4108 117.67 45.3508 117.935 45.2276C118.157 45.1204 118.354 44.9653 118.509 44.7734C118.657 44.5873 118.768 44.3739 118.833 44.1452C118.903 43.9178 118.94 43.6814 118.942 43.4435C118.941 43.2065 118.905 42.971 118.833 42.7449C118.767 42.5224 118.657 42.3154 118.509 42.1362C118.352 41.9528 118.158 41.8052 117.939 41.7037C117.676 41.5855 117.39 41.5282 117.101 41.5361C116.897 41.5331 116.693 41.5612 116.497 41.6193C116.332 41.6681 116.175 41.741 116.031 41.8356C115.902 41.9219 115.787 42.0277 115.69 42.1492C115.603 42.2601 115.53 42.3818 115.474 42.5114H115.446V42.4768C115.444 42.1807 115.499 41.8869 115.608 41.6118C115.694 41.375 115.841 41.1653 116.034 41.0041C116.223 40.8586 116.447 40.7664 116.683 40.737C116.934 40.7081 117.187 40.6944 117.44 40.6959H118.349L118.748 40.1401H117.719C117.508 40.1401 117.298 40.1455 117.09 40.1564C116.888 40.1673 116.687 40.2037 116.494 40.2645C116.3 40.325 116.117 40.417 115.953 40.537C115.767 40.6756 115.613 40.8512 115.499 41.0527C115.4 41.2147 115.323 41.3888 115.27 41.5707C115.216 41.7476 115.176 41.9283 115.15 42.1113C115.125 42.2877 115.11 42.4653 115.105 42.6433C115.1 42.8174 115.098 42.9817 115.098 43.1353V43.3342C115.101 43.5495 115.126 43.7639 115.171 43.9744C115.218 44.2157 115.312 44.4456 115.447 44.6512ZM115.879 42.746C115.928 42.559 116.013 42.3836 116.13 42.2303C116.231 42.1012 116.362 41.9985 116.511 41.9307C116.661 41.8645 116.824 41.831 116.989 41.8323C117.095 41.8355 117.202 41.846 117.307 41.8637C117.458 41.8902 117.6 41.9541 117.72 42.0497C117.879 42.1806 118.004 42.3494 118.082 42.5406C118.2 42.8423 118.253 43.1654 118.238 43.4889C118.247 43.77 118.205 44.0505 118.116 44.3171C118.052 44.5006 117.95 44.6684 117.816 44.8091C117.711 44.9168 117.581 44.9979 117.439 45.0459C117.326 45.0842 117.209 45.1053 117.09 45.1086C116.948 45.1066 116.806 45.0844 116.67 45.0427C116.511 44.9941 116.366 44.9085 116.246 44.7929C116.104 44.6529 115.993 44.484 115.922 44.2977C115.827 44.0389 115.783 43.7643 115.792 43.4889C115.786 43.2386 115.815 42.9887 115.876 42.746H115.879Z" fill="white"/>
<path d="M124.809 42.1045C124.64 41.9258 124.436 41.7841 124.209 41.6882C123.956 41.5842 123.685 41.5326 123.411 41.5369C123.161 41.5352 122.912 41.5769 122.676 41.6601C122.456 41.7363 122.252 41.8546 122.077 42.0083C121.904 42.1636 121.764 42.3527 121.667 42.5641C121.561 42.7954 121.505 43.0469 121.504 43.3015H120.891V41.6266H120.264V45.3214H120.891V43.5502H121.504C121.521 43.7761 121.575 43.9977 121.663 44.2065C121.753 44.4259 121.881 44.6278 122.04 44.8034C122.205 44.9837 122.404 45.1305 122.624 45.2359C122.87 45.3514 123.14 45.4087 123.411 45.4035C123.688 45.4081 123.963 45.3566 124.22 45.2522C124.448 45.158 124.653 45.0156 124.82 44.8348C124.985 44.6537 125.112 44.4416 125.194 44.2109C125.284 43.9616 125.328 43.6983 125.325 43.4334C125.326 43.186 125.281 42.9406 125.191 42.7101C125.104 42.4853 124.975 42.2797 124.809 42.1045ZM124.562 44.0217C124.527 44.2109 124.463 44.3934 124.37 44.5623C124.282 44.7224 124.155 44.858 124.002 44.957C123.825 45.0627 123.621 45.1149 123.415 45.1073C123.274 45.1063 123.135 45.084 123.001 45.0413C122.852 44.9925 122.717 44.9057 122.611 44.7894C122.479 44.6405 122.379 44.4655 122.319 44.2758C122.234 44.0033 122.195 43.7187 122.203 43.4334C122.191 43.124 122.236 42.8148 122.336 42.5219C122.403 42.3381 122.514 42.1741 122.661 42.0451C122.773 41.9498 122.909 41.8866 123.054 41.8623C123.174 41.8431 123.295 41.8326 123.416 41.831C123.555 41.8321 123.695 41.851 123.83 41.8872C123.977 41.9284 124.111 42.0062 124.22 42.1132C124.353 42.2503 124.452 42.4171 124.509 42.5998C124.589 42.8675 124.626 43.1465 124.617 43.4259C124.617 43.6257 124.598 43.8251 124.562 44.0217Z" fill="white"/>
<path d="M130.151 43.4781C130.155 43.2065 130.113 42.9362 130.025 42.6791C129.947 42.455 129.827 42.2477 129.672 42.0681C129.523 41.8988 129.339 41.7645 129.132 41.6745C128.918 41.5813 128.687 41.5345 128.454 41.5372C127.867 41.5372 127.482 41.7647 127.299 42.2195H127.27V41.6205H126.643V47.1685H127.27V44.7151H127.299C127.341 44.8352 127.408 44.9455 127.494 45.0395C127.573 45.1276 127.667 45.2008 127.771 45.2558C127.874 45.3093 127.983 45.3489 128.096 45.3736C128.442 45.4475 128.802 45.4127 129.127 45.2741C129.334 45.1858 129.518 45.0538 129.668 44.887C129.825 44.7096 129.945 44.5026 130.021 44.2783C130.11 44.0211 130.154 43.7504 130.151 43.4781ZM129.356 44.1831C129.305 44.3597 129.22 44.5245 129.105 44.6675C129.007 44.7874 128.881 44.8813 128.738 44.9411C128.601 44.9973 128.454 45.0263 128.306 45.0265C128.169 45.0268 128.033 44.9969 127.909 44.9387C127.785 44.8806 127.675 44.7957 127.588 44.6902C127.489 44.5705 127.413 44.4338 127.363 44.2869C127.303 44.113 127.274 43.9301 127.277 43.7463V43.0975C127.276 42.9396 127.303 42.7826 127.355 42.6336C127.402 42.4947 127.476 42.3662 127.571 42.2552C127.662 42.1511 127.772 42.0659 127.896 42.0043C128.022 41.9425 128.16 41.9106 128.3 41.9113C128.451 41.9116 128.6 41.9406 128.739 41.9968C128.882 42.0543 129.007 42.1469 129.105 42.266C129.218 42.4083 129.303 42.5719 129.352 42.7472C129.418 42.9789 129.449 43.219 129.444 43.4597C129.451 43.7039 129.421 43.9477 129.356 44.1831Z" fill="white"/>
<path d="M134.569 42.1229C134.399 41.9429 134.195 41.7982 133.969 41.6969C133.721 41.5871 133.453 41.5325 133.182 41.5369C132.906 41.5326 132.632 41.5872 132.379 41.6969C132.15 41.7967 131.944 41.9416 131.773 42.1229C131.607 42.3023 131.476 42.5119 131.388 42.7403C131.207 43.2103 131.207 43.7311 131.388 44.2011C131.476 44.4299 131.607 44.6398 131.773 44.8196C131.943 45.0019 132.15 45.147 132.379 45.2457C132.632 45.3545 132.906 45.4086 133.182 45.4046C133.452 45.4088 133.721 45.3557 133.969 45.2489C134.196 45.1515 134.401 45.0079 134.569 44.8272C134.736 44.6485 134.866 44.4382 134.951 44.2087C135.127 43.735 135.127 43.214 134.951 42.7403C134.866 42.511 134.737 42.3011 134.569 42.1229ZM134.268 44.306C134.21 44.4921 134.111 44.6628 133.979 44.8056C133.871 44.9174 133.736 45 133.587 45.0456C133.318 45.1292 133.03 45.1292 132.761 45.0456C132.611 44.9994 132.475 44.9169 132.365 44.8056C132.229 44.664 132.127 44.4931 132.068 44.306C131.917 43.7602 131.917 43.1834 132.068 42.6376C132.128 42.4508 132.229 42.28 132.365 42.1381C132.475 42.0254 132.611 41.9421 132.761 41.8958C133.03 41.8108 133.319 41.8108 133.587 41.8958C133.737 41.9415 133.872 42.0249 133.979 42.1381C134.111 42.2811 134.21 42.4517 134.268 42.6376C134.418 43.1836 134.418 43.76 134.268 44.306Z" fill="white"/>
<path d="M61.2766 49.6323H60.9046L58.1333 52.5442V49.6323H57.4629V54.8063H58.1333V52.9886L58.9702 52.0933L60.9338 54.8063H61.7015L59.3962 51.6349L61.2766 49.6323Z" fill="white"/>
<path d="M65.5296 51.5776C65.4262 51.4044 65.2733 51.2662 65.0906 51.1808C64.8218 51.0662 64.5304 51.0144 64.2386 51.0294C64.0529 51.0262 63.8674 51.0447 63.686 51.0845C63.5489 51.1166 63.416 51.1648 63.2903 51.2283C63.1873 51.2809 63.0926 51.3483 63.0092 51.4284C62.9335 51.5019 62.861 51.5765 62.7929 51.6511L63.1746 52.0306C63.2376 51.9252 63.3066 51.8234 63.3811 51.7257C63.4455 51.6399 63.5216 51.5635 63.6071 51.4986C63.6912 51.4357 63.7851 51.3871 63.885 51.3548C64.0026 51.3184 64.1252 51.3008 64.2483 51.3029C64.5684 51.3029 64.7886 51.4013 64.909 51.5981C65.0294 51.7949 65.0899 52.0944 65.0906 52.4967V52.8124C64.9582 52.653 64.7895 52.5277 64.5986 52.4469C64.399 52.3605 64.1836 52.3163 63.9661 52.3172C63.7634 52.3133 63.5624 52.3535 63.3768 52.435C63.2133 52.5071 63.0662 52.6116 62.9443 52.7421C62.829 52.8648 62.7393 53.0093 62.6805 53.1671C62.5649 53.4654 62.5622 53.7957 62.6729 54.0959C62.7265 54.2436 62.8088 54.3792 62.9151 54.4949C63.0288 54.6179 63.1664 54.7165 63.3195 54.7847C63.4954 54.861 63.6858 54.8979 63.8774 54.8928C64.1054 54.8917 64.3313 54.8499 64.5446 54.7695C64.7484 54.6992 64.9352 54.5869 65.0928 54.4397V54.8031H65.7199V52.7897C65.7199 52.5677 65.7124 52.3514 65.6972 52.1409C65.6847 51.9429 65.6274 51.7503 65.5296 51.5776ZM65.0906 53.9121C65.0467 54.0108 64.9892 54.1029 64.9198 54.1856C64.8522 54.2677 64.7741 54.3404 64.6873 54.4019C64.6035 54.463 64.5114 54.5118 64.4137 54.5468C64.3223 54.5805 64.2257 54.5981 64.1283 54.5987C63.9035 54.5947 63.6878 54.509 63.5217 54.3576C63.4324 54.2735 63.3591 54.1738 63.3054 54.0635C63.2462 53.9351 63.2174 53.7949 63.2211 53.6536C63.2201 53.522 63.2428 53.3912 63.2881 53.2676C63.3292 53.1483 63.3931 53.0382 63.4763 52.9432C63.5596 52.8493 63.6616 52.7738 63.7758 52.7216C63.8984 52.6636 64.0327 52.6344 64.1683 52.6362C64.2967 52.6327 64.4241 52.6594 64.5403 52.714C64.6385 52.762 64.7283 52.8255 64.8063 52.9022C64.8758 52.9699 64.9365 53.0462 64.9868 53.1292C65.0279 53.1957 65.064 53.2651 65.095 53.3368L65.0906 53.9121Z" fill="white"/>
<path d="M70.2641 51.5593C70.115 51.39 69.9304 51.2557 69.7235 51.1658C69.5098 51.0725 69.2787 51.0257 69.0455 51.0284C68.4587 51.0284 68.0738 51.2559 67.8907 51.7107H67.8615V51.1117H67.2344V56.6598H67.8615V54.2074H67.8907C67.9333 54.3275 67.9994 54.4378 68.0853 54.5318C68.1646 54.6195 68.2587 54.6927 68.3632 54.748C68.4656 54.8016 68.5747 54.8412 68.6876 54.8659C69.0335 54.9398 69.3938 54.905 69.7192 54.7664C69.9251 54.6777 70.1095 54.5457 70.2598 54.3793C70.4166 54.2018 70.5364 53.9949 70.6123 53.7706C70.781 53.2531 70.781 52.6954 70.6123 52.1778C70.5369 51.9513 70.4187 51.7414 70.2641 51.5593ZM69.9473 53.6743C69.8969 53.851 69.8116 54.0157 69.6965 54.1587C69.5982 54.2783 69.4724 54.3721 69.3299 54.4323C69.1926 54.4882 69.0457 54.5168 68.8974 54.5167C68.7602 54.5176 68.6246 54.4879 68.5004 54.4297C68.3762 54.3715 68.2665 54.2863 68.1794 54.1804C68.0805 54.0608 68.0043 53.9241 67.9545 53.7771C67.8947 53.6032 67.8658 53.4202 67.8691 53.2364V52.593C67.8682 52.4347 67.8945 52.2775 67.9469 52.1281C67.9939 51.9895 68.0674 51.8613 68.1632 51.7507C68.2541 51.6466 68.3642 51.5611 68.4876 51.4988C68.6136 51.4378 68.7519 51.4063 68.892 51.4069C69.0425 51.4066 69.1916 51.4356 69.331 51.4923C69.4735 51.5498 69.5993 51.6424 69.6965 51.7615C69.8102 51.9039 69.8943 52.0675 69.9441 52.2427C70.0101 52.4743 70.0411 52.7145 70.036 52.9553C70.0425 53.1984 70.0126 53.4411 69.9473 53.6754V53.6743Z" fill="white"/>
<path d="M72.6966 54.3707V51.1128H72.0684V54.8065H72.809L74.6916 51.5702V54.8065H75.3198V51.1128H74.5802L72.6966 54.3707Z" fill="white"/>
<path d="M79.3658 52.7899H77.4963V51.1128H76.8691V54.8065H77.4963V53.0429H79.3658V54.8065H79.993V51.1128H79.3658V52.7899Z" fill="white"/>
<path d="M83.9797 52.936C83.8224 52.8698 83.6557 52.8289 83.4856 52.8149C83.3137 52.8008 83.1688 52.7933 83.0531 52.7933H82.1653V51.1162H81.5371V54.8034H83.4834C83.6177 54.8032 83.751 54.7809 83.8781 54.7374C84.0046 54.6951 84.1218 54.6286 84.223 54.5417C84.3219 54.455 84.403 54.35 84.462 54.2325C84.5253 54.1064 84.5572 53.9669 84.555 53.8259C84.5671 53.6177 84.5084 53.4115 84.3885 53.2409C84.2809 53.1056 84.1401 53.0005 83.9797 52.936ZM83.6553 54.359C83.5119 54.4739 83.3331 54.5355 83.1493 54.5331H82.1761V53.0431H83.0239C83.0671 53.0431 83.132 53.0431 83.2315 53.0571C83.3323 53.0684 83.4298 53.1 83.518 53.1501C83.6203 53.2077 83.7074 53.2889 83.7721 53.3869C83.8525 53.5226 83.8901 53.6793 83.8802 53.8367C83.8869 53.9351 83.8702 54.0336 83.8317 54.1243C83.7932 54.215 83.7339 54.2954 83.6586 54.359H83.6553Z" fill="white"/>
<path d="M85.9616 51.1128H85.3301V54.8075H85.9616V51.1128Z" fill="white"/>
<path d="M90.7598 54.8063H91.4302V50.04H94.5259V54.8063H95.2006V49.6323H90.7598V54.8063Z" fill="white"/>
<path d="M99.6928 51.5776C99.5889 51.4045 99.4356 51.2663 99.2528 51.1808C98.9839 51.0662 98.6925 51.0144 98.4007 51.0294C98.215 51.0262 98.0296 51.0447 97.8482 51.0845C97.7107 51.1168 97.5775 51.165 97.4513 51.2283C97.3487 51.2809 97.2543 51.3483 97.1713 51.4284C97.0956 51.5019 97.0221 51.5765 96.955 51.6511L97.3367 52.0306C97.3994 51.9249 97.4683 51.8231 97.5432 51.7257C97.6076 51.6402 97.6832 51.5638 97.7682 51.4986C97.8527 51.4359 97.947 51.3874 98.0471 51.3548C98.1643 51.3184 98.2866 51.3008 98.4094 51.3029C98.7309 51.3029 98.9514 51.4013 99.0711 51.5981C99.1922 51.7949 99.2517 52.0944 99.2517 52.4967V52.8124C99.1199 52.6528 98.9515 52.5274 98.7608 52.4469C98.5611 52.3605 98.3458 52.3163 98.1282 52.3172C97.9256 52.3133 97.7245 52.3535 97.5389 52.435C97.3755 52.5071 97.2283 52.6116 97.1064 52.7421C96.9911 52.8651 96.9011 53.0094 96.8415 53.1671C96.784 53.3187 96.7543 53.4795 96.7539 53.6418C96.7542 53.7967 96.7816 53.9504 96.835 54.0959C96.8886 54.2436 96.9709 54.3792 97.0772 54.4949C97.1909 54.6179 97.3285 54.7165 97.4816 54.7847C97.6575 54.861 97.8479 54.8979 98.0396 54.8928C98.2675 54.8917 98.4934 54.8499 98.7067 54.7695C98.9103 54.6995 99.0968 54.5871 99.2538 54.4397V54.8031H99.8821V52.7897C99.8821 52.5677 99.8745 52.3514 99.8593 52.1409C99.8471 51.943 99.7902 51.7504 99.6928 51.5776ZM99.2495 53.9121C99.2064 54.0109 99.1492 54.1031 99.0797 54.1856C99.0122 54.2677 98.934 54.3404 98.8473 54.4019C98.7632 54.4625 98.6711 54.5113 98.5737 54.5468C98.4823 54.5805 98.3857 54.5981 98.2882 54.5987C98.1821 54.5974 98.077 54.5773 97.9779 54.5392C97.868 54.4985 97.767 54.4368 97.6806 54.3576C97.5915 54.2732 97.5183 54.1736 97.4643 54.0635C97.4051 53.9351 97.3762 53.7949 97.38 53.6536C97.379 53.522 97.4017 53.3912 97.447 53.2676C97.488 53.1485 97.5516 53.0384 97.6341 52.9432C97.7178 52.8493 97.8202 52.7738 97.9347 52.7216C98.0573 52.6636 98.1915 52.6344 98.3272 52.6362C98.4555 52.6328 98.5829 52.6595 98.6991 52.714C98.7974 52.762 98.8872 52.8255 98.9651 52.9022C99.0344 52.9702 99.095 53.0464 99.1457 53.1292C99.1873 53.1954 99.2234 53.2648 99.2538 53.3368L99.2495 53.9121Z" fill="white"/>
<path d="M104.348 54.4662C104.278 54.4273 104.213 54.3813 104.153 54.3289C104.086 54.2715 104.022 54.2102 103.962 54.1451C103.9 54.0791 103.844 54.0131 103.794 53.9483L102.821 52.6853L104.323 51.1196H103.857L102.019 53.0249V51.1196H101.391V54.8036H102.019V53.506L102.426 53.0735L103.343 54.2781C103.403 54.3527 103.465 54.4273 103.527 54.5008C103.589 54.5735 103.658 54.6398 103.733 54.6987C103.805 54.7569 103.886 54.8042 103.973 54.8392C104.06 54.8751 104.154 54.8931 104.248 54.8922C104.336 54.8922 104.423 54.8817 104.508 54.8609C104.592 54.8403 104.667 54.8209 104.732 54.8014V54.5116L104.523 54.5181C104.461 54.515 104.401 54.4972 104.348 54.4662Z" fill="white"/>
<path d="M106.769 51.6848C106.886 51.5634 107.028 51.4695 107.186 51.4101C107.324 51.3564 107.47 51.3275 107.618 51.3247C107.829 51.3206 108.036 51.3834 108.21 51.5042C108.366 51.607 108.483 51.7593 108.542 51.9367H109.054C109.013 51.7721 108.932 51.6204 108.817 51.4955C108.71 51.3809 108.583 51.2861 108.442 51.2155C108.3 51.1445 108.148 51.0945 107.991 51.0673C107.839 51.0408 107.686 51.0271 107.532 51.0263C107.251 51.0209 106.971 51.0724 106.711 51.1776C106.485 51.2718 106.281 51.4121 106.112 51.5896C105.949 51.7647 105.824 51.9716 105.745 52.1973C105.663 52.4355 105.622 52.6859 105.623 52.938C105.621 53.2009 105.666 53.462 105.756 53.7089C105.84 53.9388 105.97 54.1495 106.137 54.3285C106.305 54.5059 106.508 54.6469 106.733 54.7426C106.981 54.8469 107.248 54.8984 107.518 54.894C107.81 54.9002 108.101 54.845 108.371 54.7318C108.588 54.6385 108.795 54.521 108.986 54.3815L108.77 54.0993C108.615 54.2296 108.442 54.3357 108.255 54.4139C108.077 54.4824 107.888 54.5166 107.698 54.5145C107.523 54.515 107.35 54.4876 107.183 54.4334C107.019 54.3794 106.869 54.2901 106.743 54.1717C106.606 54.0368 106.501 53.8722 106.437 53.6905C106.281 53.2008 106.285 52.6737 106.449 52.1865C106.521 51.9996 106.63 51.829 106.769 51.6848Z" fill="white"/>
<path d="M112.885 51.5776C112.782 51.4043 112.629 51.2661 112.446 51.1808C112.177 51.0661 111.885 51.0144 111.593 51.0294C111.407 51.0263 111.222 51.0448 111.04 51.0845C110.903 51.1166 110.77 51.1649 110.645 51.2284C110.542 51.2812 110.447 51.3486 110.364 51.4284C110.288 51.5019 110.215 51.5765 110.147 51.6511L110.529 52.0307C110.592 51.9252 110.66 51.8234 110.734 51.7257C110.799 51.6402 110.875 51.5638 110.96 51.4987C111.045 51.436 111.138 51.3874 111.238 51.3549C111.356 51.3184 111.479 51.3009 111.602 51.303C111.922 51.303 112.143 51.4014 112.263 51.5982C112.384 51.7949 112.444 52.0945 112.444 52.4967V52.8124C112.312 52.6527 112.143 52.5273 111.952 52.447C111.752 52.3604 111.537 52.3163 111.319 52.3172C111.117 52.3134 110.916 52.3536 110.731 52.4351C110.568 52.5075 110.421 52.6119 110.299 52.7422C110.184 52.8651 110.094 53.0095 110.035 53.1671C109.921 53.4657 109.918 53.7955 110.027 54.0959C110.081 54.2437 110.164 54.3793 110.271 54.4949C110.384 54.618 110.521 54.7166 110.674 54.7847C110.85 54.8609 111.041 54.8978 111.233 54.8928C111.461 54.8917 111.687 54.85 111.9 54.7696C112.104 54.6995 112.29 54.5871 112.447 54.4398V54.8031H113.075V52.7897C113.075 52.5677 113.068 52.3514 113.053 52.141C113.041 51.9428 112.983 51.7501 112.885 51.5776ZM112.443 53.9121C112.4 54.011 112.343 54.1031 112.273 54.1857C112.205 54.2678 112.127 54.3405 112.04 54.4019C111.956 54.4628 111.864 54.5115 111.767 54.5468C111.676 54.5805 111.579 54.5981 111.482 54.5987C111.375 54.5975 111.27 54.5773 111.17 54.5392C111.061 54.4983 110.96 54.4366 110.874 54.3576C110.785 54.2735 110.711 54.1739 110.658 54.0635C110.598 53.9353 110.569 53.795 110.572 53.6537C110.572 53.5221 110.594 53.3914 110.639 53.2677C110.68 53.1484 110.744 53.0382 110.827 52.9433C110.911 52.8493 111.013 52.7738 111.128 52.7216C111.25 52.6638 111.384 52.6346 111.519 52.6362C111.648 52.6327 111.776 52.6594 111.892 52.714C111.99 52.7623 112.08 52.8258 112.157 52.9022C112.227 52.9702 112.288 53.0465 112.339 53.1293C112.381 53.1954 112.417 53.2649 112.447 53.3369L112.443 53.9121Z" fill="white"/>
<path d="M119.042 54.5113H117.444V51.1128H116.817V54.5113H115.222V51.1128H114.594V54.8065H119.678V51.1128H119.042V54.5113Z" fill="white"/>
<path d="M123.867 53.0731C123.759 53.0027 123.639 52.9515 123.513 52.9217C123.4 52.8935 123.285 52.8761 123.169 52.8698V52.8201C123.27 52.7999 123.369 52.7691 123.464 52.7282C123.561 52.6869 123.65 52.6291 123.728 52.5573C123.805 52.486 123.868 52.401 123.914 52.3065C123.961 52.205 123.985 52.0941 123.984 51.9821C123.982 51.8965 123.969 51.8116 123.946 51.7291C123.916 51.6222 123.86 51.5242 123.784 51.4436C123.681 51.3389 123.556 51.259 123.417 51.2101C123.212 51.1394 122.995 51.1071 122.778 51.1149H121.234V54.8032H122.905C123.114 54.8076 123.323 54.7791 123.523 54.7188C123.676 54.6724 123.819 54.5972 123.943 54.4972C124.044 54.4142 124.122 54.3076 124.171 54.1868C124.216 54.0733 124.239 53.9522 124.238 53.83C124.243 53.6679 124.206 53.5073 124.13 53.364C124.068 53.247 123.977 53.1471 123.867 53.0731ZM121.859 51.4079H122.591C122.729 51.4019 122.867 51.4274 122.994 51.4825C123.083 51.5231 123.163 51.5838 123.225 51.6599C123.276 51.7232 123.313 51.797 123.333 51.8761C123.35 51.9423 123.359 52.0101 123.36 52.0783C123.362 52.1828 123.338 52.2862 123.29 52.3789C123.243 52.4656 123.179 52.5415 123.101 52.6017C123.018 52.6646 122.925 52.7122 122.826 52.7422C122.721 52.775 122.612 52.7914 122.502 52.7909H121.859V51.4079ZM123.456 54.2117C123.384 54.3061 123.288 54.3805 123.179 54.428C123.075 54.4714 122.966 54.4977 122.854 54.5058C122.746 54.5123 122.671 54.5166 122.624 54.5166H121.859V53.0428H122.508C122.587 53.0428 122.687 53.0428 122.808 53.0569C122.928 53.0665 123.046 53.0965 123.157 53.1456C123.272 53.196 123.373 53.2749 123.45 53.3748C123.537 53.4986 123.581 53.6484 123.572 53.7997C123.581 53.9468 123.538 54.0923 123.452 54.2117H123.456Z" fill="white"/>
<path d="M126.203 54.3707V51.1128H125.576V54.8065H126.316L128.198 51.5702V54.8065H128.827V51.1128H128.087L126.203 54.3707Z" fill="white"/>
<path d="M132.054 51.1126L130.928 53.8969C130.904 53.9532 130.878 54.0159 130.849 54.0872C130.818 54.1573 130.782 54.2249 130.741 54.2894C130.704 54.3491 130.658 54.4025 130.604 54.4473C130.557 54.4876 130.498 54.5101 130.436 54.5111C130.36 54.5094 130.286 54.489 130.22 54.4516C130.157 54.4192 130.098 54.3796 130.045 54.3338L129.926 54.7241C130.058 54.8393 130.23 54.8986 130.406 54.8895C130.491 54.8908 130.576 54.8769 130.657 54.8485C130.737 54.8163 130.808 54.7655 130.864 54.7003C130.939 54.6149 131.002 54.5204 131.054 54.4192C131.127 54.2763 131.192 54.1298 131.25 53.9802L132.098 51.8446H132.141L133.332 54.803H133.996L132.498 51.1094L132.054 51.1126Z" fill="white"/>
<path d="M135.732 54.3707V51.1128H135.104V54.8065H135.843L137.727 51.5702V54.8065H138.355V51.1128H137.615L135.732 54.3707Z" fill="white"/>
</g>
<defs>
<clipPath id="clip0_2521_1070">
<rect width="155.998" height="71.1821" fill="white" transform="translate(0 0.414062)"/>
</clipPath>
</defs>
</svg>
