<svg width="156" height="59" fill="none" xmlns="http://www.w3.org/2000/svg"><g clip-path="url(#a)"><path d="M42.744 23.34c-1.864-1.298-4.186-1.75-6.425-1.756-1.699.01-3.384.29-4.994.833a25.13 25.13 0 0 0-2.346.964c-2.703 1.298-5.161 3.057-7.401 5.053a58.834 58.834 0 0 1-4.34-4.793 59.885 59.885 0 0 0 4.289-3.625c2.306-2.127 4.675-4.491 5.61-7.594.656-2.07.585-4.311.02-6.396-1.53-5.873-7.892-7.54-12.81-4.62a.058.058 0 0 0-.017.014c-2.97.89-4.65 4.433-4.633 8.025.016 4.306 1.794 8.162 4.224 11.625-.64.487-1.298.959-1.963 1.405-3.676 2.487-7.706 4.395-11.73 6.259a.34.34 0 0 0-.195.46.33.33 0 0 0 .184.165c3.993 1.946 7.956 3.974 11.578 6.487.649.45 1.285.919 1.909 1.406-2.197 3.168-3.839 6.67-4.118 10.58-.315 3.636 1.254 8.097 4.736 9.111a.057.057 0 0 0 .032.038c.911.477 1.886.82 2.895 1.019 4.413.873 8.822-1.45 9.972-5.925a12.27 12.27 0 0 0-.053-6.405 11.136 11.136 0 0 0-1.463-2.92c-1.044-1.532-2.287-2.863-3.61-4.134a60.694 60.694 0 0 0-4.83-4.138 101.35 101.35 0 0 1 2.4-2.79c.63-.69 1.279-1.364 1.947-2.024 2.04 1.825 4.258 3.452 6.695 4.7 2.495 1.318 5.272 2.157 8.11 2.143 2.513-.01 5.157-.567 7.11-2.234 1.546-1.31 2.316-3.223 2.388-5.221-.176-2.296-1.242-4.412-3.171-5.713ZM25.252 3.46c.56.835.966 1.763 1.2 2.741.746 2.925.271 6.155-1.5 8.629-1.15 1.66-2.636 3.052-4.131 4.4a58.69 58.69 0 0 1-4.29 3.532c-.366-.46-.727-.922-1.082-1.389a29.32 29.32 0 0 1-.47-.654c3.34-2.77 7.195-5.872 8.053-10.362.636-3.43-1.298-7.155-4.516-8.553-1.373-.582-2.61-.714-3.694-.508 3.452-1.65 8.182-1.17 10.43 2.164ZM13.625 18.632c-2.184-3.647-3.706-8.126-2.52-12.354.998-3.467 3.67-5.254 7.153-3.858 3.011 1.215 4.907 4.664 4.348 7.866-.54 3.312-2.99 5.906-5.407 8.075a70.155 70.155 0 0 1-2.438 2.047 35.419 35.419 0 0 1-1.136-1.776Zm-7.11 13.026A135.581 135.581 0 0 0 1.1 29.04c1.797-.88 3.59-1.778 5.35-2.738 2.673-1.459 5.284-3.053 7.696-4.919a41.565 41.565 0 0 0 1.53 2 51.724 51.724 0 0 1-8.862 5.011 53.657 53.657 0 0 0-.79-.343c-.688-.308-1.514.235-1.502.993a1.08 1.08 0 0 0 1.502 1.003c.265-.109.53-.229.795-.345a52.005 52.005 0 0 1 8.818 4.992c-.465.57-.916 1.15-1.353 1.742a53.255 53.255 0 0 0-7.768-4.778Zm4.779 20.15c-.636-2.01-.553-4.233-.102-6.28.628-2.737 1.88-5.223 3.43-7.538a71.206 71.206 0 0 1 2.335 1.995c3.028 2.71 6.38 6.57 5.108 10.91-.813 2.942-3.718 5.326-6.812 4.939-2.054-.268-3.39-2.126-3.96-4.026Zm9.524-12.94c1.495 1.354 2.94 2.785 4.11 4.426.593.81 1.065 1.705 1.398 2.653.574 1.935.64 3.986.188 5.954-1.25 5.314-6.996 7.097-11.673 5.165a5.997 5.997 0 0 0 2.08 0c1.8-.282 3.46-1.29 4.622-2.682 2.467-2.91 2.526-6.83.614-10.034-1.156-2.002-2.782-3.65-4.491-5.158a45.027 45.027 0 0 0-2.457-2.047c.432-.607.88-1.203 1.345-1.787a50.92 50.92 0 0 1 4.265 3.51Zm-1.895-7.872a74.946 74.946 0 0 0-2.55 2.82 51.025 51.025 0 0 0-8.128-4.766 51.294 51.294 0 0 0 8.162-4.79 79.496 79.496 0 0 0 2.584 2.873 49.868 49.868 0 0 0 1.927 1.901 46.991 46.991 0 0 0-1.995 1.962Zm20.782 4.902c-2.427.541-4.992.336-7.361-.374-2.886-.945-5.508-2.579-7.859-4.48a41.008 41.008 0 0 1-2.259-1.987c1.91-1.82 3.984-3.469 6.286-4.758 1.43-.802 2.954-1.513 4.549-1.918 3.161-.782 6.782-.722 9.582 1.107 1.906 1.24 2.95 3.328 3.142 5.558-.154 3.717-2.546 6.081-6.08 6.852Z" fill="#C89D6C"/><path d="M57.466 24.742c0 2.97.832 4.301 4.108 4.301 1.554 0 2.442-.804 2.442-2.414v-.222h-.25v.222c0 1.443-.832 2.137-1.946 2.137-1.637 0-1.859-1.693-1.859-3.525V7.893h-4.883v.277h2.388v16.572ZM74.602 29.043c2.498 0 4.83-.638 6.578-2.526l-.14-.108c-1.609 1.61-3.968 2.303-6.021 2.303-3.915 0-6.579-2.58-6.579-7.16 1.832 1 3.692 1.61 6.329 1.61 4.301 0 7.077-1.638 7.077-4.19 0-2.554-2.83-4.442-7.327-4.442-5.468 0-8.91 2.748-8.91 7.137 0 4.657 3.918 7.376 8.993 7.376Zm-.25-14.265c3.245 0 4.83 2.081 4.83 4.246 0 2.554-1.999 3.858-4.774 3.858-2.026 0-4.191-.666-5.968-1.61.083-3.996 2.304-6.494 5.913-6.494ZM104.579 7.893h-8.59v.277h2.919V28.77h-2.92v.278h8.463v-.278h-2.94V18.274h3.068c5.634 0 9.853-.943 9.853-5.218 0-4.023-4.219-5.163-9.853-5.163Zm-.25 10.13h-2.818v-9.85h2.845c5.082 0 7.189 1.47 7.189 4.884 0 3.442-2.192 4.968-7.216 4.968v-.002ZM123.192 29.043c3.69 0 5.745-1.665 6.771-4.773v1.498c0 2.415 1.555 3.275 3.969 3.275 1.804 0 2.553-.887 2.553-2.414v-.222h-.277v.222c0 1.415-.805 2.137-1.888 2.137-1.72 0-1.914-1.748-1.914-3.524v-3.47c0-4.996-3.664-7.245-7.577-7.245-.483.008-.965.044-1.444.108-2.636.333-5.19 1.499-5.19 3.053a1.37 1.37 0 0 0 1.394 1.364 1.329 1.329 0 0 0 1.36-1.36c0-.776-.584-1.36-1.583-1.36 1.111-.805 2.443-1.304 4.001-1.47.333-.028.638-.056.943-.056 4.024 0 5.662 2.997 5.662 6.689v.693c-1.554-1.304-3.219-1.97-5.606-2.081-.278-.027-.583-.027-.916-.027-2.832 0-6.938.973-6.938 4.523-.009 3.025 2.905 4.44 6.68 4.44Zm.888-8.603c2.081-.084 4.191.555 5.856 2.026-.167 3.775-2.859 6.271-6.163 6.271-3.054 0-4.441-1.998-4.441-4.08.002-2.053 1.306-4.078 4.748-4.22v.003ZM153.724 28.771l-6.161-7.748 5.857-5.967h2.081v-.278h-4.802v.278h2.331l-5.633 5.745-4.802-5.745h2.248v-.278h-6.938v.278h1.749l5.911 7.188-6.161 6.527h-1.832v.278h4.273v-.278h-2.053l5.967-6.36 5.051 6.36h-2.83v.278h8.021v-.278h-2.277ZM63.85 44.195a2.646 2.646 0 0 0 .617-2.786 2.595 2.595 0 0 0-1.357-1.514 2.83 2.83 0 0 0-1.26-.255 2.961 2.961 0 0 0-1.082.187 2.823 2.823 0 0 0-.843.505 2.614 2.614 0 0 0-.59.75 2.76 2.76 0 0 0-.29.903h-.91v-2.259h-.67V44.9h.67v-2.585h.91c-.003.42.089.835.268 1.215a2.51 2.51 0 0 0 1.55 1.309c.321.099.655.15.99.151.384.004.764-.07 1.118-.216.328-.134.627-.33.88-.579Zm-2 .47a2.099 2.099 0 0 1-.676-.125 1.919 1.919 0 0 1-.675-.405 2.288 2.288 0 0 1-.522-.733 2.572 2.572 0 0 1-.217-1.095c-.009-.374.065-.747.217-1.09.123-.274.3-.52.522-.724.196-.178.425-.314.675-.402.43-.166.907-.166 1.338 0 .247.086.474.222.666.399.219.204.394.45.515.724a2.996 2.996 0 0 1 0 2.192 2.27 2.27 0 0 1-.515.733c-.191.18-.418.318-.666.406a2.037 2.037 0 0 1-.663.12ZM67.86 44.99c.234.003.465-.044.679-.137.206-.089.39-.22.54-.387a1.78 1.78 0 0 0 .352-.609 2.57 2.57 0 0 0 0-1.593 1.877 1.877 0 0 0-.351-.61 1.539 1.539 0 0 0-.541-.394 1.657 1.657 0 0 0-.679-.138c-.587 0-.973.227-1.155.683h-.028v-.6h-.628v5.549h.628V44.3h.028c.086.231.255.422.474.535.102.053.211.093.324.117.117.026.237.038.357.038Zm-.873-.715c-.099-.12-.175-.256-.226-.403a1.607 1.607 0 0 1-.084-.54v-.65a1.37 1.37 0 0 1 .078-.463c.047-.14.12-.268.216-.379.09-.104.2-.19.325-.25a.905.905 0 0 1 .404-.094c.15 0 .299.03.438.086.143.058.269.15.366.27.114.142.198.305.247.48.066.232.097.472.092.713a2.44 2.44 0 0 1-.092.719c-.05.176-.135.341-.25.484a.946.946 0 0 1-.366.274 1.145 1.145 0 0 1-.433.085.934.934 0 0 1-.715-.332ZM73.502 44.9h.627v-3.694h-.74l-1.882 3.258v-3.258h-.628V44.9h.74l1.883-3.237V44.9ZM78.934 45.676h.516v-1.072h-.516l-1.417-3.398h-.444l-1.383 3.398h-.534v1.072h.52v-.777h3.258v.777Zm-2.89-1.072 1.081-2.666h.048l1.1 2.666h-2.229ZM83.102 44.9h.628v-3.694h-.74l-1.883 3.258v-3.258h-.629V44.9h.74l1.884-3.237V44.9ZM87.19 43.066a6.004 6.004 0 0 1-.357.072l-.216.033c-.062.01-.126.015-.189.016a1.001 1.001 0 0 1-.432-.072.585.585 0 0 1-.217-.169.431.431 0 0 1-.086-.207 1.537 1.537 0 0 1-.013-.18V41.19h-.627v1.368c0 .06 0 .143.016.249a.758.758 0 0 0 .398.588c.177.087.374.127.57.116a3.707 3.707 0 0 0 1.146-.195v1.566h.628V41.19h-.628l.007 1.877ZM91.916 44.822c.26-.11.494-.272.688-.478l-.233-.234c-.103.088-.199.17-.287.243a1.619 1.619 0 0 1-.565.304c-.109.028-.22.042-.333.041a1.688 1.688 0 0 1-.439-.063 1.156 1.156 0 0 1-.763-.677 1.774 1.774 0 0 1-.133-.74h2.788v-.154a2.385 2.385 0 0 0-.14-.857 1.683 1.683 0 0 0-.376-.6 1.55 1.55 0 0 0-.553-.353 1.885 1.885 0 0 0-.664-.117 1.867 1.867 0 0 0-.697.128c-.21.084-.4.212-.557.375a1.754 1.754 0 0 0-.371.6 2.213 2.213 0 0 0-.134.795c0 .245.039.488.115.72.075.23.194.443.35.627.163.19.366.341.593.445.267.117.557.174.848.167.296.002.59-.057.863-.172Zm-2.003-2.475c.038-.172.102-.338.19-.49.08-.14.192-.257.325-.346a.849.849 0 0 1 .474-.13.94.94 0 0 1 .813.41c.194.273.292.649.292 1.128h-2.153a2.552 2.552 0 0 1 .06-.572ZM96.905 44.195c-.154.131-.327.237-.514.315a1.508 1.508 0 0 1-.558.102c-.174 0-.348-.028-.513-.083a1.171 1.171 0 0 1-.747-.742 2.097 2.097 0 0 1-.109-.738 2.055 2.055 0 0 1 .127-.767c.07-.187.176-.359.314-.504.117-.121.259-.215.416-.275.138-.054.284-.083.432-.086.21-.003.416.06.588.18a.841.841 0 0 1 .333.432h.51a1.007 1.007 0 0 0-.235-.44 1.354 1.354 0 0 0-.375-.28 1.634 1.634 0 0 0-.45-.149 2.778 2.778 0 0 0-.462-.041 2.087 2.087 0 0 0-.82.151 1.76 1.76 0 0 0-.6.412 1.709 1.709 0 0 0-.365.608 2.202 2.202 0 0 0-.123.74c-.003.264.043.525.134.772a1.777 1.777 0 0 0 .975 1.034c.249.103.516.155.785.15.293.007.584-.048.853-.161a3.09 3.09 0 0 0 .616-.35l-.212-.28ZM101.71 44.9v-.296l-.21.008a.398.398 0 0 1-.186-.053 1.1 1.1 0 0 1-.195-.138 2.319 2.319 0 0 1-.191-.184 3.602 3.602 0 0 1-.168-.197l-.966-1.262 1.501-1.566h-.465l-1.838 1.905v-1.905h-.629v3.687h.629v-1.297l.407-.433.916 1.206c.061.074.121.148.184.216.061.073.13.139.205.198.073.058.154.106.24.141a.727.727 0 0 0 .277.052c.087 0 .175-.01.26-.03.089-.013.16-.033.229-.053ZM106.29 43.792a2.108 2.108 0 0 0 0-1.469 1.84 1.84 0 0 0-.982-1.043 1.869 1.869 0 0 0-.788-.16 1.944 1.944 0 0 0-.802.16 1.87 1.87 0 0 0-.607.426c-.166.18-.296.39-.384.617a2.012 2.012 0 0 0 .384 2.08c.171.182.377.327.607.426.253.108.526.163.802.159.271.004.539-.05.788-.156a1.8 1.8 0 0 0 .982-1.04Zm-.683.097a1.31 1.31 0 0 1-.289.5.919.919 0 0 1-.392.24 1.39 1.39 0 0 1-.826 0 .945.945 0 0 1-.396-.24 1.26 1.26 0 0 1-.297-.5 3.129 3.129 0 0 1 0-1.668c.059-.187.161-.358.297-.5a.93.93 0 0 1 .396-.242c.269-.085.558-.085.826 0a.9.9 0 0 1 .392.242c.132.143.231.314.289.5a3.19 3.19 0 0 1 0 1.668ZM110.983 44.345l-.233-.235c-.103.089-.199.17-.289.243a1.561 1.561 0 0 1-.563.3 1.271 1.271 0 0 1-.333.04 1.687 1.687 0 0 1-.439-.062 1.157 1.157 0 0 1-.433-.226 1.235 1.235 0 0 1-.33-.45 1.768 1.768 0 0 1-.133-.74h2.788v-.155a2.384 2.384 0 0 0-.139-.857 1.684 1.684 0 0 0-.378-.6 1.544 1.544 0 0 0-.552-.353 1.894 1.894 0 0 0-.664-.117 1.854 1.854 0 0 0-.697.128 1.567 1.567 0 0 0-.557.375 1.754 1.754 0 0 0-.371.599 2.203 2.203 0 0 0-.134.796c0 .245.039.488.115.72.075.23.193.443.35.627.163.19.365.341.593.444.267.118.557.175.848.168.297.003.591-.054.865-.168.259-.11.493-.272.686-.477Zm-2.691-1.998c.038-.172.102-.338.191-.49.08-.139.191-.257.324-.345a.848.848 0 0 1 .474-.13.936.936 0 0 1 .813.41c.194.272.292.648.292 1.127h-2.163c.001-.192.025-.384.069-.572ZM115.449 44.236c.158.225.367.408.61.536.32.157.674.232 1.03.216.293.008.583-.052.848-.175.222-.107.419-.263.574-.454.148-.187.259-.4.324-.629.07-.227.107-.463.109-.701a2.332 2.332 0 0 0-.109-.699 1.726 1.726 0 0 0-.324-.609 1.68 1.68 0 0 0-.57-.432 1.915 1.915 0 0 0-.838-.168 2.022 2.022 0 0 0-.604.084 1.756 1.756 0 0 0-.466.216 1.513 1.513 0 0 0-.557.676h-.028v-.035c-.002-.296.053-.59.162-.865.086-.237.233-.447.426-.608a1.33 1.33 0 0 1 .649-.267c.251-.029.504-.042.757-.04h.909l.399-.557h-1.029c-.211 0-.421.006-.629.017a2.426 2.426 0 0 0-.596.108c-.194.06-.377.152-.541.272-.186.139-.34.314-.454.516a2.144 2.144 0 0 0-.229.518 3.572 3.572 0 0 0-.12.54 4.74 4.74 0 0 0-.045.532c-.005.175-.007.339-.007.492v.2c.003.215.028.43.073.64.047.241.141.47.276.676Zm.432-1.905c.048-.187.134-.362.251-.516a1.02 1.02 0 0 1 .381-.3c.15-.065.313-.099.478-.098.106.004.213.014.318.032.151.026.293.09.413.186.159.13.284.3.362.49.118.303.171.626.156.95.009.28-.033.56-.123.827a1.348 1.348 0 0 1-.299.492.954.954 0 0 1-.377.237c-.113.038-.23.06-.349.063a1.508 1.508 0 0 1-.42-.066 1.05 1.05 0 0 1-.424-.25 1.393 1.393 0 0 1-.324-.495 2.144 2.144 0 0 1-.13-.809c-.006-.25.023-.5.084-.743h.003ZM124.811 41.69a1.777 1.777 0 0 0-.6-.416 2.014 2.014 0 0 0-.798-.152 2.17 2.17 0 0 0-.735.124 1.7 1.7 0 0 0-1.009.904 1.788 1.788 0 0 0-.163.737h-.613v-1.675h-.627v3.695h.627v-1.771h.613c.017.225.071.447.159.656.09.22.218.421.377.597.165.18.363.327.584.432.246.116.515.173.787.168.277.005.552-.047.809-.151.228-.095.433-.237.6-.418.165-.18.292-.393.374-.624.09-.249.134-.512.131-.777a1.967 1.967 0 0 0-.134-.724 1.85 1.85 0 0 0-.382-.605Zm-.247 1.917c-.035.19-.1.372-.192.54-.088.16-.215.296-.368.395a1.068 1.068 0 0 1-.588.15 1.389 1.389 0 0 1-.413-.065.91.91 0 0 1-.39-.252 1.42 1.42 0 0 1-.292-.514 2.585 2.585 0 0 1-.116-.842 2.52 2.52 0 0 1 .133-.912c.067-.183.178-.347.325-.477a.814.814 0 0 1 .393-.182c.12-.02.241-.03.362-.032.139.002.279.02.414.057a.907.907 0 0 1 .39.226c.133.137.232.303.289.486.08.268.117.547.108.826 0 .2-.019.4-.055.596ZM130.153 43.063a2.384 2.384 0 0 0-.126-.799 1.883 1.883 0 0 0-.353-.61 1.533 1.533 0 0 0-.54-.394 1.65 1.65 0 0 0-.678-.138c-.587 0-.972.228-1.155.683h-.029v-.6h-.627v5.549h.627V44.3h.029a1 1 0 0 0 .472.54c.103.054.212.094.325.119.346.074.706.039 1.031-.1.206-.088.391-.22.541-.387.157-.177.277-.384.352-.608.09-.258.134-.528.131-.8Zm-.796.705c-.05.177-.135.342-.25.485a.944.944 0 0 1-.367.273 1.143 1.143 0 0 1-.432.086.926.926 0 0 1-.718-.337 1.278 1.278 0 0 1-.225-.403 1.578 1.578 0 0 1-.086-.54v-.65a1.383 1.383 0 0 1 .078-.463 1.15 1.15 0 0 1 .216-.379c.091-.104.201-.189.325-.25a.906.906 0 0 1 .404-.094c.151 0 .3.03.439.086.143.057.268.15.366.27.113.142.198.305.247.48.066.232.097.472.092.713.006.244-.023.488-.089.723ZM134.571 41.708a1.87 1.87 0 0 0-1.387-.586c-.276-.004-.55.05-.803.16a1.849 1.849 0 0 0-.991 1.044c-.182.47-.182.99 0 1.46.088.23.219.44.385.62.17.181.377.326.606.425.253.109.527.163.803.16.27.003.539-.05.787-.157.227-.097.432-.24.6-.421.167-.18.297-.39.382-.619a2.108 2.108 0 0 0 0-1.468 1.82 1.82 0 0 0-.382-.618Zm-.301 2.184a1.31 1.31 0 0 1-.289.499.92.92 0 0 1-.392.24 1.392 1.392 0 0 1-.826 0 .95.95 0 0 1-.396-.24 1.275 1.275 0 0 1-.297-.5 3.129 3.129 0 0 1 0-1.668c.06-.187.161-.358.297-.5a.935.935 0 0 1 .396-.242c.269-.085.558-.085.826 0 .15.046.284.13.392.242.132.144.231.314.289.5a3.15 3.15 0 0 1 0 1.669ZM61.279 49.218h-.372l-2.772 2.912v-2.912h-.67v5.174h.67v-1.818l.837-.895 1.964 2.713h.767l-2.305-3.172 1.88-2.002ZM65.532 51.163a1.01 1.01 0 0 0-.44-.397 1.923 1.923 0 0 0-.852-.151 2.392 2.392 0 0 0-.552.055 1.77 1.77 0 0 0-.396.144c-.103.052-.198.12-.28.2a5.166 5.166 0 0 0-.217.223l.382.38c.063-.106.132-.208.206-.306a1.15 1.15 0 0 1 .226-.227.952.952 0 0 1 .278-.144 1.16 1.16 0 0 1 .363-.052c.32 0 .54.099.66.296.121.196.182.496.183.898v.316a1.298 1.298 0 0 0-.492-.366c-.2-.086-.415-.13-.633-.13a1.4 1.4 0 0 0-.59.118 1.319 1.319 0 0 0-.696.732 1.314 1.314 0 0 0-.007.93 1.19 1.19 0 0 0 .646.688c.176.076.367.113.558.108.228 0 .454-.043.667-.123.204-.07.391-.183.549-.33v.364h.627v-2.014c0-.222-.008-.438-.023-.649a1.313 1.313 0 0 0-.167-.563Zm-.44 2.335a1.195 1.195 0 0 1-.677.635.838.838 0 0 1-.285.051.924.924 0 0 1-.907-.945 1.1 1.1 0 0 1 .255-.71.904.904 0 0 1 .3-.222.893.893 0 0 1 .392-.085.82.82 0 0 1 .372.078c.098.047.188.111.266.188.07.067.13.144.18.227.042.066.078.135.109.207l-.004.576ZM70.266 51.145a1.536 1.536 0 0 0-.54-.394 1.648 1.648 0 0 0-.678-.137c-.587 0-.972.227-1.155.682h-.03v-.599h-.627v5.548h.627v-2.452h.03c.042.12.108.23.194.324.08.088.174.161.278.217.103.053.212.093.325.117.346.074.706.04 1.031-.1.206-.088.39-.22.54-.386.157-.178.277-.385.353-.609a2.57 2.57 0 0 0 0-1.593 1.87 1.87 0 0 0-.348-.618Zm-.317 2.115c-.05.176-.135.341-.25.484a.956.956 0 0 1-.367.274 1.146 1.146 0 0 1-.433.084.922.922 0 0 1-.718-.336 1.27 1.27 0 0 1-.224-.404 1.577 1.577 0 0 1-.086-.54v-.644c0-.158.026-.315.078-.464a1.073 1.073 0 0 1 .54-.63.921.921 0 0 1 .405-.092c.15 0 .3.029.439.086.142.057.268.15.365.269.114.142.198.306.248.481.066.232.097.472.092.713.007.243-.023.486-.089.72v-.001ZM72.698 53.956v-3.258h-.628v3.694h.741l1.882-3.237v3.237h.629v-3.694h-.74L72.7 53.956ZM79.368 52.375h-1.87v-1.677h-.627v3.694h.627v-1.764h1.87v1.764h.627v-3.694h-.627v1.677ZM83.982 52.521a1.616 1.616 0 0 0-.495-.12 5.54 5.54 0 0 0-.432-.023h-.888v-1.677h-.628v3.688h1.946c.135 0 .268-.023.395-.066.127-.043.244-.11.345-.196a1.02 1.02 0 0 0 .239-.31.876.876 0 0 0 .093-.406.923.923 0 0 0-.167-.585.997.997 0 0 0-.408-.305Zm-.325 1.423a.793.793 0 0 1-.506.174h-.973v-1.49h.848c.043 0 .108 0 .207.014a.75.75 0 0 1 .541.33c.08.136.118.292.108.45a.628.628 0 0 1-.222.522h-.003ZM85.963 50.698h-.631v3.695h.632v-3.695ZM90.762 54.392h.67v-4.767h3.096v4.767h.675v-5.174h-4.441v5.174ZM99.695 51.163a1.016 1.016 0 0 0-.44-.397 1.922 1.922 0 0 0-.852-.151 2.393 2.393 0 0 0-.553.055c-.137.032-.27.08-.397.144-.102.052-.197.12-.28.2-.076.073-.149.148-.216.223l.382.38a3.05 3.05 0 0 1 .206-.306c.064-.085.14-.162.225-.227a.973.973 0 0 1 .28-.144c.116-.036.239-.054.361-.052.322 0 .542.099.662.296.121.196.18.496.18.898v.316c-.131-.16-.3-.285-.49-.366-.2-.086-.415-.13-.633-.13a1.4 1.4 0 0 0-.59.118 1.319 1.319 0 0 0-.703 1.661c.053.148.136.284.242.4.114.122.252.221.405.29.175.075.366.112.558.107.227 0 .453-.043.667-.123.203-.07.39-.182.547-.33v.364h.628v-2.014c0-.222-.008-.438-.023-.649a1.313 1.313 0 0 0-.166-.563Zm-.444 2.335a1.195 1.195 0 0 1-.676.635.839.839 0 0 1-.595-.008.903.903 0 0 1-.297-.182.92.92 0 0 1-.3-.704 1.1 1.1 0 0 1 .253-.71.905.905 0 0 1 .3-.222.893.893 0 0 1 .393-.085.825.825 0 0 1 .372.078c.098.047.188.111.266.188.07.068.13.144.18.227.042.066.078.135.109.207l-.005.576ZM104.35 54.051a1.132 1.132 0 0 1-.195-.137 2.673 2.673 0 0 1-.359-.38l-.973-1.264 1.502-1.565h-.466l-1.838 1.905v-1.905h-.628v3.684h.628V53.09l.407-.432.917 1.204c.06.075.121.15.184.223.062.073.131.139.206.198a.936.936 0 0 0 .24.14.703.703 0 0 0 .275.053c.088 0 .175-.01.26-.03.084-.022.159-.04.224-.06v-.29l-.209.006a.384.384 0 0 1-.175-.052ZM106.771 51.27c.117-.121.259-.215.417-.275.138-.053.284-.082.432-.085.211-.004.418.059.592.18a.826.826 0 0 1 .331.432h.513a1.011 1.011 0 0 0-.237-.441 1.324 1.324 0 0 0-.375-.28 1.631 1.631 0 0 0-.451-.148 2.74 2.74 0 0 0-.459-.041 2.085 2.085 0 0 0-.821.15c-.226.095-.43.235-.599.413a1.732 1.732 0 0 0-.367.608 2.248 2.248 0 0 0-.122.74c-.002.263.043.524.133.771a1.787 1.787 0 0 0 .976 1.034c.249.104.516.156.785.151.293.006.584-.049.854-.162a3.16 3.16 0 0 0 .615-.35l-.216-.282c-.155.13-.329.236-.515.314a1.65 1.65 0 0 1-1.072.02 1.182 1.182 0 0 1-.44-.262 1.266 1.266 0 0 1-.306-.481 2.41 2.41 0 0 1 .012-1.504 1.5 1.5 0 0 1 .32-.502ZM112.887 51.163a1.004 1.004 0 0 0-.439-.397 1.925 1.925 0 0 0-.853-.151 2.398 2.398 0 0 0-.553.055c-.137.032-.27.08-.395.144-.103.053-.198.12-.282.2a5.61 5.61 0 0 0-.216.223l.382.38c.063-.106.131-.208.205-.306a1.2 1.2 0 0 1 .226-.227.975.975 0 0 1 .278-.144c.118-.036.24-.054.364-.052.32 0 .541.099.661.296.121.196.181.496.181.898v.316a1.285 1.285 0 0 0-.492-.366c-.2-.086-.415-.13-.633-.13a1.396 1.396 0 0 0-.588.118c-.163.073-.31.177-.432.308a1.332 1.332 0 0 0-.272 1.354 1.202 1.202 0 0 0 .647.688c.176.076.367.113.559.108.228 0 .454-.043.667-.123.204-.07.39-.182.547-.33v.364h.628v-2.014c0-.222-.007-.438-.022-.649a1.3 1.3 0 0 0-.168-.563Zm-.442 2.335a1.185 1.185 0 0 1-.404.49c-.083.06-.175.109-.272.144a.84.84 0 0 1-.597-.007.912.912 0 0 1-.512-.476.92.92 0 0 1-.086-.41c0-.131.022-.262.067-.386a.906.906 0 0 1 .489-.546.888.888 0 0 1 .391-.085.824.824 0 0 1 .373.078c.098.048.188.111.265.188a1.373 1.373 0 0 1 .29.435l-.004.575ZM119.044 54.096h-1.598v-3.398h-.627v3.398h-1.595v-3.398h-.628v3.694h5.084v-3.694h-.636v3.398ZM123.869 52.659a1.121 1.121 0 0 0-.354-.152 1.821 1.821 0 0 0-.344-.052v-.05c.101-.02.2-.05.295-.091a.926.926 0 0 0 .264-.171.756.756 0 0 0 .256-.575 1.032 1.032 0 0 0-.038-.254.687.687 0 0 0-.162-.285.964.964 0 0 0-.367-.234 1.767 1.767 0 0 0-.639-.095h-1.544v3.689h1.671a2 2 0 0 0 .618-.085c.153-.046.296-.121.42-.221a.78.78 0 0 0 .228-.31.948.948 0 0 0 .067-.358.933.933 0 0 0-.108-.466.807.807 0 0 0-.263-.29Zm-2.008-1.666h.732a.912.912 0 0 1 .403.075.65.65 0 0 1 .231.177.567.567 0 0 1 .108.217.863.863 0 0 1 .027.202.628.628 0 0 1-.259.523.874.874 0 0 1-.275.14c-.105.034-.214.05-.324.05h-.643v-1.384Zm1.597 2.804a.704.704 0 0 1-.278.216 1.02 1.02 0 0 1-.324.078c-.108.007-.183.011-.23.011h-.765v-1.474h.649c.079 0 .178 0 .3.014.12.01.238.04.349.089.115.05.216.13.293.23.087.123.13.273.122.424a.639.639 0 0 1-.12.412h.004ZM126.205 53.956v-3.258h-.627v3.694h.74l1.882-3.237v3.237h.628v-3.694h-.739l-1.884 3.258ZM132.056 50.698l-1.126 2.784-.079.19a1.53 1.53 0 0 1-.108.203.648.648 0 0 1-.137.158.263.263 0 0 1-.168.063.457.457 0 0 1-.216-.059.892.892 0 0 1-.175-.118l-.119.39a.677.677 0 0 0 .48.166.728.728 0 0 0 .251-.041.536.536 0 0 0 .207-.148c.075-.086.138-.18.19-.281a4.67 4.67 0 0 0 .196-.44l.848-2.135h.043l1.191 2.959h.664l-1.498-3.694-.444.003ZM135.734 53.956v-3.258h-.629v3.694h.74l1.884-3.237v3.237h.628v-3.694h-.74l-1.883 3.258Z" fill="#fff"/></g><defs><clipPath id="a"><path fill="#fff" d="M0 0h156v58.183H0z"/></clipPath></defs></svg>