<svg width="113" height="113" viewBox="0 0 113 113" fill="none" xmlns="http://www.w3.org/2000/svg">
<rect width="112.968" height="112.975" rx="56.4842" fill="white"/>
<path d="M102.83 58.0029L96.6746 57.527L96.6168 58.2745L102.772 58.7504L102.83 58.0029ZM102.095 58.3618L101.998 59.6193C101.967 60.018 101.845 60.3329 101.633 60.5642C101.426 60.8018 101.131 60.9059 100.75 60.8764C100.375 60.8474 100.101 60.6994 99.9266 60.4323C99.7522 60.1712 99.6804 59.8412 99.7112 59.4426L99.8084 58.1851L99.1049 58.1307L99.0077 59.3882C98.9769 59.7869 99.0227 60.1472 99.1453 60.4693C99.2732 60.7976 99.468 61.0633 99.7295 61.2664C99.9964 61.4757 100.317 61.5949 100.693 61.6239C101.074 61.6533 101.409 61.5849 101.699 61.4186C101.989 61.2582 102.219 61.0253 102.39 60.7201C102.567 60.4212 102.67 60.0724 102.701 59.6737L102.798 58.4162L102.095 58.3618Z" fill="#232323"/>
<path d="M102.281 63.8986L96.2445 62.6033L96.0872 63.3363L102.124 64.6317L102.281 63.8986ZM95.8558 64.4142C95.73 65.0007 95.7448 65.5481 95.9003 66.0566C96.0558 66.565 96.33 66.9967 96.723 67.3517C97.1216 67.7078 97.6228 67.9507 98.2265 68.0802C98.8301 68.2098 99.3839 68.1933 99.8879 68.0308C100.398 67.8696 100.828 67.589 101.178 67.1891C101.528 66.7892 101.767 66.296 101.892 65.7096L102.194 64.304L101.461 64.1467L101.159 65.5523C101.087 65.8915 100.965 66.1903 100.796 66.4485C100.632 66.708 100.428 66.9168 100.183 67.0748C99.9446 67.2341 99.6727 67.3382 99.3675 67.3869C99.0624 67.4357 98.7345 67.4225 98.3838 67.3472C98.0331 67.272 97.7286 67.1495 97.4703 66.9798C97.212 66.8101 97.0039 66.6031 96.8458 66.3587C96.6935 66.1155 96.593 65.8414 96.5442 65.5362C96.5012 65.2323 96.5161 64.9107 96.5889 64.5715L96.8905 63.1659L96.1575 63.0086L95.8558 64.4142Z" fill="#232323"/>
<path d="M99.9481 70.4453L99.027 73.0478L99.6922 73.2832L100.613 70.6808L99.9481 70.4453ZM97.62 69.6213L96.7283 72.1406L97.3935 72.3761L98.2852 69.8567L97.62 69.6213ZM100.752 70.29L94.9314 68.2299L94.6812 68.9367L100.501 70.9967L100.752 70.29Z" fill="#232323"/>
<path d="M97.7496 77.6584L92.3881 74.5968L92.0163 75.2478L97.3778 78.3094L97.7496 77.6584ZM96.9313 77.6685L96.3058 78.7637C96.1075 79.111 95.8629 79.3437 95.5719 79.4619C95.2832 79.5882 94.9728 79.5566 94.6409 79.367C94.3141 79.1804 94.1292 78.9292 94.0861 78.6134C94.04 78.3028 94.1161 77.9738 94.3144 77.6266L94.9398 76.5313L94.3271 76.1814L93.7017 77.2767C93.5034 77.6239 93.3908 77.9693 93.3639 78.3128C93.3392 78.6643 93.4017 78.9878 93.5513 79.2831C93.7031 79.5865 93.9424 79.8315 94.2692 80.0181C94.6011 80.2076 94.9337 80.2892 95.267 80.2628C95.5973 80.2416 95.9051 80.1295 96.1902 79.9267C96.4775 79.7319 96.7203 79.4609 96.9186 79.1136L97.544 78.0184L96.9313 77.6685Z" fill="#232323"/>
<path d="M94.6815 82.8085L89.7831 79.0503L89.3267 79.6451L94.2251 83.4034L94.6815 82.8085ZM88.6556 80.5198C88.2905 80.9957 88.0692 81.4966 87.9917 82.0227C87.9142 82.5487 87.9769 83.0563 88.1797 83.5454C88.3872 84.0381 88.7359 84.4723 89.2257 84.8482C89.7155 85.224 90.2229 85.4465 90.7479 85.5158C91.2775 85.5886 91.7863 85.5195 92.2744 85.3084C92.7624 85.0974 93.1889 84.7539 93.554 84.2781L94.4292 83.1374L93.8344 82.6811L92.9592 83.8217C92.748 84.097 92.5104 84.3149 92.2464 84.4755C91.9871 84.6396 91.7131 84.7407 91.4246 84.7787C91.1407 84.8203 90.8504 84.7977 90.5538 84.711C90.2572 84.6242 89.9666 84.4717 89.6821 84.2534C89.3975 84.035 89.1749 83.7938 89.0143 83.5298C88.8537 83.2658 88.7544 82.9895 88.7164 82.701C88.6831 82.416 88.7098 82.1252 88.7965 81.8286C88.8879 81.5356 89.0392 81.2514 89.2504 80.9762L90.1255 79.8356L89.5307 79.3792L88.6556 80.5198Z" fill="#232323"/>
<path d="M89.7185 87.7711L87.7664 89.7232L88.2653 90.2222L90.2174 88.2701L89.7185 87.7711ZM87.9722 86.0248L86.0825 87.9146L86.5814 88.4135L88.4711 86.5238L87.9722 86.0248ZM90.5105 87.9769L86.1448 83.6112L85.6147 84.1413L89.9804 88.5071L90.5105 87.9769Z" fill="#232323"/>
<path d="M84.6579 93.3193L81.1178 88.261L80.5036 88.6908L84.0437 93.7492L84.6579 93.3193ZM83.9137 92.9789L82.8803 93.7021C82.5527 93.9313 82.2321 94.0373 81.9186 94.0199C81.6035 94.0107 81.3364 93.8496 81.1173 93.5364C80.9015 93.2281 80.8416 92.922 80.9375 92.618C81.0285 92.3174 81.2379 92.0525 81.5655 91.8233L82.5988 91.1001L82.1942 90.522L81.1609 91.2452C80.8333 91.4744 80.584 91.7386 80.4129 92.0377C80.2404 92.3451 80.1588 92.6642 80.1679 92.9951C80.1756 93.3342 80.2873 93.658 80.503 93.9663C80.7222 94.2794 80.9881 94.4953 81.3007 94.6138C81.6085 94.7357 81.9346 94.7658 82.279 94.7042C82.622 94.6508 82.9573 94.5094 83.2849 94.2802L84.3183 93.557L83.9137 92.9789Z" fill="#232323"/>
<path d="M79.6867 96.6594L76.8658 91.1675L76.1989 91.51L79.0199 97.0019L79.6867 96.6594ZM75.2182 92.0138C74.6847 92.2878 74.2705 92.646 73.9755 93.0884C73.6805 93.5308 73.5201 94.0164 73.4943 94.5453C73.4712 95.0794 73.6006 95.621 73.8827 96.1702C74.1648 96.7194 74.5283 97.1375 74.9733 97.4246C75.4209 97.7169 75.9104 97.872 76.4418 97.8899C76.9732 97.9078 77.5057 97.7797 78.0392 97.5057L79.318 96.8488L78.9755 96.1819L77.6966 96.8388C77.388 96.9973 77.0801 97.0927 76.7727 97.125C76.4681 97.1625 76.1772 97.1367 75.9001 97.0477C75.6257 96.9639 75.373 96.8194 75.142 96.6141C74.911 96.4089 74.7135 96.1467 74.5496 95.8277C74.3857 95.5086 74.2876 95.1954 74.2554 94.8881C74.2231 94.5808 74.2515 94.2885 74.3405 94.0114C74.4322 93.7396 74.5807 93.4881 74.786 93.2571C74.9939 93.0313 75.2522 92.8392 75.5607 92.6807L76.8396 92.0238L76.497 91.3569L75.2182 92.0138Z" fill="#232323"/>
<path d="M73.1186 99.001L70.5196 99.9319L70.7575 100.596L73.3565 99.6652L73.1186 99.001ZM72.2858 96.676L69.7699 97.5771L70.0078 98.2414L72.5238 97.3403L72.2858 96.676ZM73.7468 99.5255L71.6649 93.713L70.9591 93.9658L73.041 99.7783L73.7468 99.5255Z" fill="#232323"/>
<path d="M66.1366 101.85L65.1193 95.7602L64.3799 95.8838L65.3971 101.973L66.1366 101.85ZM65.6114 101.222L64.3674 101.43C63.973 101.496 63.638 101.454 63.3625 101.303C63.0821 101.159 62.9104 100.898 62.8475 100.521C62.7854 100.15 62.8632 99.8482 63.0806 99.6151C63.2922 99.383 63.5952 99.2341 63.9896 99.1682L65.2336 98.9604L65.1173 98.2644L63.8733 98.4722C63.4789 98.5381 63.1402 98.6692 62.857 98.8655C62.569 99.0687 62.3579 99.3215 62.2236 99.6241C62.0845 99.9335 62.046 100.274 62.108 100.645C62.171 101.022 62.318 101.331 62.5491 101.573C62.7745 101.815 63.0558 101.983 63.3932 102.076C63.7258 102.175 64.0893 102.192 64.4837 102.126L65.7277 101.918L65.6114 101.222Z" fill="#232323"/>
<path d="M60.2254 102.72L60.0348 96.5488L59.2855 96.5719L59.4761 102.743L60.2254 102.72ZM58.1835 96.6059C57.584 96.6245 57.0561 96.7702 56.5998 97.0431C56.1435 97.3161 55.7902 97.6858 55.5399 98.1524C55.2897 98.6249 55.1742 99.1697 55.1933 99.7868C55.2123 100.404 55.3612 100.938 55.6398 101.388C55.9186 101.844 56.2942 102.194 56.7665 102.438C57.2388 102.683 57.7746 102.796 58.3741 102.777L59.8111 102.733L59.788 101.983L58.351 102.028C58.0042 102.038 57.6851 101.992 57.3937 101.89C57.1024 101.793 56.8508 101.645 56.6387 101.445C56.4268 101.252 56.2606 101.013 56.1401 100.728C56.0195 100.444 55.9537 100.122 55.9426 99.7637C55.9315 99.4051 55.9774 99.0802 56.0802 98.7887C56.1829 98.4973 56.334 98.2456 56.5333 98.0335C56.7329 97.8273 56.9749 97.664 57.2594 97.5434C57.5442 97.4287 57.8599 97.366 58.2067 97.3553L59.6436 97.3109L59.6205 96.5616L58.1835 96.6059Z" fill="#232323"/>
<path d="M53.1241 102.003L50.3773 101.726L50.3067 102.428L53.0535 102.705L53.1241 102.003ZM53.3713 99.5454L50.7122 99.2779L50.6416 99.98L53.3007 100.247L53.3713 99.5454ZM53.466 102.746L54.0839 96.6031L53.3379 96.5281L52.72 102.671L53.466 102.746Z" fill="#232323"/>
<path d="M45.5991 101.57L47.3042 95.6364L46.5836 95.4294L44.8786 101.363L45.5991 101.57ZM45.3956 100.778L44.1833 100.429C43.799 100.319 43.515 100.136 43.3312 99.8817C43.1402 99.631 43.0975 99.322 43.203 98.9547C43.3069 98.593 43.5072 98.3538 43.8038 98.2372C44.0947 98.1189 44.4323 98.1149 44.8166 98.2254L46.0289 98.5737L46.2237 97.8955L45.0115 97.5472C44.6272 97.4368 44.265 97.4092 43.9249 97.4644C43.5775 97.5236 43.278 97.6609 43.0265 97.8762C42.7677 98.0955 42.5864 98.386 42.4825 98.7477C42.3769 99.115 42.3764 99.4575 42.4809 99.775C42.5798 100.091 42.7615 100.363 43.0261 100.592C43.2834 100.825 43.6042 100.997 43.9885 101.108L45.2007 101.456L45.3956 100.778Z" fill="#232323"/>
<path d="M39.8761 99.812L42.3868 94.1715L41.7019 93.8666L39.1912 99.5071L39.8761 99.812ZM40.6947 93.4183C40.1468 93.1744 39.608 93.0762 39.0784 93.1236C38.5488 93.1711 38.0699 93.3505 37.6417 93.6619C37.211 93.9787 36.8702 94.4191 36.6191 94.9831C36.368 95.5472 36.2701 96.0925 36.3253 96.6191C36.3781 97.1511 36.5641 97.6297 36.8833 98.055C37.2025 98.4803 37.636 98.8149 38.1839 99.0588L39.4974 99.6434L39.8022 98.9585L38.4888 98.3738C38.1719 98.2328 37.9045 98.0526 37.6867 97.8334C37.4665 97.6195 37.3043 97.3767 37.2 97.105C37.0933 96.8387 37.0474 96.5512 37.0626 96.2425C37.0777 95.9339 37.1581 95.6157 37.304 95.288C37.4499 94.9603 37.6324 94.6876 37.8516 94.4698C38.0709 94.252 38.3163 94.091 38.5881 93.9866C38.8574 93.8877 39.1464 93.8458 39.455 93.8609C39.7613 93.8813 40.0729 93.9621 40.3898 94.1032L41.7032 94.6878L42.0081 94.0029L40.6947 93.4183Z" fill="#232323"/>
<path d="M33.9639 96.187L31.6026 94.7567L31.2371 95.3602L33.5983 96.7905L33.9639 96.187ZM35.2434 94.0747L32.9576 92.6901L32.592 93.2936L34.8778 94.6782L35.2434 94.0747ZM33.9529 97.0053L37.1516 91.7245L36.5104 91.3361L33.3117 96.6169L33.9529 97.0053Z" fill="#232323"/>
<path d="M27.3559 92.5648L31.4438 87.9378L30.8819 87.4414L26.7941 92.0684L27.3559 92.5648ZM27.5124 91.7615L26.5672 90.9264C26.2676 90.6617 26.0895 90.3748 26.0329 90.0659C25.968 89.7575 26.062 89.4601 26.3151 89.1736C26.5642 88.8916 26.8478 88.7616 27.1658 88.7836C27.4793 88.8017 27.7859 88.9431 28.0856 89.2078L29.0308 90.0429L29.498 89.5141L28.5527 88.679C28.2531 88.4143 27.9378 88.2339 27.607 88.1377C27.2678 88.042 26.9384 88.0374 26.6188 88.1238C26.2909 88.2108 26.0024 88.3952 25.7532 88.6773C25.5002 88.9637 25.3527 89.2728 25.3107 89.6044C25.2643 89.9322 25.3115 90.2563 25.4521 90.5767C25.5844 90.8976 25.8004 91.1905 26.1001 91.4552L27.0453 92.2903L27.5124 91.7615Z" fill="#232323"/>
<path d="M22.9626 88.5423L27.6339 84.5052L27.1436 83.938L22.4724 87.9751L22.9626 88.5423ZM26.4227 83.1038C26.0306 82.65 25.5847 82.332 25.0852 82.1497C24.5857 81.9674 24.076 81.9262 23.556 82.0259C23.0315 82.1294 22.5357 82.383 22.0686 82.7867C21.6014 83.1904 21.2809 83.6424 21.1069 84.1424C20.9284 84.6464 20.8932 85.1587 21.0012 85.6793C21.1092 86.1999 21.3593 86.6871 21.7515 87.1409L22.6916 88.2287L23.2588 87.7384L22.3187 86.6507C22.0919 86.3882 21.9265 86.1115 21.8226 85.8204C21.7143 85.5332 21.6707 85.2445 21.6919 84.9542C21.7085 84.6678 21.7894 84.3881 21.9343 84.1152C22.0792 83.8422 22.2874 83.5885 22.5588 83.354C22.8302 83.1194 23.1114 82.9502 23.4024 82.8464C23.6935 82.7425 23.9841 82.7011 24.2744 82.7223C24.5602 82.7472 24.8396 82.8322 25.1125 82.9771C25.381 83.1259 25.6287 83.3316 25.8555 83.594L26.7956 84.6818L27.3628 84.1915L26.4227 83.1038Z" fill="#232323"/>
<path d="M19.1536 82.7413L17.6292 80.4397L17.0409 80.8293L18.5654 83.1309L19.1536 82.7413ZM21.2126 81.3776L19.7369 79.1495L19.1486 79.5391L20.6243 81.7672L21.2126 81.3776ZM18.7943 83.4765L23.9417 80.0673L23.5277 79.4422L18.3803 82.8515L18.7943 83.4765Z" fill="#232323"/>
<path d="M14.6998 76.6093L20.3771 74.183L20.0825 73.4936L14.4052 75.9199L14.6998 76.6093ZM15.1857 75.9508L14.6901 74.7911C14.5329 74.4234 14.4951 74.0879 14.5764 73.7845C14.6501 73.4781 14.8627 73.2498 15.2141 73.0996C15.5602 72.9517 15.8721 72.9558 16.1499 73.1121C16.4254 73.2629 16.6417 73.5222 16.7988 73.8898L17.2945 75.0496L17.9433 74.7723L17.4476 73.6126C17.2905 73.2449 17.0831 72.9466 16.8255 72.7178C16.5601 72.4859 16.2645 72.3405 15.9388 72.2815C15.6053 72.2194 15.2655 72.2623 14.9195 72.4102C14.568 72.5604 14.3022 72.7763 14.122 73.0579C13.9395 73.3341 13.8431 73.6471 13.8327 73.9969C13.8146 74.3435 13.8841 74.7007 14.0412 75.0683L14.5369 76.2281L15.1857 75.9508Z" fill="#232323"/>
<path d="M12.4588 71.1204L18.4118 69.4829L18.2129 68.7601L12.26 70.3975L12.4588 71.1204ZM17.9205 67.697C17.7615 67.1187 17.4956 66.64 17.1229 66.2607C16.7503 65.8814 16.3078 65.625 15.7954 65.4916C15.2773 65.3596 14.7206 65.3755 14.1253 65.5393C13.53 65.703 13.0464 65.9733 12.6743 66.3501C12.2966 66.7284 12.0446 67.1758 11.9184 67.6923C11.7921 68.2088 11.8085 68.7562 11.9676 69.3345L12.3489 70.7207L13.0717 70.5218L12.6904 69.1357C12.5984 68.8012 12.5681 68.4802 12.5994 68.1728C12.625 67.8669 12.7098 67.5874 12.8536 67.3344C12.9918 67.083 13.185 66.8652 13.4331 66.681C13.6813 66.4969 13.9783 66.3573 14.3242 66.2621C14.67 66.167 14.9966 66.1351 15.3041 66.1664C15.6115 66.1977 15.8917 66.2853 16.1447 66.4291C16.3921 66.5745 16.6078 66.7713 16.792 67.0195C16.9704 67.2692 17.1057 67.5614 17.1977 67.8959L17.579 69.282L18.3018 69.0832L17.9205 67.697Z" fill="#232323"/>
<path d="M11.5031 64.2168L11.1215 61.4827L10.4227 61.5802L10.8043 64.3144L11.5031 64.2168ZM13.949 63.8754L13.5796 61.2286L12.8808 61.3262L13.2502 63.973L13.949 63.8754ZM10.8616 64.7249L16.9764 63.8715L16.8727 63.129L10.758 63.9824L10.8616 64.7249Z" fill="#232323"/>
<path d="M10.12 56.611L16.2885 56.873L16.3203 56.1239L10.1518 55.8619L10.12 56.611ZM10.8426 56.2267L10.8961 54.9666C10.9131 54.5671 11.0237 54.2481 11.2281 54.0096C11.4268 53.765 11.7171 53.6508 12.099 53.667C12.4749 53.683 12.7545 53.8214 12.9376 54.0822C13.121 54.3372 13.2042 54.6644 13.1873 55.0639L13.1337 56.3241L13.8387 56.354L13.8922 55.0939C13.9092 54.6944 13.8509 54.3358 13.7172 54.0182C13.578 53.6945 13.3741 53.4357 13.1058 53.2419C12.8318 53.0419 12.5068 52.9339 12.1308 52.918C11.7489 52.9018 11.4159 52.9818 11.1318 53.158C10.848 53.3284 10.6259 53.5691 10.4656 53.8801C10.2996 54.185 10.2081 54.5372 10.1911 54.9367L10.1376 56.1968L10.8426 56.2267Z" fill="#232323"/>
<path d="M10.4627 50.6915L16.5403 51.7786L16.6723 51.0406L10.5947 49.9535L10.4627 50.6915ZM16.8664 49.9553C16.972 49.3649 16.9384 48.8183 16.7655 48.3155C16.5926 47.8127 16.3037 47.3907 15.8988 47.0494C15.4881 46.7072 14.9789 46.4817 14.3712 46.373C13.7634 46.2643 13.2105 46.2998 12.7124 46.4795C12.2086 46.6581 11.7884 46.9533 11.4519 47.3651C11.1155 47.7768 10.8944 48.2778 10.7888 48.8682L10.5357 50.2834L11.2737 50.4154L11.5268 49.0002C11.5879 48.6587 11.6988 48.356 11.8595 48.092C12.0144 47.8271 12.2113 47.6114 12.4501 47.445C12.6831 47.2777 12.9513 47.1643 13.2546 47.1051C13.5579 47.0459 13.8861 47.0478 14.2392 47.111C14.5922 47.1741 14.9008 47.2861 15.1647 47.4468C15.4287 47.6075 15.6438 47.8072 15.8101 48.0461C15.9707 48.2838 16.0806 48.5544 16.1399 48.8577C16.1933 49.1599 16.1895 49.4818 16.1284 49.8233L15.8753 51.2385L16.6133 51.3705L16.8664 49.9553Z" fill="#232323"/>
<path d="M12.5608 44.0754L13.3931 41.4431L12.7203 41.2304L11.888 43.8626L12.5608 44.0754ZM14.9155 44.8199L15.7212 42.2718L15.0484 42.0591L14.2427 44.6072L14.9155 44.8199ZM11.763 44.2579L17.6497 46.1194L17.8758 45.4045L11.989 43.543L11.763 44.2579Z" fill="#232323"/>
<path d="M14.4864 36.817L19.9466 39.6988L20.2966 39.0358L14.8363 36.154L14.4864 36.817ZM15.3039 36.7798L15.8926 35.6643C16.0793 35.3107 16.316 35.07 16.6029 34.9421C16.8873 34.8063 17.1985 34.8277 17.5365 35.0061C17.8694 35.1817 18.0626 35.4266 18.1162 35.7408C18.1725 36.0498 18.1073 36.3811 17.9207 36.7347L17.332 37.8501L17.956 38.1795L18.5447 37.064C18.7314 36.7104 18.8324 36.3615 18.8479 36.0173C18.8609 35.6651 18.7877 35.3439 18.6284 35.0537C18.4666 34.7556 18.2193 34.5187 17.8865 34.343C17.5485 34.1646 17.2133 34.0941 16.8811 34.1315C16.5516 34.1638 16.2478 34.286 15.9695 34.4982C15.6889 34.7024 15.4552 34.9814 15.2686 35.335L14.6799 36.4504L15.3039 36.7798Z" fill="#232323"/>
<path d="M17.3611 31.5672L22.3803 35.1625L22.8169 34.553L17.7976 30.9577L17.3611 31.5672ZM23.4589 33.6567C23.8081 33.1691 24.0129 32.6612 24.073 32.1329C24.1332 31.6046 24.0539 31.0993 23.8351 30.6171C23.6116 30.1315 23.2488 29.709 22.7469 29.3494C22.245 28.9899 21.7306 28.7842 21.2036 28.7322C20.6719 28.6768 20.1656 28.7626 19.6848 28.9896C19.204 29.2165 18.7889 29.5738 18.4397 30.0614L17.6025 31.2302L18.2119 31.6667L19.0491 30.498C19.2512 30.2159 19.4815 29.9903 19.7401 29.8212C19.9939 29.6486 20.2644 29.5385 20.5515 29.4911C20.8339 29.4402 21.1247 29.4532 21.424 29.5302C21.7233 29.6071 22.0188 29.75 22.3104 29.9589C22.6019 30.1678 22.8323 30.4015 23.0015 30.6601C23.1707 30.9187 23.279 31.1916 23.3265 31.4788C23.3691 31.7625 23.352 32.054 23.275 32.3533C23.1933 32.6491 23.0514 32.9381 22.8494 33.2201L22.0122 34.3889L22.6217 34.8255L23.4589 33.6567Z" fill="#232323"/>
<path d="M22.0774 26.5128L23.9573 24.4911L23.4406 24.0106L21.5607 26.0323L22.0774 26.5128ZM23.886 28.1945L25.7058 26.2373L25.1891 25.7569L23.3693 27.714L23.886 28.1945ZM21.2784 26.3359L25.7999 30.5401L26.3104 29.9911L21.7889 25.7868L21.2784 26.3359Z" fill="#232323"/>
<path d="M26.9733 20.7251L30.6777 25.6643L31.2775 25.2145L27.5731 20.2752L26.9733 20.7251ZM27.7283 21.0408L28.7373 20.2841C29.0572 20.0442 29.3741 19.9277 29.6881 19.9348C30.0033 19.9336 30.2756 20.0859 30.5049 20.3917C30.7307 20.6927 30.8006 20.9967 30.7148 21.3037C30.6336 21.6071 30.4331 21.8787 30.1133 22.1187L29.1042 22.8754L29.5276 23.4399L30.5366 22.6831C30.8565 22.4432 31.097 22.171 31.2581 21.8664C31.4204 21.5536 31.4915 21.232 31.4716 20.9015C31.4527 20.5628 31.3304 20.2429 31.1046 19.9419C30.8753 19.6361 30.6025 19.4291 30.2861 19.3209C29.9745 19.2092 29.6476 19.1898 29.3054 19.2627C28.9643 19.3274 28.6339 19.4797 28.314 19.7196L27.305 20.4763L27.7283 21.0408Z" fill="#232323"/>
<path d="M31.8129 17.2064L34.815 22.6014L35.4701 22.2369L32.468 16.8419L31.8129 17.2064ZM36.4335 21.7008C36.9575 21.4092 37.3596 21.0374 37.6398 20.5854C37.9199 20.1335 38.064 19.6428 38.0722 19.1134C38.0776 18.5788 37.9301 18.0418 37.6299 17.5022C37.3297 16.9627 36.9525 16.5569 36.4983 16.2848C36.0412 16.0076 35.5468 15.8689 35.0151 15.8686C34.4834 15.8684 33.9555 16.0142 33.4314 16.3058L32.1751 17.0048L32.5396 17.66L33.7959 16.9609C34.0991 16.7922 34.4037 16.6866 34.7098 16.6442C35.013 16.5965 35.3046 16.6126 35.5845 16.6924C35.8615 16.767 36.1189 16.903 36.3566 17.1005C36.5943 17.2979 36.8004 17.5534 36.9748 17.8668C37.1492 18.1802 37.2577 18.49 37.3001 18.7961C37.3426 19.1022 37.324 19.3952 37.2442 19.6751C37.1616 19.9498 37.0215 20.2061 36.8241 20.4438C36.6238 20.6764 36.3721 20.877 36.0689 21.0457L34.8126 21.7448L35.1772 22.3999L36.4335 21.7008Z" fill="#232323"/>
<path d="M38.3491 14.6032L40.9152 13.5851L40.655 12.9293L38.0889 13.9474L38.3491 14.6032ZM39.2599 16.8988L41.744 15.9132L41.4838 15.2573L38.9997 16.2429L39.2599 16.8988ZM37.7036 14.1002L39.9805 19.8391L40.6774 19.5626L38.4004 13.8238L37.7036 14.1002Z" fill="#232323"/>
<path d="M45.0412 11.5422L46.2674 17.5933L47.0022 17.4444L45.776 11.3933L45.0412 11.5422ZM45.5877 12.1514L46.8238 11.9009C47.2157 11.8215 47.5519 11.8524 47.8325 11.9935C48.1177 12.1277 48.2982 12.3821 48.3741 12.7567C48.4489 13.1255 48.3816 13.4301 48.1723 13.6705C47.9688 13.9098 47.6711 14.0691 47.2793 14.1485L46.0431 14.399L46.1832 15.0905L47.4194 14.84C47.8113 14.7606 48.1453 14.6179 48.4216 14.412C48.7024 14.1991 48.9047 13.9391 49.0285 13.632C49.1568 13.318 49.1836 12.9766 49.1089 12.6078C49.033 12.2332 48.8754 11.9292 48.6361 11.6957C48.4025 11.461 48.1156 11.3032 47.7752 11.2222C47.4394 11.1343 47.0756 11.13 46.6837 11.2094L45.4475 11.4599L45.5877 12.1514Z" fill="#232323"/>
<path d="M51.1473 10.4136L51.5282 16.5758L52.2765 16.5296L51.8956 10.3673L51.1473 10.4136ZM53.3769 16.4616C53.9755 16.4246 54.4987 16.2626 54.9464 15.9757C55.394 15.6889 55.7358 15.3084 55.9716 14.8343C56.207 14.3543 56.3057 13.8062 56.2676 13.19C56.2295 12.5738 56.0643 12.0449 55.7719 11.6035C55.4791 11.1562 55.0929 10.8177 54.6133 10.5882C54.1337 10.3586 53.5946 10.2623 52.996 10.2993L51.5611 10.388L51.6073 11.1363L53.0423 11.0476C53.3885 11.0262 53.7089 11.0623 54.0034 11.1561C54.2975 11.2439 54.5536 11.3842 54.7717 11.5769C54.9894 11.7638 55.1629 11.9975 55.2922 12.2782C55.4215 12.5589 55.4972 12.8782 55.5193 13.2362C55.5414 13.5942 55.5056 13.9205 55.4119 14.2149C55.3182 14.5094 55.175 14.7657 54.9822 14.9838C54.7892 15.196 54.5523 15.3668 54.2716 15.4961C53.9906 15.6195 53.6769 15.6919 53.3307 15.7133L51.8957 15.802L51.942 16.5503L53.3769 16.4616Z" fill="#232323"/>
<path d="M57.977 10.8767L60.7317 11.0577L60.778 10.3536L58.0232 10.1726L57.977 10.8767ZM57.8151 13.341L60.4819 13.5162L60.5281 12.8121L57.8614 12.6369L57.8151 13.341ZM57.6096 10.1455L57.2049 16.3062L57.953 16.3554L58.3577 10.1946L57.6096 10.1455Z" fill="#232323"/>
<path d="M65.6368 11.0231L64.1353 17.0118L64.8625 17.1941L66.364 11.2054L65.6368 11.0231ZM65.8673 11.8083L67.0907 12.115C67.4786 12.2123 67.7687 12.385 67.961 12.6333C68.1605 12.8773 68.2138 13.1847 68.1208 13.5554C68.0293 13.9204 67.8373 14.1663 67.5449 14.293C67.2582 14.4212 66.9209 14.4366 66.533 14.3394L65.3096 14.0327L65.138 14.7171L66.3614 15.0238C66.7493 15.1211 67.1122 15.1363 67.4502 15.0695C67.7954 14.9984 68.09 14.851 68.334 14.6273C68.5852 14.3993 68.7565 14.1027 68.848 13.7377C68.941 13.367 68.9298 13.0247 68.8145 12.7109C68.7049 12.3985 68.514 12.1324 68.2417 11.9126C67.9766 11.6885 67.6501 11.5278 67.2623 11.4306L66.0389 11.1239L65.8673 11.8083Z" fill="#232323"/>
<path d="M71.3439 12.5326L69.0455 18.2629L69.7413 18.542L72.0397 12.8117L71.3439 12.5326ZM70.7646 18.9524C71.3212 19.1757 71.8633 19.2538 72.3907 19.1866C72.9182 19.1194 73.3901 18.9222 73.8064 18.595C74.2249 18.2624 74.5491 17.8095 74.7789 17.2365C75.0088 16.6635 75.0863 16.1149 75.0114 15.5907C74.9388 15.061 74.735 14.5897 74.4002 14.1766C74.0654 13.7636 73.6196 13.4454 73.063 13.2222L71.7286 12.687L71.4495 13.3828L72.7839 13.918C73.1059 14.0471 73.3798 14.2172 73.6056 14.4281C73.8336 14.6336 74.0048 14.8702 74.1192 15.1378C74.2358 15.4 74.2923 15.6855 74.2887 15.9945C74.2852 16.3036 74.2166 16.6245 74.0831 16.9574C73.9496 17.2903 73.7773 17.5697 73.5664 17.7955C73.3554 18.0213 73.1161 18.1914 72.8485 18.3058C72.5831 18.4148 72.2959 18.4674 71.9869 18.4639C71.68 18.4549 71.3656 18.3858 71.0437 18.2566L69.7093 17.7214L69.4302 18.4172L70.7646 18.9524Z" fill="#232323"/>
<path d="M77.4931 15.966L79.9005 17.3172L80.2459 16.7019L77.8385 15.3507L77.4931 15.966ZM76.2843 18.1195L78.6148 19.4276L78.9602 18.8123L76.6297 17.5042L76.2843 18.1195ZM77.477 15.1478L74.455 20.5317L75.1088 20.8986L78.1308 15.5147L77.477 15.1478Z" fill="#232323"/>
<path d="M84.3227 19.4048L80.3885 24.1631L80.9663 24.6408L84.9005 19.8826L84.3227 19.4048ZM84.1925 20.2128L85.1646 21.0165C85.4727 21.2713 85.6602 21.5521 85.7268 21.859C85.8018 22.1652 85.7175 22.4655 85.474 22.7601C85.2342 23.0501 84.955 23.1893 84.6365 23.1778C84.3225 23.1699 84.0115 23.0386 83.7033 22.7838L82.7313 21.9802L82.2816 22.524L83.2537 23.3276C83.5619 23.5824 83.8829 23.7525 84.2167 23.8378C84.5588 23.9223 84.8882 23.9161 85.2048 23.8193C85.5296 23.7216 85.812 23.5278 86.0518 23.2378C86.2953 22.9432 86.4326 22.6295 86.4637 22.2966C86.4993 21.9675 86.4416 21.6451 86.2906 21.3295C86.1478 21.0131 85.9223 20.7275 85.6142 20.4727L84.6421 19.669L84.1925 20.2128Z" fill="#232323"/>
<path d="M88.8509 23.263L84.3142 27.4508L84.8227 28.0016L89.3594 23.8139L88.8509 23.263ZM85.5706 28.8118C85.9774 29.2525 86.4334 29.5557 86.9386 29.7216C87.4437 29.8874 87.9546 29.912 88.4711 29.7954C88.9919 29.6747 89.4791 29.405 89.9328 28.9862C90.3864 28.5674 90.692 28.1053 90.8496 27.5998C91.0114 27.0903 91.0299 26.5771 90.9049 26.0603C90.7799 25.5435 90.514 25.0647 90.1072 24.624L89.1321 23.5676L88.5812 24.0761L89.5563 25.1325C89.7917 25.3874 89.966 25.6586 90.0793 25.9461C90.197 26.2296 90.25 26.5168 90.2384 26.8076C90.2311 27.0944 90.1594 27.3766 90.0235 27.6541C89.8876 27.9316 89.6878 28.192 89.4243 28.4353C89.1607 28.6786 88.8852 28.8569 88.5977 28.9703C88.3102 29.0836 88.021 29.1345 87.7302 29.1228C87.4437 29.1072 87.1617 29.0314 86.8842 28.8955C86.611 28.7556 86.3567 28.5582 86.1214 28.3032L85.1463 27.2468L84.5954 27.7554L85.5706 28.8118Z" fill="#232323"/>
<path d="M92.8558 28.9212L94.4552 31.1714L95.0303 30.7626L93.4309 28.5124L92.8558 28.9212ZM90.8428 30.352L92.3911 32.5302L92.9663 32.1214L91.418 29.9432L90.8428 30.352ZM93.1907 28.1745L88.1584 31.7514L88.5927 32.3625L93.6251 28.7856L93.1907 28.1745Z" fill="#232323"/>
<path d="M97.5695 34.9732L91.9767 37.5885L92.2943 38.2676L97.887 35.6523L97.5695 34.9732ZM97.1059 35.6476L97.6402 36.7901C97.8095 37.1523 97.8586 37.4864 97.7875 37.7923C97.7241 38.101 97.5193 38.3364 97.1731 38.4982C96.8322 38.6577 96.5204 38.6639 96.2375 38.5171C95.9571 38.3756 95.7322 38.1237 95.5628 37.7615L95.0286 36.619L94.3894 36.9179L94.9237 38.0604C95.093 38.4226 95.3103 38.7137 95.5755 38.9338C95.8485 39.1566 96.1487 39.2921 96.4763 39.3401C96.8117 39.391 97.1498 39.3368 97.4907 39.1774C97.8369 39.0155 98.0953 38.7908 98.266 38.5033C98.4391 38.2211 98.525 37.905 98.5237 37.5551C98.5302 37.2081 98.4487 36.8534 98.2793 36.4912L97.7451 35.3487L97.1059 35.6476Z" fill="#232323"/>
<path d="M99.9798 40.3353L94.0861 42.1745L94.3094 42.8902L100.203 41.051L99.9798 40.3353ZM94.6379 43.9427C94.8165 44.5152 95.0986 44.9846 95.4839 45.351C95.8693 45.7174 96.3203 45.9585 96.8369 46.0745C97.3592 46.1887 97.915 46.1538 98.5044 45.9699C99.0937 45.786 99.5679 45.4994 99.9269 45.1102C100.292 44.7192 100.528 44.2635 100.637 43.743C100.745 43.2225 100.71 42.6759 100.532 42.1034L100.103 40.731L99.3877 40.9544L99.8159 42.3267C99.9193 42.6579 99.9605 42.9777 99.9397 43.286C99.9245 43.5926 99.8494 43.8747 99.7142 44.1325C99.5847 44.3885 99.399 44.6128 99.1573 44.8052C98.9155 44.9977 98.6234 45.1474 98.281 45.2542C97.9386 45.3611 97.6133 45.4041 97.3049 45.3833C96.9966 45.3625 96.7136 45.2845 96.4558 45.1493C96.2037 45.0124 95.9813 44.8231 95.7889 44.5813C95.602 44.3378 95.4569 44.0505 95.3535 43.7193L94.9253 42.3469L94.2096 42.5703L94.6379 43.9427Z" fill="#232323"/>
<path d="M101.176 47.1992L101.652 49.9186L102.347 49.797L101.872 47.0776L101.176 47.1992ZM98.7438 47.6247L99.2043 50.2572L99.8994 50.1356L99.4389 47.5031L98.7438 47.6247ZM101.8 46.6692L95.7184 47.7331L95.8476 48.4716L101.929 47.4077L101.8 46.6692Z" fill="#232323"/>
</svg>
