<svg width="31" height="25" viewBox="0 0 31 25" fill="none" xmlns="http://www.w3.org/2000/svg">
<path d="M4.29322 0.925435V9.70093H6.08593V0.925435H4.29322ZM5.38389 2.44234H7.12645C7.60284 2.44234 7.97893 2.55099 8.25473 2.76829C8.53053 2.97723 8.66843 3.29482 8.66843 3.72106C8.66843 4.13894 8.53053 4.45653 8.25473 4.67382C7.97893 4.89112 7.60284 4.99977 7.12645 4.99977H5.38389V6.51668H7.12645C7.82013 6.51668 8.40935 6.40385 8.89409 6.17819C9.38719 5.95254 9.76328 5.63077 10.0224 5.21289C10.2815 4.78665 10.411 4.28937 10.411 3.72106C10.411 3.14438 10.2815 2.6471 10.0224 2.22922C9.76328 1.81134 9.38719 1.48957 8.89409 1.26392C8.40935 1.03826 7.82013 0.925435 7.12645 0.925435H5.38389V2.44234ZM12.174 0.925435V9.70093H14.0043V0.925435H12.174ZM15.1577 9.70093C16.077 9.70093 16.8794 9.52124 17.5647 9.16186C18.2584 8.80248 18.7974 8.29685 19.1819 7.64496C19.5663 6.9847 19.7586 6.20745 19.7586 5.31318C19.7586 4.41892 19.5663 3.64584 19.1819 2.99394C18.7974 2.33369 18.2584 1.82388 17.5647 1.4645C16.8794 1.10512 16.077 0.925435 15.1577 0.925435H13.3274V2.55517H15.095C15.4795 2.55517 15.843 2.60949 16.1857 2.71814C16.5283 2.81843 16.8292 2.98141 17.0883 3.20706C17.3474 3.43272 17.548 3.72106 17.69 4.07208C17.8405 4.41474 17.9157 4.82844 17.9157 5.31318C17.9157 5.79792 17.8405 6.2158 17.69 6.56682C17.548 6.90949 17.3474 7.19364 17.0883 7.4193C16.8292 7.64496 16.5283 7.81211 16.1857 7.92076C15.843 8.02105 15.4795 8.07119 15.095 8.07119H13.3274V9.70093H15.1577ZM22.6773 2.49249H26.6012V0.925435H22.6773V2.49249ZM22.6773 5.95254H26.4758V4.46071H22.6773V5.95254ZM21.5239 0.925435V9.70093H23.254V0.925435H21.5239Z" fill="#232323"/>
<path d="M0.249983 22.7009H5.20438V21.8986H2.00508L4.24158 19.622C4.51571 19.3412 4.73969 19.0236 4.91353 18.6692C5.08737 18.3149 5.17429 17.9571 5.17429 17.5961C5.17429 17.3821 5.13083 17.1582 5.04391 16.9241C4.95699 16.6901 4.82327 16.4728 4.64274 16.2723C4.46222 16.065 4.23155 15.8978 3.95073 15.7708C3.66992 15.6371 3.33561 15.5702 2.94782 15.5702C2.46642 15.5702 2.05188 15.6772 1.70421 15.8911C1.36322 16.0984 1.10246 16.3926 0.921935 16.7737C0.741411 17.1481 0.651148 17.5861 0.651148 18.0875H1.50362C1.50362 17.7332 1.56046 17.4289 1.67412 17.1749C1.78778 16.9141 1.95159 16.7169 2.16555 16.5832C2.38619 16.4427 2.64695 16.3725 2.94782 16.3725C3.16177 16.3725 3.35233 16.4093 3.51948 16.4829C3.68663 16.5564 3.82704 16.6534 3.9407 16.7737C4.06105 16.8941 4.15132 17.0278 4.21149 17.1749C4.27167 17.322 4.30175 17.4724 4.30175 17.6262C4.30175 17.8134 4.27167 17.9939 4.21149 18.1678C4.158 18.3349 4.07443 18.5021 3.96076 18.6692C3.85379 18.8297 3.72341 18.9935 3.56963 19.1606L0.249983 22.7009ZM7.54453 21.5977L6.66197 24.1953L7.24366 24.4059L8.34686 21.8986L7.54453 21.5977ZM14.7015 20.3942C14.7015 19.9262 14.6112 19.515 14.4307 19.1606C14.2502 18.8063 13.9995 18.5288 13.6785 18.3282C13.3643 18.1276 13.0066 18.0274 12.6054 18.0274C12.4316 18.0274 12.2544 18.0508 12.0739 18.0976C11.9 18.1377 11.7295 18.2012 11.5624 18.2881L12.0337 16.4327H14.6814V15.6805H11.3718L10.4491 19.4214C10.6898 19.2542 10.9005 19.1272 11.081 19.0403C11.2682 18.9467 11.4521 18.8832 11.6326 18.8497C11.8198 18.8096 12.0237 18.7896 12.2444 18.7896C12.5452 18.7896 12.8127 18.8564 13.0467 18.9901C13.2874 19.1239 13.4746 19.3111 13.6083 19.5518C13.7487 19.7925 13.8189 20.0733 13.8189 20.3942C13.8189 20.7152 13.7554 20.996 13.6284 21.2367C13.508 21.4774 13.3308 21.6646 13.0968 21.7983C12.8628 21.932 12.5787 21.9989 12.2444 21.9989C11.9903 21.9989 11.7462 21.9454 11.5122 21.8384C11.2782 21.7248 11.0709 21.581 10.8904 21.4072C10.7166 21.2266 10.5762 21.0361 10.4692 20.8355L9.7471 21.3269C9.90088 21.5944 10.0881 21.8418 10.3087 22.0691C10.5361 22.2897 10.8068 22.4669 11.1211 22.6006C11.442 22.7344 11.8164 22.8012 12.2444 22.8012C12.5853 22.8012 12.9029 22.7511 13.1971 22.6508C13.4913 22.5505 13.7521 22.4001 13.9794 22.1995C14.2067 21.9989 14.3839 21.7482 14.5109 21.4473C14.638 21.1464 14.7015 20.7954 14.7015 20.3942ZM23.8507 22.7009H24.7533L23.5498 17.7365L23.0985 19.0403L23.8507 22.7009ZM21.4437 22.0089L21.7445 23.0118L23.6501 19.3412L23.5498 17.7365L21.4437 22.0089ZM21.7445 23.0118L22.0454 22.0089L19.9694 17.7365L19.8691 19.3412L21.7445 23.0118ZM18.7659 22.7009H19.6685L20.4207 19.0403L19.9694 17.7365L18.7659 22.7009ZM27.8465 18.7394C28.1474 18.7394 28.4148 18.8096 28.6488 18.95C28.8895 19.0904 29.0767 19.2877 29.2104 19.5418C29.3508 19.7891 29.4211 20.0733 29.4211 20.3942C29.4211 20.7152 29.3508 20.9993 29.2104 21.2467C29.0767 21.4941 28.8895 21.6913 28.6488 21.8384C28.4148 21.9788 28.1474 22.049 27.8465 22.049C27.5456 22.049 27.2748 21.9788 27.0341 21.8384C26.8001 21.6913 26.6129 21.4941 26.4725 21.2467C26.3321 20.9993 26.2619 20.7152 26.2619 20.3942L25.4595 19.7925C25.4595 20.4544 25.5632 21.0093 25.7704 21.4573C25.9844 21.9053 26.2719 22.2429 26.633 22.4703C26.994 22.6909 27.3985 22.8012 27.8465 22.8012C28.3011 22.8012 28.7056 22.6976 29.06 22.4903C29.4211 22.283 29.7052 21.9989 29.9125 21.6378C30.1264 21.2701 30.2334 20.8556 30.2334 20.3942C30.2334 19.9262 30.1264 19.5117 29.9125 19.1506C29.7052 18.7896 29.4211 18.5054 29.06 18.2981C28.7056 18.0909 28.3011 17.9872 27.8465 17.9872V18.7394ZM25.9008 20.3942H26.2619C26.2619 20.1268 26.3087 19.8928 26.4023 19.6922C26.5026 19.4849 26.6296 19.3111 26.7834 19.1707C26.9439 19.0303 27.1177 18.9233 27.3049 18.8497C27.4921 18.7762 27.6726 18.7394 27.8465 18.7394V17.9872C27.559 17.9872 27.2949 18.0441 27.0542 18.1577C26.8202 18.2647 26.6162 18.4218 26.4424 18.6291C26.2686 18.8364 26.1348 19.0904 26.0412 19.3913C25.9476 19.6855 25.9008 20.0198 25.9008 20.3942ZM25.4595 19.7925L26.1616 20.324V19.291C26.1616 18.9567 26.205 18.6224 26.292 18.2881C26.3789 17.9471 26.536 17.6429 26.7633 17.3755C26.9973 17.108 27.3216 16.9074 27.7362 16.7737C28.1039 16.6534 28.4315 16.5029 28.719 16.3224C29.0132 16.1419 29.2506 15.9313 29.4311 15.6906C29.6116 15.4432 29.7186 15.1724 29.752 14.8782H28.9597C28.9129 15.1189 28.7758 15.3496 28.5485 15.5702C28.3279 15.7842 27.9902 15.968 27.5356 16.1218C27.0007 16.3023 26.5795 16.5631 26.2719 16.9041C25.971 17.2384 25.7604 17.6462 25.6401 18.1276C25.5197 18.609 25.4595 19.164 25.4595 19.7925Z" fill="#858585"/>
</svg>
