<svg width="75" height="75" fill="none" xmlns="http://www.w3.org/2000/svg"><rect x=".5" width="74" height="74.011" rx="37" fill="#fff"/><path d="m68.407 38.041-4.032-.311-.038.49 4.032.311.038-.49Zm-.482.236-.063.823c-.02.261-.1.468-.24.62-.135.155-.328.223-.577.204-.246-.02-.426-.116-.54-.291-.114-.171-.161-.387-.141-.649l.064-.823-.461-.036-.064.824c-.02.261.01.497.09.708.084.215.212.39.383.522.175.137.385.215.63.234.25.02.47-.025.66-.134.19-.105.34-.258.453-.458.115-.195.183-.424.204-.685l.063-.824-.46-.035ZM68.038 41.977l-3.955-.849-.103.48 3.955.849.103-.48Zm-4.21.337c-.082.384-.072.743.03 1.076.102.333.282.616.539.848.261.234.59.393.985.478.395.084.758.074 1.088-.033a1.84 1.84 0 0 0 .845-.551c.23-.262.386-.585.468-.97l.198-.92-.48-.103-.198.92a1.713 1.713 0 0 1-.238.588 1.326 1.326 0 0 1-.936.615c-.2.032-.415.023-.644-.026-.23-.05-.43-.13-.599-.241a1.386 1.386 0 0 1-.409-.407c-.1-.16-.165-.339-.197-.539-.028-.199-.019-.41.029-.632l.198-.92-.48-.103-.198.92ZM66.49 46.333l-.604 1.705.436.154.603-1.705-.435-.154Zm-1.525-.54-.585 1.65.436.155.584-1.65-.436-.155Zm2.05.438-3.812-1.35-.164.464 3.813 1.35.164-.464ZM65.008 51.147l-3.512-2.005-.244.426 3.512 2.006.244-.427Zm-.536.007-.41.717c-.13.228-.29.38-.48.458-.19.082-.393.062-.61-.062-.214-.123-.336-.287-.364-.494-.03-.204.02-.419.15-.646l.41-.718-.402-.23-.41.718a1.62 1.62 0 0 0-.22.68c-.017.23.024.441.122.635.1.198.256.359.47.481.218.124.435.178.654.16.216-.014.418-.087.605-.22.188-.127.347-.305.477-.532l.41-.718-.402-.229ZM62.958 54.583l-3.209-2.462-.299.39 3.21 2.462.298-.39Zm-3.947-1.5c-.24.313-.384.64-.435.985-.05.345-.01.677.123.998.136.322.364.607.685.853.321.246.654.392.997.437.347.048.68.003 1-.136.32-.138.6-.363.838-.674l.574-.748-.39-.299-.573.748c-.139.18-.294.323-.467.428a1.328 1.328 0 0 1-1.109.154 1.746 1.746 0 0 1-.57-.3 1.743 1.743 0 0 1-.438-.474 1.385 1.385 0 0 1-.195-.542 1.429 1.429 0 0 1 .052-.572c.06-.192.16-.378.297-.558l.574-.748-.39-.298-.573.747ZM59.658 57.888l-1.279 1.279.327.326 1.279-1.278-.327-.327Zm-1.144-1.144-1.238 1.238.327.327 1.238-1.238-.327-.327Zm1.663 1.279-2.86-2.86-.347.347 2.86 2.86.347-.347ZM56.27 61.584l-2.32-3.314-.402.282 2.32 3.314.401-.282Zm-.488-.223-.677.474c-.214.15-.424.22-.63.208-.206-.006-.381-.112-.525-.317-.141-.202-.18-.402-.118-.601.06-.197.197-.37.412-.521l.677-.474-.265-.378-.677.473c-.215.15-.378.324-.49.52-.113.2-.167.41-.16.627.004.222.078.434.219.636.143.205.318.346.522.424.202.08.416.1.641.06.225-.036.445-.128.66-.279l.676-.473-.265-.379ZM52.951 63.81l-1.848-3.597-.437.225 1.848 3.597.437-.224Zm-2.927-3.042c-.35.18-.62.414-.814.703-.193.29-.298.608-.315.955-.015.35.07.704.254 1.064.185.36.423.634.715.822.293.191.614.293.962.305.348.011.696-.072 1.046-.252l.838-.43-.225-.437-.837.43a1.714 1.714 0 0 1-.606.188c-.2.024-.39.007-.571-.051a1.326 1.326 0 0 1-.497-.284 1.745 1.745 0 0 1-.388-.515 1.747 1.747 0 0 1-.193-.616 1.386 1.386 0 0 1 .056-.574c.06-.178.157-.343.292-.494.136-.148.305-.274.507-.378l.838-.43-.224-.437-.838.43ZM48.582 65.373l-1.703.61.156.435 1.703-.61-.156-.435Zm-.546-1.523-1.648.59.156.436 1.648-.59-.156-.436Zm.957 1.867-1.364-3.808-.462.166 1.364 3.807.462-.165ZM43.913 67.264l-.666-3.99-.484.082.666 3.989.484-.081Zm-.344-.411-.815.136c-.258.043-.477.015-.658-.084-.183-.094-.296-.264-.337-.511-.04-.244.01-.441.152-.594.14-.152.338-.25.596-.293l.815-.136-.076-.456-.815.136c-.259.043-.48.13-.666.258a1.196 1.196 0 0 0-.415.497 1.14 1.14 0 0 0-.076.669c.042.247.138.45.29.607.147.16.331.27.552.33.218.065.456.076.715.033l.814-.136-.076-.456ZM39.968 67.841l-.125-4.042-.49.015.124 4.042.49-.015Zm-1.338-4.005a2.112 2.112 0 0 0-1.037.287c-.299.178-.53.42-.694.726-.164.31-.24.667-.227 1.07.012.405.11.755.292 1.05.183.298.429.528.738.688.31.16.66.234 1.053.222l.941-.03-.015-.49-.941.029a1.713 1.713 0 0 1-.627-.09 1.328 1.328 0 0 1-.821-.76 1.749 1.749 0 0 1-.13-.633 1.746 1.746 0 0 1 .09-.639c.068-.19.167-.356.297-.495.131-.135.29-.242.476-.32.187-.076.393-.117.62-.124l.942-.029-.015-.49-.942.028ZM35.242 67.369l-1.799-.181-.046.46 1.8.18.045-.46Zm.162-1.61-1.742-.175-.046.46 1.742.175.046-.46Zm.062 2.097.405-4.024-.489-.05-.404 4.025.488.049ZM30.217 67.067l1.117-3.887-.472-.136-1.117 3.887.472.136Zm-.133-.52-.794-.227c-.252-.073-.438-.192-.559-.36-.125-.163-.153-.366-.084-.606.068-.237.2-.394.394-.47.19-.078.412-.08.663-.008l.794.228.128-.444-.794-.228a1.62 1.62 0 0 0-.712-.055 1.195 1.195 0 0 0-.588.27c-.17.144-.289.334-.357.57-.069.242-.07.466 0 .674.064.207.183.385.357.535.168.153.378.266.63.338l.794.228.128-.444ZM26.396 65.889l1.645-3.695-.448-.2-1.645 3.695.448.2Zm.537-4.188a2.112 2.112 0 0 0-1.059-.193c-.347.03-.66.148-.941.352a2.11 2.11 0 0 0-.67.866 2.08 2.08 0 0 0-.193 1.072c.035.348.157.662.366.94.21.279.493.498.852.658l.86.383.2-.45-.86-.382a1.715 1.715 0 0 1-.526-.354 1.327 1.327 0 0 1-.409-1.042c.01-.202.063-.41.159-.625.095-.215.215-.394.358-.536.144-.143.305-.248.483-.317.176-.065.366-.092.568-.082.2.013.404.066.612.159l.86.382.2-.448-.86-.383ZM22.463 63.482l-1.547-.937-.24.396 1.548.937.239-.396Zm.838-1.383-1.497-.907-.24.395 1.498.907.24-.395Zm-.845 1.92 2.095-3.46-.42-.254-2.095 3.459.42.254ZM18.056 61.051l2.678-3.03-.368-.326-2.678 3.031.368.325Zm.102-.526-.619-.547c-.196-.173-.313-.361-.35-.564-.042-.202.02-.396.185-.584.163-.185.349-.27.557-.255.206.011.407.104.603.277l.619.547.306-.346-.62-.547a1.62 1.62 0 0 0-.619-.355 1.195 1.195 0 0 0-.647-.009 1.14 1.14 0 0 0-.567.363c-.166.188-.262.39-.29.607-.03.215 0 .427.093.637.086.21.228.402.424.575l.62.548.305-.347ZM15.125 58.364l3.06-2.645-.322-.371-3.06 2.644.322.372ZM17.39 54.8a2.113 2.113 0 0 0-.876-.625 1.853 1.853 0 0 0-1.002-.08 2.111 2.111 0 0 0-.974.498 2.08 2.08 0 0 0-.63.888 1.84 1.84 0 0 0-.07 1.006c.072.341.236.66.492.958l.616.712.372-.32-.616-.713a1.71 1.71 0 0 1-.325-.544 1.327 1.327 0 0 1 .073-1.117c.095-.179.231-.345.41-.499.177-.153.361-.264.552-.332.19-.068.38-.096.571-.082.187.017.37.072.549.167.176.098.338.232.487.404l.616.713.371-.321-.616-.713ZM12.587 54.508 11.59 53l-.386.255.999 1.508.385-.255Zm1.349-.894-.967-1.459-.385.255.967 1.46.385-.255Zm-1.584 1.375 3.372-2.233-.272-.41-3.371 2.234.27.41ZM9.623 50.404l3.719-1.59-.194-.452-3.718 1.59.193.452Zm.318-.432-.325-.76c-.103-.24-.128-.46-.074-.659.048-.2.187-.35.417-.449.227-.096.431-.094.613.009.18.098.323.268.426.51l.324.759.425-.182-.325-.76a1.621 1.621 0 0 0-.407-.586 1.196 1.196 0 0 0-.58-.285 1.139 1.139 0 0 0-.669.084c-.23.098-.404.24-.522.424-.12.181-.183.386-.19.615-.011.227.034.461.137.702l.325.76.425-.182ZM8.13 46.738l3.9-1.073-.13-.473L8 46.264l.13.474Zm3.578-2.243a2.113 2.113 0 0 0-.523-.94 1.854 1.854 0 0 0-.87-.505 2.11 2.11 0 0 0-1.093.032 2.08 2.08 0 0 0-.95.53c-.248.249-.413.542-.496.88-.082.339-.072.697.032 1.076l.25.908.474-.13-.25-.908c-.06-.22-.08-.43-.06-.631.017-.2.073-.384.167-.55.09-.164.217-.307.38-.427.162-.12.357-.212.583-.275.227-.062.44-.083.642-.062.201.02.385.078.55.172.163.095.304.224.425.386.117.164.205.355.265.575l.25.907.474-.13-.25-.908ZM7.49 42.145l-.25-1.79-.457.063.25 1.791.458-.064Zm1.603-.223-.242-1.734-.458.064.242 1.734.458-.064Zm-2.023.556 4.006-.559-.068-.486-4.006.559.068.486ZM6.579 37.064l4.04.172.021-.491-4.04-.172-.021.49Zm.473-.252.035-.825c.011-.262.084-.47.218-.627.13-.16.32-.235.57-.225.247.01.43.102.55.272.12.167.174.382.163.643l-.035.826.462.02.035-.826a1.62 1.62 0 0 0-.115-.705 1.195 1.195 0 0 0-.4-.508 1.14 1.14 0 0 0-.639-.212c-.25-.01-.468.041-.654.157-.186.112-.332.27-.437.473-.108.2-.168.43-.18.692l-.034.825.461.02ZM6.811 33.113l3.981.712.087-.484-3.981-.712-.087.484Zm4.195-.483c.07-.386.047-.744-.066-1.074a1.853 1.853 0 0 0-.568-.829 2.11 2.11 0 0 0-1-.443 2.08 2.08 0 0 0-1.087.07 1.84 1.84 0 0 0-.826.58c-.22.27-.365.598-.434.984l-.166.928.483.086.166-.927c.04-.224.113-.422.218-.595a1.326 1.326 0 0 1 .914-.646c.199-.04.414-.038.645.003.231.042.433.115.606.22.173.106.314.236.423.393.105.156.177.333.216.532.035.197.033.408-.007.632l-.166.927.483.087.166-.928ZM8.202 28.71l.546-1.724-.441-.14-.545 1.724.44.14Zm1.543.488.528-1.67-.441-.139-.528 1.67.44.139Zm-2.065-.369 3.856 1.22.148-.468-3.856-1.22-.148.468ZM9.502 23.864l3.577 1.888.229-.434L9.73 23.43l-.229.434Zm.535-.024.386-.73c.122-.233.277-.39.465-.474.187-.089.39-.075.612.042.218.115.345.275.38.481.036.203-.006.42-.128.651l-.386.73.409.217.385-.731a1.62 1.62 0 0 0 .199-.686c.008-.23-.04-.44-.144-.63a1.139 1.139 0 0 0-.486-.466 1.122 1.122 0 0 0-.658-.139 1.155 1.155 0 0 0-.598.24 1.568 1.568 0 0 0-.459.548l-.385.731.409.216ZM11.425 20.362l3.288 2.355.286-.4-3.288-2.355-.286.4Zm3.995 1.369c.229-.32.363-.653.402-.999a1.853 1.853 0 0 0-.156-.993 2.11 2.11 0 0 0-.713-.83 2.079 2.079 0 0 0-1.01-.404c-.349-.037-.68.02-.995.168a2.112 2.112 0 0 0-.816.702l-.548.766.399.286.548-.766c.133-.184.283-.332.453-.443a1.32 1.32 0 0 1 .531-.216c.185-.034.376-.025.572.025.196.05.39.144.58.281.191.137.342.29.453.46.111.169.182.348.213.536a1.43 1.43 0 0 1-.034.573 1.797 1.797 0 0 1-.278.568l-.549.765.4.286.548-.765ZM14.56 16.997l1.23-1.325-.338-.315-1.231 1.325.338.315Zm1.184 1.101 1.192-1.282-.338-.315-1.192 1.282.338.315Zm-1.708-1.217 2.962 2.754.334-.36-2.962-2.754-.334.36ZM17.838 13.14l2.427 3.235.392-.294-2.426-3.236-.393.295Zm.495.207.66-.496c.21-.157.418-.234.623-.229.207 0 .385.1.535.3.148.197.194.396.138.597-.053.198-.185.377-.394.534l-.661.495.277.37.661-.496c.21-.157.367-.335.473-.535.106-.205.153-.415.14-.632a1.14 1.14 0 0 0-.24-.628c-.15-.2-.33-.336-.537-.407a1.155 1.155 0 0 0-.642-.038c-.224.042-.44.142-.65.3l-.66.495.277.37ZM21.072 10.794l1.966 3.534.43-.239-1.967-3.534-.43.24Zm3.026 2.944c.344-.19.607-.434.79-.73.184-.296.278-.618.284-.965a2.111 2.111 0 0 0-.29-1.055 2.079 2.079 0 0 0-.741-.797 1.84 1.84 0 0 0-.972-.273c-.348 0-.694.095-1.037.286l-.823.458.239.43.823-.459c.198-.11.398-.18.598-.207a1.326 1.326 0 0 1 1.079.299c.156.13.29.296.405.502.114.205.185.408.213.608.028.201.016.393-.037.576-.054.18-.145.348-.275.504a1.8 1.8 0 0 1-.494.394l-.823.458.238.43.823-.459ZM25.418 9.058l1.68-.667-.17-.43-1.681.668.17.43Zm.596 1.504 1.627-.646-.17-.43-1.627.646.17.43Zm-1.02-1.833 1.492 3.76.457-.182-1.492-3.76-.456.182ZM29.896 7.025l.803 3.964.482-.097-.804-3.964-.48.097Zm.358.4.81-.165c.256-.052.477-.031.66.061.187.088.306.255.355.5.05.242.005.441-.132.599-.133.156-.328.26-.585.313l-.81.164.092.453.81-.164a1.62 1.62 0 0 0 .656-.28c.184-.14.317-.31.398-.512.084-.205.102-.429.053-.67a1.122 1.122 0 0 0-.31-.598 1.155 1.155 0 0 0-.564-.31 1.567 1.567 0 0 0-.715-.009l-.81.164.092.453ZM33.97 6.276l.25 4.037.49-.03-.25-4.037-.49.03Zm1.461 3.962c.392-.024.735-.13 1.028-.318.293-.188.517-.437.672-.748.154-.314.219-.673.194-1.077A2.08 2.08 0 0 0 37 7.055a1.842 1.842 0 0 0-.759-.664 2.113 2.113 0 0 0-1.06-.19l-.94.058.031.49.94-.057c.227-.014.437.01.63.07.192.058.36.15.503.276.142.123.256.276.34.46.085.184.135.393.15.627.014.235-.01.448-.07.641-.062.193-.156.361-.282.504-.127.139-.282.25-.466.336-.184.08-.39.128-.616.142l-.94.058.03.49.94-.058ZM38.513 6.58l1.805.118.03-.461-1.804-.119-.03.462Zm-.106 1.614 1.747.115.03-.462-1.747-.114-.03.46ZM38.273 6.1l-.266 4.035.49.033.266-4.036-.49-.032ZM43.629 6.691l-.984 3.923.477.12.983-3.924-.476-.119Zm.151.514.801.201c.254.064.444.177.57.34.131.16.166.361.105.604-.06.239-.186.4-.377.483-.188.084-.409.094-.663.03l-.801-.2-.113.448.802.2c.254.064.491.074.713.03a1.14 1.14 0 0 0 .916-.872c.06-.243.053-.467-.023-.672a1.155 1.155 0 0 0-.375-.523 1.567 1.567 0 0 0-.641-.316l-.802-.2-.112.447ZM47.44 7.703l-1.506 3.753.456.183 1.505-3.753-.456-.183Zm-.38 4.205c.364.146.72.197 1.065.153.346-.044.655-.173.927-.387a2.11 2.11 0 0 0 .637-.89c.15-.375.202-.735.153-1.078a1.841 1.841 0 0 0-.4-.926 2.113 2.113 0 0 0-.877-.626l-.874-.35-.183.456.874.35c.211.085.39.196.539.334.15.135.261.29.336.465.077.172.114.36.111.561a1.745 1.745 0 0 1-.135.631c-.087.218-.2.401-.338.55-.138.147-.295.259-.47.334a1.426 1.426 0 0 1-.565.103 1.797 1.797 0 0 1-.617-.136l-.875-.35-.182.455.874.351ZM51.53 9.982l1.578.886.226-.403-1.577-.886-.226.403Zm-.791 1.411 1.526.857.227-.403-1.527-.857-.226.403Zm.781-1.946-1.98 3.526.429.24 1.98-3.526-.429-.24ZM56.087 12.291l-2.578 3.117.379.313 2.577-3.117-.378-.313Zm-.086.53.637.526c.202.167.325.35.368.552.05.2-.006.397-.165.59-.157.19-.34.281-.549.273-.206-.005-.41-.09-.611-.258l-.637-.526-.294.356.636.527c.202.166.412.278.631.334.224.055.44.051.647-.012.213-.064.398-.191.555-.381.16-.193.25-.399.27-.617a1.156 1.156 0 0 0-.113-.633 1.567 1.567 0 0 0-.443-.561l-.637-.527-.295.356ZM59.105 14.87l-2.972 2.743.333.36 2.972-2.743-.333-.36Zm-2.149 3.634c.267.289.565.487.896.596.331.109.666.125 1.004.048.341-.079.66-.255.958-.53.297-.274.497-.577.6-.908.106-.334.118-.67.036-1.008a2.113 2.113 0 0 0-.522-.941l-.639-.692-.36.333.638.692c.154.167.268.345.343.533.077.186.112.374.104.564a1.326 1.326 0 0 1-.14.555c-.09.181-.22.352-.393.511-.173.16-.354.277-.542.35a1.384 1.384 0 0 1-.568.1 1.43 1.43 0 0 1-.554-.148 1.797 1.797 0 0 1-.5-.388l-.639-.692-.36.333.638.692ZM61.775 18.63l1.047 1.474.377-.268-1.048-1.474-.376.268Zm-1.319.937 1.014 1.427.377-.268-1.014-1.427-.377.268Zm1.538-1.426-3.296 2.343.284.4 3.297-2.343-.285-.4ZM64.91 22.68l-3.663 1.713.208.445 3.664-1.713-.208-.445Zm-.303.442.35.748c.11.238.143.456.096.657-.041.202-.175.356-.402.462-.223.105-.428.109-.613.013-.184-.093-.33-.258-.442-.495l-.35-.749-.419.196.35.748c.111.238.254.428.427.573.18.146.376.234.59.266.22.033.442-.002.665-.107.227-.106.396-.253.508-.441.113-.185.17-.392.169-.621.004-.228-.05-.46-.16-.697l-.35-.749-.42.196ZM66.517 26.262l-3.86 1.205.146.469 3.86-1.205-.146-.47Zm-3.5 2.363c.118.375.302.682.555.922.252.24.548.398.886.474a2.11 2.11 0 0 0 1.092-.068c.386-.12.697-.308.932-.563.24-.256.394-.555.465-.896a2.112 2.112 0 0 0-.069-1.074l-.28-.899-.469.146.28.9c.068.216.095.426.082.628a1.328 1.328 0 0 1-.513.995c-.158.126-.35.224-.574.294-.224.07-.437.098-.64.084a1.384 1.384 0 0 1-.555-.153 1.428 1.428 0 0 1-.437-.372 1.798 1.798 0 0 1-.286-.564l-.28-.9-.469.147.28.899ZM67.317 30.827l.312 1.781.455-.08-.312-1.78-.455.08Zm-1.594.279.302 1.724.455-.08-.301-1.724-.456.08Zm2.002-.626-3.983.697.084.484 3.984-.697-.085-.484ZM30.516 30.227v5.748h1.174v-5.748h-1.174Zm.714.994h1.141c.313 0 .559.07.74.213.18.137.27.345.27.624 0 .274-.09.482-.27.624-.181.143-.427.214-.74.214H31.23v.993h1.141c.455 0 .84-.073 1.158-.221a1.65 1.65 0 0 0 .74-.633c.17-.279.254-.604.254-.977 0-.378-.085-.703-.255-.977a1.65 1.65 0 0 0-.739-.632c-.317-.148-.703-.222-1.158-.222H31.23v.994Zm4.448-.994v5.748h1.199v-5.748h-1.2Zm1.954 5.748c.603 0 1.128-.117 1.577-.353a2.578 2.578 0 0 0 1.06-.993c.251-.433.377-.942.377-1.528 0-.586-.126-1.092-.378-1.52a2.562 2.562 0 0 0-1.059-1c-.449-.236-.974-.354-1.577-.354h-1.199v1.067h1.158c.252 0 .49.036.715.107a1.466 1.466 0 0 1 .986.887c.098.225.147.496.147.813 0 .318-.05.591-.148.821-.093.225-.224.41-.394.559-.17.148-.367.257-.591.328a2.53 2.53 0 0 1-.715.099h-1.158v1.067h1.2Zm4.926-4.722h2.57v-1.026h-2.57v1.026Zm0 2.267h2.488v-.977h-2.488v.977Zm-.755-3.293v5.748h1.133v-5.748h-1.133Z" fill="#232323"/><path d="M27.867 43.975h3.245v-.525h-2.095l1.465-1.492c.18-.183.326-.392.44-.624.114-.232.17-.466.17-.703a1.326 1.326 0 0 0-.348-.867 1.302 1.302 0 0 0-.453-.328 1.515 1.515 0 0 0-.657-.132c-.315 0-.587.07-.814.21a1.32 1.32 0 0 0-.513.579 1.962 1.962 0 0 0-.177.86h.558c0-.232.038-.431.112-.598.074-.17.182-.3.322-.387a.934.934 0 0 1 .512-.138.92.92 0 0 1 .375.072.84.84 0 0 1 .276.19.796.796 0 0 1 .236.56c0 .122-.02.24-.059.354-.035.11-.09.219-.164.328a2.66 2.66 0 0 1-.256.322l-2.175 2.32Zm4.778-.722-.578 1.701.381.138.723-1.642-.526-.197Zm4.688-.789c0-.306-.059-.576-.177-.808a1.351 1.351 0 0 0-.493-.545 1.278 1.278 0 0 0-.702-.197c-.114 0-.23.015-.349.046a1.416 1.416 0 0 0-.335.125l.309-1.216h1.734v-.492h-2.168l-.604 2.45a3.15 3.15 0 0 1 .414-.25c.122-.06.243-.102.361-.124.123-.027.257-.04.401-.04.197 0 .372.044.526.132.157.087.28.21.367.367.092.158.138.342.138.552 0 .21-.041.395-.124.552a.856.856 0 0 1-.349.368c-.153.088-.339.132-.558.132-.166 0-.326-.036-.48-.106a1.576 1.576 0 0 1-.407-.282 1.68 1.68 0 0 1-.276-.375l-.473.322c.1.175.224.337.368.486.149.145.326.261.532.349.21.087.456.131.736.131.223 0 .431-.033.624-.098.193-.066.364-.165.513-.296.148-.131.265-.296.348-.493.083-.197.124-.427.124-.69Zm5.994 1.511h.591l-.788-3.252-.296.854.493 2.398Zm-1.577-.453.197.657 1.248-2.404-.065-1.052-1.38 2.799Zm.197.657.197-.657-1.36-2.799-.065 1.052 1.228 2.404Zm-1.951-.204h.591l.493-2.398-.296-.854-.788 3.252Zm5.948-2.595c.197 0 .372.046.526.138.157.092.28.221.368.388.092.162.138.348.138.558 0 .21-.046.397-.138.559a1.01 1.01 0 0 1-.368.387 1.002 1.002 0 0 1-.526.138c-.197 0-.374-.046-.532-.138a1.079 1.079 0 0 1-.506-.946l-.525-.394c0 .434.068.797.203 1.09.14.294.329.515.565.664.237.145.502.217.795.217.298 0 .563-.068.795-.204.237-.135.423-.322.559-.558.14-.24.21-.513.21-.815 0-.306-.07-.578-.21-.814a1.486 1.486 0 0 0-.559-.559 1.545 1.545 0 0 0-.795-.203v.492Zm-1.274 1.084h.236c0-.175.03-.328.092-.46.066-.135.149-.25.25-.341.105-.092.219-.162.341-.21a.968.968 0 0 1 .355-.073v-.492a1.2 1.2 0 0 0-.519.111c-.153.07-.287.173-.4.31a1.425 1.425 0 0 0-.263.498 2.165 2.165 0 0 0-.092.657Zm-.29-.394.46.348v-.676c0-.22.029-.438.086-.657.057-.224.16-.423.309-.598a1.39 1.39 0 0 1 .637-.394c.24-.08.455-.178.644-.296.192-.118.348-.256.466-.414.118-.162.188-.34.21-.532h-.519a.873.873 0 0 1-.269.453c-.145.14-.366.261-.664.362-.35.118-.626.289-.827.512a1.845 1.845 0 0 0-.414.802 4.521 4.521 0 0 0-.118 1.09Z" fill="#858585"/></svg>